<?xml version="1.0" standalone="no"?>
<!DOCTYPE svg PUBLIC "-//W3C//DTD SVG 1.1//EN" "http://www.w3.org/Graphics/SVG/1.1/DTD/svg11.dtd" >
<svg>
<metadata>
Created by FontForge 20090914 at Fri Jun 19 12:07:17 2015
 By www-data
Copyright (c) 2011, Pablo Impallari (www.impallari.com|impallari@gmail.com),Copyright (c) 2011, Igino Marini. (www.ikern.com|mail@iginomarini.com),Copyright (c) 2011, Brenda Gallo. (gbrenda1987@gmail.com),with Reserved Font Name Quattrocento.
</metadata>
<defs>
<font id="Quattrocento-Bold" horiz-adv-x="699" >
  <font-face 
    font-family="Quattrocento"
    font-weight="700"
    font-stretch="normal"
    units-per-em="1000"
    panose-1="2 2 8 2 3 0 0 0 4 4"
    ascent="800"
    descent="-200"
    x-height="459.001"
    cap-height="660"
    bbox="-35 -260.002 1159 852.999"
    underline-thickness="48"
    underline-position="-47"
    unicode-range="U+000D-U+FB02"
  />
<missing-glyph horiz-adv-x="266" 
d="M45 243c0 11.333 2.16602 22.333 6.49902 33s10.5 20.167 18.5 28.5s17.333 15 28 20s22.334 7.5 35.001 7.5c11.333 0 22.333 -2.5 33 -7.5s20 -11.667 28 -20s14.5 -17.833 19.5 -28.5s7.5 -21.667 7.5 -33c0 -25.333 -9 -46.166 -27 -62.499s-38.333 -24.5 -61 -24.5
c-25.333 0 -46.333 8.16699 -63 24.5s-25 37.166 -25 62.499z" />
    <glyph glyph-name="f_i" unicode="fi" horiz-adv-x="644" 
d="M626 -4c-5.33301 0 -12.6582 0.341797 -21.9912 1.00879s-19 1.16699 -29 1.5l-29.5 1c-9.66699 0.333008 -16.834 0.5 -21.501 0.5h-54c-4.66699 0 -11.834 -0.166992 -21.501 -0.5l-30 -1c-10.333 -0.333008 -20.333 -0.833008 -30 -1.5s-16.834 -1 -21.501 -1l-1 4
l2 34l3 4c10.667 0 21.167 0.5 31.5 1.5s18.166 4.16699 23.499 9.5c5.33301 4.66699 8.83301 10.667 10.5 18s3.16699 17.666 4.5 30.999l2 32.5c0.666992 11 1 28.5 1 52.5v73v35.5c0 9.66699 -0.166992 18.167 -0.5 25.5s-0.666016 14 -0.999023 20
s-0.833008 12.333 -1.5 19c-0.666992 2 -1.5 4.66699 -2.5 8s-3 6.33301 -6 9s-7.5 5 -13.5 7s-14 3 -24 3h-180v-135v-58.5c0 -15.667 0.166992 -29 0.5 -40s0.833008 -20.333 1.5 -28l2 -23.5c1.33301 -10 2.66602 -19.5 3.99902 -28.5s5 -15.833 11 -20.5
c3.33301 -2.66699 8.33301 -4.83398 15 -6.50098s13.5 -2.83398 20.5 -3.50098s13.667 -1 20 -1h15.5l5 -5l2 -33l-2 -4c-4.66699 0 -12.167 0.333008 -22.5 1s-21.166 1.16699 -32.499 1.5l-32.5 1c-10.333 0.333008 -17.833 0.5 -22.5 0.5h-64
c-4.66699 0 -11.834 -0.166992 -21.501 -0.5s-19.834 -0.666016 -30.501 -0.999023s-20.834 -0.833008 -30.501 -1.5s-16.834 -1 -21.501 -1l-1 4l2 34l3 4c10 0 20.333 0.5 31 1.5s18.667 4.16699 24 9.5c4.66699 3.33301 8.16699 7.83301 10.5 13.5s4 14.667 5 27
s1.66699 29 2 50s0.5 49.167 0.5 84.5v159h-74l-4 5v48l4 4l74 15v31c0 39.333 4 75 12 107s20.667 59.167 38 81.5s40 39.666 68 51.999s62 18.5 102 18.5c34 0 65.667 -3.83301 95 -11.5s54 -17.5 74 -29.5l5 -10l-12 -97h-46
c-5.33301 21.333 -16.833 38.166 -34.5 50.499s-46.5 18.5 -86.5 18.5c-22.667 0 -41 -3.66699 -55 -11s-25 -17 -33 -29s-13.5 -26 -16.5 -42s-4.5 -32.333 -4.5 -49v-80c79.333 0 146 0.666992 200 2s100 3.66602 138 6.99902l6 -9
c-1.33301 -2.66699 -2.5 -7.33398 -3.5 -14.001s-1.66699 -13.834 -2 -21.501l-1 -22.5c-0.333008 -7.33301 -0.5 -13 -0.5 -17c0 -5.33301 -0.166992 -10.5 -0.5 -15.5s-0.5 -10.833 -0.5 -17.5s-0.166992 -14.667 -0.5 -24s-0.5 -21.333 -0.5 -36v-92
c0 -14.667 0.166992 -26.667 0.5 -36s0.666016 -17.333 0.999023 -24s0.666016 -12.834 0.999023 -18.501s0.833008 -11.834 1.5 -18.501c1.33301 -14 2.83301 -24.5 4.5 -31.5s5.16699 -12.833 10.5 -17.5c5.33301 -5.33301 12.833 -8.5 22.5 -9.5s19.5 -1.5 29.5 -1.5
l5 -5l2 -33z" />
    <glyph glyph-name="f_l" unicode="fl" horiz-adv-x="647" 
d="M445 600c0 24.667 -9.98633 41.8301 -29.9863 51.4971s-48 14.5 -84 14.5c-26.667 0 -47.667 -3.66699 -63 -11s-27 -17 -35 -29s-13 -26 -15 -42s-3 -32.333 -3 -49v-80l127 6l5 -4v-69l-5 -5h-127v-105v-70.5c0 -19 0.166992 -35 0.5 -48s0.833008 -24.167 1.5 -33.5
l2 -28c1.33301 -10 2.83301 -19.667 4.5 -29s5.16699 -16 10.5 -20c3.33301 -2.66699 8.16602 -4.66699 14.499 -6s13 -2.33301 20 -3s13.833 -1.16699 20.5 -1.5s12 -0.5 16 -0.5l5 -5l2 -33l-2 -4c-5.33301 0 -13 0.333008 -23 1s-20.667 1.16699 -32 1.5l-32.5 1
c-10.333 0.333008 -17.833 0.5 -22.5 0.5h-64c-4.66699 0 -11.834 -0.166992 -21.501 -0.5s-19.834 -0.666016 -30.501 -0.999023s-20.834 -0.833008 -30.501 -1.5s-16.834 -1 -21.501 -1l-1 4l2 34l3 4c10 0 20.333 0.5 31 1.5s18.667 4.16699 24 9.5
c4.66699 4 8.16699 9.16699 10.5 15.5s4 16.833 5 31.5s1.66699 34.334 2 59.001s0.5 57.667 0.5 99v129h-74l-4 5v48l4 4l74 15v31c0 39.333 4 75 12 107s21 59.167 39 81.5s41.667 39.666 71 51.999s65 18.5 107 18.5c27.333 0 52.166 -2.16699 74.499 -6.5
s44.166 -6.5 65.499 -6.5h9c3.33301 0 7.83301 0.333008 13.5 1l21.5 2.5c8.66699 1 19.667 2.5 33 4.5l6 -19c-1.33301 -2.66699 -2.33301 -7.5 -3 -14.5s-1.33398 -14.5 -2.00098 -22.5s-1.16699 -15.667 -1.5 -23s-0.5 -13 -0.5 -17
c-0.666992 -10.667 -1.16699 -20.667 -1.5 -30s-0.666016 -20.333 -0.999023 -33s-0.5 -28 -0.5 -46v-69v-188v-69c0 -18 0.333008 -33.333 1 -46s1.16699 -23.667 1.5 -33s1.16602 -20 2.49902 -32c1.33301 -14.667 2.66602 -25.5 3.99902 -32.5
s4.66602 -12.5 9.99902 -16.5c5.33301 -4.66699 12.833 -7.66699 22.5 -9s19.5 -2 29.5 -2l5 -5l2 -33l-2 -4c-5.33301 0 -12.666 0.333008 -21.999 1s-19 1.16699 -29 1.5l-29.5 1c-9.66699 0.333008 -16.834 0.5 -21.501 0.5h-54
c-4.66699 0 -11.834 -0.166992 -21.501 -0.5l-30 -1c-10.333 -0.333008 -20.333 -0.833008 -30 -1.5s-16.834 -1 -21.501 -1l-1 4l2 34l3 4c10.667 0 21.167 0.5 31.5 1.5s18.166 4.16699 23.499 9.5c4.66699 4.66699 8 10.667 10 18s3.66699 17.666 5 30.999
c0.666992 8.66699 1.16699 17.334 1.5 26.001s0.666016 18.834 0.999023 30.501s0.5 25.334 0.5 41.001v58.5v346z" />
    <glyph glyph-name=".notdef" horiz-adv-x="266" 
d="M45 243c0 11.333 2.16602 22.333 6.49902 33s10.5 20.167 18.5 28.5s17.333 15 28 20s22.334 7.5 35.001 7.5c11.333 0 22.333 -2.5 33 -7.5s20 -11.667 28 -20s14.5 -17.833 19.5 -28.5s7.5 -21.667 7.5 -33c0 -25.333 -9 -46.166 -27 -62.499s-38.333 -24.5 -61 -24.5
c-25.333 0 -46.333 8.16699 -63 24.5s-25 37.166 -25 62.499z" />
    <glyph glyph-name="NULL" horiz-adv-x="0" 
 />
    <glyph glyph-name="NULL" horiz-adv-x="0" 
 />
    <glyph glyph-name="nonmarkingreturn" unicode="&#xd;" horiz-adv-x="253" 
 />
    <glyph glyph-name="space" unicode=" " horiz-adv-x="240" 
 />
    <glyph glyph-name="exclam" unicode="!" horiz-adv-x="268" 
d="M196 683c0 -6 -0.166992 -11.5029 -0.5 -16.5029s-0.5 -9.16699 -0.5 -12.5c0 -7.33301 -0.333008 -14.666 -1 -21.999s-1.5 -17.166 -2.5 -29.499s-2.16699 -28.666 -3.5 -48.999s-2.83301 -47.166 -4.5 -80.499s-3.33398 -74.5 -5.00098 -123.5
s-3.5 -108.167 -5.5 -177.5l-5 -7l-75 -26l-6 4c-1.33301 66 -2.83301 123.167 -4.5 171.5s-3.16699 89.666 -4.5 123.999s-2.66602 63 -3.99902 86s-2.66602 42 -3.99902 57s-2.33301 27 -3 36s-1.33398 16.833 -2.00098 23.5l4 9l122 36zM66 52.9971
c0 8 1.66504 16.002 4.99805 24.002s8 15.167 14 21.5s12.833 11.333 20.5 15s15.834 5.5 24.501 5.5c16.667 0 31.834 -6.83301 45.501 -20.5s20.5 -28.834 20.5 -45.501c0 -8.66699 -1.83301 -16.834 -5.5 -24.501s-8.66699 -14.5 -15 -20.5s-13.5 -10.667 -21.5 -14
s-16 -5 -24 -5c-17.333 0 -32.333 6.33301 -45 19s-19 27.667 -19 45z" />
    <glyph glyph-name="quotedbl" unicode="&#x22;" horiz-adv-x="340" 
d="M69 516l-1.99902 5c-0.666992 32 -1.83398 64.833 -3.50098 98.5s-4.5 66.167 -8.5 97.5l1 4l97 9l2 -4c-4 -28.667 -7 -60 -9 -94s-3 -68 -3 -102l-2 -4zM202.001 516l-1.99902 5c-0.666992 32 -1.83398 64.833 -3.50098 98.5s-4.5 66.167 -8.5 97.5l2 4l96 9l2 -4
c-4 -28.667 -7 -60 -9 -94s-3 -68 -3 -102l-2 -4z" />
    <glyph glyph-name="numbersign" unicode="#" horiz-adv-x="625" 
d="M276 4c10 30 19.665 62.333 28.998 97s18 70 26 106h-94c-7.33301 -36 -13.5 -71.333 -18.5 -106s-9.16699 -67 -12.5 -97l-3 -4h-116l-1 4c10 30 19.667 62.333 29 97s18 70 26 106h-100l15 83h103l19 89h-108l15 82h110c6.66699 30 12.334 61.833 17.001 95.5
s8.66699 64.834 12 93.501l2 4h116l2 -4c-10.667 -28.667 -20.5 -59.834 -29.5 -93.501s-16.833 -65.5 -23.5 -95.5h94c6.66699 30 12.334 61.833 17.001 95.5s8.66699 64.834 12 93.501l2 4h116l2 -4c-10.667 -28.667 -20.5 -59.834 -29.5 -93.501
s-16.833 -65.5 -23.5 -95.5h106l-15 -82h-108l-19 -89h111l-15 -83h-114c-7.33301 -36 -13.5 -71.333 -18.5 -106s-9.16699 -67 -12.5 -97l-3 -4h-116zM254.998 290h94l19 89h-95z" />
    <glyph glyph-name="dollar" unicode="$" horiz-adv-x="535" 
d="M173 509c0 -27.333 11.502 -49.333 34.502 -66s59.833 -33.667 110.5 -51c22.667 -8 44.667 -17.833 66 -29.5s40.333 -26 57 -43s30.167 -37.333 40.5 -61s15.5 -51.167 15.5 -82.5c0 -27.333 -5.16699 -51.166 -15.5 -71.499s-23.833 -37.5 -40.5 -51.5
s-35.5 -25 -56.5 -33s-42.167 -13.667 -63.5 -17l4 -57.5c1.33301 -19 3.33301 -37.5 6 -55.5l-2 -4h-116l-1 4c2 17.333 3.5 35.5 4.5 54.5s2.16699 38.167 3.5 57.5c-34 3.33301 -64.167 9.16602 -90.5 17.499s-52.5 18.166 -78.5 29.499l-4 13l17 127h45l5 -6
c3.33301 -37.333 16.166 -64.666 38.499 -81.999s55.833 -26 100.5 -26c45.333 0 77.833 8.33301 97.5 25s29.5 37.667 29.5 63c0 20 -4 37 -12 51s-18.5 25.833 -31.5 35.5s-27.833 18 -44.5 25s-34 13.5 -52 19.5c-26.667 10 -51 20.667 -73 32s-41 24.666 -57 39.999
s-28.333 33.5 -37 54.5s-13 45.833 -13 74.5c0 25.333 4 47.5 12 66.5s19.333 34.833 34 47.5s31.834 22.667 51.501 30s41.167 12.333 64.5 15l-4 57c-1.33301 18.667 -3.33301 36.334 -6 53.001l1 4h116l2 -4c-4.66699 -34 -7.66699 -71 -9 -111
c25.333 -2.66699 47.666 -7 66.999 -13s38 -13 56 -21l4 -11l-14 -99h-48l-5 5c-1.33301 14 -5.5 25.333 -12.5 34s-15.333 15.167 -25 19.5s-19.834 7.33301 -30.501 9s-20.667 2.5 -30 2.5c-40 0 -68.5 -6 -85.5 -18s-25.5 -29.333 -25.5 -52z" />
    <glyph glyph-name="percent" unicode="%" horiz-adv-x="835" 
d="M195 660c24.667 0 46.501 -4.66699 65.501 -14s35.167 -22.333 48.5 -39s23.5 -36 30.5 -58s10.5 -46 10.5 -72c0 -25.333 -3.33301 -49.166 -10 -71.499s-16.667 -42 -30 -59s-29.833 -30.333 -49.5 -40s-42.5 -14.5 -68.5 -14.5c-25.333 0 -47.333 4.66699 -66 14
s-34.5 22 -47.5 38s-22.667 35 -29 57s-9.5 46 -9.5 72c0 27.333 3.5 52.5 10.5 75.5s17.167 42.667 30.5 59s29.666 29.166 48.999 38.499s41 14 65 14zM195.001 350c24 0 43.168 11.667 57.501 35s21.5 54 21.5 92c0 38.667 -7.33301 69.167 -22 91.5
s-34.334 33.5 -59.001 33.5c-24 0 -42.833 -11 -56.5 -33s-20.5 -52.667 -20.5 -92c0 -43.333 7.66699 -75.333 23 -96s34 -31 56 -31zM641.002 369c24.667 0 46.501 -4.66699 65.501 -14s35.167 -22.333 48.5 -39s23.5 -36 30.5 -58s10.5 -46 10.5 -72
c0 -25.333 -3.33301 -49.166 -10 -71.499s-16.667 -42 -30 -59s-29.833 -30.333 -49.5 -40s-42.5 -14.5 -68.5 -14.5c-25.333 0 -47.333 4.66699 -66 14s-34.5 22 -47.5 38s-22.667 35 -29 57s-9.5 46 -9.5 72c0 27.333 3.5 52.5 10.5 75.5s17.167 42.667 30.5 59
s29.666 29.166 48.999 38.499s41 14 65 14zM641.003 59c24 0 43.168 11.667 57.501 35s21.5 54 21.5 92c0 38.667 -7.33301 69.167 -22 91.5s-34.334 33.5 -59.001 33.5c-24 0 -42.833 -11 -56.5 -33s-20.5 -52.667 -20.5 -92c0 -43.333 7.66699 -75.333 23 -96
s34 -31 56 -31zM132.004 23l51.999 63l47.5 60l47 62l50.5 70l120 165l77 107c26.667 37.333 51.667 77 75 119l5 4h116l-1 -4c-33.333 -37.333 -63.166 -73.5 -89.499 -108.5l-73.5 -99.5l-133 -183l-50 -70l-43.5 -62l-39.5 -60l-40 -63l-5 -4h-116z" />
    <glyph glyph-name="ampersand" unicode="&#x26;" horiz-adv-x="742" 
d="M469 233c0 18 -2.66895 36.833 -8.00195 56.5s-12.666 36.167 -21.999 49.5c-12.667 -1.33301 -21.667 -4 -27 -8s-10.666 -9.33301 -15.999 -16l-14 22c0 6 2 14 6 24s10 20 18 30s17.833 18.667 29.5 26s25.5 11 41.5 11c6 0 14.333 -0.5 25 -1.5s22.5 -2 35.5 -3
s26.5 -1.83301 40.5 -2.5s27.667 -1 41 -1c12.667 0 24.667 0.5 36 1.5s21.333 4.16699 30 9.5l13 -23c0 -2 -1.66699 -7.16699 -5 -15.5s-8.5 -17 -15.5 -26s-16.167 -17.167 -27.5 -24.5s-25.333 -11 -42 -11c-6.66699 0 -17.334 0.5 -32.001 1.5s-29.667 2.16699 -45 3.5
c4.66699 -12 9 -25.667 13 -41s6 -29.666 6 -42.999c0 -22 -2 -43 -6 -63s-9.33301 -39 -16 -57c23.333 -26 46.333 -46.333 69 -61s50.667 -23 84 -25l5 -5l3 -43l-3 -4c-6.66699 0 -15.167 -0.166992 -25.5 -0.5s-20.833 -0.833008 -31.5 -1.5
s-20.334 -1.16699 -29.001 -1.5s-15 -0.5 -19 -0.5c-20 0 -39.667 6.33301 -59 19s-37.666 27.667 -54.999 45c-25.333 -20.667 -54.333 -36.5 -87 -47.5s-67 -16.5 -103 -16.5c-29.333 0 -57.666 3.83301 -84.999 11.5s-51.666 19.167 -72.999 34.5s-38.333 34.333 -51 57
s-19 49 -19 79c0 20 3 40 9 60s14.5 38.833 25.5 56.5s24.667 33.667 41 48s34.833 25.5 55.5 33.5c-21.333 28 -37 52.5 -47 73.5s-15 44.167 -15 69.5c0 23.333 4 44.333 12 63s19 34.5 33 47.5s30.5 22.833 49.5 29.5s39.5 10 61.5 10c14.667 0 29.667 -1.66699 45 -5
s29.666 -9 42.999 -17s24.833 -18.333 34.5 -31s16.167 -28 19.5 -46l3 -10l-12 -71h-53l-4 4c-3.33301 35.333 -10.333 60 -21 74s-27 21 -49 21c-19.333 0 -34.833 -5.83301 -46.5 -17.5s-17.5 -24.5 -17.5 -38.5c0 -12.667 2 -24.834 6 -36.501s8.66699 -23.167 14 -34.5
c4.66699 -10 11.667 -21.833 21 -35.5s22.5 -30.667 39.5 -51s38.667 -45 65 -74l97.5 -106.5c6.66699 14 10 29 10 45zM403.998 121l-80.9971 86.998c-27.333 28.667 -55.333 59.667 -84 93c-24.667 -8 -43.834 -22.333 -57.501 -43s-20.5 -46 -20.5 -76
c0 -17.333 3.83301 -32.666 11.5 -45.999s17.5 -24.666 29.5 -33.999s25.667 -16.333 41 -21s30.666 -7 45.999 -7c20.667 0 41.167 4 61.5 12s38.166 19.667 53.499 35z" />
    <glyph glyph-name="quotesingle" unicode="'" horiz-adv-x="207" 
d="M69 516l-1.99902 5c-0.666992 32 -1.83398 64.833 -3.50098 98.5s-4.5 66.167 -8.5 97.5l1 4l97 9l2 -4c-4 -28.667 -7 -60 -9 -94s-3 -68 -3 -102l-2 -4z" />
    <glyph glyph-name="parenleft" unicode="(" horiz-adv-x="309" 
d="M286 740l-0.00292969 -5.00098c-25.333 -32 -47.166 -65.5 -65.499 -100.5s-32.166 -72.167 -41.499 -111.5c-9.33301 -36.667 -15 -72.167 -17 -106.5s-3 -64.166 -3 -89.499c0 -26 1 -54.667 3 -86s7.33301 -64.5 16 -99.5s21.334 -71.333 38.001 -109
s40 -75.5 70 -113.5v-5l-45 -31c-64 57.333 -113.667 124.333 -149 201s-53 157.667 -53 243s17.667 166 53 242s85 143.333 149 202z" />
    <glyph glyph-name="parenright" unicode=")" horiz-adv-x="309" 
d="M68 771c64 -58.667 113.664 -125.999 148.997 -201.999s53 -156.667 53 -242s-17.667 -166.333 -53 -243s-85 -143.667 -149 -201l-45 31v5c30 38 53.333 75.833 70 113.5s29.334 74 38.001 109s14 68.167 16 99.5s3 60 3 86c0 25.333 -1 55.166 -3 89.499
s-7.66699 69.833 -17 106.5c-9.33301 39.333 -23.166 76.5 -41.499 111.5s-40.166 68.5 -65.499 100.5v5z" />
    <glyph glyph-name="asterisk" unicode="*" horiz-adv-x="450" 
d="M393 492c-11.333 -14.667 -20.166 -27.166 -26.499 -37.499s-12.166 -23.166 -17.499 -38.499c-1.33301 0 -2.66602 -0.333008 -3.99902 -1s-2.66602 -1 -3.99902 -1c-14 14 -27.667 26.833 -41 38.5s-30.333 25.5 -51 41.5c2 -17.333 4 -32 6 -44s4 -22.333 6 -31
s4.16699 -16.5 6.5 -23.5s4.5 -14.167 6.5 -21.5l-7 -5c-10.667 0.666992 -18.334 1 -23.001 1h-21h-21.5c-6.33301 0 -14.5 -0.333008 -24.5 -1l-5 5l7.5 26.5c2.33301 8.33301 4.5 17.333 6.5 27s3.83301 20 5.5 31s3.83398 23.833 6.50098 38.5l-29 -25
c-8 -6.66699 -15 -13 -21 -19l-17.5 -17.5c-5.66699 -5.66699 -11.5 -11.834 -17.5 -18.501c-1.33301 0 -3 0.166992 -5 0.5s-3.66699 0.5 -5 0.5c-7.33301 14 -14 26.167 -20 36.5s-14.667 22.166 -26 35.499c0 1.33301 0.5 3.33301 1.5 6s1.5 4.66699 1.5 6
c21.333 5.33301 40.833 10.833 58.5 16.5s36.167 12.167 55.5 19.5c-14 4.66699 -25.167 8.66699 -33.5 12s-16 6.16602 -23 8.49902s-14.167 4.5 -21.5 6.5s-17 4.33301 -29 7l-8 12l28 34c7.33301 9.33301 14.333 21 21 35l13 -1
c2.66699 -3.33301 5.66699 -6.66602 9 -9.99902l13 -13c5.33301 -5.33301 12.5 -12 21.5 -20l34.5 -31c-4 23.333 -7.5 43 -10.5 59s-7.83301 35 -14.5 57l5 10c9.33301 -1.33301 16.666 -2 21.999 -2h23h22.5c6.33301 0 13.166 0.666992 20.499 2
c1.33301 -1.33301 2.16602 -3 2.49902 -5s1.16602 -4 2.49902 -6c-5.33301 -19.333 -9.83301 -37.5 -13.5 -54.5s-7.16699 -36.833 -10.5 -59.5l46.5 41c11.667 10.667 23.834 23 36.501 37c3.33301 -0.666992 5.66602 -1.16699 6.99902 -1.5s2.66602 -0.5 3.99902 -0.5
l19 -33c6 -10 14.667 -22 26 -36c-0.666992 -1.33301 -1.5 -3.5 -2.5 -6.5s-1.5 -4.83301 -1.5 -5.5c-22 -6 -41 -11.5 -57 -16.5s-34.333 -11.5 -55 -19.5c12 -4 22.5 -7.66699 31.5 -11l26.5 -9.5c8.66699 -3 17.834 -6 27.501 -9s21.167 -5.83301 34.5 -8.5z" />
    <glyph glyph-name="plus" unicode="+" horiz-adv-x="488" 
d="M290 280h152l-10 -82h-142v-157h-92v157h-151l9 82h142v147h92v-147z" />
    <glyph glyph-name="comma" unicode="," horiz-adv-x="244" 
d="M69 -117l-16.001 11l-2 14c7.33301 16.667 13 34.5 17 53.5s6 32.167 6 39.5c0 10.667 -2.66699 21.167 -8 31.5s-8 22.833 -8 37.5c0 8 2.83301 15 8.5 21s12.667 11 21 15s17.333 7 27 9s18.834 3 27.501 3s15.667 -2 21 -6s9.5 -8.66699 12.5 -14s4.83301 -11 5.5 -17
s1 -11.333 1 -16c0 -18 -3.66699 -36.833 -11 -56.5s-16.333 -38.167 -27 -55.5s-21.5 -32.333 -32.5 -45s-20.5 -21 -28.5 -25h-14z" />
    <glyph glyph-name="hyphen" unicode="-" horiz-adv-x="468" 
d="M406 280l-16 -82h-328l15 82h329z" />
    <glyph glyph-name="period" unicode="." horiz-adv-x="244" 
d="M57 53c0 8 1.66504 16.002 4.99805 24.002s8 15.167 14 21.5s12.833 11.333 20.5 15s15.834 5.5 24.501 5.5c16.667 0 31.834 -6.83301 45.501 -20.5s20.5 -28.834 20.5 -45.501c0 -8.66699 -1.83301 -16.834 -5.5 -24.501s-8.66699 -14.5 -15 -20.5
s-13.5 -10.667 -21.5 -14s-16 -5 -24 -5c-17.333 0 -32.333 6.33301 -45 19s-19 27.667 -19 45z" />
    <glyph glyph-name="slash" unicode="/" horiz-adv-x="463" 
d="M34 -53c22 44.667 43.333 93.667 64 147l58 155l67 184l21 58c8 22 15.833 44.833 23.5 68.5s15 47.5 22 71.5s12.833 46.333 17.5 67l3 4h118l1 -4c-11.333 -20.667 -22 -43 -32 -67l-29 -71.5l-26 -68.5l-21 -58l-68 -184c-18.667 -50 -37 -101.667 -55 -155
s-32.333 -102.333 -43 -147l-3 -4h-118v4z" />
    <glyph glyph-name="zero" unicode="0" horiz-adv-x="638" 
d="M319 665c42 0 79.499 -8.99805 112.499 -26.998s60.833 -42.5 83.5 -73.5s40 -66.833 52 -107.5s18 -83.334 18 -128.001c0 -44 -5.83301 -86.5 -17.5 -127.5s-28.834 -77.167 -51.501 -108.5s-51 -56.5 -85 -75.5s-73 -28.5 -117 -28.5c-43.333 0 -81.166 9 -113.499 27
s-59.333 42.167 -81 72.5s-38 65.666 -49 105.999s-16.5 82.833 -16.5 127.5c0 47.333 6 91.833 18 133.5s29.333 78 52 109s50.334 55.5 83.001 73.5s70 27 112 27zM317.999 72.002c24 0 45.167 6.83398 63.5 20.501s34 32 47 55s22.833 50 29.5 81s10 64.167 10 99.5
c0 36 -3.5 69.5 -10.5 100.5s-17.167 57.833 -30.5 80.5s-29.5 40.5 -48.5 53.5s-40.167 19.5 -63.5 19.5s-43.833 -6.33301 -61.5 -19s-32.5 -30.334 -44.5 -53.001s-21.167 -49.5 -27.5 -80.5s-9.5 -64.5 -9.5 -100.5c0 -40 3.66699 -75.833 11 -107.5
s17.5 -58.5 30.5 -80.5s28.333 -39 46 -51s37.167 -18 58.5 -18z" />
    <glyph glyph-name="one" unicode="1" horiz-adv-x="396" 
d="M43 534l3 6.00195c34.667 17.333 67.334 35 98.001 53s61 41.333 91 70h7l32 -9c-0.666992 -5.33301 -1.16699 -11.5 -1.5 -18.5l-1 -21.5l-1 -21c-0.333008 -6.66699 -0.5 -12 -0.5 -16c-0.666992 -10.667 -1.16699 -20.667 -1.5 -30s-0.666016 -20.333 -0.999023 -33
s-0.5 -28 -0.5 -46v-69v-121v-68.5c0 -17.667 0.166992 -32.5 0.5 -44.5s0.666016 -22.667 0.999023 -32s1.16602 -19.666 2.49902 -30.999c1.33301 -14 4.33301 -24.5 9 -31.5s9.66699 -12.833 15 -17.5c6 -4.66699 15.333 -8.33398 28 -11.001s24 -4 34 -4l5 -5l2 -33
l-2 -4c-4.66699 0 -11.667 0.333008 -21 1s-19.333 1.16699 -30 1.5s-20.667 0.666016 -30 0.999023s-16.333 0.5 -21 0.5h-97c-4.66699 0 -11.667 -0.166992 -21 -0.5s-19.333 -0.666016 -30 -0.999023s-20.667 -0.833008 -30 -1.5s-16.333 -1 -21 -1l-2 4l2 34l3 4
c10.667 0 22.834 1.16699 36.501 3.5s23.167 6.16602 28.5 11.499c5.33301 4.66699 10.333 10.667 15 18s7.66699 17.666 9 30.999l2 25.5c0.666992 8.33301 1.16699 18 1.5 29s0.5 24.167 0.5 39.5v58v143v46c0 12 -0.166992 22 -0.5 30s-0.833008 15 -1.5 21
s-1.33398 12.667 -2.00098 20l-107 -27l-3 4v43z" />
    <glyph glyph-name="two" unicode="2" horiz-adv-x="564" 
d="M64 536l3.00195 9.00391c8.66699 15.333 19.834 30.166 33.501 44.499s29.667 27.166 48 38.499s39.333 20.333 63 27s50.5 10 80.5 10c70 0 120.333 -15.5 151 -46.5s46 -72.833 46 -125.5c0 -31.333 -7.5 -60 -22.5 -86s-33.5 -54 -55.5 -84
c-16.667 -22 -36.334 -45.833 -59.001 -71.5l-64.5 -73c-20.333 -23 -37.666 -43.333 -51.999 -61s-21.5 -29.834 -21.5 -36.501l2 -3h58c38 0 68.333 0.5 91 1.5s40.5 3.66699 53.5 8s22.333 11.166 28 20.499s10.834 22.333 15.501 39l5 6h47l-18 -149l-9 -10
c-4.66699 0 -16.334 0.333008 -35.001 1s-39 1.33398 -61 2.00098l-64 2c-20.667 0.666992 -35.667 1 -45 1h-99c-19.333 0 -41 -0.666992 -65 -2s-46.667 -2.66602 -68 -3.99902l-10 21v23c14 18 33 40.833 57 68.5l76.5 88l80 93.5
c26.333 31.333 49.166 59.666 68.499 84.999c17.333 23.333 30.666 45.166 39.999 65.499s14 42.5 14 66.5s-8.83301 42.833 -26.5 56.5s-38.834 20.5 -63.501 20.5c-46.667 0 -84.667 -11.167 -114 -33.5s-45.333 -55.833 -48 -100.5l-4 -4h-44z" />
    <glyph glyph-name="three" unicode="3" horiz-adv-x="547" 
d="M118 167c0.666992 -12 4.16699 -23.6611 10.5 -34.9941s15.666 -21.5 27.999 -30.5s27.333 -16.167 45 -21.5s38.167 -8 61.5 -8c22.667 0 41.334 3.5 56.001 10.5s26.5 16 35.5 27s15.333 23.167 19 36.5s5.5 26.333 5.5 39c0 15.333 -2.16699 30.666 -6.5 45.999
s-11 29 -20 41s-20.167 21.667 -33.5 29s-29.333 11 -48 11h-32l-5 4l-3 58l5 5h18c12.667 0 25 3.5 37 10.5s22.5 16 31.5 27s16.333 23.5 22 37.5s8.5 27.667 8.5 41c0 23.333 -7.66699 43.833 -23 61.5s-38.666 26.5 -69.999 26.5c-22 0 -40.333 -3 -55 -9
s-26.667 -14.333 -36 -25s-16.5 -23.834 -21.5 -39.501s-8.5 -32.834 -10.5 -51.501l-4 -4h-53l-12 82l2 9c7.33301 14 17 28.167 29 42.5s26.667 27.333 44 39s37.166 21 59.499 28s47.5 10.5 75.5 10.5c22.667 0 45 -3.16699 67 -9.5s41.5 -15.833 58.5 -28.5
s30.833 -28.667 41.5 -48s16 -42 16 -68c0 -20.667 -2.66699 -39.334 -8 -56.001s-12.333 -31.334 -21 -44.001s-18 -23.167 -28 -31.5s-20 -14.5 -30 -18.5v-4c37.333 -7.33301 66.833 -26.666 88.5 -57.999s32.5 -68 32.5 -110c0 -29.333 -5.83301 -56.333 -17.5 -81
s-28 -45.834 -49 -63.501s-46.5 -31.334 -76.5 -41.001s-63 -14.5 -99 -14.5c-90 0 -157 30.333 -201 91l-1 9l11 82h53z" />
    <glyph glyph-name="four" unicode="4" horiz-adv-x="540" 
d="M29 215l-7 40c12 21.333 26 45 42 71l50 80l52.5 81l49 74l40 59c11.667 16.667 20.5 28.667 26.5 36l105 9h8l12 -21c-1.33301 -9.33301 -2.16602 -21 -2.49902 -35s-0.833008 -24.667 -1.5 -32c-0.666992 -10.667 -1.16699 -20.667 -1.5 -30
s-0.666016 -20.333 -0.999023 -33s-0.5 -28 -0.5 -46v-69v-114h85l4 -6l-11 -71l-7 -5h-71v-34.5c0 -9.66699 0.166992 -18.167 0.5 -25.5s0.666016 -14.166 0.999023 -20.499s1.16602 -13.166 2.49902 -20.499c1.33301 -14 4.5 -24.5 9.5 -31.5s10.167 -12.833 15.5 -17.5
s14.5 -8.33398 27.5 -11.001s24.5 -4 34.5 -4l4 -5l2 -33l-2 -4c-4.66699 0 -11.667 0.333008 -21 1s-19.166 1.16699 -29.499 1.5s-20.166 0.666016 -29.499 0.999023s-16.333 0.5 -21 0.5h-96c-4.66699 -0 -12.334 -0.166992 -23.001 -0.5l-33.5 -1
c-11.667 -0.333008 -22.834 -0.833008 -33.501 -1.5s-18.334 -1 -23.001 -1l-1 4l4 34l4 4c5.33301 0 11.5 0.333008 18.5 1s14 1.66699 21 3s13.333 2.83301 19 4.5s9.83398 3.83398 12.501 6.50098c6 4.66699 11.5 10.667 16.5 18s7.5 17.666 7.5 30.999
c1.33301 12.667 2.33301 27 3 43s1 35.333 1 58h-219zM288 541c-9.33301 -10 -21 -25 -35 -45l-44 -66c-15.333 -24 -30.333 -48.667 -45 -74s-27 -49 -37 -71h164v112v35.5c0 13 -0.166992 26 -0.5 39l-1 37.5c-0.333008 12 -0.833008 22.667 -1.5 32z" />
    <glyph glyph-name="five" unicode="5" horiz-adv-x="535" 
d="M376 201c0 22 -3.5 39.8281 -10.5 53.4951s-16 24.5 -27 32.5s-23.5 13.5 -37.5 16.5s-28 4.5 -42 4.5c-24 0 -47.667 -2.66699 -71 -8s-44.666 -13.666 -63.999 -24.999h-10l-37 45l-2 7l32 319l6 8h100c19.333 0 47.333 0.5 84 1.5s79.334 3.16699 128.001 6.5l9 -8
l15 -128l-6 -7h-38l-6 5c-2.66699 12 -5.83398 21.5 -9.50098 28.5s-10.834 12.333 -21.501 16s-26 5.83398 -46 6.50098s-47.333 1 -82 1h-30c-4 0 -6 -1.66699 -6 -5l-20 -194c12.667 6.66699 27.167 11.667 43.5 15s33.166 5 50.499 5
c27.333 0 53.666 -3.16699 78.999 -9.5s47.833 -16.666 67.5 -30.999s35.334 -33.5 47.001 -57.5s17.5 -54 17.5 -90c0 -35.333 -6 -66.666 -18 -93.999s-28.833 -50.333 -50.5 -69s-47.5 -32.834 -77.5 -42.501s-63 -14.5 -99 -14.5c-49.333 0 -89.166 7.33301 -119.499 22
s-55.166 34.334 -74.499 59.001l-1 10l11 91h56l3 -4c1.33301 -27.333 13.166 -50 35.499 -68s55.5 -27 99.5 -27c22.667 0 41.834 3.5 57.501 10.5s28.167 16.5 37.5 28.5s16.166 25.833 20.499 41.5s6.5 31.834 6.5 48.501z" />
    <glyph glyph-name="six" unicode="6" horiz-adv-x="551" 
d="M164 350c12.667 21.333 31.6699 37.3369 57.0029 48.0039s53.666 16 84.999 16c34 0 63.5 -6 88.5 -18s45.667 -28 62 -48s28.5 -42.5 36.5 -67.5s12 -50.5 12 -76.5s-4 -51.667 -12 -77s-20.667 -48.333 -38 -69s-39.833 -37.334 -67.5 -50.001s-61.5 -19 -101.5 -19
c-41.333 0 -76.333 7.33301 -105 22s-51.834 35.334 -69.501 62.001s-30.5 59 -38.5 97s-12 80.667 -12 128c0 26 1.33301 53.167 4 81.5s7.33398 56.166 14.001 83.499s15.5 53.166 26.5 77.499s25.167 45.666 42.5 63.999s37.833 33 61.5 44s51.5 16.5 83.5 16.5
c12 0 25.833 -0.833008 41.5 -2.5s31.667 -4.5 48 -8.5s32.166 -9.33301 47.499 -16s28.333 -14.667 39 -24l-15 -83h-38c-6 9.33301 -13.833 17.333 -23.5 24s-19.834 12 -30.501 16s-21.5 6.83301 -32.5 8.5s-20.833 2.5 -29.5 2.5c-24 0 -45 -5.83301 -63 -17.5
s-32.667 -27.334 -44 -47.001s-19.833 -42.5 -25.5 -68.5s-8.5 -53 -8.5 -81v-8c0 -2.66699 0.333008 -5.66699 1 -9zM284.003 325.004c-36.667 0 -63.835 -10.999 -81.502 -32.999s-26.5 -51 -26.5 -87c0 -15.333 1.66699 -31 5 -47s9.33301 -30.667 18 -44
s19.834 -24.333 33.501 -33s31.167 -13 52.5 -13c36 0 63.333 12 82 36s28 55 28 93c0 14 -1.5 28.5 -4.5 43.5s-8.66699 28.667 -17 41s-19.666 22.666 -33.999 30.999s-32.833 12.5 -55.5 12.5z" />
    <glyph glyph-name="seven" unicode="7" horiz-adv-x="526" 
d="M246 0c-20.667 0 -43.3291 -0.5 -67.9961 -1.5s-49 -2.5 -73 -4.5l-7 10c9.33301 16 22.666 40.167 39.999 72.5l56 107.5l61 123l56 119c16.667 36.667 30.334 68.167 41.001 94.5s16 43.5 16 51.5l-5 4h-115c-33.333 0 -60.333 -0.333008 -81 -1
s-37 -2.83398 -49 -6.50098s-20.667 -9 -26 -16s-9 -16.5 -11 -28.5l-6 -5h-38l-5 7l15 128l8 8c85.333 -4 153.166 -6.33301 203.499 -7s84.166 -1 101.499 -1h157l5 -3l-5 -25c-4.66699 -5.33301 -11.834 -16.666 -21.501 -33.999s-20.5 -38.166 -32.5 -62.499l-39 -81
l-42 -91l-40.5 -90.5l-34.5 -80c-12 -28.667 -22.833 -57.334 -32.5 -86.001s-17.834 -60 -24.501 -94z" />
    <glyph glyph-name="eight" unicode="8" horiz-adv-x="571" 
d="M283 665c28 0 54.1631 -3.49902 78.4961 -10.499s45.5 -17.5 63.5 -31.5s32.167 -31.333 42.5 -52s15.5 -44.334 15.5 -71.001c0 -20 -2.16699 -37.333 -6.5 -52s-10.166 -27.167 -17.499 -37.5s-15.666 -18.833 -24.999 -25.5s-18.666 -12 -27.999 -16l-10 -4
c21.333 -6.66699 39.666 -16.334 54.999 -29.001s27.833 -27 37.5 -43s16.834 -33.333 21.501 -52s7 -37 7 -55c0 -24 -3.83301 -47.833 -11.5 -71.5s-20.5 -44.667 -38.5 -63s-41.833 -33.333 -71.5 -45s-66.5 -17.5 -110.5 -17.5c-43.333 0 -79.666 5.66699 -108.999 17
s-53 26.333 -71 45s-30.833 39.834 -38.5 63.501s-11.5 47.5 -11.5 71.5c0 40.667 9 77.167 27 109.5s46 55.5 84 69.5v4c-20.667 7.33301 -38.667 21.333 -54 42s-23 50.667 -23 90c0 26 4.66699 49.167 14 69.5s22.5 37.5 39.5 51.5s37.5 24.667 61.5 32s50.333 11 79 11z
M283.996 320.001c-21.333 0 -39.1689 -4.50098 -53.502 -13.501s-26 -20.167 -35 -33.5s-15.333 -28.333 -19 -45s-5.5 -32.334 -5.5 -47.001c0 -18 3.33301 -33.833 10 -47.5s15.5 -25 26.5 -34s23.5 -15.667 37.5 -20s28.333 -6.5 43 -6.5c14 0 27.833 2.16699 41.5 6.5
s25.834 11 36.501 20s19.167 20 25.5 33s9.5 28.5 9.5 46.5c0 16 -2.16699 32.333 -6.5 49s-11.166 31.834 -20.499 45.501s-21.333 24.834 -36 33.501s-32.667 13 -54 13zM366.993 504c0 26.667 -8.50098 46.665 -25.501 59.998s-35.833 20 -56.5 20
c-20 0 -38.333 -6.5 -55 -19.5s-25 -32.5 -25 -58.5c0 -35.333 7.33301 -62 22 -80s34.334 -27 59.001 -27c12 0 22.833 2.66699 32.5 8s18.167 12.833 25.5 22.5s13 20.834 17 33.501s6 26.334 6 41.001z" />
    <glyph glyph-name="nine" unicode="9" horiz-adv-x="551" 
d="M387 304c-12.667 -21.333 -31.6699 -37.3369 -57.0029 -48.0039s-53.666 -16 -84.999 -16c-34 0 -63.5 6 -88.5 18s-45.667 28 -62 48s-28.5 42.5 -36.5 67.5s-12 50.5 -12 76.5s4 51.667 12 77s20.667 48.333 38 69s39.833 37.334 67.5 50.001s61.5 19 101.5 19
c41.333 0 76.333 -7.33301 105 -22s51.834 -35.334 69.501 -62.001s30.5 -59.167 38.5 -97.5s12 -80.833 12 -127.5c0 -26 -1.33301 -53.167 -4 -81.5s-7.33398 -56.166 -14.001 -83.499s-15.5 -53.166 -26.5 -77.499s-25.167 -45.666 -42.5 -63.999s-37.833 -33 -61.5 -44
s-51.5 -16.5 -83.5 -16.5c-12 0 -25.833 0.833008 -41.5 2.5s-31.667 4.5 -48 8.5s-32.166 9.33301 -47.499 16s-28.333 14.667 -39 24l15 83h38c6 -9.33301 13.833 -17.333 23.5 -24s19.834 -12 30.501 -16s21.5 -6.83301 32.5 -8.5s20.833 -2.5 29.5 -2.5
c24 0 45 5.83301 63 17.5s32.667 27.334 44 47.001s19.833 42.5 25.5 68.5s8.5 53 8.5 81v8c0 2.66699 -0.333008 5.66699 -1 9zM266.997 328.996c36.667 0 63.834 11 81.501 33s26.5 51 26.5 87c0 14.667 -1.66699 30.167 -5 46.5s-9.33301 31.166 -18 44.499
s-20 24.333 -34 33s-31.333 13 -52 13c-36 0 -63.333 -12 -82 -36s-28 -55 -28 -93c0 -14 1.5 -28.5 4.5 -43.5s8.66699 -28.667 17 -41s19.666 -22.666 33.999 -30.999s32.833 -12.5 55.5 -12.5z" />
    <glyph glyph-name="colon" unicode=":" horiz-adv-x="255" 
d="M63 389c0 8 1.66504 16.002 4.99805 24.002s8 15.167 14 21.5s12.833 11.333 20.5 15s15.834 5.5 24.501 5.5c16.667 0 31.834 -6.83301 45.501 -20.5s20.5 -28.834 20.5 -45.501c0 -8.66699 -1.83301 -16.834 -5.5 -24.501s-8.66699 -14.5 -15 -20.5
s-13.5 -10.667 -21.5 -14s-16 -5 -24 -5c-17.333 0 -32.333 6.33301 -45 19s-19 27.667 -19 45zM62.998 53.002c0 8 1.66504 16.002 4.99805 24.002s8 15.167 14 21.5s12.833 11.333 20.5 15s15.834 5.5 24.501 5.5c16.667 0 31.834 -6.83301 45.501 -20.5
s20.5 -28.834 20.5 -45.501c0 -8.66699 -1.83301 -16.834 -5.5 -24.501s-8.66699 -14.5 -15 -20.5s-13.5 -10.667 -21.5 -14s-16 -5 -24 -5c-17.333 0 -32.333 6.33301 -45 19s-19 27.667 -19 45z" />
    <glyph glyph-name="semicolon" unicode=";" horiz-adv-x="262" 
d="M80 -117l-16.001 11l-2 14c7.33301 16.667 13 34.5 17 53.5s6 32.167 6 39.5c0 10.667 -2.66699 21.167 -8 31.5s-8 22.833 -8 37.5c0 8 2.83301 15 8.5 21s12.667 11 21 15s17.333 7 27 9s18.834 3 27.501 3s15.667 -2 21 -6s9.5 -8.66699 12.5 -14s4.83301 -11 5.5 -17
s1 -11.333 1 -16c0 -18 -3.66699 -36.833 -11 -56.5s-16.333 -38.167 -27 -55.5s-21.5 -32.333 -32.5 -45s-20.5 -21 -28.5 -25h-14zM67.999 389c0 8 1.66504 16.002 4.99805 24.002s8 15.167 14 21.5s12.833 11.333 20.5 15s15.834 5.5 24.501 5.5
c16.667 0 31.834 -6.83301 45.501 -20.5s20.5 -28.834 20.5 -45.501c0 -8.66699 -1.83301 -16.834 -5.5 -24.501s-8.66699 -14.5 -15 -20.5s-13.5 -10.667 -21.5 -14s-16 -5 -24 -5c-17.333 0 -32.333 6.33301 -45 19s-19 27.667 -19 45z" />
    <glyph glyph-name="less" unicode="&#x3c;" horiz-adv-x="413" 
d="M161 238l47 -32.5l43.5 -28l44.5 -27l50 -29.5v-7l-15 -61l-5 -1c-46 34 -93 66.5 -141 97.5s-96 60.5 -144 88.5v5c48 28 96 57.5 144 88.5s95 63.5 141 97.5l5 -1l14 -61v-7c-18 -10 -34.5 -19.667 -49.5 -29l-44 -27.5l-43.5 -28l-47 -32.5v-5z" />
    <glyph glyph-name="equal" unicode="=" horiz-adv-x="486" 
d="M415 356l-16 -82h-328l15 82h329zM415 204l-16 -82h-328l15 82h329z" />
    <glyph glyph-name="greater" unicode="&#x3e;" horiz-adv-x="413" 
d="M252 243l-47 32.5l-43.5 28l-44 27.5c-15 9.33301 -31.5 19 -49.5 29v7l14 61l5 1c46 -34 93 -66.5 141 -97.5s96 -60.5 144 -88.5v-5c-48 -28 -96 -57.5 -144 -88.5s-95 -63.5 -141 -97.5l-5 1l-15 61v7l50 29.5l44.5 27l43.5 28l47 32.5v5z" />
    <glyph glyph-name="question" unicode="?" horiz-adv-x="422" 
d="M226 192l-5.99902 -7l-65 -16l-6 4c-0.666992 13.333 -1.33398 27.666 -2.00098 42.999s-1 26.666 -1 33.999c0 26.667 6.5 51.5 19.5 74.5s27.167 45.833 42.5 68.5s29.5 46 42.5 70s19.5 50.667 19.5 80c0 24.667 -6.66699 42.667 -20 54s-26.666 17 -39.999 17
c-16 0 -30.833 -2.66699 -44.5 -8s-25.5 -12.666 -35.5 -21.999s-18 -20.166 -24 -32.499s-10 -25.5 -12 -39.5l-2 -3h-38l-12 103l2 9c6.66699 11.333 16.5 21 29.5 29s27.5 14.667 43.5 20s32.5 9.33301 49.5 12s32.5 4 46.5 4s30.5 -2.33301 49.5 -7s37 -13 54 -25
s31.333 -28.333 43 -49s17.5 -47 17.5 -79c0 -20.667 -3.5 -40.5 -10.5 -59.5s-15.833 -37.333 -26.5 -55s-22.167 -34.5 -34.5 -50.5l-35 -46.5c-11 -15 -20.333 -29.167 -28 -42.5s-11.834 -26 -12.501 -38zM123.001 53c0 8 1.66504 16.002 4.99805 24.002
s8 15.167 14 21.5s12.833 11.333 20.5 15s15.834 5.5 24.501 5.5c16.667 0 31.834 -6.83301 45.501 -20.5s20.5 -28.834 20.5 -45.501c0 -8.66699 -1.83301 -16.834 -5.5 -24.501s-8.66699 -14.5 -15 -20.5s-13.5 -10.667 -21.5 -14s-16 -5 -24 -5
c-17.333 0 -32.333 6.33301 -45 19s-19 27.667 -19 45z" />
    <glyph glyph-name="at" unicode="@" horiz-adv-x="721" 
d="M417 324c-4 4 -12.332 5.99805 -24.999 5.99805c-15.333 0 -29 -4.16699 -41 -12.5s-22.167 -19 -30.5 -32s-14.833 -27.167 -19.5 -42.5s-7 -29.666 -7 -42.999c0 -15.333 3.66699 -28.166 11 -38.499s14.666 -15.5 21.999 -15.5c8.66699 0 16.5 2.66699 23.5 8
s13.167 12 18.5 20s10 16.833 14 26.5s7 19.167 9 28.5zM573.001 -23.002c-6.66699 -6 -17.165 -13.5059 -31.498 -22.5059s-31.5 -17.667 -51.5 -26s-42.333 -15.333 -67 -21s-50.667 -8.5 -78 -8.5c-40 0 -77.667 6.66699 -113 20s-66.333 32.166 -93 56.499
s-47.834 53.833 -63.501 88.5s-23.5 73.334 -23.5 116.001c0 38 6.83301 78.5 20.5 121.5s34.834 82.833 63.501 119.5s65.167 67 109.5 91s97.166 36 158.499 36c46.667 0 87.167 -7.33301 121.5 -22s62.666 -33.667 84.999 -57s38.833 -49.666 49.5 -78.999s16 -59 16 -89
c0 -29.333 -4.83301 -57.666 -14.5 -84.999s-23.5 -51.5 -41.5 -72.5s-39.5 -37.833 -64.5 -50.5s-52.833 -19 -83.5 -19c-24 0 -42.167 6.83301 -54.5 20.5s-18.5 31.167 -18.5 52.5c-11.333 -22.667 -25.5 -40.667 -42.5 -54s-34.167 -20 -51.5 -20c-10 0 -20 2.5 -30 7.5
s-19 12.5 -27 22.5s-14.5 22.5 -19.5 37.5s-7.5 32.5 -7.5 52.5c0 30 5.66699 57 17 81s26.166 44.5 44.499 61.5s38.833 30.167 61.5 39.5s45.334 14 68.001 14c16 0 33.5 -2.66699 52.5 -8s34.167 -13.666 45.5 -24.999l-34 -148
c-1.33301 -7.33301 -2.33301 -14.166 -3 -20.499s-1 -11.166 -1 -14.499c0 -7.33301 2 -13.833 6 -19.5s11.667 -8.5 23 -8.5s22 4.33301 32 13s18.5 20.167 25.5 34.5s12.5 30.5 16.5 48.5s6 36.667 6 56c0 21.333 -3.33301 42.833 -10 64.5s-17.167 41 -31.5 58
s-32.833 30.833 -55.5 41.5s-49.667 16 -81 16c-41.333 0 -77.833 -8.83301 -109.5 -26.5s-58.167 -40.667 -79.5 -69s-37.5 -60.166 -48.5 -95.499s-16.5 -70.666 -16.5 -105.999c0 -36.667 5.66699 -68.167 17 -94.5s26.5 -48 45.5 -65s40.833 -29.5 65.5 -37.5
s50.667 -12 78 -12s52.833 2.16699 76.5 6.5s45 9.66602 64 15.999s35.5 12.833 49.5 19.5s24.667 12.667 32 18l10 -19z" />
    <glyph glyph-name="A" unicode="A" 
d="M386 665l172 -453.997c6 -16.667 11.333 -30.667 16 -42s8.5 -21 11.5 -29s5.66699 -14.5 8 -19.5l6.5 -13.5c8 -16.667 16.167 -29.5 24.5 -38.5s16.666 -15.667 24.999 -20s16.833 -6.83301 25.5 -7.5s17.334 -1 26.001 -1l5 -4l3 -38l-2 -4
c-4.66699 0 -11.667 0.333008 -21 1l-29 2c-10 0.666992 -19.5 1.33398 -28.5 2.00098s-15.833 1 -20.5 1h-73c-4.66699 0 -12.334 -0.333008 -23.001 -1l-33.5 -2l-33.5 -2c-10.667 -0.666992 -18.334 -1 -23.001 -1l-2 4l3 38l4 4c17.333 0 30.5 2.16699 39.5 6.5
s13.5 16.166 13.5 35.499c0 10.667 -1.83301 25.834 -5.5 45.501s-12.167 44.167 -25.5 73.5l-21 48h-175l-20 -48c-12 -29.333 -21 -54.333 -27 -75s-9 -35.334 -9 -44.001c0 -16 3.33301 -27 10 -33s18.667 -9 36 -9l5 -4l3 -38l-2 -4c-4.66699 0 -12 0.333008 -22 1
l-31.5 2l-31.5 2c-10 0.666992 -17.333 1 -22 1h-59c-4.66699 0 -11.667 -0.333008 -21 -1l-29 -2c-10 -0.666992 -19.5 -1.33398 -28.5 -2.00098s-15.833 -1 -20.5 -1l-1 4l2 38l5 4c8.66699 0 17.334 0.666992 26.001 2s17.334 4.33301 26.001 9s17.167 11.167 25.5 19.5
s16.833 19.166 25.5 32.499l9 18.5c4 8.33301 10.333 23.166 19 44.499l36 91l61 157l86 221l71 30h11zM270 322.003h131l-64 177z" />
    <glyph glyph-name="B" unicode="B" horiz-adv-x="615" 
d="M154 0c-4.66699 0 -12.334 -0.333008 -23.001 -1l-33 -2l-33 -2c-10.667 -0.666992 -18.334 -1 -23.001 -1l-2 4l3 38l5 4c8 0 17.333 0.5 28 1.5s19 3.5 25 7.5c5.33301 4 10.333 10.333 15 19s8 21.667 10 39c0.666992 10 1.16699 25 1.5 45s0.5 49.667 0.5 89v210
v45.5c0 17 -0.666992 33.833 -2 50.5c-1.33301 18 -4.5 31 -9.5 39s-10.167 14 -15.5 18c-6 5.33301 -12.167 8.33301 -18.5 9s-17.833 1 -34.5 1l-5 4l-3 38l2 4c4.66699 0 10.834 -0.333008 18.501 -1l24 -2l25.5 -2c8.66699 -0.666992 16.667 -1 24 -1h76
c7.33301 0 15.666 0.166992 24.999 0.5s18.833 0.5 28.5 0.5s18.5 0.166992 26.5 0.5s14.333 0.5 19 0.5c36 0 66.833 -3.66699 92.5 -11s46.5 -17.666 62.5 -30.999s27.833 -29.333 35.5 -48s11.5 -39.334 11.5 -62.001c0 -20 -3.16699 -37.667 -9.5 -53
s-14.666 -28.833 -24.999 -40.5s-22.166 -21.667 -35.499 -30s-27 -15.5 -41 -21.5c54.667 -8.66699 97 -27 127 -55s45 -66.667 45 -116c0 -33.333 -6 -61.833 -18 -85.5s-28.833 -43 -50.5 -58s-47.5 -26.167 -77.5 -33.5s-63 -11 -99 -11h-173zM239 302v-50
c0 -19.333 0.166992 -38 0.5 -56s0.666016 -34.333 0.999023 -49s0.833008 -24.667 1.5 -30c1.33301 -18 5 -29 11 -33s14 -6 24 -6h21c16 0 33.5 1.5 52.5 4.5s36.833 8.5 53.5 16.5s30.667 19 42 33s17 32 17 54c0 18.667 -4.33301 35.167 -13 49.5s-20.667 26.5 -36 36.5
s-33.166 17.5 -53.499 22.5s-42.5 7.5 -66.5 7.5h-55zM265 369c21.333 0 38.5 1.33105 51.5 3.99805s27.167 9.66699 42.5 21c14.667 9.33301 26.667 22.833 36 40.5s14 38.5 14 62.5c0 25.333 -10 44.833 -30 58.5s-48.333 20.5 -85 20.5h-50
c-2 -29.333 -3.33301 -51.166 -4 -65.499s-1 -27.166 -1 -38.499v-62c0 -15.333 0.666992 -26 2 -32s6.33301 -9 15 -9h9z" />
    <glyph glyph-name="C" unicode="C" horiz-adv-x="650" 
d="M543 507c-2 14.667 -8.33301 27.167 -19 37.5s-23.834 18.5 -39.501 24.5s-33 10.333 -52 13s-37.833 4 -56.5 4c-59.333 0 -105.333 -15 -138 -45c-25.333 -22.667 -43.666 -52.834 -54.999 -90.501s-17 -78.5 -17 -122.5c0 -42 5.83301 -79 17.5 -111
s27.667 -58.833 48 -80.5s44.5 -38 72.5 -49s58.667 -16.5 92 -16.5c28.667 0 61.834 3.16699 99.501 9.5s73.167 18.5 106.5 36.5l12 -22l-24 -44c-34.667 -21.333 -69.5 -37 -104.5 -47s-70.833 -15 -107.5 -15c-50 0 -95.333 8 -136 24s-75.5 38.833 -104.5 68.5
s-51.5 65 -67.5 106s-24 86.5 -24 136.5c0 46.667 7.16699 90.834 21.5 132.501s35.666 77.834 63.999 108.501s63.333 55 105 73s90.167 27 145.5 27c13.333 0 29 -0.5 47 -1.5s37 -3 57 -6s40.167 -7.33301 60.5 -13s39.833 -12.834 58.5 -21.501l3 -9l-13 -111h-49z" />
    <glyph glyph-name="D" unicode="D" horiz-adv-x="753" 
d="M126 547c-1.33301 16.667 -4.33105 29.3359 -8.99805 38.0029s-10 15 -16 19c-6 5.33301 -12.167 8.33301 -18.5 9s-17.833 1 -34.5 1l-5 4l-3 38l2 4c4.66699 0 11.334 -0.333008 20.001 -1s18 -1.33398 28 -2.00098l29.5 -2c9.66699 -0.666992 18.167 -1 25.5 -1h97
c8 0 18.167 0.166992 30.5 0.5s24.833 0.833008 37.5 1.5s24.834 1.16699 36.501 1.5s21.5 0.5 29.5 0.5c52 0 98.5 -8.83301 139.5 -26.5s75.5 -41.5 103.5 -71.5s49.5 -65 64.5 -105s22.5 -82.333 22.5 -127c0 -44 -7.16699 -85.833 -21.5 -125.5
s-35.5 -74.667 -63.5 -105s-63 -54.5 -105 -72.5s-90.667 -27 -146 -27c-5.33301 0 -13.5 0.166992 -24.5 0.5s-22.667 0.5 -35 0.5s-24.333 0.166992 -36 0.5s-20.834 0.5 -27.501 0.5h-93c-4.66699 0 -12.334 -0.333008 -23.001 -1l-33 -2l-33 -2
c-10.667 -0.666992 -18.334 -1 -23.001 -1l-2 4l3 38l5 4c8 0 17.333 0.5 28 1.5s19 3.5 25 7.5c5.33301 4 10.333 10.333 15 19s8 21.667 10 39c0 4.66699 0.166992 10.167 0.5 16.5s0.666016 14.166 0.999023 23.499s0.5 20.666 0.5 33.999v50v163v30.5v43.5
c0 15.333 -0.166992 30.333 -0.5 45s-0.833008 26 -1.5 34zM337.002 78.002c40 0 75.333 6.49805 106 19.498s56.5 30.833 77.5 53.5s37 49.167 48 79.5s16.5 62.833 16.5 97.5c0 36 -5.66699 69.167 -17 99.5s-27.833 56.5 -49.5 78.5s-48.167 39.167 -79.5 51.5
s-67 18.5 -107 18.5h-88c-1.33301 -19.333 -2.16602 -35.5 -2.49902 -48.5s-0.833008 -26.167 -1.5 -39.5s-1 -27.833 -1 -43.5v-59.5v-124c0 -40 0.166992 -71.167 0.5 -93.5s1.16602 -39.166 2.49902 -50.499c2 -17.333 6.33301 -28.166 13 -32.499s18.667 -6.5 36 -6.5
h46z" />
    <glyph glyph-name="E" unicode="E" horiz-adv-x="575" 
d="M328 654c9.33301 0 23.168 0.167969 41.501 0.500977s37.166 0.833008 56.499 1.5s36.666 1.16699 51.999 1.5s24.666 0.5 27.999 0.5l6 -10l-5 -129h-45l-4 4c-1.33301 12.667 -3.16602 22.667 -5.49902 30s-8.5 12.666 -18.5 15.999s-25.5 5.33301 -46.5 6
s-50.167 1 -87.5 1h-57l-1 -9c-0.666992 -9.33301 -1.16699 -18 -1.5 -26s-0.666016 -17.333 -0.999023 -28s-0.5 -23.667 -0.5 -39v-59v-34c16 0.666992 31.333 0.833984 46 0.500977s28.334 -0.166016 41.001 0.500977s23.5 1.83398 32.5 3.50098s15.5 4.5 19.5 8.5
c6.66699 6.66699 10 16 10 28l5 5l37 2l4 -2l-3.5 -40c-1 -11.333 -1.5 -24.333 -1.5 -39c0 -16 0.5 -30.833 1.5 -44.5s2.16699 -28.5 3.5 -44.5l-4 -2l-38 2l-4 3c0 16.667 -3 29 -9 37c-5.33301 7.33301 -20.5 11.5 -45.5 12.5s-52.833 1.5 -83.5 1.5h-11v-82
c0 -19.333 0.166992 -35.333 0.5 -48s0.666016 -23.5 0.999023 -32.5s0.833008 -17.5 1.5 -25.5s1.33398 -17.333 2.00098 -28c0.666992 -12.667 7.33398 -19 20.001 -19h45c38 0 67.833 0.666992 89.5 2s38.167 4.5 49.5 9.5s19.5 12.167 24.5 21.5s9.5 22 13.5 38l4 4h47
l-19 -147l-8 -10c-3.33301 0 -11.5 0.166992 -24.5 0.5s-27.5 0.833008 -43.5 1.5s-32 1.16699 -48 1.5s-28.667 0.5 -38 0.5h-202c-4.66699 0 -12.334 -0.333008 -23.001 -1l-33 -2l-33 -2c-10.667 -0.666992 -18.334 -1 -23.001 -1l-2 4l3 38l5 4
c10.667 0 20.667 0.5 30 1.5s17 3.83301 23 8.5c5.33301 4.66699 10.5 10.667 15.5 18s8.16699 20.333 9.5 39c0 4.66699 0.166992 10.167 0.5 16.5s0.666016 14.166 0.999023 23.499s0.5 20.666 0.5 33.999v50v163v59v41c0 11.333 -0.166992 21 -0.5 29
s-0.833008 16 -1.5 24c-1.33301 18 -4.5 31 -9.5 39s-10.167 14 -15.5 18c-6 5.33301 -13.667 8.33301 -23 9s-19.333 1 -30 1l-5 4l-3 38l2 4c4.66699 0 12.334 -0.333008 23.001 -1s22.167 -1.33398 34.5 -2.00098l36 -2c11.667 -0.666992 21.167 -1 28.5 -1h164z" />
    <glyph glyph-name="F" unicode="F" horiz-adv-x="533" 
d="M126 547c-1.33301 19.333 -4.49512 32.667 -9.49512 40s-10.167 13 -15.5 17c-6 5.33301 -13.667 8.33301 -23 9s-19.333 1 -30 1l-5 4l-3 38l2 4c4.66699 0 12.334 -0.333008 23.001 -1l33 -2l33 -2c10.667 -0.666992 18.334 -1 23.001 -1h174
c9.33301 0 23.166 0.166992 41.499 0.5s37.166 0.833008 56.499 1.5s36.666 1.16699 51.999 1.5s24.666 0.5 27.999 0.5l6 -10l-5 -129h-45l-4 4c-1.33301 12.667 -3.16602 22.667 -5.49902 30s-8.5 12.666 -18.5 15.999s-25.5 5.33301 -46.5 6s-50.167 1 -87.5 1h-56
l-2 -39c0 -6.66699 -0.166992 -12.834 -0.5 -18.501s-0.666016 -12.167 -0.999023 -19.5s-0.666016 -16.5 -0.999023 -27.5s-0.5 -41.167 -0.5 -90.5c16 0.666992 31.5 0.833984 46.5 0.500977s28.667 -0.166016 41 0.500977s23.166 1.83398 32.499 3.50098s16 4.5 20 8.5
c6 6 9 15.667 9 29l5 5l37 2l4 -2c-0.666992 -8.66699 -1.33398 -16.167 -2.00098 -22.5s-1.16699 -12.5 -1.5 -18.5l-1 -18c-0.333008 -6 -0.5 -13 -0.5 -21c0 -16 0.5 -31.167 1.5 -45.5s2.16699 -29.5 3.5 -45.5l-4 -2l-38 2l-4 3c0 17.333 -3.33301 30.333 -10 39
c-3.33301 3.33301 -9.33301 6 -18 8s-19.167 3.5 -31.5 4.5s-26.333 1.5 -42 1.5h-47.5v-62v-58.5c0 -15 0.166992 -27.5 0.5 -37.5s0.666016 -18.5 0.999023 -25.5s0.833008 -14.5 1.5 -22.5c1.33301 -19.333 4.83301 -32.666 10.5 -39.999s11.167 -13 16.5 -17
c6 -5.33301 14.833 -8.33301 26.5 -9s22.834 -1 33.501 -1l5 -4l3 -38l-2 -4c-4.66699 0 -12.834 0.333008 -24.501 1l-36.5 2l-36.5 2c-11.667 0.666992 -19.834 1 -24.501 1h-59c-4.66699 0 -12.334 -0.333008 -23.001 -1l-33 -2l-33 -2
c-10.667 -0.666992 -18.334 -1 -23.001 -1l-2 4l3 38l5 4c10.667 0 20.667 0.5 30 1.5s17 3.83301 23 8.5c5.33301 4.66699 10.5 10.667 15.5 18s8.16699 20.333 9.5 39c0 4.66699 0.166992 10.167 0.5 16.5s0.666016 14.166 0.999023 23.499s0.5 20.666 0.5 33.999v50v163
v59c0 16 -0.166992 29.667 -0.5 41s-0.666016 21 -0.999023 29s-0.5 16 -0.5 24z" />
    <glyph glyph-name="G" unicode="G" horiz-adv-x="702" 
d="M609 25c-33.333 -10 -68.3311 -18.5 -104.998 -25.5s-75 -10.5 -115 -10.5c-58 0 -108.5 8.83301 -151.5 26.5s-78.667 41.834 -107 72.501s-49.5 66.334 -63.5 107.001s-21 83.667 -21 129c0 48 7.5 92.667 22.5 134s37.167 77.333 66.5 108
s65.666 54.834 108.999 72.501s93.666 26.5 150.999 26.5c12.667 0 27.5 -0.666992 44.5 -2s34.833 -3.66602 53.5 -6.99902s37.834 -7.83301 57.501 -13.5s38.5 -12.834 56.5 -21.501l2 -9l-17 -109h-45l-4 3c-3.33301 22.667 -16.833 41.167 -40.5 55.5
s-61.167 21.5 -112.5 21.5c-32 0 -60.167 -2.83301 -84.5 -8.5s-46.833 -16.5 -67.5 -32.5c-14.667 -11.333 -26.667 -24.833 -36 -40.5s-16.666 -32.834 -21.999 -51.501s-9 -38.334 -11 -59.001s-3 -41.334 -3 -62.001c0 -40.667 5.5 -77 16.5 -109s26.167 -59 45.5 -81
s42.166 -38.833 68.499 -50.5s54.833 -17.5 85.5 -17.5c9.33301 0 19.5 0.5 30.5 1.5s21.833 2.5 32.5 4.5s20.167 4.33301 28.5 7s14.166 5.33398 17.499 8.00098c4 2 6.33301 4.66699 7 8s1 7.66602 1 12.999v23c0 10.667 -0.666992 19 -2 25
c-1.33301 17.333 -4.83301 30.5 -10.5 39.5s-10.5 14.833 -14.5 17.5c-6 5.33301 -15 8.33301 -27 9s-23.333 1 -34 1l-5 4l-3 42l2 4c4.66699 0 12.167 -0.333008 22.5 -1l32 -2l32 -2c10.333 -0.666992 17.833 -1 22.5 -1h70c4.66699 0 11 0.333008 19 1l25 2l25 2
c8 0.666992 14.333 1 19 1l2 -4l-2 -44l-5 -4c-19.333 0 -32.833 -5.5 -40.5 -16.5s-12.167 -27.167 -13.5 -48.5c-1.33301 -13.333 -2.16602 -27.5 -2.49902 -42.5s-0.5 -26.167 -0.5 -33.5c0 -10 0.166992 -20.833 0.5 -32.5s1.16602 -19.167 2.49902 -22.5z" />
    <glyph glyph-name="H" unicode="H" horiz-adv-x="774" 
d="M732 -6c-4.66699 0 -12.334 0.336914 -23.001 1.00391l-33 2l-33 2c-10.667 0.666992 -18.334 1 -23.001 1h-59c-4.66699 0 -12.334 -0.333008 -23.001 -1l-33 -2l-33 -2c-10.667 -0.666992 -18.334 -1 -23.001 -1l-2 4l3 38l4 4c10.667 0 20.667 0.5 30 1.5
s17.333 3.83301 24 8.5c6 4.66699 10.667 10.667 14 18s6.66602 20.333 9.99902 39c0.666992 4.66699 1.16699 10.167 1.5 16.5s0.666016 14.166 0.999023 23.499s0.5 20.666 0.5 33.999v50v80h-296v-60v-58.5c0 -15 0.166992 -27.5 0.5 -37.5
s0.666016 -18.5 0.999023 -25.5s0.833008 -14.5 1.5 -22.5c1.33301 -18.667 4.33301 -31.667 9 -39s9.66699 -13.333 15 -18c6 -4.66699 13.833 -7.5 23.5 -8.5s19.834 -1.5 30.501 -1.5l4 -4l3 -38l-2 -4c-4.66699 0 -12.334 0.333008 -23.001 1l-33 2l-33 2
c-10.667 0.666992 -18.334 1 -23.001 1h-59c-4.66699 0 -12.334 -0.333008 -23.001 -1l-33 -2l-33 -2c-10.667 -0.666992 -18.334 -1 -23.001 -1l-2 4l3 38l5 4c10.667 0 20.667 0.5 30 1.5s17 3.83301 23 8.5c5.33301 4.66699 10.5 10.667 15.5 18s8.16699 20.333 9.5 39
c0 4.66699 0.166992 10.167 0.5 16.5s0.666016 14.166 0.999023 23.499s0.5 20.666 0.5 33.999v50v163v59c0 16 -0.166992 29.667 -0.5 41s-0.666016 21 -0.999023 29s-0.833008 16 -1.5 24c-1.33301 17.333 -4.33301 30 -9 38s-9.66699 14.333 -15 19
c-6 4.66699 -13.667 7.5 -23 8.5s-19.333 1.5 -30 1.5l-5 4l-3 38l2 4c4.66699 0 12.334 -0.333008 23.001 -1l33 -2l33 -2c10.667 -0.666992 18.334 -1 23.001 -1h59c4.66699 0 12.334 0.333008 23.001 1l33 2l33 2c10.667 0.666992 18.334 1 23.001 1l2 -4l-3 -38l-4 -4
c-9.33301 0 -19.166 -0.5 -29.499 -1.5s-18.5 -3.83301 -24.5 -8.5c-5.33301 -4.66699 -10.5 -10.667 -15.5 -18s-7.83301 -20.333 -8.5 -39c-0.666992 -9.33301 -1.16699 -18 -1.5 -26s-0.666016 -17.333 -0.999023 -28s-0.5 -23.667 -0.5 -39v-59v-10h296v9v59
c0 16 -0.166992 29.667 -0.5 41s-0.666016 21 -0.999023 29s-0.833008 16 -1.5 24c-1.33301 18.667 -4.33301 31.667 -9 39s-9.66699 13.333 -15 18c-6 4.66699 -13.833 7.5 -23.5 8.5s-19.834 1.5 -30.501 1.5l-4 4l-3 38l2 4c4.66699 0 12.334 -0.333008 23.001 -1l33 -2
l33 -2c10.667 -0.666992 18.334 -1 23.001 -1h59c4.66699 0 12.334 0.333008 23.001 1l33 2l33 2c10.667 0.666992 18.334 1 23.001 1l2 -4l-3 -38l-5 -4c-10.667 0 -20.834 -0.5 -30.501 -1.5s-17.167 -3.83301 -22.5 -8.5s-10.166 -10.667 -14.499 -18
s-7.83301 -20.333 -10.5 -39c-0.666992 -9.33301 -1.16699 -18 -1.5 -26s-0.5 -17.333 -0.5 -28v-39v-59v-144v-58.5v-37.5c0 -10 0.166992 -18.5 0.5 -25.5s0.833008 -14.5 1.5 -22.5c1.33301 -18.667 4.5 -31.667 9.5 -39s10.167 -13.333 15.5 -18
c6 -4.66699 13.667 -7.5 23 -8.5s19.333 -1.5 30 -1.5l5 -4l3 -38z" />
    <glyph glyph-name="I" unicode="I" horiz-adv-x="367" 
d="M327 656l-3.00098 -37.998l-4 -4c-10.667 0 -20.667 -0.5 -30 -1.5s-17.333 -3.83301 -24 -8.5c-6 -4.66699 -11.5 -10.667 -16.5 -18s-7.5 -20.333 -7.5 -39c-0.666992 -9.33301 -1.16699 -18 -1.5 -26s-0.666016 -17.333 -0.999023 -28s-0.5 -23.667 -0.5 -39v-59v-144
v-58.5c0 -15 0.166992 -27.5 0.5 -37.5s0.666016 -18.5 0.999023 -25.5s0.833008 -14.5 1.5 -22.5c1.33301 -18.667 4.33301 -31.667 9 -39s9.66699 -13.333 15 -18c6 -4.66699 13.833 -7.5 23.5 -8.5s19.834 -1.5 30.501 -1.5l4 -4l3 -38l-2 -4
c-4.66699 0 -12.334 0.333008 -23.001 1l-33 2l-33 2c-10.667 0.666992 -18.334 1 -23.001 1h-59c-4.66699 0 -12.334 -0.333008 -23.001 -1l-33 -2l-33 -2c-10.667 -0.666992 -18.334 -1 -23.001 -1l-2 4l3 38l5 4c10.667 0 20.834 0.5 30.501 1.5s17.167 3.83301 22.5 8.5
s10.166 10.667 14.499 18s7.83301 20.333 10.5 39c0 4.66699 0.166992 10.167 0.5 16.5s0.666016 14.166 0.999023 23.499s0.5 20.666 0.5 33.999v50v163v59c0 16 -0.166992 29.667 -0.5 41s-0.666016 21 -0.999023 29s-0.833008 16 -1.5 24
c-1.33301 17.333 -4.33301 30 -9 38s-9.66699 14.333 -15 19c-6 4.66699 -13.667 7.5 -23 8.5s-19.333 1.5 -30 1.5l-5 4l-3 38l2 4c4.66699 0 12.334 -0.333008 23.001 -1l33 -2l33 -2c10.667 -0.666992 18.334 -1 23.001 -1h59c4.66699 0 12.334 0.333008 23.001 1l33 2
l33 2c10.667 0.666992 18.334 1 23.001 1z" />
    <glyph glyph-name="J" unicode="J" horiz-adv-x="346" 
d="M317 656l-3.00684 -38.0039l-4 -4c-10.667 0 -20.667 -0.5 -30 -1.5s-17.333 -3.83301 -24 -8.5c-6 -4.66699 -11.5 -10.667 -16.5 -18s-7.5 -20.333 -7.5 -39c-0.666992 -8 -1.16699 -15.5 -1.5 -22.5s-0.666016 -15.167 -0.999023 -24.5s-0.5 -20.666 -0.5 -33.999v-51
v-184v-60.5c0 -16.333 -0.166992 -30.166 -0.5 -41.499s-0.5 -21.166 -0.5 -29.499v-23.5c-0.666992 -73.333 -14 -128 -40 -164s-63 -57.667 -111 -65c-7.33301 -1.33301 -15.166 -2.16602 -23.499 -2.49902s-15.833 -0.5 -22.5 -0.5l-8 3l-2 52l4 5
c3.33301 0 10 0.166992 20 0.5s16.667 0.5 20 0.5c12 0 21.5 4.66699 28.5 14s12.167 20 15.5 32c2 8 3.66699 22 5 42s2.33301 42.667 3 68s1 51.333 1 78v72v203v51c0 14 -0.166992 26 -0.5 36s-0.666016 18.5 -0.999023 25.5s-0.833008 13.833 -1.5 20.5
c-1.33301 18 -4.33301 31 -9 39s-9.66699 14 -15 18c-6 5.33301 -13.667 8.33301 -23 9s-19.333 1 -30 1l-5 4l-3 38l2 4c4.66699 0 12.334 -0.333008 23.001 -1l33 -2l33 -2c10.667 -0.666992 18.334 -1 23.001 -1h59c4.66699 0 12.334 0.333008 23.001 1l33 2l33 2
c10.667 0.666992 18.334 1 23.001 1z" />
    <glyph glyph-name="K" unicode="K" horiz-adv-x="696" 
d="M580 592c-6 -4 -14.835 -11.3291 -26.502 -21.9961s-24.5 -23.167 -38.5 -37.5l-44.5 -46.5l-45.5 -48l-68 -72l73.5 -112.5c23.667 -37.667 51.167 -73.834 82.5 -108.501c13.333 -15.333 26.5 -28.833 39.5 -40.5s26.833 -21.667 41.5 -30s30.334 -15.333 47.001 -21
s35.667 -10.167 57 -13.5l6 -4l2 -38l-2 -4c-10 0 -20.667 -0.166992 -32 -0.5s-22.833 -0.833008 -34.5 -1.5s-22.5 -1.16699 -32.5 -1.5s-18.333 -0.5 -25 -0.5c-17.333 0 -33.333 2.16699 -48 6.5s-28.834 11.5 -42.501 21.5s-27.5 23.333 -41.5 40s-29.333 37 -46 61
l-20.5 31.5l-31.5 49.5l-34 54.5l-30 47.5l-24 -21.5c-8 -7 -15.667 -14.167 -23 -21.5v-8v-64.5c0 -15 0.166992 -27 0.5 -36s0.666016 -16.333 0.999023 -22s0.833008 -12.834 1.5 -21.501c1.33301 -19.333 4.33301 -32.666 9 -39.999s9.66699 -13 15 -17
c6 -5.33301 13.833 -8.33301 23.5 -9s19.834 -1 30.501 -1l4 -4l3 -38l-2 -4c-4.66699 0 -12.334 0.333008 -23.001 1l-33 2l-33 2c-10.667 0.666992 -18.334 1 -23.001 1h-59c-4.66699 0 -12.334 -0.333008 -23.001 -1l-33 -2l-33 -2
c-10.667 -0.666992 -18.334 -1 -23.001 -1l-2 4l3 38l5 4c10.667 0 20.667 0.5 30 1.5s17 3.83301 23 8.5c5.33301 4.66699 10.5 10.667 15.5 18s8.16699 20.333 9.5 39c0 4.66699 0.166992 10.167 0.5 16.5s0.666016 14.166 0.999023 23.499s0.5 20.666 0.5 33.999v50v163
v59v41c0 11.333 -0.166992 21 -0.5 29s-0.833008 16 -1.5 24c-1.33301 18 -4.5 31 -9.5 39s-10.167 14 -15.5 18c-6 5.33301 -13.667 8.33301 -23 9s-19.333 1 -30 1l-5 4l-3 38l2 4c4.66699 0 12.334 -0.333008 23.001 -1l33 -2l33 -2
c10.667 -0.666992 18.334 -1 23.001 -1h59c4.66699 0 12.334 0.333008 23.001 1l33 2l33 2c10.667 0.666992 18.334 1 23.001 1l2 -4l-3 -38l-4 -4c-9.33301 0 -19.166 -0.5 -29.499 -1.5s-18.5 -3.83301 -24.5 -8.5c-5.33301 -4.66699 -10.5 -10.667 -15.5 -18
s-7.83301 -20.333 -8.5 -39c-0.666992 -8 -1.16699 -15.833 -1.5 -23.5s-0.666016 -16.667 -0.999023 -27s-0.5 -22.333 -0.5 -36v-49.5v-48c13.333 6.66699 28.666 16.834 45.999 30.501s34.666 28.5 51.999 44.5c12.667 12 25.667 25.167 39 39.5s25.5 28.166 36.5 41.499
s19.833 25.333 26.5 36s10 18 10 22c0 7.33301 -1.5 13.166 -4.5 17.499s-7 7.83301 -12 10.5s-10.833 4.66699 -17.5 6l-20 4l-5 4v38l5 4c13.333 -2.66699 27.5 -4.33398 42.5 -5.00098s30.167 -1 45.5 -1h89h20.5c5.66699 0 11.334 0.333008 17.001 1
s11.834 1.33398 18.501 2.00098s14.667 1.66699 24 3l4 -4v-38l-4 -4c-9.33301 -1.33301 -21.166 -4 -35.499 -8s-26.5 -9 -36.5 -15z" />
    <glyph glyph-name="L" unicode="L" horiz-adv-x="529" 
d="M125 547c-1.33301 11.333 -3.83203 22.5 -7.49902 33.5s-9.16699 19.167 -16.5 24.5c-5.33301 3.33301 -12 5.66602 -20 6.99902s-19 2 -33 2l-5 4l-3 38l2 4c6 -0.666992 14.167 -1.33398 24.5 -2.00098l32 -2c11 -0.666992 21.5 -1.16699 31.5 -1.5s18 -0.5 24 -0.5h59
c6 0 13.833 0.166992 23.5 0.5s20 0.833008 31 1.5l32 2c10.333 0.666992 18.833 1.33398 25.5 2.00098l2 -4l-3 -38l-4 -4c-16.667 0 -28.834 -0.833008 -36.501 -2.5s-13.834 -4.16699 -18.501 -7.5c-14 -9.33301 -22 -28.333 -24 -57
c-0.666992 -6.66699 -1.16699 -13.5 -1.5 -20.5s-0.5 -16 -0.5 -27v-41.5v-63v-134v-63.5c0 -16.333 0.166992 -30 0.5 -41s0.666016 -20.667 0.999023 -29s1.16602 -18.166 2.49902 -29.499c0.666992 -13.333 8.33398 -20 23.001 -20h93c22 0 39.5 0.5 52.5 1.5
s23.167 3.66699 30.5 8s13 10.5 17 18.5s7.66699 19 11 33l3 4h46l-18 -137l-8 -10c-5.33301 0.666992 -13.666 1.16699 -24.999 1.5s-23.333 0.666016 -36 0.999023l-37.5 1c-12.333 0.333008 -21.833 0.5 -28.5 0.5h-212c-4.66699 0 -12.167 -0.166992 -22.5 -0.5
s-21.166 -0.833008 -32.499 -1.5l-33 -2c-10.667 -0.666992 -18.667 -1.33398 -24 -2.00098l-2 4l3 38l5 4c25.333 0 42.666 3.66699 51.999 11c5.33301 4.66699 10.5 12 15.5 22s8.16699 21.667 9.5 35c0.666992 6.66699 1.16699 15.834 1.5 27.501l1 36.5
c0.333008 12.667 0.5 24.5 0.5 35.5v23.5v163c0 36.667 -0.166992 68.834 -0.5 96.501s-1.16602 46.5 -2.49902 56.5z" />
    <glyph glyph-name="M" unicode="M" horiz-adv-x="945" 
d="M921 -6c-4.66699 0 -12.332 0.335938 -22.999 1.00293l-33 2l-33 2c-10.667 0.666992 -18.334 1 -23.001 1h-59c-4.66699 0 -12.334 -0.333008 -23.001 -1l-33 -2l-33 -2c-10.667 -0.666992 -18.334 -1 -23.001 -1l-3 4l3 38l4 4h11c19.333 0 34.5 3.16699 45.5 9.5
s16.5 19.166 16.5 38.499l-22 327c-1.33301 15.333 -2.16602 28.666 -2.49902 39.999s-1.83301 23.666 -4.5 36.999c-4 -12 -10.333 -29 -19 -51l-29.5 -75.5l-35.5 -90.5l-38 -95.5l-35.5 -91l-28.5 -75.5h-82l-175 476c0 -16 -0.666992 -29.167 -2 -39.5
s-2.66602 -23.5 -3.99902 -39.5l-12 -164c-1.33301 -22 -2.5 -40.167 -3.5 -54.5s-1.66699 -26.5 -2 -36.5s-0.5 -18.667 -0.5 -26v-22c0 -19.333 2.16699 -32.666 6.5 -39.999s9.16602 -13 14.499 -17c5.33301 -5.33301 11.5 -8.33301 18.5 -9s15.833 -1 26.5 -1l4 -4
l3 -38l-2 -4c-4.66699 0 -11.5 0.333008 -20.5 1l-27.5 2l-27.5 2c-9 0.666992 -15.833 1 -20.5 1h-59c-4.66699 0 -12.167 -0.333008 -22.5 -1s-21.333 -1.33398 -33 -2.00098s-22.667 -1.33398 -33 -2.00098s-17.833 -1 -22.5 -1l-2 4l3 38l6 4c10 0 19.667 0.5 29 1.5
s17.333 3.83301 24 8.5c5.33301 4.66699 10.666 10.667 15.999 18s9.66602 20.333 12.999 39c1.33301 8 3 19 5 33s4.33301 37.667 7 71l14 183c2 23.333 3.5 43 4.5 59s1.66699 29.667 2 41s0.666016 21 0.999023 29s0.5 16 0.5 24c0 19.333 -2.83301 32.666 -8.5 39.999
s-11.167 13 -16.5 17c-6 5.33301 -13.667 8.33301 -23 9s-19.333 1 -30 1l-5 4l-3 38l2 4c4.66699 0 12.334 -0.333008 23.001 -1l33 -2l33 -2c10.667 -0.666992 18.334 -1 23.001 -1h77c4.66699 0 10.834 0.333008 18.501 1s14.834 1.66699 21.501 3l5 -3
c0.666992 -9.33301 3.16699 -22.333 7.5 -39s9.66602 -35 15.999 -55s13.5 -41.167 21.5 -63.5l24 -65.5l63 -162c7.33301 -18 14.666 -37 21.999 -57s14 -39 20 -57c2 2.66699 7.33301 14.334 16 35.001l31 77l38.5 101.5l39 109.5c12.333 36 23 69.5 32 100.5
s14.833 55.833 17.5 74.5l5 4c5.33301 -1.33301 11 -2.33301 17 -3s11.667 -1 17 -1h86c4.66699 0 12.334 0.333008 23.001 1l33 2l33 2c10.667 0.666992 18.334 1 23.001 1l2 -4l-3 -38l-5 -4c-10 0 -19.833 -0.5 -29.5 -1.5s-17.5 -3.83301 -23.5 -8.5
c-5.33301 -4 -10.833 -10 -16.5 -18s-8.5 -21 -8.5 -39v-26c0 -8 0.333008 -17.333 1 -28l2.5 -39c1 -15.333 2.5 -35 4.5 -59l12 -144l5 -58.5c1.33301 -15 2.5 -27.5 3.5 -37.5l2.5 -25.5c0.666992 -7 1.66699 -14.5 3 -22.5c2.66699 -19.333 6.66699 -32.666 12 -39.999
s10.666 -13 15.999 -17c6 -5.33301 13.833 -8.33301 23.5 -9s19.834 -1 30.501 -1l5 -4l3 -38z" />
    <glyph glyph-name="N" unicode="N" horiz-adv-x="781" 
d="M753 656l-2.00391 -38.001l-5 -4c-10 0 -19.833 -0.5 -29.5 -1.5s-17.5 -3.83301 -23.5 -8.5c-5.33301 -4.66699 -10.833 -10.667 -16.5 -18s-9.5 -20.333 -11.5 -39c-0.666992 -9.33301 -1.16699 -18 -1.5 -26s-0.666016 -17.333 -0.999023 -28s-0.5 -23.667 -0.5 -39
v-59v-156c0 -37.333 0.166992 -68 0.5 -92s0.666016 -44.5 0.999023 -61.5s1 -32.167 2 -45.5s2.16699 -28 3.5 -44l-8 -5l-123 5l-10 12l-309 466c1.33301 -12 2.16602 -31.167 2.49902 -57.5s0.5 -56.833 0.5 -91.5v-74v-31.5c0 -13 0.166992 -26.5 0.5 -40.5l1 -40.5
c0.333008 -13 0.833008 -23.5 1.5 -31.5c1.33301 -16.667 5 -29.334 11 -38.001s12.333 -15 19 -19c5.33301 -5.33301 12.333 -8.33301 21 -9s19.667 -1 33 -1l5 -4l3 -38l-2 -4c-5.33301 0 -12.833 0.333008 -22.5 1l-30 2l-30 2c-9.66699 0.666992 -16.834 1 -21.501 1
h-59c-4.66699 0 -12.334 -0.333008 -23.001 -1l-33 -2l-33 -2c-10.667 -0.666992 -18.334 -1 -23.001 -1l-2 4l3 38l5 4c12 0 22.167 0.5 30.5 1.5s15.833 3.83301 22.5 8.5c4.66699 3.33301 10.334 8.83301 17.001 16.5s11 21.167 13 40.5
c0.666992 4.66699 1.16699 10.167 1.5 16.5s0.5 14.166 0.5 23.499v34v50v163v59v41c0 11.333 -0.166992 21 -0.5 29s-0.833008 16 -1.5 24c-1.33301 14 -5.16602 26 -11.499 36s-12.5 17 -18.5 21c-6 5.33301 -13.5 8.33301 -22.5 9s-19.167 1 -30.5 1l-5 4l-3 38l2 4
c4.66699 0 11.5 -0.333008 20.5 -1l27.5 -2l27.5 -2c9 -0.666992 15.833 -1 20.5 -1h85c5.33301 0 12 0.333008 20 1s15 1.66699 21 3l5 -3c2 -9.33301 7 -22.166 15 -38.499s17.833 -34.666 29.5 -54.999l37.5 -64l40 -66.5l64 -104.5l50 -77.5l38 -55.5l27 -37.5
c0 17.333 0.166992 34.333 0.5 51s0.5 33.667 0.5 51v136v59c0 16 -0.166992 29.667 -0.5 41s-0.666016 21 -0.999023 29s-0.833008 16 -1.5 24c-1.33301 11.333 -4.16602 21.833 -8.49902 31.5s-11.166 18.167 -20.499 25.5c-6 5.33301 -13.833 8.33301 -23.5 9
s-19.834 1 -30.501 1l-4 4l-3 38l2 4c4.66699 0 11.334 -0.333008 20.001 -1l26.5 -2l26.5 -2c8.66699 -0.666992 15.334 -1 20.001 -1h87c4.66699 0 11.334 0.166992 20.001 0.5s17.667 0.833008 27 1.5l27 2c8.66699 0.666992 15.334 1.33398 20.001 2.00098z" />
    <glyph glyph-name="O" unicode="O" horiz-adv-x="737" 
d="M369 665c51.333 0 96.999 -8.99805 136.999 -26.998s73.667 -42.5 101 -73.5s48.166 -66.833 62.499 -107.5s21.5 -83.334 21.5 -128.001c0 -44 -7 -86.5 -21 -127.5s-34.833 -77.167 -62.5 -108.5s-62 -56.5 -103 -75.5s-88.5 -28.5 -142.5 -28.5
c-52 0 -97.667 9 -137 27s-72.166 42.167 -98.499 72.5s-46.166 65.666 -59.499 105.999s-20 82.833 -20 127.5c0 47.333 7.33301 91.833 22 133.5s35.667 78 63 109s61 55.5 101 73.5s85.333 27 136 27zM367.999 72.002c32.667 0 61.8359 6.83398 87.5029 20.501
s47.167 32 64.5 55s30.666 50 39.999 81s14 64.167 14 99.5c0 36 -4.83301 69.5 -14.5 100.5s-23.667 57.833 -42 80.5s-40.5 40.5 -66.5 53.5s-55.333 19.5 -88 19.5c-32 0 -60.333 -6.33301 -85 -19s-45.334 -30.334 -62.001 -53.001s-29.334 -49.5 -38.001 -80.5
s-13 -64.5 -13 -100.5c0 -40 5 -75.833 15 -107.5s24 -58.5 42 -80.5s39.333 -39 64 -51s52 -18 82 -18z" />
    <glyph glyph-name="P" unicode="P" horiz-adv-x="581" 
d="M325 -6c-4.66699 0 -12.3262 0.339844 -22.9932 1.00684l-33 2l-33 2c-10.667 0.666992 -18.334 1 -23.001 1h-59c-4.66699 0 -12.334 -0.333008 -23.001 -1l-33 -2l-33 -2c-10.667 -0.666992 -18.334 -1 -23.001 -1l-2 4l3 38l5 4c8 0 17.333 0.5 28 1.5s19 3.5 25 7.5
c5.33301 4 10.333 10.333 15 19s8 21.667 10 39c0 4.66699 0.166992 10.167 0.5 16.5s0.666016 14.166 0.999023 23.499s0.5 20.666 0.5 33.999v50v220v45.5c0 17 -0.666992 33.833 -2 50.5c-1.33301 17.333 -4.5 30.166 -9.5 38.499s-10.167 14.5 -15.5 18.5
c-6 5.33301 -12.167 8.33301 -18.5 9s-17.833 1 -34.5 1l-5 4l-3 38l2 4c4.66699 0 10.834 -0.333008 18.501 -1l24 -2l25.5 -2c8.66699 -0.666992 16.667 -1 24 -1h76c7.33301 0 15.666 0.166992 24.999 0.5s18.833 0.5 28.5 0.5s18.5 0.166992 26.5 0.5s14.667 0.5 20 0.5
c44.667 0 82.5 -4.5 113.5 -13.5s56.167 -21.5 75.5 -37.5s33.5 -35.167 42.5 -57.5s13.5 -46.833 13.5 -73.5c0 -44.667 -8 -81.334 -24 -110.001s-36.5 -51.334 -61.5 -68.001s-53 -28.167 -84 -34.5s-61.167 -9.5 -90.5 -9.5h-56v-42
c0 -14.667 0.166992 -28.834 0.5 -42.501s0.666016 -25.834 0.999023 -36.501s0.833008 -18.667 1.5 -24c1.33301 -19.333 4.66602 -32.833 9.99902 -40.5s10 -13.167 14 -16.5c6 -5.33301 12.167 -8.33301 18.5 -9s18.166 -1 35.499 -1l4 -4l3 -38zM290.008 326.007
c56 0 95.999 12.665 119.999 37.998s36 60.333 36 105c0 36 -13.833 62.833 -41.5 80.5s-65.5 26.5 -113.5 26.5h-47c-2 -29.333 -3.33301 -51.166 -4 -65.499s-1 -27.166 -1 -38.499v-109c0 -8.66699 0.333008 -15.5 1 -20.5s2.33398 -8.66699 5.00098 -11
s6.5 -3.83301 11.5 -4.5s11.833 -1 20.5 -1h13z" />
    <glyph glyph-name="Q" unicode="Q" horiz-adv-x="737" 
d="M369 665c51.333 0 96.998 -8.99609 136.998 -26.9961s73.667 -42.333 101 -73s48.166 -66.334 62.499 -107.001s21.5 -83.334 21.5 -128.001c0 -42.667 -6.33301 -83.834 -19 -123.501s-31.5 -75 -56.5 -106s-55.833 -56.5 -92.5 -76.5s-79 -31.333 -127 -34
c34 -0.666992 64 -4.83398 90 -12.501s50.5 -16 73.5 -25s45.833 -17.167 68.5 -24.5s47 -11 73 -11c9.33301 0 20.5 1.16699 33.5 3.5s26.833 7.83301 41.5 16.5l3 -2l14 -28l-1 -4c-15.333 -19.333 -34 -35.666 -56 -48.999s-46.667 -20 -74 -20
c-22.667 0 -45.834 5.16699 -69.501 15.5l-74.5 34c-26 12.333 -53 23.666 -81 33.999s-57.333 15.5 -88 15.5c-26 0 -51.167 -4.33301 -75.5 -13s-42.166 -18 -53.499 -28l-3 1l-11 39l1 3c14.667 10 34.334 21 59.001 33s51.334 19 80.001 21
c-49.333 0.666992 -92.666 10 -129.999 28s-68.5 42.167 -93.5 72.5s-43.833 65.5 -56.5 105.5s-19 82.333 -19 127c0 47.333 7.33301 91.833 22 133.5s35.667 78 63 109s61 55.5 101 73.5s85.333 27 136 27zM367.998 72.0039c32.667 0 61.8359 6.83398 87.5029 20.501
s47.167 32 64.5 55s30.666 50 39.999 81s14 64.167 14 99.5c0 36 -4.83301 69.5 -14.5 100.5s-23.667 57.833 -42 80.5s-40.5 40.5 -66.5 53.5s-55.333 19.5 -88 19.5c-32 0 -60.333 -6.33301 -85 -19s-45.334 -30.334 -62.001 -53.001s-29.334 -49.5 -38.001 -80.5
s-13 -64.5 -13 -100.5c0 -39.333 5 -74.833 15 -106.5s24 -58.667 42 -81s39.333 -39.5 64 -51.5s52 -18 82 -18z" />
    <glyph glyph-name="R" unicode="R" horiz-adv-x="664" 
d="M325 -6c-5.33301 0.666992 -12.8311 1.33496 -22.498 2.00195s-20 1.33398 -31 2.00098s-21.667 1.16699 -32 1.5s-19.166 0.5 -26.499 0.5h-59c-8 0 -17.333 -0.166992 -28 -0.5s-21.334 -0.833008 -32.001 -1.5s-20.834 -1.33398 -30.501 -2.00098
s-16.834 -1.33398 -21.501 -2.00098l-2 4l3 38l5 4c25.333 0 42.666 3 51.999 9c14 9.33301 22.667 28.666 26 57.999c0.666992 11.333 1.16699 28.833 1.5 52.5s0.5 47.5 0.5 71.5v220c0 23.333 -0.333008 41.833 -1 55.5s-1.66699 27.167 -3 40.5
c-2.66699 18 -5.5 31 -8.5 39s-7.5 14.333 -13.5 19c-5.33301 3.33301 -11.833 5.66602 -19.5 6.99902s-19.167 2 -34.5 2l-5 4l-3 38l2 4c17.333 -2 34.5 -3.5 51.5 -4.5s30.5 -1.5 40.5 -1.5h76c15.333 0 32.833 0.333008 52.5 1s36.834 1 51.501 1
c79.333 0 139.333 -14.833 180 -44.5s61 -73.834 61 -132.501c0 -42 -12.167 -80.167 -36.5 -114.5s-60.5 -64.166 -108.5 -89.499c22.667 -34 41.834 -61.667 57.501 -83s29.167 -38.333 40.5 -51c15.333 -18 29.666 -33 42.999 -45s26.5 -22 39.5 -30s26.5 -14 40.5 -18
s29.667 -6.66699 47 -8l6 -4l2 -38l-2 -4l-66 -3.5c-18.667 -1 -32.334 -1.5 -41.001 -1.5c-35.333 0 -66.833 9.83301 -94.5 29.5s-57.167 53.167 -88.5 100.5c-7.33301 10.667 -15.166 22.667 -23.499 36l-25 39.5l-23.5 37.5c-7.33301 12 -13.333 22.333 -18 31h-65
v-58.5c0 -16.333 0.166992 -30.5 0.5 -42.5s0.833008 -22.333 1.5 -31s1.33398 -16.667 2.00098 -24c2.66699 -30.667 10 -50 22 -58c4.66699 -3.33301 10.667 -5.66602 18 -6.99902s19.666 -2 36.999 -2l4 -4l3 -38zM290.002 337.001
c48.667 0 86.834 11.6689 114.501 35.002s41.5 55.666 41.5 96.999c0 37.333 -12.333 64.5 -37 81.5s-64 25.5 -118 25.5h-47c-2 -26.667 -3.33301 -47.334 -4 -62.001s-1 -28.667 -1 -42v-98c0 -14 1.66699 -23.667 5 -29s9.66602 -8 18.999 -8h27z" />
    <glyph glyph-name="S" unicode="S" horiz-adv-x="560" 
d="M162 503c0 -17.333 4.66797 -31.999 14.001 -43.999s22 -22.5 38 -31.5s34.667 -17.5 56 -25.5l68 -25c24 -9.33301 47 -19.166 69 -29.499s41.5 -23 58.5 -38s30.667 -32.667 41 -53s15.5 -44.833 15.5 -73.5c0 -29.333 -5.66699 -55.833 -17 -79.5s-27.5 -44 -48.5 -61
s-46.667 -30.167 -77 -39.5s-64.166 -14 -101.499 -14c-40 0 -80 5 -120 15s-75.667 23.667 -107 41l-4 13l23 134h45l5 -6c4 -46 19.5 -78.667 46.5 -98s63.833 -29 110.5 -29c46 0 79.333 8.16699 100 24.5s31 40.5 31 72.5c0 20.667 -4.33301 37.667 -13 51
s-20.834 24.666 -36.501 33.999s-34.5 17.666 -56.5 24.999s-46.333 16 -73 26c-24 8.66699 -46.333 18.167 -67 28.5s-38.5 22.666 -53.5 36.999s-26.833 31.5 -35.5 51.5s-13 44 -13 72c0 58.667 19.167 104 57.5 136s96.833 48 175.5 48c36 0 69.667 -4.16699 101 -12.5
s57.666 -18.166 78.999 -29.499l4 -11l-16 -114h-48l-5 5c-4 28 -16 49.667 -36 65s-48 23 -84 23c-40 0 -71 -8 -93 -24s-33 -37.333 -33 -64z" />
    <glyph glyph-name="T" unicode="T" horiz-adv-x="587" 
d="M450 -6c-4.66699 0 -11.998 0.329102 -21.998 0.996094s-20.667 1.33398 -32 2.00098s-22 1.33398 -32 2.00098s-17.333 1 -22 1h-97c-4.66699 0 -12 -0.333008 -22 -1l-31.5 -2l-31.5 -2c-10 -0.666992 -17.333 -1 -22 -1l-2 4l3 38l5 4c10 0 21.833 0.333008 35.5 1
s23.5 3.66699 29.5 9c5.33301 4.66699 10.666 10.667 15.999 18s9 20.333 11 39c0.666992 4.66699 1.16699 10.167 1.5 16.5s0.666016 14.166 0.999023 23.499s0.5 20.666 0.5 33.999v50v183c0 36.667 -0.333008 69.334 -1 98.001s-1.33398 50 -2.00098 64h-11
c-25.333 0 -46.333 -0.166992 -63 -0.5s-30 -1 -40 -2s-17.5 -2.16699 -22.5 -3.5s-8.5 -3 -10.5 -5c-7.33301 -3.33301 -13.333 -8.66602 -18 -15.999s-7.66699 -16 -9 -26l-4 -4h-43l7 134l4 9l6 3c5.33301 -2 17 -3.83301 35 -5.5s37.667 -2.83398 59 -3.50098
s41.833 -1.16699 61.5 -1.5s33.834 -0.5 42.501 -0.5h126c8.66699 0 22.834 0.166992 42.501 0.5s40.167 0.833008 61.5 1.5s41 1.83398 59 3.50098s29.667 3.5 35 5.5l6 -3l4 -9l8 -134h-44l-4 4c-1.33301 10 -4.33301 18.667 -9 26s-10.667 12.666 -18 15.999
c-2 2.66699 -5.5 4.83398 -10.5 6.50098s-12.5 2.83398 -22.5 3.50098s-23.167 1 -39.5 1h-62.5h-11c-0.666992 -16 -1.16699 -37.333 -1.5 -64s-0.5 -59 -0.5 -97v-164v-58.5c0 -15 0.166992 -27.5 0.5 -37.5s0.666016 -18.5 0.999023 -25.5s0.833008 -14.5 1.5 -22.5
c1.33301 -19.333 5 -32.666 11 -39.999s11.667 -13 17 -17c2.66699 -2.66699 6.5 -4.66699 11.5 -6s10.5 -2.33301 16.5 -3s12.167 -1 18.5 -1h17.5l5 -4l3 -38z" />
    <glyph glyph-name="U" unicode="U" horiz-adv-x="731" 
d="M712 656l-3.00488 -37.998l-4 -4c-9.33301 0 -19.166 -0.5 -29.499 -1.5s-18.5 -3.83301 -24.5 -8.5c-5.33301 -4.66699 -10.5 -10.667 -15.5 -18s-8.16699 -20.333 -9.5 -39c0 -8 -0.166992 -16 -0.5 -24s-0.666016 -17.667 -0.999023 -29s-0.5 -25 -0.5 -41v-59v-172
c0 -32.667 -5.5 -63.167 -16.5 -91.5s-27.167 -53 -48.5 -74s-47.833 -37.5 -79.5 -49.5s-67.834 -18 -108.501 -18c-50 0 -91.833 6 -125.5 18s-60.5 28.5 -80.5 49.5s-34.333 45.667 -43 74s-13 58.833 -13 91.5v172v59v41c0 11.333 -0.166992 21 -0.5 29
s-0.833008 16 -1.5 24c-1.33301 18 -4.5 31 -9.5 39s-10.167 14 -15.5 18c-6 5.33301 -13.667 8.33301 -23 9s-19.333 1 -30 1l-5 4l-3 38l2 4c4.66699 0 12.334 -0.333008 23.001 -1l33 -2l33 -2c10.667 -0.666992 18.334 -1 23.001 -1h59
c4.66699 0 12.334 0.333008 23.001 1l33 2l33 2c10.667 0.666992 18.334 1 23.001 1l2 -4l-3 -38l-4 -4c-9.33301 0 -19.166 -0.5 -29.499 -1.5s-18.5 -3.83301 -24.5 -8.5c-5.33301 -4.66699 -10.333 -10.667 -15 -18s-7.66699 -20.333 -9 -39
c-0.666992 -9.33301 -1.16699 -18 -1.5 -26s-0.666016 -17.333 -0.999023 -28s-0.5 -23.667 -0.5 -39v-59v-145c0 -62 12.167 -106.167 36.5 -132.5s61.833 -39.5 112.5 -39.5c22.667 0 43.667 3.16699 63 9.5s36 16.5 50 30.5s25 31.833 33 53.5s12 47.834 12 78.501v145
v59c0 15.333 -0.166992 28.333 -0.5 39s-0.666016 20 -0.999023 28s-0.833008 16.667 -1.5 26c-1.33301 19.333 -4.5 32.666 -9.5 39.999s-10.167 13 -15.5 17c-5.33301 5.33301 -12.833 8.33301 -22.5 9s-19.834 1 -30.501 1l-5 4l-3 38l2 4
c4.66699 0 11.667 -0.333008 21 -1s19.166 -1.33398 29.499 -2.00098s20.166 -1.33398 29.499 -2.00098s16.333 -1 21 -1h62c4.66699 0 12 0.333008 22 1l31.5 2l31.5 2c10 0.666992 17.333 1 22 1z" />
    <glyph glyph-name="V" unicode="V" horiz-adv-x="724" 
d="M296 -11l-155.997 434.001l-18.5 50l-13 34c-3.66699 9.33301 -6.83398 17 -9.50098 23s-5 11.667 -7 17c-7.33301 16.667 -14.833 29.5 -22.5 38.5s-15.5 15.667 -23.5 20s-16.167 6.83301 -24.5 7.5s-16.833 1 -25.5 1l-5 4l-2 38l1 4
c4.66699 -0.666992 11.5 -1.33398 20.5 -2.00098s18.5 -1.33398 28.5 -2.00098s19.667 -1.16699 29 -1.5s16.333 -0.5 21 -0.5h74c4.66699 0 12.334 0.333008 23.001 1l33.5 2l33.5 2c10.667 0.666992 18.334 1 23.001 1l2 -4l-3 -38l-5 -4
c-19.333 0 -34.333 -2.16699 -45 -6.5s-16 -16.166 -16 -35.499c0 -15.333 5.16699 -36.833 15.5 -64.5l38.5 -104.5l61 -164c11.333 -26.667 20.666 -52.167 27.999 -76.5s14.666 -44.5 21.999 -60.5c5.33301 15.333 12.666 34.833 21.999 58.5l30 78.5l61 164l38.5 104.5
c10.333 27.667 15.5 49.167 15.5 64.5c0 19.333 -5.33301 31.166 -16 35.499s-25.667 6.5 -45 6.5l-5 4l-2 38l2 4c4.66699 -0.666992 12 -1.33398 22 -2.00098l31 -2c10.667 -0.666992 21 -1.16699 31 -1.5s17.333 -0.5 22 -0.5h59c4.66699 0 11.5 0.333008 20.5 1
s18.5 1.33398 28.5 2.00098l29 2c9.33301 0.666992 16.333 1 21 1l2 -4l-3 -38l-5 -4c-8.66699 0 -17 -0.333008 -25 -1s-15.833 -3.16699 -23.5 -7.5s-15.334 -11 -23.001 -20s-15.5 -21.833 -23.5 -38.5c-1.33301 -3.33301 -2.83301 -6.66602 -4.5 -9.99902
s-4 -8.5 -7 -15.5l-12.5 -29.5l-21 -51.5l-32.5 -81.5l-46.5 -119l-29 -72.5l-28 -71l-23 -59.5l-14 -37l-112 -11h-12z" />
    <glyph glyph-name="W" unicode="W" horiz-adv-x="1131" 
d="M718 -11l-146.999 416.002l-60 -165c-8.66699 -24 -18 -48.5 -28 -73.5l-28.5 -71l-23.5 -59c-6.66699 -17 -11.334 -29.167 -14.001 -36.5l-112 -11h-12l-156 434l-18.5 50l-13 34c-3.66699 9.33301 -6.83398 17 -9.50098 23s-5 11.667 -7 17
c-7.33301 16.667 -14.833 29.5 -22.5 38.5s-15.5 15.667 -23.5 20s-16.167 6.83301 -24.5 7.5s-16.833 1 -25.5 1l-5 4l-2 38l1 4c4.66699 -0.666992 11.5 -1.33398 20.5 -2.00098s18.5 -1.33398 28.5 -2.00098s19.667 -1.16699 29 -1.5s16.333 -0.5 21 -0.5h74
c4.66699 0 12.334 0.333008 23.001 1l33.5 2l33.5 2c10.667 0.666992 18.334 1 23.001 1l2 -4l-3 -38l-5 -4c-19.333 0 -34.333 -2.16699 -45 -6.5s-16 -16.166 -16 -35.499c0 -15.333 5.16699 -36.833 15.5 -64.5l38.5 -104.5l61 -164
c11.333 -26.667 20.666 -52.167 27.999 -76.5s14.666 -44.5 21.999 -60.5c5.33301 15.333 12.666 34.833 21.999 58.5l30 78.5l61 164c22 58 33 103.667 33 137c0 26.667 -6 45.667 -18 57s-35.667 17 -71 17l-5 4l-2 38l1 4
c4.66699 -0.666992 12.167 -1.33398 22.5 -2.00098l32 -2c11 -0.666992 21.667 -1.16699 32 -1.5s17.833 -0.5 22.5 -0.5h74c4.66699 0 11.834 0.333008 21.501 1l30 2l30 2c9.66699 0.666992 16.834 1 21.501 1l2 -4l-3 -38l-5 -4c-19.333 0 -34.333 -2.16699 -45 -6.5
s-16 -16.166 -16 -35.499c0 -15.333 3.66699 -36.833 11 -64.5s18.333 -62.5 33 -104.5l57 -164l26 -76c8 -23.333 16 -43 24 -59c4.66699 15.333 11 34.666 19 57.999l27 77l57 164c14.667 41.333 26.334 76 35.001 104s13 49.667 13 65
c0 19.333 -5.33301 31.166 -16 35.499s-25.667 6.5 -45 6.5l-5 4l-2 38l2 4c4.66699 -0.666992 12 -1.33398 22 -2.00098l31 -2c10.667 -0.666992 21 -1.16699 31 -1.5s17.333 -0.5 22 -0.5h59c4.66699 0 11.5 0.333008 20.5 1s18.5 1.33398 28.5 2.00098l29 2
c9.33301 0.666992 16.333 1 21 1l2 -4l-3 -38l-5 -4c-8.66699 0 -17 -0.333008 -25 -1s-15.833 -3.16699 -23.5 -7.5s-15.334 -11 -23.001 -20s-15.5 -21.833 -23.5 -38.5l-4 -10l-6.5 -15.5c-3 -7 -6.83301 -16.833 -11.5 -29.5l-19 -51.5l-30 -81.5l-43 -119l-25.5 -72.5
l-25.5 -71l-21 -59.5c-6 -17.333 -10 -29.666 -12 -36.999l-112 -11h-12z" />
    <glyph glyph-name="X" unicode="X" horiz-adv-x="710" 
d="M556 528l-51.5059 -67.4912l-37.5 -48l-29 -36.5l-27 -34l3 -3l67 -90l57 -74.5l41.5 -52.5c11 -13.333 18.167 -21.666 21.5 -24.999c6 -6.66699 11.333 -12.834 16 -18.501s10.334 -11 17.001 -16s14.667 -9.33301 24 -13s21.666 -6.83398 36.999 -9.50098l9 -7v-34
l-6 -6c-13.333 2 -27.833 3.83301 -43.5 5.5s-29.5 2.5 -41.5 2.5h-90c-15.333 0 -33.5 -0.833008 -54.5 -2.5s-40.5 -3.5 -58.5 -5.5l-5 6v35l5 6c15.333 1.33301 29.333 5.16602 42 11.499s19 15.166 19 26.499c0 6 -3.83301 15.667 -11.5 29
s-17.334 28.666 -29.001 45.999s-24.667 35.333 -39 54l-42.5 54l-39.5 -49l-36.5 -47l-29.5 -39.5c-8.33301 -11.667 -14.166 -20.834 -17.499 -27.501c-2.66699 -6.66699 -4 -12.667 -4 -18c0 -6 0.833008 -11 2.5 -15s5 -7.5 10 -10.5s12.5 -5.66699 22.5 -8
s23.333 -4.5 40 -6.5l6 -6v-34l-6 -6c-19.333 3.33301 -38 5.16602 -56 5.49902s-34.667 0.5 -50 0.5h-87c-15.333 0 -30.833 -0.333008 -46.5 -1s-32.834 -2.33398 -51.501 -5.00098l-5 6v33l8 7c14.667 2 27.334 4.5 38.001 7.5s20.334 7.16699 29.001 12.5
s17.334 12.333 26.001 21s18.667 19.667 30 33l30 37l39.5 50l46.5 59l50 64l-5 6l-74 102.5l-90 124.5c-5.33301 7.33301 -10.833 14.5 -16.5 21.5s-11.167 12.5 -16.5 16.5c-7.33301 6 -16.166 10.333 -26.499 13s-22.166 4.66699 -35.499 6l-8 4v38l6 4
c15.333 -2.66699 30.333 -4.33398 45 -5.00098s29 -1 43 -1h93c15.333 0 33 0.5 53 1.5s39.333 2.5 58 4.5l5 -4v-38l-5 -4c-13.333 -0.666992 -25 -1.83398 -35 -3.50098s-18 -4.5 -24 -8.5c-5.33301 -2.66699 -8.5 -5.5 -9.5 -8.5s-1.5 -5.83301 -1.5 -8.5
c0 -3.33301 1.5 -7.33301 4.5 -12s4.5 -8.66699 4.5 -12c10.667 -18 20.334 -33.333 29.001 -46l24.5 -36l23.5 -34l26 -38c24 29.333 44.333 57 61 83s27.667 44.667 33 56c1.33301 3.33301 3.5 7.5 6.5 12.5s4.5 10.167 4.5 15.5c0 8 -2.16699 14.333 -6.5 19
s-9.66602 8.16699 -15.999 10.5s-13.5 4.16602 -21.5 5.49902s-15.667 3 -23 5l-5 4v38l5 4c20 -3.33301 36.333 -5.16602 49 -5.49902s27 -0.5 43 -0.5h98c16 0 30.5 0.333008 43.5 1s28.833 2.33398 47.5 5.00098l4 -4v-38l-4 -4c-14.667 -2 -27.667 -5.16699 -39 -9.5
s-22 -9.83301 -32 -16.5s-19.5 -14.834 -28.5 -24.501s-18.833 -21.5 -29.5 -35.5z" />
    <glyph glyph-name="Y" unicode="Y" horiz-adv-x="653" 
d="M469 -6c-4.66699 0 -12.332 0.333008 -22.999 1l-33 2l-33 2c-10.667 0.666992 -18.334 1 -23.001 1h-59c-4.66699 0 -12.334 -0.333008 -23.001 -1l-33.5 -2l-33.5 -2c-10.667 -0.666992 -18.334 -1 -23.001 -1l-1 4l2 38l5 4c10 0 19.833 0.5 29.5 1.5
s17.5 3.83301 23.5 8.5s11.333 10.667 16 18s7.66699 20.333 9 39c0.666992 4.66699 1.16699 10.167 1.5 16.5s0.666016 14.166 0.999023 23.499s0.5 20.666 0.5 33.999v50v19c0 18.667 -2.66699 33.834 -8 45.501s-10.666 22.167 -15.999 31.5
c-22 36 -46.167 73.333 -72.5 112l-81.5 118c-4.66699 7.33301 -10 14.5 -16 21.5s-11.333 12.5 -16 16.5c-7.33301 6 -16.166 10.333 -26.499 13s-22.166 4.66699 -35.499 6l-8 4v38l5 4l45 -5.5c13.333 -1.66699 28 -2.5 44 -2.5h82c15.333 0 33.166 0.833008 53.499 2.5
s39.833 3.5 58.5 5.5l4 -4v-38l-4 -4c-13.333 -0.666992 -25 -1.83398 -35 -3.50098s-18 -4.5 -24 -8.5c-6.66699 -4.66699 -10 -10.667 -10 -18c0 -4 0.833008 -8 2.5 -12s3.5 -7.66699 5.5 -11l119 -189l112 173c6.66699 11.333 10 23 10 35c0 8 -2.33301 14 -7 18
s-10.5 7 -17.5 9s-14.667 3.33301 -23 4s-16.166 2 -23.499 4l-4 4v38l4 4c19.333 -3.33301 35.333 -5.16602 48 -5.49902s27.334 -0.5 44.001 -0.5h88c16 0 30.667 0.333008 44 1s29.333 2.33398 48 5.00098l4 -4v-38l-4 -4c-15.333 -2 -28.333 -4.66699 -39 -8
s-20.334 -8 -29.001 -14s-17.167 -13.667 -25.5 -23s-17.5 -21 -27.5 -35l-51.5 -75.5l-37 -56l-28.5 -45.5l-27 -44c-2.66699 -4 -5.66699 -10.833 -9 -20.5s-5 -19.5 -5 -29.5v-15v-58c0 -14.667 0.166992 -27 0.5 -37s0.666016 -18.333 0.999023 -25
s0.833008 -14 1.5 -22c1.33301 -18.667 4.5 -31.667 9.5 -39s10.167 -13.333 15.5 -18s12.833 -7.5 22.5 -8.5s19.834 -1.5 30.501 -1.5l5 -4l3 -38z" />
    <glyph glyph-name="Z" unicode="Z" horiz-adv-x="635" 
d="M52 526l15.998 128.002l8 8c84.667 -4 155.5 -6.33301 212.5 -7s94.167 -1 111.5 -1h96c4 0 9.5 0.166992 16.5 0.5s14.333 0.833008 22 1.5s15.334 1.5 23.001 2.5s14.5 2.16699 20.5 3.5l8 -21l-5 -25c-11.333 -12 -27.833 -31.667 -49.5 -59l-71 -93.5l-79.5 -111.5
l-76 -112.5c-23.333 -35.667 -43.333 -67.667 -60 -96s-27 -49.166 -31 -62.499l5 -3h60c55.333 0 99.5 0.5 132.5 1.5s58.5 3.66699 76.5 8s30.667 11.166 38 20.499s13 22.333 17 39l6 6h47l-18 -149l-9 -10c-3.33301 0 -11.333 0.166992 -24 0.5
s-27.834 0.833008 -45.501 1.5s-36.5 1.16699 -56.5 1.5l-57.5 1c-18.333 0.333008 -34.833 0.666016 -49.5 0.999023s-25 0.5 -31 0.5h-160c-14.667 0 -31.167 -0.666992 -49.5 -2l-53.5 -4l-10 21v23c12.667 12.667 29.334 31.667 50.001 57s43 54.5 67 87.5l74 105
l72 108.5c22.667 35.333 42.834 68.333 60.501 99s31.167 56 40.5 76l-5 5h-122c-33.333 0 -60.333 -0.333008 -81 -1s-37 -2.83398 -49 -6.50098s-20.667 -9 -26 -16s-9 -16.5 -11 -28.5l-6 -5h-38z" />
    <glyph glyph-name="bracketleft" unicode="[" horiz-adv-x="307" 
d="M278 751l-1.99805 -38.002l-5 -4c-7.33301 0 -16.666 -0.5 -27.999 -1.5s-19.333 -3.83301 -24 -8.5c-6 -4.66699 -11.333 -10.667 -16 -18s-7.66699 -20.333 -9 -39s-2.16602 -41.334 -2.49902 -68.001s-0.5 -64 -0.5 -112v-211v-73.5c0 -25 0.166992 -48.5 0.5 -70.5
s0.666016 -41.333 0.999023 -58s0.833008 -29 1.5 -37c1.33301 -19.333 4.5 -32.666 9.5 -39.999s10.167 -13 15.5 -17c4.66699 -5.33301 12.667 -8.33301 24 -9s20.666 -1 27.999 -1l5 -4l2 -38l-1 -4c-6 0 -14.667 0.333008 -26 1l-35.5 2l-35.5 2
c-11.333 0.666992 -20 1 -26 1h-76l-2 4c5.33301 44.667 8.66602 93.834 9.99902 147.501s2 105.167 2 154.5v270v57.5c0 21.667 -0.5 44.5 -1.5 68.5s-2.33301 47.833 -4 71.5s-3.83398 45.834 -6.50098 66.501l2 4h76c6 0 14.667 0.333008 26 1l35.5 2l35.5 2
c11.333 0.666992 20 1 26 1z" />
    <glyph glyph-name="backslash" unicode="\" horiz-adv-x="463" 
d="M428 -57h-118l-3 4c-10.667 44.667 -25.167 93.667 -43.5 147l-54.5 155l-67 184l-21.5 58l-26.5 68.5l-29 71.5c-10 24 -20.333 46.333 -31 67v4h118l3 -4c4.66699 -20.667 10.5 -43 17.5 -67s14.5 -47.833 22.5 -71.5l24 -68.5l21 -58l66 -184l58.5 -155
c21 -53.333 42.5 -102.333 64.5 -147z" />
    <glyph glyph-name="bracketright" unicode="]" horiz-adv-x="308" 
d="M31 755c6 0 14.667 -0.331055 26 -0.998047l35.5 -2l35.5 -2c11.333 -0.666992 20 -1 26 -1h76l2 -4c-3.33301 -20.667 -5.66602 -42.834 -6.99902 -66.501s-2.5 -47.5 -3.5 -71.5s-1.5 -46.833 -1.5 -68.5v-57.5v-270c0 -49.333 0.666992 -100.833 2 -154.5
s4.66602 -102.834 9.99902 -147.501l-2 -4h-76c-6 0 -14.667 -0.333008 -26 -1l-35.5 -2l-35.5 -2c-11.333 -0.666992 -20 -1 -26 -1l-1 4l2 38l5 4c7.33301 0 16.666 0.333008 27.999 1s19.333 3.66699 24 9c5.33301 4 10.5 9.66699 15.5 17s8.16699 20.666 9.5 39.999
c0.666992 8 1.16699 20.333 1.5 37s0.666016 36 0.999023 58s0.5 45.5 0.5 70.5v73.5v211c0 48 -0.166992 85.333 -0.5 112s-1.16602 49.334 -2.49902 68.001s-4.33301 31.667 -9 39s-10 13.333 -16 18c-4.66699 4.66699 -12.667 7.5 -24 8.5s-20.666 1.5 -27.999 1.5l-5 4
l-2 38z" />
    <glyph glyph-name="asciicircum" unicode="^" horiz-adv-x="348" 
d="M178 673l110 -99l3 -7l-9 -29l-7 -3l-101 41l-101 -41l-7 3l-9 29l3 7l110 99h8z" />
    <glyph glyph-name="underscore" unicode="_" horiz-adv-x="481" 
d="M457 0v-82h-433v82h433z" />
    <glyph glyph-name="grave" unicode="`" horiz-adv-x="219" 
d="M185 519l-201 77.002c-2.66699 6 -4 12.333 -4 19c0 17.333 4.5 32.166 13.5 44.499s22.833 19.166 41.5 20.499l181 -101l3 -7l-26 -50z" />
    <glyph glyph-name="a" unicode="a" horiz-adv-x="517" 
d="M312 7c2 6 3.50391 14.666 4.50391 25.999s2.5 21.666 4.5 30.999l-1 3c-8 -10 -17.167 -19.667 -27.5 -29s-21.833 -17.666 -34.5 -24.999s-26.167 -13.166 -40.5 -17.499s-29.5 -6.5 -45.5 -6.5c-24 0 -45 3.66699 -63 11s-33 17 -45 29s-21.167 26 -27.5 42
s-9.5 32.667 -9.5 50c0 26 5.66699 48.667 17 68s26.333 35 45 47c17.333 11.333 37.666 20.166 60.999 26.499s46 11.166 68 14.499s42 5.5 60 6.5s30 1.5 36 1.5h14c-0.666992 20.667 -2 36.834 -4 48.501s-4.66699 21.5 -8 29.5c-6 13.333 -15.833 22.833 -29.5 28.5
s-29.834 8.5 -48.501 8.5c-11.333 0 -23.5 -0.833008 -36.5 -2.5s-25.167 -4.83398 -36.5 -9.50098s-21.166 -11.167 -29.499 -19.5s-13.166 -19.166 -14.499 -32.499l-4 -3h-32l-9 94l3 6c4 4 11.667 8.33301 23 13s25 9.16699 41 13.5s33.5 8 52.5 11s38.167 4.5 57.5 4.5
c26 0 50.333 -3.16699 73 -9.5s42.167 -15.833 58.5 -28.5s29.166 -28.5 38.499 -47.5s14 -41.167 14 -66.5c0 -27.333 -0.166992 -50.666 -0.5 -69.999s-0.833008 -37.333 -1.5 -54s-1.16699 -32.834 -1.5 -48.501s-0.5 -33.167 -0.5 -52.5
c1.33301 -15.333 3 -26.333 5 -33s5.33301 -12 10 -16c5.33301 -5.33301 13.5 -8.5 24.5 -9.5s21.167 -1.5 30.5 -1.5l3 -4l2 -34l-1 -4c-11.333 1.33301 -24.333 2.33301 -39 3s-28.334 1 -41.001 1c-18.667 0 -37.334 -0.166992 -56.001 -0.5
s-36.334 -1.16602 -53.001 -2.49902zM312.004 114.999c2 3.33301 4.16699 7.32812 6.5 11.9951s3.83301 10.334 4.5 17.001l5 85h-9c-20.667 0 -41 -1.33301 -61 -4s-38 -7.66699 -54 -15s-29 -17.666 -39 -30.999s-15 -30.666 -15 -51.999c0 -18 4.5 -32.333 13.5 -43
s21.167 -16 36.5 -16c11.333 0 22.833 1.5 34.5 4.5s22.5 6.83301 32.5 11.5s19 9.83398 27 15.501s14 10.834 18 15.501z" />
    <glyph glyph-name="b" unicode="b" horiz-adv-x="621" 
d="M198 80c0 -13.333 1.33789 -25.3301 4.00488 -35.9971s5.33398 -19.667 8.00098 -27l-6 -17h-46c-6.66699 0 -16.167 -0.166992 -28.5 -0.5s-25.5 -0.666016 -39.5 -0.999023s-27.167 -0.833008 -39.5 -1.5s-21.833 -1 -28.5 -1l-1 4l2 34l3 4
c9.33301 0 18.666 0.5 27.999 1.5s16.666 4.16699 21.999 9.5c5.33301 4.66699 9.33301 10.667 12 18s4 17.666 4 30.999v13c0 6 0.166992 11.667 0.5 17s0.5 12.166 0.5 20.499s0.166992 19.166 0.5 32.499s0.5 31 0.5 53v230c0 27.333 -0.166992 50 -0.5 68
s-0.666016 33.333 -0.999023 46s-0.666016 23.667 -0.999023 33s-0.833008 19.666 -1.5 30.999c-0.666992 7.33301 -3 14 -7 20s-7.33301 10 -10 12c-8.66699 7.33301 -17.834 11.833 -27.501 13.5s-19.834 2.5 -30.501 2.5l-4 4v33l4 4h50
c15.333 0 32.666 0.166992 51.999 0.5s35.666 1.5 48.999 3.5l35 5l6 -19c-1.33301 -2.66699 -2.5 -7.5 -3.5 -14.5s-1.83301 -14.5 -2.5 -22.5s-1.16699 -15.667 -1.5 -23s-0.5 -13 -0.5 -17v-28.5c0 -8.33301 -0.166992 -18.166 -0.5 -29.499s-0.5 -25.5 -0.5 -42.5v-67.5
c0 -28.667 -0.333008 -49.5 -1 -62.5s-1.33398 -23.5 -2.00098 -31.5l3 -2c19.333 28 43 50.833 71 68.5s59.667 26.5 95 26.5c38 0 70.833 -6.66699 98.5 -20s50.5 -31 68.5 -53s31.333 -47.167 40 -75.5s13 -57.833 13 -88.5c0 -45.333 -7 -83.833 -21 -115.5
s-31.833 -57.334 -53.5 -77.001s-45.334 -34 -71.001 -43s-50.167 -13.5 -73.5 -13.5c-32 0 -62.167 7 -90.5 21s-52.833 38 -73.5 72zM467.005 235.003c0 20 -2.49805 39.5 -7.49805 58.5s-12.5 36 -22.5 51s-22.833 27 -38.5 36s-34.167 13.5 -55.5 13.5
c-22.667 0 -42.834 -3.83301 -60.501 -11.5s-32.667 -17 -45 -28s-22 -22.5 -29 -34.5s-10.833 -22.333 -11.5 -31v-111c1.33301 -8.66699 5.16602 -19.167 11.499 -31.5s15.333 -24.333 27 -36s26.167 -21.5 43.5 -29.5s38 -12 62 -12c22 0 41 4.83301 57 14.5
s29.167 22.167 39.5 37.5s17.833 33 22.5 53s7 40.333 7 61z" />
    <glyph glyph-name="c" unicode="c" horiz-adv-x="496" 
d="M417 323l-4 2.99707c0 15.333 -4.5 27.833 -13.5 37.5s-19.833 17.167 -32.5 22.5s-26.167 9 -40.5 11s-26.833 3 -37.5 3c-24 0 -45 -4.66699 -63 -14s-32.667 -21.666 -44 -36.999s-19.833 -33 -25.5 -53s-8.5 -40.667 -8.5 -62c0 -22.667 3.16699 -44.334 9.5 -65.001
s15.833 -39 28.5 -55s28.834 -28.833 48.501 -38.5s42.834 -14.5 69.501 -14.5c22.667 0 46.667 2.33301 72 7s48 12.334 68 23.001l17 -24l-15 -28c-7.33301 -5.33301 -16.833 -10.833 -28.5 -16.5s-24.834 -11 -39.501 -16s-30.5 -9.16699 -47.5 -12.5
s-33.833 -5 -50.5 -5c-32.667 0 -63.834 5.83301 -93.501 17.5s-55.667 28 -78 49s-40.166 46.333 -53.499 76s-20 62.5 -20 98.5c0 36.667 6.66699 70 20 100s31.666 55.667 54.999 77s50.5 38 81.5 50s64.167 18 99.5 18c16 0 32.167 -1.16699 48.5 -3.5
s32 -5.16602 47 -8.49902s28.5 -7.16602 40.5 -11.499s21.667 -8.5 29 -12.5l3 -9l-11 -107h-31z" />
    <glyph glyph-name="d" unicode="d" horiz-adv-x="623" 
d="M413 17c0 4.66699 1.16992 13.4971 3.50293 26.4971s4.16602 24.5 5.49902 34.5l-1 4c-17.333 -30.667 -41.333 -53.834 -72 -69.501s-62.667 -23.5 -96 -23.5c-36.667 0 -68.5 6.66699 -95.5 20s-49.5 31 -67.5 53s-31.333 47.333 -40 76s-13 58.334 -13 89.001
c0 44.667 7.16699 82.834 21.5 114.501s32.5 57.334 54.5 77.001s46.167 34 72.5 43s51.833 13.5 76.5 13.5c30 0 59.667 -7 89 -21s53.333 -37 72 -69l2 4c-1.33301 19.333 -2 39.166 -2 59.499v59.5v51.5c0 13.667 -0.166992 25.167 -0.5 34.5
s-0.666016 17.666 -0.999023 24.999s-0.833008 15 -1.5 23c-0.666992 6.66699 -3 13 -7 19s-7 10 -9 12c-9.33301 7.33301 -18.5 12 -27.5 14s-19.5 3 -31.5 3l-4 4v33l4 4h57c15.333 0 31.5 0.166992 48.5 0.5s32.167 1.5 45.5 3.5l35 5l6 -19
c-1.33301 -2.66699 -2.5 -7.5 -3.5 -14.5s-1.66699 -14.5 -2 -22.5l-1 -23c-0.333008 -7.33301 -0.5 -13 -0.5 -17c0 -10 -0.166992 -19.5 -0.5 -28.5s-0.5 -19.333 -0.5 -31s-0.166992 -26 -0.5 -43s-0.5 -38.833 -0.5 -65.5v-218c0 -28 0.166992 -50.5 0.5 -67.5
s0.666016 -31.167 0.999023 -42.5s0.666016 -21.166 0.999023 -29.499s0.833008 -18.5 1.5 -30.5c1.33301 -12 3.16602 -20.667 5.49902 -26s5.83301 -9.66602 10.5 -12.999c5.33301 -5.33301 12.666 -8.5 21.999 -9.5s18 -1.5 26 -1.5l4 -4l2 -34l-2 -4
c-11.333 1.33301 -23.666 2.33301 -36.999 3s-26 1 -38 1c-18 0 -36 -0.166992 -54 -0.5s-35 -1.16602 -51 -2.49902zM153.003 227.997c0 -20 2.49805 -39.498 7.49805 -58.498s12.5 -36 22.5 -51s22.833 -27 38.5 -36s34.167 -13.5 55.5 -13.5
c22.667 0 42.834 3.83301 60.501 11.5s32.667 17 45 28s22 22.5 29 34.5s10.833 22.333 11.5 31v111c-1.33301 8.66699 -5.16602 19.167 -11.499 31.5s-15.333 24.166 -27 35.499s-26.167 21.166 -43.5 29.499s-38 12.5 -62 12.5c-22 0 -41 -4.83301 -57 -14.5
s-29.167 -22.167 -39.5 -37.5s-17.833 -33 -22.5 -53s-7 -40.333 -7 -61z" />
    <glyph glyph-name="e" unicode="e" horiz-adv-x="507" 
d="M469 255l-24 -17.999c-36 0 -71.5 -0.333008 -106.5 -1s-70.833 -1 -107.5 -1h-82c-0.666992 -4.66699 -1 -9.16699 -1 -13.5v-12.5c0 -17.333 3 -34.666 9 -51.999s15.5 -32.833 28.5 -46.5s29.5 -24.667 49.5 -33s44.333 -12.5 73 -12.5
c20.667 0 42.5 2.83301 65.5 8.5s44.5 13.167 64.5 22.5l17 -7v-36l-10 -11c-16 -12.667 -39.5 -24.667 -70.5 -36s-64.5 -17 -100.5 -17c-35.333 0 -67.5 5.83301 -96.5 17.5s-54 28.167 -75 49.5s-37.333 46.666 -49 75.999s-17.5 62 -17.5 98c0 36.667 6 70 18 100
s28.5 55.667 49.5 77s45.667 38 74 50s58.833 18 91.5 18c17.333 0 36.833 -2.33301 58.5 -7s42.5 -13.5 62.5 -26.5s38 -31.333 54 -55s27 -54.834 33 -93.501zM270 400.001c-32.667 0 -58.833 -9.83301 -78.5 -29.5s-32.167 -42.5 -37.5 -68.5h50
c23.333 0 46.333 0.5 69 1.5s45.667 1.5 69 1.5c8.66699 0 15 2.5 19 7.5s6 10.167 6 15.5c0 20 -9.66699 37 -29 51s-42 21 -68 21z" />
    <glyph glyph-name="f" unicode="f" horiz-adv-x="335" 
d="M315 400l-106.998 0.000976562v-142v-63c0 -16.667 0.166992 -30.834 0.5 -42.501s0.833008 -21.667 1.5 -30l2 -24.5c1.33301 -10 4 -19.5 8 -28.5s8.66699 -15.833 14 -20.5c5.33301 -5.33301 12.833 -8.5 22.5 -9.5s17.5 -1.5 23.5 -1.5l5 -5l2 -33l-2 -4
c-4 0 -10.333 0.333008 -19 1s-17.667 1.16699 -27 1.5l-27 1c-8.66699 0.333008 -15 0.5 -19 0.5h-64c-4.66699 -0 -11.834 -0.166992 -21.501 -0.5s-19.834 -0.666016 -30.501 -0.999023s-20.834 -0.833008 -30.501 -1.5s-16.834 -1 -21.501 -1l-1 4l2 34l3 4
c10 0 19.667 0.833008 29 2.5s17 5.16699 23 10.5c4 4 7.5 9 10.5 15s5.16699 15.333 6.5 28s2.33301 30 3 52s1 51.333 1 88v166h-54l-4 5v43l4 4l54 15v57c0 68 15.833 121.833 47.5 161.5s78.167 59.5 139.5 59.5c15.333 0 32 -3.16699 50 -9.5s36.667 -16.5 56 -30.5
l5 -10l-12 -87h-36c-1.33301 19.333 -9.66602 34.666 -24.999 45.999s-32.666 17 -51.999 17c-16.667 0 -29.5 -2.83301 -38.5 -8.5s-15.667 -13 -20 -22s-6.83301 -19.5 -7.5 -31.5s-1 -24 -1 -36v-106l107 6l5 -4v-64z" />
    <glyph glyph-name="g" unicode="g" horiz-adv-x="490" 
d="M137 136c-34 13.333 -58.666 34.334 -73.999 63.001s-23 60.334 -23 95.001c0 24.667 4.33301 48 13 70s21.167 41.167 37.5 57.5s36 29.166 59 38.499s49.167 14 78.5 14c17.333 0 34.5 -1.66699 51.5 -5s31.833 -8 44.5 -14c28 0.666992 54.167 2.33398 78.5 5.00098
s47.166 7 68.499 13l5 -4l-7 -75l-5 -5l-75 8l-1 -3c10.667 -12 19 -28 25 -48s9 -39 9 -57c0 -22 -4.16699 -43 -12.5 -63s-20.5 -37.5 -36.5 -52.5s-36 -27 -60 -36s-51.667 -13.5 -83 -13.5c-4 0 -9.16699 0.166992 -15.5 0.5s-11.166 0.5 -14.499 0.5
c-11.333 -4.66699 -19.833 -11 -25.5 -19s-8.5 -14.667 -8.5 -20c0 -14.667 15.667 -24 47 -28l97 -10c22 -2.66699 42.5 -7.33398 61.5 -14.001s35.667 -15.5 50 -26.5s25.5 -24.333 33.5 -40s12 -33.834 12 -54.501c0 -19.333 -4.33301 -38.833 -13 -58.5
s-21.667 -37.167 -39 -52.5c-17.333 -14.667 -41.333 -26.667 -72 -36s-66 -14 -106 -14c-36 0 -67.167 3.83301 -93.5 11.5s-48.333 18 -66 31s-30.834 27.667 -39.501 44s-13 33.166 -13 50.499c0 28 9.16699 52.833 27.5 74.5s41.833 36.834 70.5 45.501l1 3
c-16 6 -28.833 13.5 -38.5 22.5s-14.5 20.167 -14.5 33.5c0 17.333 7 31.333 21 42s29 18 45 22v4zM232.001 193.001c13.333 0 25.167 2.66699 35.5 8s19.166 12.333 26.499 21s12.833 18.834 16.5 30.501s5.5 23.834 5.5 36.501c0 13.333 -2 26.666 -6 39.999
s-9.66699 25.5 -17 36.5s-16.666 20 -27.999 27s-24.333 10.5 -39 10.5c-14 0 -26 -3.16699 -36 -9.5s-18.5 -14.5 -25.5 -24.5s-12.167 -21.333 -15.5 -34s-5 -25 -5 -37c0 -12.667 1.83301 -25.334 5.5 -38.001s9.16699 -24 16.5 -34s16.5 -18 27.5 -24s23.833 -9 38.5 -9
zM200.002 -21.999c-14.667 -0.666992 -27.333 -3.33398 -38 -8.00098s-19.667 -10.834 -27 -18.501s-12.833 -16 -16.5 -25s-5.5 -17.833 -5.5 -26.5c0 -19.333 11.667 -35.166 35 -47.499s55 -18.5 95 -18.5c36 0 66.333 5.83301 91 17.5s37 28.834 37 51.501
c0 12.667 -3 23 -9 31s-14 14.5 -24 19.5s-21.167 8.83301 -33.5 11.5s-24.833 4.66699 -37.5 6z" />
    <glyph glyph-name="h" unicode="h" horiz-adv-x="627" 
d="M419 17c2.66699 8.66699 4.6748 20.002 6.00781 34.002s2.33301 26.333 3 37c1.33301 25.333 2.33301 50.666 3 75.999s1 46.666 1 63.999c0 15.333 -0.333008 32 -1 50s-3 33.667 -7 47c-5.33301 21.333 -16.666 37.166 -33.999 47.499s-36.666 15.5 -57.999 15.5
c-19.333 0 -37.166 -3.66699 -53.499 -11s-30.5 -16.333 -42.5 -27s-21.333 -21.667 -28 -33s-10 -21 -10 -29v-80.5c0 -19.667 0.166992 -35.834 0.5 -48.501s0.666016 -23.167 0.999023 -31.5s1.16602 -18.166 2.49902 -29.499c1.33301 -14 4 -24.5 8 -31.5
s8.66699 -12.833 14 -17.5c5.33301 -5.33301 11.666 -8.5 18.999 -9.5s16 -1.5 26 -1.5l5 -5l2 -33l-2 -4c-4.66699 0 -11.667 0.333008 -21 1s-19.333 1.16699 -30 1.5s-20.667 0.666016 -30 0.999023s-16.333 0.5 -21 0.5h-54c-4.66699 0 -11.834 -0.166992 -21.501 -0.5
l-30 -1c-10.333 -0.333008 -20.333 -0.833008 -30 -1.5s-16.834 -1 -21.501 -1l-1 4l2 34l3 4c10.667 0 20.167 0.5 28.5 1.5s15.166 4.16699 20.499 9.5c5.33301 4.66699 9.66602 10.667 12.999 18s5.66602 17.666 6.99902 30.999l2 24c0.666992 8 1.16699 17.5 1.5 28.5
s0.5 24 0.5 39v54.5v220v66c0 18 -0.166992 33.5 -0.5 46.5s-0.666016 24.667 -0.999023 35s-0.833008 20.5 -1.5 30.5c-0.666992 6.66699 -2.83398 12.834 -6.50098 18.501s-6.5 9.5 -8.5 11.5c-6.66699 7.33301 -15.5 12.166 -26.5 14.499s-21.833 3.5 -32.5 3.5l-4 4v33
l4 4h56c15.333 0 31.666 0.166992 48.999 0.5s32.666 1.5 45.999 3.5l35 5l6 -19c-1.33301 -3.33301 -2.33301 -8.83301 -3 -16.5s-1.33398 -16 -2.00098 -25s-1 -17.667 -1 -26v-19.5c0 -17.333 -0.5 -37.333 -1.5 -60s-1.5 -49 -1.5 -79c0 -28 -0.166992 -53 -0.5 -75
s-1.16602 -38 -2.49902 -48l3 -2c8 12 17.5 24.167 28.5 36.5s23.333 23.666 37 33.999s28.667 18.666 45 24.999s33.833 9.5 52.5 9.5c20.667 0 41 -2.66699 61 -8s38.167 -13.666 54.5 -24.999s29.833 -25.666 40.5 -42.999s17.667 -38 21 -62
c2 -17.333 3.16699 -37.166 3.5 -59.499s0.5 -40.5 0.5 -54.5v-121c0 -15.333 2 -27.166 6 -35.499s8 -14.166 12 -17.499c6 -5.33301 13.667 -8.5 23 -9.5s19.333 -1.5 30 -1.5l3 -4l2 -34l-2 -4c-14 1.33301 -29.333 2.33301 -46 3s-33.334 1 -50.001 1
c-34 0 -65.333 -1 -94 -3z" />
    <glyph glyph-name="i" unicode="i" horiz-adv-x="306" 
d="M288 -4c-4.66699 0 -11.6611 0.336914 -20.9941 1.00391s-19.333 1.16699 -30 1.5s-20.667 0.666016 -30 0.999023s-16.333 0.5 -21 0.5h-54c-4.66699 0 -11.834 -0.166992 -21.501 -0.5l-30 -1c-10.333 -0.333008 -20.333 -0.833008 -30 -1.5s-16.834 -1 -21.501 -1
l-1 4l2 34l3 4c10 0 20.333 0.5 31 1.5s18.667 4.16699 24 9.5c4.66699 4.66699 8 10.667 10 18s3.66699 17.666 5 30.999c0.666992 4.66699 1.16699 9.33398 1.5 14.001s0.666016 9.66699 0.999023 15s0.5 11.666 0.5 18.999v27v113v30.5
c0 7.66699 -0.166992 14.167 -0.5 19.5s-0.666016 10.166 -0.999023 14.499s-0.833008 9.5 -1.5 15.5c-1.33301 6.66699 -3.33301 13 -6 19s-5 10 -7 12c-6.66699 8.66699 -15 13.667 -25 15s-20.333 2 -31 2l-4 4v34l4 3h51c15.333 0 31.666 0.166992 48.999 0.5
s32.666 1.5 45.999 3.5l35 5l6 -19c-1.33301 -2.66699 -2.5 -6.83398 -3.5 -12.501s-1.66699 -11.667 -2 -18l-1 -19c-0.333008 -6.33301 -0.5 -11.5 -0.5 -15.5c0 -5.33301 -0.166992 -10.166 -0.5 -14.499s-0.5 -9.33301 -0.5 -15s-0.166992 -12.834 -0.5 -21.501
s-0.5 -19.334 -0.5 -32.001v-112c0 -13.333 0.166992 -24.166 0.5 -32.499s0.666016 -15.5 0.999023 -21.5s0.666016 -11.5 0.999023 -16.5s0.833008 -10.5 1.5 -16.5c1.33301 -14 2.83301 -24.5 4.5 -31.5s5.16699 -12.833 10.5 -17.5
c5.33301 -5.33301 12.833 -8.5 22.5 -9.5s19.5 -1.5 29.5 -1.5l5 -5l2 -33zM85.0059 613.004c0 8 1.66504 16.002 4.99805 24.002s8 15.167 14 21.5s12.833 11.333 20.5 15s15.834 5.5 24.501 5.5c16.667 0 31.834 -6.83301 45.501 -20.5s20.5 -28.834 20.5 -45.501
c0 -8.66699 -1.83301 -16.834 -5.5 -24.501s-8.66699 -14.5 -15 -20.5s-13.5 -10.667 -21.5 -14s-16 -5 -24 -5c-17.333 0 -32.333 6.33301 -45 19s-19 27.667 -19 45z" />
    <glyph glyph-name="j" unicode="j" horiz-adv-x="277" 
d="M17 452l4.00195 2.99902h51c15.333 0 31.833 0.166992 49.5 0.5s33.167 1.5 46.5 3.5l35 5l5 -19c-1.33301 -2.66699 -2.33301 -7.33398 -3 -14.001s-1.16699 -14 -1.5 -22l-1 -23c-0.333008 -7.33301 -0.5 -13.333 -0.5 -18c0 -6 -0.166992 -12.667 -0.5 -20
s-0.666016 -16.5 -0.999023 -27.5s-0.5 -24.5 -0.5 -40.5v-58v-226c0 -40 -3.5 -74.667 -10.5 -104s-17.5 -54 -31.5 -74s-31.667 -36 -53 -48s-46.333 -21 -75 -27c-6.66699 -1.33301 -12.667 -2.16602 -18 -2.49902s-11.333 -0.5 -18 -0.5l-8 2l-2 39l4 5
c13.333 0 25.166 1.16699 35.499 3.5s20.5 9.16602 30.5 20.499c15.333 14 25.166 31.833 29.499 53.5s6.83301 46.5 7.5 74.5c0 4 0.166992 12.333 0.5 25s0.666016 27.334 0.999023 44.001s0.5 34.5 0.5 53.5s0.166992 36.833 0.5 53.5s0.5 31.334 0.5 44.001v26v33.5
c0 15.667 -0.166992 32.5 -0.5 50.5l-1 53.5c-0.333008 17.667 -0.833008 32.167 -1.5 43.5c-0.666992 7.33301 -2.5 14 -5.5 20s-5.5 10 -7.5 12c-6.66699 8.66699 -15.167 13.667 -25.5 15s-20.833 2 -31.5 2l-4 4v34zM75.002 612.999c0 8 1.66504 16.002 4.99805 24.002
s8 15.167 14 21.5s12.833 11.333 20.5 15s15.834 5.5 24.501 5.5c16.667 0 31.834 -6.83301 45.501 -20.5s20.5 -28.834 20.5 -45.501c0 -8.66699 -1.83301 -16.834 -5.5 -24.501s-8.66699 -14.5 -15 -20.5s-13.5 -10.667 -21.5 -14s-16 -5 -24 -5
c-17.333 0 -32.333 6.33301 -45 19s-19 27.667 -19 45z" />
    <glyph glyph-name="k" unicode="k" horiz-adv-x="542" 
d="M17 727l4.00781 4h50c15.333 0 31.666 0.166992 48.999 0.5s32.666 1.5 45.999 3.5l36 5l6 -19c-1.33301 -2.66699 -2.5 -7.5 -3.5 -14.5s-1.66699 -14.5 -2 -22.5l-1 -23c-0.333008 -7.33301 -0.5 -13 -0.5 -17c0 -10.667 -0.166992 -20.667 -0.5 -30
s-0.666016 -20.333 -0.999023 -33s-0.666016 -28 -0.999023 -46s-0.5 -41 -0.5 -69v-191l106 99c7.33301 7.33301 11 14.333 11 21c0 10.667 -15.333 18.667 -46 24l-4 4v32l4 4l38 -4c12.667 -1.33301 25.667 -2 39 -2h61c11.333 0 22.666 0.666992 33.999 2l34 4l3 -4v-34
l-5 -5l-20.5 -5c-8.33301 -2 -15.833 -5 -22.5 -9c-10 -6 -20.167 -13 -30.5 -21s-20.666 -16.667 -30.999 -26l-31 -28.5l-28.5 -26.5l-22 -20l130 -160c10.667 -13.333 20.667 -24.833 30 -34.5s19 -17.834 29 -24.501s20.667 -12 32 -16s24.666 -6.33301 39.999 -7l3 -4
l2 -34l-2 -4c-16.667 -1.33301 -34.834 -2.16602 -54.501 -2.49902s-39.5 -0.5 -59.5 -0.5c-14.667 0 -28.334 4.5 -41.001 13.5s-23.667 19.167 -33 30.5l-159 196l-6 -6c0 -22.667 0.333008 -45.834 1 -69.501s1.66699 -43.5 3 -59.5c0.666992 -14 2 -24.5 4 -31.5
s5.66699 -12.833 11 -17.5c5.33301 -5.33301 12.833 -8.5 22.5 -9.5s19.5 -1.5 29.5 -1.5l5 -5l2 -33l-2 -4c-5.33301 0 -12.666 0.333008 -21.999 1s-19 1.16699 -29 1.5l-29.5 1c-9.66699 0.333008 -16.834 0.5 -21.501 0.5h-54
c-4.66699 0 -11.834 -0.166992 -21.501 -0.5l-30 -1c-10.333 -0.333008 -20.333 -0.833008 -30 -1.5s-16.834 -1 -21.501 -1l-1 4l2 34l3 4c10.667 0 21.167 0.5 31.5 1.5s18.166 4.16699 23.499 9.5c5.33301 4.66699 8.83301 10.667 10.5 18s3.16699 17.666 4.5 30.999
c0.666992 7.33301 1.16699 14.833 1.5 22.5s0.666016 16.5 0.999023 26.5s0.5 22 0.5 36v51v220v69.5c0 19 -0.166992 35.5 -0.5 49.5s-0.666016 26.333 -0.999023 37s-0.833008 21.334 -1.5 32.001c-0.666992 7.33301 -2.5 13.833 -5.5 19.5s-5.5 9.83398 -7.5 12.501
c-6.66699 7.33301 -14.834 11.833 -24.501 13.5s-19.834 2.5 -30.501 2.5l-4 4v33z" />
    <glyph glyph-name="l" unicode="l" horiz-adv-x="298" 
d="M278 -4c-4.66699 0 -11.6611 0.336914 -20.9941 1.00391s-19.333 1.16699 -30 1.5s-20.667 0.666016 -30 0.999023s-16.333 0.5 -21 0.5h-54c-4.66699 0 -11.834 -0.166992 -21.501 -0.5l-30 -1c-10.333 -0.333008 -20.333 -0.833008 -30 -1.5s-16.834 -1 -21.501 -1
l-1 4l2 34l3 4c10 0 20.333 0.5 31 1.5s18.667 4.16699 24 9.5c4.66699 4.66699 8 10.667 10 18s3.66699 17.666 5 30.999c0.666992 4.66699 1.16699 9.33398 1.5 14.001s0.666016 9.66699 0.999023 15s0.5 11.666 0.5 18.999v27v389v30.5
c0 7.66699 -0.166992 14.167 -0.5 19.5s-0.666016 10.166 -0.999023 14.499s-0.833008 9.5 -1.5 15.5c-1.33301 6.66699 -3.33301 13 -6 19s-5 10 -7 12c-6.66699 8.66699 -15 13.667 -25 15s-20.333 2 -31 2l-4 4v34l4 3h51c15.333 0 31.666 0.166992 48.999 0.5
s32.666 1.5 45.999 3.5l35 5l6 -19c-1.33301 -2.66699 -2.5 -6.83398 -3.5 -12.501s-1.66699 -11.667 -2 -18l-1 -19c-0.333008 -6.33301 -0.5 -11.5 -0.5 -15.5c0 -5.33301 -0.166992 -10.166 -0.5 -14.499s-0.5 -9.33301 -0.5 -15s-0.166992 -12.834 -0.5 -21.501
s-0.5 -19.334 -0.5 -32.001v-388c0 -13.333 0.166992 -24.166 0.5 -32.499s0.666016 -15.5 0.999023 -21.5s0.666016 -11.5 0.999023 -16.5s0.833008 -10.5 1.5 -16.5c1.33301 -14 2.83301 -24.5 4.5 -31.5s5.16699 -12.833 10.5 -17.5
c5.33301 -5.33301 12.833 -8.5 22.5 -9.5s19.5 -1.5 29.5 -1.5l5 -5l2 -33z" />
    <glyph glyph-name="m" unicode="m" horiz-adv-x="964" 
d="M30 452l4.00781 3.00781h50c15.333 0 31.833 0.166992 49.5 0.5s33.167 1.5 46.5 3.5l35 5l6 -19c-1.33301 -3.33301 -2.5 -7.83301 -3.5 -13.5s-2 -11.834 -3 -18.501s-1.83301 -13.167 -2.5 -19.5s-1 -11.833 -1 -16.5l3 -2c7.33301 13.333 15.833 26.166 25.5 38.499
s20.834 23 33.501 32s27 16.167 43 21.5s34.333 8 55 8c36.667 0 69.5 -9.33301 98.5 -28s49.833 -44.667 62.5 -78c7.33301 12 16 24.333 26 37s21.667 24.167 35 34.5s28.5 18.666 45.5 24.999s36.167 9.5 57.5 9.5c20.667 0 40.667 -2.66699 60 -8s37 -13.666 53 -24.999
s29.667 -25.666 41 -42.999s19.333 -38.333 24 -63c3.33301 -17.333 5.16602 -35.666 5.49902 -54.999s0.5 -38.666 0.5 -57.999v-125c0 -13.333 1.83301 -23 5.5 -29l10.5 -17c4.66699 -6.66699 12.167 -10.667 22.5 -12s20.833 -2 31.5 -2l4 -4l2 -34l-2 -4
c-12 1.33301 -25 2.33301 -39 3s-27.667 1 -41 1c-40.667 0 -77.334 -1 -110.001 -3l-7 20c2 8.66699 3.83301 20 5.5 34s2.83398 26.333 3.50098 37c0.666992 8.66699 1.16699 20 1.5 34s0.833008 28.167 1.5 42.5s1.16699 27.666 1.5 39.999s0.5 21.833 0.5 28.5
c0 13.333 -0.5 30.166 -1.5 50.499s-3.16699 37.5 -6.5 51.5c-5.33301 17.333 -15.333 30.5 -30 39.5s-31 13.5 -49 13.5c-17.333 0 -33.166 -2.5 -47.499 -7.5s-27.166 -11.167 -38.499 -18.5s-20.833 -15.666 -28.5 -24.999s-13.5 -18 -17.5 -26
c1.33301 -14.667 2.16602 -29.334 2.49902 -44.001s0.5 -29.334 0.5 -44.001v-125c0 -14 1.5 -24.333 4.5 -31s7.16699 -12.667 12.5 -18c6 -5.33301 13.5 -8.5 22.5 -9.5s18.5 -1.5 28.5 -1.5l5 -5l2 -33l-2 -4c-4.66699 0 -11.667 0.333008 -21 1s-19.333 1.16699 -30 1.5
s-20.667 0.666016 -30 0.999023s-16.333 0.5 -21 0.5h-54c-4.66699 0 -11.834 -0.166992 -21.501 -0.5l-30 -1c-10.333 -0.333008 -20.333 -0.833008 -30 -1.5s-16.834 -1 -21.501 -1l-2 4l2 34l4 4c10.667 0 20.834 0.5 30.501 1.5s17.167 4.16699 22.5 9.5
c5.33301 4.66699 9.16602 10.667 11.499 18s3.83301 17.666 4.5 30.999c0 8 0.333008 18.5 1 31.5s1.16699 26.167 1.5 39.5s0.666016 25.833 0.999023 37.5s0.5 20.5 0.5 26.5v23.5c0 9 -0.333008 18.167 -1 27.5s-1.5 18.333 -2.5 27s-2.5 16.667 -4.5 24
c-6 17.333 -16.167 30.5 -30.5 39.5s-30.5 13.5 -48.5 13.5c-22 0 -42 -3.66699 -60 -11s-33.5 -16.333 -46.5 -27s-23 -21.667 -30 -33s-10.5 -21.333 -10.5 -30v-92c0 -14.667 0.166992 -26.667 0.5 -36s0.666016 -17.333 0.999023 -24s0.666016 -12.834 0.999023 -18.501
s0.833008 -11.834 1.5 -18.501c1.33301 -14 4.33301 -24.5 9 -31.5s10.667 -13.5 18 -19.5c5.33301 -4.66699 11.5 -7.33398 18.5 -8.00098s14.5 -1 22.5 -1l5 -5l2 -33l-2 -4c-4.66699 0 -11.834 0.333008 -21.501 1s-19.667 1.16699 -30 1.5l-30 1
c-9.66699 0.333008 -16.834 0.5 -21.501 0.5h-54c-4.66699 0 -11.834 -0.166992 -21.501 -0.5l-30 -1c-10.333 -0.333008 -20.333 -0.833008 -30 -1.5s-16.834 -1 -21.501 -1l-1 4l2 34l3 4c10.667 0 20.5 0.666992 29.5 2s16.167 4.66602 21.5 9.99902
c4.66699 4.66699 8.66699 10.5 12 17.5s5.66602 17.167 6.99902 30.5l2 32.5c0.666992 11 1 28.5 1 52.5v83v35.5c0 9.66699 -0.166992 18.167 -0.5 25.5s-0.666016 14 -0.999023 20s-0.833008 12.333 -1.5 19c-1.33301 6.66699 -3.33301 13 -6 19s-5 10 -7 12
c-6.66699 8.66699 -15 13.667 -25 15s-20.333 2 -31 2l-4 4v34z" />
    <glyph glyph-name="n" unicode="n" horiz-adv-x="639" 
d="M214 373c15.333 29.333 36.3398 53.6641 63.0068 72.9971s58 29 94 29c20.667 0 41 -2.66699 61 -8s38.167 -13.666 54.5 -24.999s30 -25.833 41 -43.5s18.167 -38.5 21.5 -62.5c2 -17.333 3.16699 -35.666 3.5 -54.999s0.5 -38.666 0.5 -57.999
c0.666992 -22.667 1 -43.5 1 -62.5v-62.5c0 -15.333 1.83301 -26.833 5.5 -34.5s8.16699 -12.834 13.5 -15.501c7.33301 -4 15.166 -6.66699 23.499 -8s17.833 -2 28.5 -2l3 -4l2 -34l-2 -4c-14 1.33301 -29.5 2.33301 -46.5 3s-33.5 1 -49.5 1s-32 -0.166992 -48 -0.5
s-31 -1.16602 -45 -2.49902l-7 20c2 8.66699 3.83301 21.667 5.5 39s2.83398 31.333 3.50098 42c1.33301 25.333 2.33301 49 3 71s1 41.667 1 59c0 15.333 -0.333008 32 -1 50s-3 33.667 -7 47c-5.33301 21.333 -16.166 37.166 -32.499 47.499s-35.166 15.5 -56.499 15.5
c-20 0 -38.333 -3.66699 -55 -11s-30.834 -16.166 -42.501 -26.499s-20.834 -21.166 -27.501 -32.499s-10 -21.333 -10 -30v-103v-32.5c0 -8.33301 0.166992 -15.5 0.5 -21.5s0.666016 -11.5 0.999023 -16.5s0.833008 -10.5 1.5 -16.5
c1.33301 -14 4.16602 -24.5 8.49902 -31.5s9.16602 -12.833 14.499 -17.5c5.33301 -5.33301 11.666 -8.5 18.999 -9.5s16 -1.5 26 -1.5l5 -5l2 -33l-2 -4c-4.66699 0 -11.667 0.333008 -21 1s-19.333 1.16699 -30 1.5s-20.667 0.666016 -30 0.999023s-16.333 0.5 -21 0.5
h-55c-4.66699 -0 -11.834 -0.166992 -21.501 -0.5l-30 -1c-10.333 -0.333008 -20.333 -0.833008 -30 -1.5s-16.834 -1 -21.501 -1l-1 4l2 34l3 4c10.667 0 20.167 0.5 28.5 1.5s15.166 4.16699 20.499 9.5c4.66699 4.66699 9 10.667 13 18s6.66699 17.666 8 30.999
c0.666992 4.66699 1.16699 9.33398 1.5 14.001s0.666016 9.66699 0.999023 15s0.5 11.666 0.5 18.999v27v103v32c0 8.66699 -0.166992 16.334 -0.5 23.001s-0.666016 12.667 -0.999023 18s-0.833008 11 -1.5 17c-1.33301 6.66699 -3.33301 13 -6 19s-5 10 -7 12
c-6.66699 8.66699 -15 13.667 -25 15s-20.333 2 -31 2l-4 4v34l4 3h51c15.333 0 31.833 0.166992 49.5 0.5s33.167 1.5 46.5 3.5l35 5l6 -19c-5.33301 -7.33301 -8.5 -17.5 -9.5 -30.5s-1.5 -26.167 -1.5 -39.5z" />
    <glyph glyph-name="o" unicode="o" horiz-adv-x="563" 
d="M281 475c39.333 0 74.334 -6.83105 105.001 -20.498s56.5 -32 77.5 -55s37 -49.5 48 -79.5s16.5 -61 16.5 -93c0 -30.667 -5 -60.334 -15 -89.001s-25.333 -54 -46 -76s-46.334 -39.667 -77.001 -53s-66.334 -20 -107.001 -20c-42 0 -78.667 7 -110 21
s-57.166 32.333 -77.499 55s-35.5 48.5 -45.5 77.5s-15 58.833 -15 89.5c0 32.667 5.66699 63.667 17 93s27.5 55.166 48.5 77.499s46.667 40 77 53s64.833 19.5 103.5 19.5zM282.001 58.002c20.667 0 38.832 4.83203 54.499 14.499s28.834 22.334 39.501 38.001
s18.5 33.667 23.5 54s7.5 41.166 7.5 62.499c0 20.667 -2.83301 41.5 -8.5 62.5s-14 39.833 -25 56.5s-24.5 30.334 -40.5 41.001s-34.333 16 -55 16c-21.333 0 -39.833 -5 -55.5 -15s-28.5 -23 -38.5 -39s-17.5 -34 -22.5 -54s-7.5 -40.333 -7.5 -61
c0 -21.333 2.83301 -42.333 8.5 -63s14 -39.5 25 -56.5s24.5 -30.667 40.5 -41s34 -15.5 54 -15.5z" />
    <glyph glyph-name="p" unicode="p" horiz-adv-x="624" 
d="M204 386c21.333 32 46.6738 54.8281 76.0068 68.4951s59.666 20.5 90.999 20.5c23.333 0 47.833 -4.16699 73.5 -12.5s49 -22 70 -41s38.333 -44 52 -75s20.5 -69.167 20.5 -114.5c0 -30.667 -4.5 -60.5 -13.5 -89.5s-22.667 -54.833 -41 -77.5s-41.5 -41 -69.5 -55
s-61 -21 -99 -21c-36 0 -67.833 9 -95.5 27s-51.167 41.667 -70.5 71l-3 -2c1.33301 -11.333 2.16602 -23.5 2.49902 -36.5s0.5 -31.833 0.5 -56.5v-56c0 -15.333 0.166992 -28.666 0.5 -39.999s0.666016 -21.166 0.999023 -29.499s0.833008 -16.833 1.5 -25.5
c1.33301 -13.333 2.83301 -23.666 4.5 -30.999s5.16699 -13 10.5 -17c5.33301 -5.33301 13.666 -8.66602 24.999 -9.99902s22.333 -2 33 -2l3 -3l2 -35l-1 -3c-4.66699 0 -12 0.166992 -22 0.5l-31 1l-31 1c-10 0.333008 -17.333 0.5 -22 0.5h-52
c-4.66699 0 -11.667 -0.166992 -21 -0.5s-19.333 -0.666016 -30 -0.999023s-20.667 -0.666016 -30 -0.999023s-16.333 -0.5 -21 -0.5l-2 3l2 34l5 4c10 0 19.833 0.5 29.5 1.5s17.167 4.5 22.5 10.5c5.33301 4 8.83301 9.66699 10.5 17s3.16699 17.666 4.5 30.999
c0.666992 11.333 1.16699 21.833 1.5 31.5s0.666016 20.5 0.999023 32.5s0.666016 26.5 0.999023 43.5s0.5 39.167 0.5 66.5v171v67.5c0 17.667 -0.166992 32.834 -0.5 45.501s-0.833008 24 -1.5 34s-1.33398 21 -2.00098 33
c-0.666992 7.33301 -2.33398 13.833 -5.00098 19.5s-5 9.5 -7 11.5c-6 8 -14 12.833 -24 14.5s-20.667 2.5 -32 2.5l-4 4v34l4 3h18h28c10.667 0 21.834 0.166992 33.501 0.5l34 1c11 0.333008 20.833 1.16602 29.5 2.49902l35 5l6 -19
c-2 -4.66699 -3.33301 -13.167 -4 -25.5s-1 -22.833 -1 -31.5zM471.008 234.995c0 20 -2.49805 39.5 -7.49805 58.5s-12.5 36 -22.5 51s-22.833 27 -38.5 36s-34.167 13.5 -55.5 13.5c-22.667 0 -42.834 -3.83301 -60.501 -11.5s-32.667 -17 -45 -28s-22 -22.5 -29 -34.5
s-10.833 -22.333 -11.5 -31v-111c1.33301 -8.66699 5.16602 -19.167 11.499 -31.5s15.333 -24.333 27 -36s26.167 -21.5 43.5 -29.5s38 -12 62 -12c22 0 41 4.83301 57 14.5s29.167 22.167 39.5 37.5s17.833 33 22.5 53s7 40.333 7 61z" />
    <glyph glyph-name="q" unicode="q" horiz-adv-x="620" 
d="M423 388c0 8.66699 -0.989258 19.1709 -2.98926 31.5039s-4 20.833 -6 25.5l6 19l35 -5c8.66699 -1.33301 18.5 -2.16602 29.5 -2.49902l33.5 -1c11.333 -0.333008 22.5 -0.5 33.5 -0.5h28.5h18l4 -3v-34l-4 -4c-11.333 0 -22 -0.833008 -32 -2.5s-18 -6.5 -24 -14.5
c-2 -2 -4.33301 -5.83301 -7 -11.5s-4.33398 -12.167 -5.00098 -19.5c-0.666992 -12 -1.33398 -23 -2.00098 -33s-1.16699 -21.333 -1.5 -34s-0.5 -27.834 -0.5 -45.501v-67.5v-171c0 -27.333 0.166992 -49.5 0.5 -66.5s0.666016 -31.5 0.999023 -43.5
s0.666016 -22.833 0.999023 -32.5s0.833008 -20.167 1.5 -31.5c1.33301 -13.333 2.83301 -23.666 4.5 -30.999s5.16699 -13 10.5 -17c5.33301 -6 12.833 -9.5 22.5 -10.5s19.5 -1.5 29.5 -1.5l5 -4l2 -34l-2 -3c-4.66699 0 -11.667 0.166992 -21 0.5
s-19.333 0.666016 -30 0.999023s-20.667 0.666016 -30 0.999023s-16.333 0.5 -21 0.5h-52c-4.66699 0 -11.834 -0.166992 -21.501 -0.5l-30 -1l-30 -1c-9.66699 -0.333008 -16.834 -0.5 -21.501 -0.5l-1 3l2 35l3 3c10.667 0 21.167 0.666992 31.5 2
s18.166 4.66602 23.499 9.99902c5.33301 4 8.83301 9.66699 10.5 17s3.16699 17.666 4.5 30.999c0.666992 8.66699 1.16699 17.167 1.5 25.5s0.666016 18.166 0.999023 29.499s0.5 24.666 0.5 39.999v56c0 24.667 0.166992 43.5 0.5 56.5s1.16602 25.167 2.49902 36.5l-3 2
c-19.333 -29.333 -42.833 -53 -70.5 -71s-59.5 -27 -95.5 -27c-38 0 -70.833 6.66699 -98.5 20s-50.334 31 -68.001 53s-30.834 47.167 -39.501 75.5s-13 57.833 -13 88.5c0 45.333 7 83.833 21 115.5s31.667 57.334 53 77.001s44.833 34 70.5 43s50.167 13.5 73.5 13.5
c31.333 0 61.333 -6.83301 90 -20.5s53.667 -36.5 75 -68.5zM151.011 228.004c0 -20 2.49805 -39.498 7.49805 -58.498s12.5 -36 22.5 -51s22.833 -27 38.5 -36s34.167 -13.5 55.5 -13.5c22.667 0 42.834 3.83301 60.501 11.5s32.667 17 45 28s22 22.5 29 34.5
s10.833 22.333 11.5 31v111c-1.33301 8.66699 -5.16602 19.167 -11.499 31.5s-15.333 24.166 -27 35.499s-26.167 21.166 -43.5 29.499s-38 12.5 -62 12.5c-22 0 -41 -4.83301 -57 -14.5s-29.167 -22.167 -39.5 -37.5s-17.833 -33 -22.5 -53s-7 -40.333 -7 -61z" />
    <glyph glyph-name="r" unicode="r" horiz-adv-x="440" 
d="M203 354c6.66699 12.667 14.1699 26.002 22.5029 40.002s17.833 27 28.5 39s22.834 22 36.501 30s29.167 12 46.5 12c5.33301 0 11.833 -0.5 19.5 -1.5s15.334 -2.5 23.001 -4.5s15.167 -4.33301 22.5 -7s13 -5.66699 17 -9l7 -6l-12 -108h-43
c-2 8 -7.16699 16.167 -15.5 24.5s-21.166 12.5 -38.499 12.5c-15.333 0 -29.333 -3.83301 -42 -11.5s-23.667 -17.167 -33 -28.5s-16.666 -23.5 -21.999 -36.5s-8 -24.833 -8 -35.5v-69c0 -25.333 0.166992 -44.333 0.5 -57s0.833008 -23.667 1.5 -33
c1.33301 -14.667 3.16602 -26.5 5.49902 -35.5s6.16602 -15.833 11.499 -20.5c2.66699 -2.66699 6.83398 -4.83398 12.501 -6.50098s11.5 -2.83398 17.5 -3.50098s11.833 -1 17.5 -1h13.5l5 -5l2 -33l-2 -4c-4 0 -10.667 0.333008 -20 1s-19.333 1.16699 -30 1.5
s-20.667 0.666016 -30 0.999023s-16 0.5 -20 0.5h-64c-4.66699 0 -11.834 -0.166992 -21.501 -0.5s-19.834 -0.666016 -30.501 -0.999023s-20.834 -0.833008 -30.501 -1.5s-16.834 -1 -21.501 -1l-1 4l2 34l3 4c11.333 0 22 0.5 32 1.5s17.667 4.16699 23 9.5
c5.33301 4.66699 9.16602 10.667 11.499 18s4.16602 20 5.49902 38c0.666992 8 1 18.667 1 32v56v73v35.5c0 9.66699 -0.166992 18.167 -0.5 25.5s-0.666016 14 -0.999023 20s-0.833008 12.333 -1.5 19c-1.33301 6.66699 -3.33301 13 -6 19s-5 10 -7 12
c-6.66699 8.66699 -15 13.667 -25 15s-20.333 2 -31 2l-4 4v34l4 3h18c14.667 0 33.667 0.166992 57 0.5s43.666 1.5 60.999 3.5l35 5l6 -19c-4 -12.667 -6.83301 -27 -8.5 -43s-2.5 -31.667 -2.5 -47z" />
    <glyph glyph-name="s" unicode="s" horiz-adv-x="427" 
d="M263 280c28 -6.66699 50.667 -15.6729 68 -27.0059s30.5 -23.666 39.5 -36.999s15 -27 18 -41s4.5 -27 4.5 -39c0 -21.333 -4.33301 -41 -13 -59s-21.167 -33.5 -37.5 -46.5s-36.166 -23.167 -59.499 -30.5s-49.666 -11 -78.999 -11
c-30.667 0 -59.334 3.16699 -86.001 9.5s-47.667 13.833 -63 22.5l-12 13l15 123h33l3 -4c0 -29.333 9 -52.5 27 -69.5s44.667 -25.5 80 -25.5c18.667 0 34.5 1.83301 47.5 5.5s23.333 8.33398 31 14.001s13.167 12 16.5 19s5 13.5 5 19.5
c0 4.66699 -0.333008 9.66699 -1 15s-2.66699 10.833 -6 16.5s-8.33301 11.334 -15 17.001s-16.334 10.5 -29.001 14.5l-96 24c-22 5.33301 -40 13 -54 23s-25.167 21.167 -33.5 33.5s-14 25.5 -17 39.5s-4.5 28 -4.5 42c0 22 4.33301 41.5 13 58.5s20.5 31 35.5 42
s32.5 19.333 52.5 25s41.667 8.5 65 8.5c29.333 0 56.333 -3.5 81 -10.5s43.667 -14.5 57 -22.5l13 -12l-11 -97h-31l-4 3c0 14.667 -3.83301 26.834 -11.5 36.501s-17 17.334 -28 23.001s-22.5 9.66699 -34.5 12s-22.667 3.5 -32 3.5c-26.667 0 -45.667 -5.66699 -57 -17
s-17 -24 -17 -38c0 -12 3.83301 -23.667 11.5 -35s22.5 -19.666 44.5 -24.999z" />
    <glyph glyph-name="t" unicode="t" horiz-adv-x="337" 
d="M308 400l-110.001 0.00390625c0 -38.667 -0.166992 -74.5 -0.5 -107.5s-0.5 -61.667 -0.5 -86s-0.166992 -44.166 -0.5 -59.499s-0.5 -24.666 -0.5 -27.999c0 -26 5 -43.333 15 -52s21.667 -13 35 -13c10 0 21.333 1 34 3s23.334 4.66699 32.001 8l6 -11l-10 -33
c-18 -10 -36.5 -17.833 -55.5 -23.5s-36.5 -8.5 -52.5 -8.5c-40.667 0 -69.667 9.33301 -87 28s-26 42.667 -26 72c0 6 0.333008 17.833 1 35.5s1.33398 40 2.00098 67s1.33398 58.167 2.00098 93.5s1 73.666 1 114.999h-52l-4 5v44l4 4l52 14
c0 21.333 -0.5 43.166 -1.5 65.499s-2.16699 44.166 -3.5 65.499l7 6l14 1c4.66699 0 11.167 0.333008 19.5 1s17.166 1.5 26.499 2.5s18.166 2.16699 26.499 3.5s14.5 2.66602 18.5 3.99902l9 -4c-3.33301 -16.667 -6 -38.834 -8 -66.501s-3 -53.834 -3 -78.501l110 6l5 -4
v-64z" />
    <glyph glyph-name="u" unicode="u" horiz-adv-x="625" 
d="M423 86c-18 -28.667 -40.3311 -51.9951 -66.998 -69.9951s-60.334 -27 -101.001 -27c-18.667 0 -36.834 2.33301 -54.501 7s-33.667 12 -48 22s-26.833 23.167 -37.5 39.5s-18.334 36.166 -23.001 59.499c-1.33301 6 -2.5 12.667 -3.5 20s-1.66699 16.833 -2 28.5
s-0.666016 26 -0.999023 43s-0.5 38.167 -0.5 63.5v90c0 7.33301 -1.66699 14.666 -5 21.999s-6 12 -8 14c-6.66699 8 -15 12.667 -25 14s-20.333 2 -31 2l-3 4v34l3 3h49c15.333 0 31.666 0.166992 48.999 0.5s32.666 1.5 45.999 3.5l35 5l6 -19
c-1.33301 -2.66699 -2.33301 -7.5 -3 -14.5s-1.33398 -14.5 -2.00098 -22.5s-1 -15.667 -1 -23v-17c0 -8.66699 -0.166992 -19.167 -0.5 -31.5l-1 -38l-1 -37.5c-0.333008 -12 -0.5 -22 -0.5 -30c0 -17.333 0.666992 -34.833 2 -52.5s4 -33.834 8 -48.501
c6.66699 -23.333 16.834 -40.5 30.501 -51.5s32.834 -16.5 57.501 -16.5c20 0 37.833 3.33301 53.5 10s29.167 14.667 40.5 24s20.666 19.5 27.999 30.5s12 20.833 14 29.5v100c0 30.667 -0.5 54.334 -1.5 71.001s-2.16699 29.667 -3.5 39
c-1.33301 8.66699 -3.16602 15.667 -5.49902 21s-4.5 9 -6.5 11c-7.33301 8 -16.666 12.667 -27.999 14s-20.333 2 -27 2l-4 4v34l4 3h18h26.5c11 0 22.5 0.166992 34.5 0.5l35 1c11.333 0.333008 21 1.16602 29 2.49902l35 5l6 -19
c-3.33301 -19.333 -5.66602 -44.666 -6.99902 -75.999c-0.666992 -16.667 -1.16699 -30.167 -1.5 -40.5s-0.5 -18.833 -0.5 -25.5v-15.5v-10.5v-82c0 -36.667 1 -69 3 -97c1.33301 -12.667 3 -22.834 5 -30.501s5.66699 -13.834 11 -18.501c6 -5.33301 13 -8.5 21 -9.5
s17.667 -1.5 29 -1.5l4 -4l2 -34l-2 -3c-12.667 1.33301 -25 2.16602 -37 2.49902s-26 0.5 -42 0.5s-33 -0.166992 -51 -0.5s-35.333 -1.16602 -52 -2.49902l-6 20c2 7.33301 4.16699 17.166 6.5 29.499s4.16602 24.833 5.49902 37.5z" />
    <glyph glyph-name="v" unicode="v" horiz-adv-x="570" 
d="M237 -5l-10.0039 5.00195l-69 160l-14.5 32l-15.5 33l-21 46l-30 71c-4.66699 11.333 -8 19.166 -10 23.499s-4.66699 9.16602 -8 14.499c-6.66699 10.667 -14.167 19 -22.5 25s-19.5 9.66699 -33.5 11l-6 5v34l4 4c11.333 -1.33301 23.333 -2.66602 36 -3.99902
s24.334 -2 35.001 -2h79c10 0 22.167 0.666992 36.5 2s27.5 2.66602 39.5 3.99902l4 -4v-32l-4 -4c-12.667 -1.33301 -23.5 -5.16602 -32.5 -11.499s-13.5 -15.166 -13.5 -26.499c0 -8 2.5 -20.5 7.5 -37.5s11 -35.167 18 -54.5l21 -57l16.5 -44l44 -120l50 121l16 40
l20 52.5c6.66699 18.333 12.334 36 17.001 53s7 30.833 7 41.5c0 17.333 -4.66699 28.333 -14 33s-20.333 8 -33 10l-4 4v32l4 4c12.667 -2.66699 24.667 -4.33398 36 -5.00098s22 -1 32 -1h81c11.333 0 22.5 0.666992 33.5 2s22.833 2.66602 35.5 3.99902l4 -4v-34l-6 -5
c-11.333 -1.33301 -21.166 -4.5 -29.499 -9.5s-16.166 -13.833 -23.499 -26.5c-8 -13.333 -18.167 -32.5 -30.5 -57.5l-37 -77l-33 -73l-19.5 -44.5l-54 -128z" />
    <glyph glyph-name="w" unicode="w" horiz-adv-x="873" 
d="M550 -5l-12.0029 3.99707l-59 163c-8 21.333 -15.167 41.333 -21.5 60s-13.833 38.667 -22.5 60l-14 -40l-13 -37l-10.5 -30c-3 -8.66699 -4.83301 -14.334 -5.5 -17.001l-51 -158l-103 -5l-10 5l-70 160c-3.33301 6.66699 -7.83301 16.834 -13.5 30.501l-19 45.5
l-22.5 53c-8 18.667 -16 36.334 -24 53.001c-6.66699 14 -13.334 26.667 -20.001 38c-6.66699 10.667 -14.167 19 -22.5 25s-19.5 9.66699 -33.5 11l-6 5v34l4 4c11.333 -1.33301 23.333 -2.66602 36 -3.99902s24.334 -2 35.001 -2h79c10 0 22.167 0.666992 36.5 2
s27.5 2.66602 39.5 3.99902l4 -4v-32l-4 -4c-12.667 -1.33301 -23.5 -5.16602 -32.5 -11.499s-13.5 -15.5 -13.5 -27.5c0 -8 2.83301 -21.667 8.5 -41s12.167 -39.666 19.5 -60.999l21.5 -60.5c7 -19 11.833 -31.833 14.5 -38.5l44 -105l38 105c6.66699 18 13 37 19 57
s11.167 39.167 15.5 57.5s7.83301 35.166 10.5 50.499s4 27.333 4 36c0 7.33301 -2 13.333 -6 18s-8.66699 8.33398 -14 11.001s-10.833 4.5 -16.5 5.5s-10.5 1.5 -14.5 1.5l-6 5v34l4 4c11.333 -1.33301 23.333 -2.66602 36 -3.99902s24.334 -2 35.001 -2h79
c10 0 22.167 0.666992 36.5 2s27.5 2.66602 39.5 3.99902l4 -4v-32l-4 -4c-12.667 -1.33301 -23.5 -5.16602 -32.5 -11.499s-13.5 -15.5 -13.5 -27.5c0 -8 2.66699 -21.667 8 -41s11.333 -39.666 18 -60.999l19.5 -60.5c6.33301 -19 10.833 -31.833 13.5 -38.5l39 -105
l40 105l17.5 44c7 17.333 13.667 35.333 20 54s11.666 37 15.999 55s6.5 34 6.5 48c0 14.667 -5 24.5 -15 29.5s-20.667 8.16699 -32 9.5l-4 4v32l4 4c12.667 -2.66699 24.667 -4.33398 36 -5.00098s22 -1 32 -1h81c11.333 0 22.5 0.666992 33.5 2
s22.833 2.66602 35.5 3.99902l4 -4v-34l-6 -5c-11.333 -1.33301 -21.166 -4.83301 -29.499 -10.5s-16.166 -14.167 -23.499 -25.5c-11.333 -18 -23.166 -39.667 -35.499 -65s-24 -50.5 -35 -75.5l-29 -68.5c-8.33301 -20.667 -13.833 -35 -16.5 -43l-48 -128z" />
    <glyph glyph-name="x" unicode="x" horiz-adv-x="561" 
d="M269 180l-54.999 -77.998l-13.5 -21c-4.33301 -6.66699 -6.5 -13.334 -6.5 -20.001c0 -6 2.66699 -11.333 8 -16s14.666 -8.33398 27.999 -11.001l4 -4v-32l-4 -3c-14 2 -25.333 3.33301 -34 4s-18.667 1 -30 1h-80c-11.333 -0 -22.5 -0.666992 -33.5 -2
s-23.167 -2.66602 -36.5 -3.99902l-4 4v34l5 6c24.667 0 45.834 6.5 63.501 19.5s34.167 30.167 49.5 51.5l93 126l-121 145c-8.66699 10 -18 18.167 -28 24.5s-22.667 10.166 -38 11.499l-6 5v34l4 4c11.333 -1.33301 23.833 -2.66602 37.5 -3.99902s26.167 -2 37.5 -2h78
c10.667 0 22.834 0.666992 36.501 2l40.5 4l4 -4v-32l-4 -4c-16.667 -3.33301 -28.834 -7 -36.501 -11s-11.5 -9.66699 -11.5 -17c0 -9.33301 8.66699 -27.333 26 -54l46 -55l49 77c9.33301 14.667 14 23.667 14 27c0 12.667 -2.66699 20.667 -8 24
s-15.666 6.33301 -30.999 9l-4 4v32l4 3c14 -2 25.333 -3.33301 34 -4s18.667 -1 30 -1h80c11.333 0 22.5 0.666992 33.5 2s23.167 2.66602 36.5 3.99902l4 -4v-34l-6 -2c-24.667 0 -45.834 -7.16699 -63.501 -21.5s-33.834 -32.166 -48.501 -53.499l-78 -116l123 -144
c8 -9.33301 19.833 -18.5 35.5 -27.5s34.167 -15.167 55.5 -18.5l6 -5v-34l-4 -4c-11.333 1.33301 -23.833 2.66602 -37.5 3.99902s-26.167 2 -37.5 2h-78c-10.667 0 -23 -0.666992 -37 -2l-41 -4l-4 4v32l4 4c22.667 2 34 11.333 34 28c0 12 -6.33301 25.333 -19 40z" />
    <glyph glyph-name="y" unicode="y" horiz-adv-x="570" 
d="M297 -116c-8 -20 -18.5039 -38.165 -31.5039 -54.498s-27.833 -30.5 -44.5 -42.5s-34.334 -21.833 -53.001 -29.5s-37.667 -12.834 -57 -15.501c-5.33301 -1.33301 -11.5 -2 -18.5 -2h-30.5l-7 2l-3 51l4 5h14c8 0 16.667 0.833008 26 2.5s18.333 4.83398 27 9.50098
c19.333 9.33301 37.166 22.666 53.499 39.999s27.5 34 33.5 50l28 75l-80 183c-3.33301 7.33301 -8.66602 20.333 -15.999 39l-25 61.5c-9.33301 22.333 -19.166 44.5 -29.499 66.5s-19.833 40.333 -28.5 55c-6.66699 10.667 -14.167 19 -22.5 25s-19.5 9.66699 -33.5 11
l-6 5v34l4 4c11.333 -1.33301 23.333 -2.66602 36 -3.99902s24.334 -2 35.001 -2h79c10 0 22.167 0.666992 36.5 2s27.5 2.66602 39.5 3.99902l4 -4v-32l-4 -4c-12.667 -1.33301 -23.5 -5.16602 -32.5 -11.499s-13.5 -15.5 -13.5 -27.5c0 -8 2.83301 -21.167 8.5 -39.5
s12.334 -37.833 20.001 -58.5l22 -57.5c7 -17.667 11.5 -29.5 13.5 -35.5l43 -121l50 121l17 40.5c6.66699 16.333 13.167 33.5 19.5 51.5s11.833 35.667 16.5 53s7 32.666 7 45.999c0 14.667 -5 24.5 -15 29.5s-20.667 8.16699 -32 9.5l-4 4v32l4 4
c12.667 -2.66699 24.667 -4.33398 36 -5.00098s22 -1 32 -1h81c11.333 0 22.5 0.666992 33.5 2s22.833 2.66602 35.5 3.99902l4 -4v-34l-6 -5c-11.333 -1.33301 -21.166 -4.66602 -29.499 -9.99902s-16.166 -14 -23.499 -26c-10 -16 -21.167 -36.5 -33.5 -61.5l-36 -75.5
l-31.5 -69c-9.33301 -20.667 -15.333 -35 -18 -43z" />
    <glyph glyph-name="z" unicode="z" horiz-adv-x="496" 
d="M43 320l7.99512 135.001l3 6c28 -1.33301 55 -2.5 81 -3.5s49.5 -1.66699 70.5 -2s39 -0.5 54 -0.5h31.5h85c6 0 15.833 0.5 29.5 1.5s26.167 2.5 37.5 4.5l6 -8l-3 -16c-7.33301 -8.66699 -17.166 -21.167 -29.499 -37.5s-25.666 -35.166 -39.999 -56.499l-45 -68.5
l-46 -72c-15 -23.667 -28.667 -46.334 -41 -68.001s-22.5 -40.5 -30.5 -56.5l4 -4h31c34.667 0 61.834 0.666992 81.501 2s35 4.5 46 9.5s19 12.667 24 23s10.5 24.5 16.5 42.5l3 4h42l-16 -149l-5 -10c-2 0 -8.33301 0.166992 -19 0.5s-23.834 0.5 -39.501 0.5
s-32.667 0.333008 -51 1s-35.666 1 -51.999 1s-30.5 0.166992 -42.5 0.5s-20 0.5 -24 0.5h-32c-7.33301 0 -17.166 -0.166992 -29.499 -0.5s-25.5 -0.666016 -39.5 -0.999023l-41 -1c-13.333 -0.333008 -24 -0.833008 -32 -1.5l-7 8v14c8.66699 8.66699 19.5 21.667 32.5 39
l42.5 59l47.5 70.5l46 73.5c14.333 24 27 46.833 38 68.5s19.5 40.167 25.5 55.5l-4 4h-75c-20 0 -35.833 -1.16699 -47.5 -3.5s-20.667 -6.33301 -27 -12s-10.666 -12.834 -12.999 -21.501s-4.5 -19.334 -6.5 -32.001l-4 -4h-37z" />
    <glyph glyph-name="braceleft" unicode="{" horiz-adv-x="290" 
d="M253 729c-12.667 -1.33301 -22.6689 -4.66895 -30.002 -10.002s-12.833 -12.166 -16.5 -20.499s-6 -17.666 -7 -27.999s-1.5 -21.5 -1.5 -33.5c0 -6 0.166992 -15.333 0.5 -28s0.5 -26 0.5 -40s0.166992 -27.833 0.5 -41.5s0.5 -24.834 0.5 -33.501
c0 -20.667 -2 -40.167 -6 -58.5s-11.167 -34.833 -21.5 -49.5s-24.166 -27.167 -41.499 -37.5s-39 -17.5 -65 -21.5c26 -4 47.667 -11.167 65 -21.5s31.166 -22.833 41.499 -37.5s17.5 -31.167 21.5 -49.5s6 -37.833 6 -58.5c0 -8.66699 -0.166992 -19.834 -0.5 -33.501
s-0.5 -27.5 -0.5 -41.5s-0.166992 -27.333 -0.5 -40s-0.5 -22 -0.5 -28c0 -12 0.5 -23.167 1.5 -33.5s3.33301 -19.666 7 -27.999s9.16699 -15.166 16.5 -20.499s17.333 -8.66602 30 -9.99902l-2 -31c-33.333 0 -60 3.5 -80 10.5s-35.5 16.667 -46.5 29
s-18.333 27.166 -22 44.499s-5.5 36.666 -5.5 57.999c0 7.33301 0.166992 17.333 0.5 30s0.5 26.167 0.5 40.5s0.166992 28.5 0.5 42.5s0.5 25.667 0.5 35c0 12 -0.5 25.333 -1.5 40s-3.66699 28.334 -8 41.001s-11.333 23.5 -21 32.5s-23.5 13.833 -41.5 14.5v30
c18 0.666992 31.833 5.66699 41.5 15s16.834 20.666 21.501 33.999s7.33398 27.333 8.00098 42s1 28 1 40c0 10 -0.166992 21.833 -0.5 35.5s-0.5 27.5 -0.5 41.5s-0.166992 27 -0.5 39s-0.5 21.667 -0.5 29c0 20.667 1.83301 39.834 5.5 57.501s11 32.667 22 45
s26.5 22 46.5 29s46.667 10.5 80 10.5z" />
    <glyph glyph-name="bar" unicode="|" horiz-adv-x="269" 
d="M75 -110c5.33301 44.667 8.66797 93.834 10.001 147.501s2 105.167 2 154.5v308v57.5c0 21.667 -0.5 44.5 -1.5 68.5s-2.33301 47.833 -4 71.5s-3.83398 45.834 -6.50098 66.501l1 4h116l2 -4c-3.33301 -20.667 -5.66602 -42.834 -6.99902 -66.501s-2.5 -47.5 -3.5 -71.5
s-1.5 -46.833 -1.5 -68.5v-57.5v-308c0 -49.333 0.666992 -100.833 2 -154.5s4.66602 -102.834 9.99902 -147.501l-2 -4h-116z" />
    <glyph glyph-name="braceright" unicode="}" horiz-adv-x="290" 
d="M39 760c33.333 0 59.998 -3.49707 79.998 -10.4971s35.5 -16.667 46.5 -29s18.333 -27.333 22 -45s5.5 -36.834 5.5 -57.501c0 -7.33301 -0.166992 -17 -0.5 -29s-0.5 -25 -0.5 -39s-0.166992 -27.833 -0.5 -41.5s-0.5 -25.5 -0.5 -35.5c0 -12 0.333008 -25.333 1 -40
s3.33398 -28.667 8.00098 -42s11.834 -24.666 21.501 -33.999s23.5 -14.333 41.5 -15v-30c-18 -0.666992 -31.833 -5.5 -41.5 -14.5s-16.667 -19.833 -21 -32.5s-7 -26.334 -8 -41.001s-1.5 -28 -1.5 -40c0 -9.33301 0.166992 -21 0.5 -35s0.5 -28.167 0.5 -42.5
s0.166992 -27.833 0.5 -40.5s0.5 -22.667 0.5 -30c0 -21.333 -1.83301 -40.666 -5.5 -57.999s-11 -32.166 -22 -44.499s-26.5 -22 -46.5 -29s-46.667 -10.5 -80 -10.5l-2 31c12.667 1.33301 22.667 4.66602 30 9.99902s12.833 12.166 16.5 20.499s6 17.666 7 27.999
s1.5 21.5 1.5 33.5c0 6 -0.166992 15.333 -0.5 28s-0.5 26 -0.5 40s-0.166992 27.833 -0.5 41.5s-0.5 24.834 -0.5 33.501c0 20.667 2 40.167 6 58.5s11.167 34.833 21.5 49.5s24.166 27.167 41.499 37.5s39 17.5 65 21.5c-26 4 -47.667 11.167 -65 21.5
s-31.166 22.833 -41.499 37.5s-17.5 31.167 -21.5 49.5s-6 37.833 -6 58.5c0 8.66699 0.166992 19.834 0.5 33.501s0.5 27.5 0.5 41.5s0.166992 27.333 0.5 40s0.5 22 0.5 28c0 12 -0.5 23.167 -1.5 33.5s-3.33301 19.666 -7 27.999s-9.16699 15.166 -16.5 20.499
s-17.333 8.66602 -30 9.99902z" />
    <glyph glyph-name="asciitilde" unicode="~" horiz-adv-x="489" 
d="M429 293c0 -2.66699 -1.83203 -9.16992 -5.49902 -19.5029s-9.5 -21.333 -17.5 -33s-18.167 -22 -30.5 -31s-27.166 -13.5 -44.499 -13.5c-7.33301 0 -19.333 0.5 -36 1.5s-34.834 2 -54.501 3l-57 3c-18.333 1 -32.833 1.5 -43.5 1.5c-16.667 0 -28.334 -2 -35.001 -6
s-13.334 -10.333 -20.001 -19l-23 17c0 6.66699 2.33301 15.334 7 26.001s11.334 21.334 20.001 32.001s19.167 19.834 31.5 27.501s26.5 11.5 42.5 11.5c8.66699 0 20.167 -0.5 34.5 -1.5s29.666 -2 45.999 -3l50.5 -3c17.333 -1 33.333 -1.5 48 -1.5
c11.333 0 22.833 1.33301 34.5 4s21.834 10 30.501 22z" />
    <glyph glyph-name="uni00A0" unicode="&#xa0;" horiz-adv-x="240" 
 />
    <glyph glyph-name="exclamdown" unicode="&#xa1;" horiz-adv-x="245" 
d="M182 -222l-122 35.9971l-4 9c0.666992 6.66699 1.33398 14.5 2.00098 23.5s1.66699 21 3 36s2.66602 34 3.99902 57s2.66602 51.667 3.99902 86s2.83301 75.666 4.5 123.999s3.16699 105.5 4.5 171.5l6 4l75 -26l5 -7c2 -69.333 3.83301 -128.5 5.5 -177.5
s3.33398 -90.167 5.00098 -123.5s3.16699 -60.166 4.5 -80.499s2.5 -36.666 3.5 -48.999s1.83301 -22.166 2.5 -29.499s1 -14.666 1 -21.999c0 -3.33301 0.166992 -7.5 0.5 -12.5s0.5 -10.5 0.5 -16.5zM57 410.997c0 17.333 6.33496 32.335 19.002 45.002s27.667 19 45 19
c8 0 16 -1.66699 24 -5s15.167 -8 21.5 -14s11.333 -12.833 15 -20.5s5.5 -15.834 5.5 -24.501c0 -16.667 -6.83301 -31.834 -20.5 -45.501s-28.834 -20.5 -45.501 -20.5c-8.66699 0 -16.834 1.83301 -24.501 5.5s-14.5 8.66699 -20.5 15s-10.667 13.5 -14 21.5s-5 16 -5 24
z" />
    <glyph glyph-name="cent" unicode="&#xa2;" horiz-adv-x="515" 
d="M420 286l-4.00098 3.00195c0 15.333 -4.5 27.833 -13.5 37.5s-19.833 17.167 -32.5 22.5s-26.167 9 -40.5 11s-26.833 3 -37.5 3c-23.333 0 -43.666 -4.33301 -60.999 -13s-31.666 -20.334 -42.999 -35.001s-19.833 -31.667 -25.5 -51s-8.5 -39.333 -8.5 -60
c0 -18.667 3.16699 -36.667 9.5 -54s15.833 -32.5 28.5 -45.5s28.834 -23.5 48.501 -31.5s42.834 -12 69.501 -12c22.667 0 46.667 2.33301 72 7s48 12.334 68 23.001l17 -24l-15 -28c-11.333 -8 -27.166 -16.333 -47.499 -25s-42.833 -15.334 -67.5 -20.001l4 -66.5
c1.33301 -21.667 3.66602 -42.5 6.99902 -62.5l-2 -4h-116l-1 4c2.66699 19.333 4.66699 39.833 6 61.5l4 66.5c-27.333 4 -53 11.833 -77 23.5s-45 26.5 -63 44.5s-32.167 38.667 -42.5 62s-15.5 49 -15.5 77c0 34 5 64.5 15 91.5s24 50.167 42 69.5s39 35 63 47
s50 20.333 78 25c-0.666992 24.667 -1.83398 49 -3.50098 73s-3.83398 46.333 -6.50098 67l1 4h116l2 -4c-3.33301 -20.667 -5.66602 -42.834 -6.99902 -66.501l-4 -71.5c25.333 -3.33301 49.166 -8 71.499 -14s39.166 -12.333 50.499 -19l3 -9l-11 -107h-31z" />
    <glyph glyph-name="sterling" unicode="&#xa3;" horiz-adv-x="527" 
d="M148 327c-3.33301 21.333 -6.49902 43.168 -9.49902 65.501s-4.5 43.833 -4.5 64.5c0 64 15.333 114.667 46 152s74.334 56 131.001 56c14 0 29 -1.66699 45 -5s31.5 -8.83301 46.5 -16.5s29 -18 42 -31s23.5 -28.833 31.5 -47.5l-13 -101h-47l-4 4
c-3.33301 38 -11.5 66.5 -24.5 85.5s-34.5 28.5 -64.5 28.5c-26.667 0 -44.834 -10.833 -54.501 -32.5s-14.5 -49.5 -14.5 -83.5c0 -19.333 1.16699 -41 3.5 -65s4.16602 -48.667 5.49902 -74h109l-10 -72h-97c0 -21.333 -1.33301 -41.833 -4 -61.5
s-7.33398 -38 -14.001 -55s-15.667 -32 -27 -45s-25.666 -23.167 -42.999 -30.5l2 -3c47.333 -8 83 -12.667 107 -14s39.667 -2 47 -2c16 0 28.833 1 38.5 3s17.334 5.16699 23.001 9.5s9.83398 10 12.501 17s5.66699 15.5 9 25.5l5 6h47l-37 -154l-9 -10
c-14.667 8 -36.334 15 -65.001 21s-60.5 10.667 -95.5 14s-70.833 5.83301 -107.5 7.5s-70.334 2.5 -101.001 2.5l-10 25v23c22 17.333 40.167 34.333 54.5 51s25.5 33.5 33.5 50.5s13.667 34 17 51s5 34.5 5 52.5v7.5c0 2.33301 -0.333008 5.16602 -1 8.49902h-102l20 72
h78z" />
    <glyph glyph-name="currency" unicode="&#xa4;" horiz-adv-x="596" 
d="M124 112c-26 34 -38.998 73.3301 -38.998 117.997c0 20.667 3 40.334 9 59.001s16.333 37.667 31 57l-75 72l55 55l73 -71c20 13.333 39.5 23.166 58.5 29.499s39.167 9.5 60.5 9.5c22 0 42.5 -3.16699 61.5 -9.5s37.833 -16.166 56.5 -29.499l73 71l55 -54l-71 -73
c13.333 -19.333 23.166 -38.5 29.499 -57.5s9.5 -39.167 9.5 -60.5s-3 -41.166 -9 -59.499s-15.667 -37.166 -29 -56.499l73 -72l-56 -55l-74 71c-36.667 -26.667 -75.667 -40 -117 -40c-20.667 0 -40.334 3.16699 -59.001 9.5s-38.667 16.5 -60 30.5l-73 -71l-54 55z
M298.002 362.997c-18 0 -35.167 -3.5 -51.5 -10.5s-30.5 -16.5 -42.5 -28.5s-21.5 -26.167 -28.5 -42.5s-10.5 -33.833 -10.5 -52.5s3.5 -36.167 10.5 -52.5s16.5 -30.5 28.5 -42.5s26.167 -21.5 42.5 -28.5s33.833 -10.5 52.5 -10.5s36 3.5 52 10.5s30 16.5 42 28.5
s21.333 26.167 28 42.5s10 33.833 10 52.5s-3.33301 36.167 -10 52.5s-16 30.5 -28 42.5s-26.167 21.5 -42.5 28.5s-33.833 10.5 -52.5 10.5z" />
    <glyph glyph-name="yen" unicode="&#xa5;" horiz-adv-x="742" 
d="M315 237l0.000976562 12.9971c0 12.667 -1.33301 23.834 -4 33.501s-6 18.167 -10 25.5h-153l15 82h87l-55 81.5l-58 84.5c-4.66699 7.33301 -10 14.5 -16 21.5s-11.333 12.5 -16 16.5c-7.33301 6 -16.166 10.333 -26.499 13s-22.166 4.66699 -35.499 6l-8 4v38l5 4
l45 -5.5c13.333 -1.66699 28 -2.5 44 -2.5h82c15.333 0 33.166 0.833008 53.499 2.5s39.833 3.5 58.5 5.5l4 -4v-38l-4 -4c-13.333 -0.666992 -25 -1.83398 -35 -3.50098s-18 -4.5 -24 -8.5c-6.66699 -4.66699 -10 -10.667 -10 -18c0 -4 0.833008 -8 2.5 -12
s3.5 -7.66699 5.5 -11l119 -189l112 173c6.66699 11.333 10 23 10 35c0 8 -2.33301 14 -7 18s-10.5 7 -17.5 9s-14.667 3.33301 -23 4s-16.166 2 -23.499 4l-4 4v38l4 4c19.333 -3.33301 35.333 -5.16602 48 -5.49902s27.334 -0.5 44.001 -0.5h88c16 0 30.667 0.333008 44 1
s29.333 2.33398 48 5.00098l4 -4v-38l-4 -4c-15.333 -2 -28.333 -4.66699 -39 -8s-20.334 -8 -29.001 -14s-17.167 -13.667 -25.5 -23s-17.5 -21 -27.5 -35l-57.5 -84l-39.5 -60h116l-16 -82h-150c-2.66699 -5.33301 -5.16699 -12.166 -7.5 -20.499s-3.5 -16.5 -3.5 -24.5
v-27h171l-16 -82h-155l3 -48c1.33301 -18.667 4.5 -31.667 9.5 -39s10.167 -13.333 15.5 -18s12.833 -7.5 22.5 -8.5s19.834 -1.5 30.501 -1.5l5 -4l3 -38l-2 -4c-4.66699 0 -12.334 0.333008 -23.001 1l-33 2l-33 2c-10.667 0.666992 -18.334 1 -23.001 1h-59
c-4.66699 0 -12.334 -0.333008 -23.001 -1l-33.5 -2l-33.5 -2c-10.667 -0.666992 -18.334 -1 -23.001 -1l-1 4l2 38l5 4c10 0 19.833 0.5 29.5 1.5s17.5 3.83301 23.5 8.5s11.333 10.667 16 18s7.66699 20.333 9 39c0.666992 5.33301 1.16699 11.833 1.5 19.5
s0.5 17.167 0.5 28.5h-172l15 82h158z" />
    <glyph glyph-name="brokenbar" unicode="&#xa6;" horiz-adv-x="273" 
d="M77 384c2.66699 22 4.66504 41 5.99805 57s2.5 30.833 3.5 44.5s1.66699 27.167 2 40.5s0.5 28.666 0.5 45.999v33v29c0 10 -0.5 21.167 -1.5 33.5s-2.33301 26.333 -4 42s-3.83398 33.834 -6.50098 54.501l1 4h116l2 -4
c-3.33301 -20.667 -5.66602 -38.834 -6.99902 -54.501l-3.5 -42c-1 -12.333 -1.5 -23.5 -1.5 -33.5v-29v-33c0 -17.333 0.166992 -32.666 0.5 -45.999s0.833008 -26.833 1.5 -40.5s1.83398 -28.5 3.50098 -44.5s3.83398 -35 6.50098 -57l-2 -4h-116zM76.998 -110
c2.66699 22 4.66504 41 5.99805 57s2.5 30.833 3.5 44.5s1.66699 27.167 2 40.5s0.5 28.666 0.5 45.999v32v29c0 10 -0.5 21.167 -1.5 33.5s-2.33301 26.5 -4 42.5s-3.83398 34.333 -6.50098 55l1 4h116l2 -4c-3.33301 -20.667 -5.66602 -39 -6.99902 -55l-3.5 -42.5
c-1 -12.333 -1.5 -23.5 -1.5 -33.5v-29v-32c0 -17.333 0.166992 -32.666 0.5 -45.999s0.833008 -26.833 1.5 -40.5s1.83398 -28.5 3.50098 -44.5s3.83398 -35 6.50098 -57l-2 -4h-116z" />
    <glyph glyph-name="section" unicode="&#xa7;" horiz-adv-x="438" 
d="M43 367c0 22.667 6.16992 44.168 18.5029 64.501s29.166 39.166 50.499 56.499c-5.33301 11.333 -8.66602 21.5 -9.99902 30.5s-2 17.5 -2 25.5c0 20.667 4 41 12 61s19.167 37.5 33.5 52.5s31.666 27.167 51.999 36.5s43.166 14 68.499 14c14 0 28.5 -3 43.5 -9
s28.167 -16.333 39.5 -31l2 -8l-49 -90h-5c-8 18 -19.833 32 -35.5 42s-31.167 15 -46.5 15c-10 0 -19 -2.5 -27 -7.5s-12 -12.5 -12 -22.5c0 -16 3.83301 -31 11.5 -45s17.667 -27.667 30 -41s25.833 -26.5 40.5 -39.5l43 -39.5l42 -41c12 -12 22 -23.833 30 -35.5
s14 -23.667 18 -36s6 -25.833 6 -40.5c0 -22.667 -7.5 -44.334 -22.5 -65.001s-33.167 -39.667 -54.5 -57c5.33301 -11.333 8.66602 -21.333 9.99902 -30s2 -17 2 -25c0 -20.667 -3.5 -40.667 -10.5 -60s-16.833 -36.5 -29.5 -51.5s-28 -27.167 -46 -36.5s-38 -14 -60 -14
c-17.333 0 -35.333 4.5 -54 13.5s-35 23.833 -49 44.5l-2 8l59 70h5c7.33301 -19.333 17.833 -33.666 31.5 -42.999s27.167 -14 40.5 -14c10 0 19 2.5 27 7.5s12 12.5 12 22.5c0 16 -3.83301 31 -11.5 45s-17.667 27.667 -30 41s-25.833 26.5 -40.5 39.5l-43 39.5
c-16 14.667 -29.667 28.167 -41 40.5s-20.5 24.333 -27.5 36s-12 23.5 -15 35.5s-4.5 25.667 -4.5 41zM120.003 398.001c0 -13.333 1.66699 -23.667 5 -31s10.833 -16.666 22.5 -27.999l49.5 -46.5c21.333 -19.667 50 -47.834 86 -84.501
c8.66699 8.66699 15.667 16.667 21 24s8 12.666 8 15.999c0 12.667 -1.83301 22.834 -5.5 30.501s-11.167 17 -22.5 28s-27.833 26.167 -49.5 45.5s-50.5 47.666 -86.5 84.999c-8 -8 -14.667 -15.667 -20 -23s-8 -12.666 -8 -15.999z" />
    <glyph glyph-name="dieresis" unicode="&#xa8;" horiz-adv-x="220" 
d="M-35 610c0 8 1.66504 16.002 4.99805 24.002s8 15.167 14 21.5s12.833 11.333 20.5 15s15.834 5.5 24.501 5.5c16.667 0 31.834 -6.83301 45.501 -20.5s20.5 -28.834 20.5 -45.501c0 -8.66699 -1.83301 -16.834 -5.5 -24.501s-8.66699 -14.5 -15 -20.5
s-13.5 -10.667 -21.5 -14s-16 -5 -24 -5c-17.333 0 -32.333 6.33301 -45 19s-19 27.667 -19 45zM124.998 610.002c0 8 1.66504 16.002 4.99805 24.002s8 15.167 14 21.5s12.833 11.333 20.5 15s15.834 5.5 24.501 5.5c16.667 0 31.834 -6.83301 45.501 -20.5
s20.5 -28.834 20.5 -45.501c0 -8.66699 -1.83301 -16.834 -5.5 -24.501s-8.66699 -14.5 -15 -20.5s-13.5 -10.667 -21.5 -14s-16 -5 -24 -5c-17.333 0 -32.333 6.33301 -45 19s-19 27.667 -19 45z" />
    <glyph glyph-name="copyright" unicode="&#xa9;" horiz-adv-x="717" 
d="M419 418c-2 17.333 -9.66602 28.666 -22.999 33.999s-27.666 8 -42.999 8c-9.33301 0 -20.333 -2.33301 -33 -7s-22 -11.667 -28 -21c-6 -8 -11 -18.5 -15 -31.5s-6 -28.167 -6 -45.5c0 -34 9.66699 -60 29 -78s42 -27 68 -27c13.333 0 28.166 1.33301 44.499 4
s33.5 10.667 51.5 24l9 -30l-7 -33c-16.667 -9.33301 -33.834 -16.833 -51.501 -22.5s-35.5 -8.5 -53.5 -8.5c-26 0 -49.667 4.16699 -71 12.5s-39.5 19.833 -54.5 34.5s-26.667 32.334 -35 53.001s-12.5 43.667 -12.5 69c0 24 3.66699 46.5 11 67.5s18.333 39.333 33 55
s33 28 55 37s47.333 13.5 76 13.5c13.333 0 31 -2.5 53 -7.5s43 -11.167 63 -18.5l1 -7l-8 -80h-47zM358.001 654c42 0 81.499 -7.83301 118.499 -23.5s69.167 -37.167 96.5 -64.5s49 -59.166 65 -95.499s24 -75.166 24 -116.499c0 -42 -8 -81.5 -24 -118.5
s-37.833 -69 -65.5 -96s-60.334 -48.333 -98.001 -64s-78.167 -23.5 -121.5 -23.5c-40.667 0 -79.167 8 -115.5 24s-68 37.667 -95 65s-48.333 59.333 -64 96s-23.5 75.667 -23.5 117s7.83301 80.166 23.5 116.499s37.334 68.166 65.001 95.499s59.834 48.833 96.501 64.5
s76 23.5 118 23.5zM358 595c-32.667 0 -63.499 -6.33496 -92.499 -19.002s-54.167 -29.834 -75.5 -51.501s-38.333 -47.167 -51 -76.5s-19 -60.666 -19 -93.999s6.16699 -64.833 18.5 -94.5s29.166 -55.5 50.499 -77.5s46.166 -39.333 74.499 -52s58.5 -19 90.5 -19
c34 0 65.833 6.33301 95.5 19s55.334 29.834 77.001 51.501s38.834 47.334 51.501 77.001s19 61.5 19 95.5c0 33.333 -6.33301 64.666 -19 93.999s-29.834 54.833 -51.501 76.5s-47 38.834 -76 51.501s-59.833 19 -92.5 19z" />
    <glyph glyph-name="ordfeminine" unicode="&#xaa;" horiz-adv-x="378" 
d="M207 445c1.33301 2 2.83301 4.5 4.5 7.5s2.5 6.16699 2.5 9.5l3 44c-14 0 -27.333 -0.5 -40 -1.5s-23.667 -3.33301 -33 -7s-16.833 -8.83398 -22.5 -15.501s-8.5 -15.667 -8.5 -27c0 -13.333 2.83301 -22.833 8.5 -28.5s12.167 -8.5 19.5 -8.5c18 0 32 2.83301 42 8.5
s18 11.834 24 18.501zM212 406c-20.667 -24.667 -48 -37.001 -82 -37.001c-24.667 0 -44.334 7.33301 -59.001 22s-22 34.667 -22 60c0 23.333 7.16699 41.333 21.5 54s30.833 21.834 49.5 27.501s37.334 9 56.001 10s32.334 1.5 41.001 1.5
c-0.666992 14 -2.33398 25.167 -5.00098 33.5s-6.33398 14.666 -11.001 18.999s-10.167 7 -16.5 8s-13.166 1.5 -20.499 1.5c-4.66699 0 -10 -0.333008 -16 -1s-11.833 -2.16699 -17.5 -4.5s-10.5 -5.5 -14.5 -9.5s-6.33301 -9.33301 -7 -16l-2 -3h-26l-5 56l2 4
c2 2 6.16699 4.5 12.5 7.5s14 5.83301 23 8.5s19 5 30 7s21.833 3 32.5 3c74 0 111 -30.333 111 -91c0 -15.333 -0.166992 -28.666 -0.5 -39.999s-0.5 -21.833 -0.5 -31.5s-0.166992 -19 -0.5 -28s-0.5 -18.833 -0.5 -29.5c0 -15.333 4 -24.333 12 -27s17.667 -4 29 -4
l2 -33c-7.33301 0.666992 -14.833 1.16699 -22.5 1.5s-16.167 0.5 -25.5 0.5c-11.333 0 -22.833 -0.166992 -34.5 -0.5s-22.167 -0.5 -31.5 -0.5l-4 4c1.33301 4 2.33301 8 3 12s1 8 1 12z" />
    <glyph glyph-name="guillemotleft" unicode="&#xab;" horiz-adv-x="531" 
d="M281 411c-29.333 -29.333 -54.666 -57.5 -75.999 -84.5s-42.666 -55.833 -63.999 -86.5c21.333 -30 42.666 -58.5 63.999 -85.5s46.666 -55.167 75.999 -84.5l-5 -10h-98l-7 4l-24.5 37l-28 38.5l-35 45l-44.5 55.5l44.5 56l35 45.5l28 38.5l24.5 37l7 4h98zM481 411
c-29.333 -29.333 -54.666 -57.5 -75.999 -84.5s-42.666 -55.833 -63.999 -86.5c21.333 -30 42.666 -58.5 63.999 -85.5s46.666 -55.167 75.999 -84.5l-5 -10h-98l-7 4l-24.5 37l-28 38.5l-35 45l-44.5 55.5l44.5 56l35 45.5l28 38.5l24.5 37l7 4h98z" />
    <glyph glyph-name="logicalnot" unicode="&#xac;" horiz-adv-x="624" 
d="M551 341v-224h-93v142h-387v82h480z" />
    <glyph glyph-name="uni00AD" unicode="&#xad;" horiz-adv-x="468" 
d="M406 280l-16 -82h-328l15 82h329z" />
    <glyph glyph-name="registered" unicode="&#xae;" horiz-adv-x="717" 
d="M208 201v31c10.667 0.666992 18.834 2.66699 24.501 6s9.83398 8.16602 12.501 14.499s4.16699 14.333 4.5 24s0.5 21.5 0.5 35.5v120c0 17.333 -2.33301 32.333 -7 45s-16.334 19.667 -35.001 21v34h136c23.333 0 43 -2.83301 59 -8.5s28.833 -13 38.5 -22
s16.667 -19.5 21 -31.5s6.5 -24 6.5 -36c0 -15.333 -1.5 -28.333 -4.5 -39s-7 -19.667 -12 -27s-10.667 -13.333 -17 -18s-12.833 -8.66699 -19.5 -12l25 -37c8.66699 -12.667 17.5 -24.167 26.5 -34.5s18.167 -19 27.5 -26s18.333 -10.5 27 -10.5v-29
c-10.667 -1.33301 -17.5 -2 -20.5 -2h-12.5c-11.333 0 -21 1.33301 -29 4s-16 7.5 -24 14.5s-16.667 16.667 -26 29l-35 47.5l-19 27h-39c0 -35.333 2.66699 -59.166 8 -71.499s16.666 -18.5 33.999 -18.5l2 -30h-153zM351 368c17.333 0 30.667 6.66699 40 20
s14 27.333 14 42c0 16 -5.16699 29 -15.5 39s-22.833 15 -37.5 15h-35v-103c0 -6.66699 1.5 -10.5 4.5 -11.5s6.16699 -1.5 9.5 -1.5h20zM358.001 654c42 0 81.499 -7.83301 118.499 -23.5s69.167 -37.167 96.5 -64.5s49 -59.166 65 -95.499s24 -75.166 24 -116.499
c0 -42 -8 -81.5 -24 -118.5s-37.833 -69 -65.5 -96s-60.334 -48.333 -98.001 -64s-78.167 -23.5 -121.5 -23.5c-40.667 0 -79.167 8 -115.5 24s-68 37.667 -95 65s-48.333 59.333 -64 96s-23.5 75.667 -23.5 117s7.83301 80.166 23.5 116.499s37.334 68.166 65.001 95.499
s59.834 48.833 96.501 64.5s76 23.5 118 23.5zM358 595c-32.667 0 -63.499 -6.33496 -92.499 -19.002s-54.167 -29.834 -75.5 -51.501s-38.333 -47.167 -51 -76.5s-19 -60.666 -19 -93.999s6.16699 -64.833 18.5 -94.5s29.166 -55.5 50.499 -77.5s46.166 -39.333 74.499 -52
s58.5 -19 90.5 -19c34 0 65.833 6.33301 95.5 19s55.334 29.834 77.001 51.501s38.834 47.334 51.501 77.001s19 61.5 19 95.5c0 33.333 -6.33301 64.666 -19 93.999s-29.834 54.833 -51.501 76.5s-47 38.834 -76 51.501s-59.833 19 -92.5 19z" />
    <glyph glyph-name="degree" unicode="&#xb0;" horiz-adv-x="369" 
d="M184 659c22.667 0 42.666 -3.50293 59.999 -10.5029s31.666 -16.667 42.999 -29s20 -26.5 26 -42.5s9 -33 9 -51c0 -16.667 -2.83301 -32.667 -8.5 -48s-14.167 -28.666 -25.5 -39.999s-25.666 -20.5 -42.999 -27.5s-37.666 -10.5 -60.999 -10.5
c-24 0 -44.667 3.5 -62 10.5s-31.5 16.5 -42.5 28.5s-19 25.833 -24 41.5s-7.5 31.834 -7.5 48.501c0 18 3 34.833 9 50.5s14.667 29.334 26 41.001s25.5 21 42.5 28s36.5 10.5 58.5 10.5zM183.999 459.997c21.333 0 37.333 6.33105 48 18.998s16 28.334 16 47.001
s-5.33301 35 -16 49s-27 21 -49 21s-38 -6.66699 -48 -20s-15 -28.666 -15 -45.999c0 -19.333 5.33301 -35.833 16 -49.5s26.667 -20.5 48 -20.5z" />
    <glyph glyph-name="plusminus" unicode="&#xb1;" horiz-adv-x="462" 
d="M277 366h114l-10 -83h-104v-100h-92v100h-113l9 83h104v89h92v-89zM391 123l-13 -83h-309l12 83h310z" />
    <glyph glyph-name="twosuperior" unicode="&#xb2;" horiz-adv-x="378" 
d="M67 606c5.33301 7.33301 11.6709 14.834 19.0039 22.501s16 14.5 26 20.5s21.667 10.833 35 14.5s28.666 5.5 45.999 5.5c38 0 66.167 -9 84.5 -27s27.5 -41.333 27.5 -70c0 -14 -3.66699 -28.333 -11 -43s-16.5 -29.167 -27.5 -43.5s-23 -27.833 -36 -40.5l-36 -35.5
c-11 -11 -20.167 -20.667 -27.5 -29s-11 -14.833 -11 -19.5h53c14 0 26 0.333008 36 1s18.167 2.83398 24.5 6.50098s11.333 9.33398 15 17.001s6.5 18.5 8.5 32.5h29l-9 -110l-5 -5c-2 0 -8.33301 0.166992 -19 0.5s-22.334 0.666016 -35.001 0.999023l-36.5 1
c-11.667 0.333008 -19.834 0.5 -24.501 0.5h-74c-8 0 -17 -0.333008 -27 -1l-29 -2l-5 16v22c12.667 14.667 29.167 32 49.5 52s40.166 40.667 59.499 62s36 42.166 50 62.499s21 38.166 21 53.499c0 14 -5 25.5 -15 34.5s-22.333 13.5 -37 13.5
c-25.333 0 -43.833 -6.16699 -55.5 -18.5s-18.167 -28.5 -19.5 -48.5h-38z" />
    <glyph glyph-name="threesuperior" unicode="&#xb3;" horiz-adv-x="353" 
d="M98 403c2.66699 -20 10.8301 -34.4971 24.4971 -43.4971s28.834 -13.5 45.501 -13.5c19.333 0 36.666 5.66699 51.999 17s23 26.666 23 45.999c0 18.667 -5.5 34.334 -16.5 47.001s-27.5 19 -49.5 19h-42l6 41c28.667 0.666992 49.834 7.16699 63.501 19.5
s20.5 25.5 20.5 39.5c0 13.333 -5.66699 24.166 -17 32.499s-24.333 12.5 -39 12.5s-28.5 -4.33301 -41.5 -13s-19.5 -20.334 -19.5 -35.001c0 -4.66699 0.333008 -8 1 -10h-42l-5 44c4 6.66699 8.83301 13.667 14.5 21s12.834 14 21.501 20s19 10.833 31 14.5
s26.667 5.5 44 5.5c18 0 34.167 -2.5 48.5 -7.5s26.5 -11.667 36.5 -20s17.5 -18 22.5 -29s7.5 -22.167 7.5 -33.5c0 -14.667 -3.5 -28.834 -10.5 -42.501s-19.167 -25.167 -36.5 -34.5c23.333 -5.33301 40 -16 50 -32s15 -33.667 15 -53c0 -14 -3.16699 -28 -9.5 -42
s-15.5 -26.667 -27.5 -38s-26.5 -20.5 -43.5 -27.5s-36.167 -10.5 -57.5 -10.5c-28 0 -51.167 5.5 -69.5 16.5s-34.166 26.167 -47.499 45.5l6 44h41z" />
    <glyph glyph-name="acute" unicode="&#xb4;" horiz-adv-x="219" 
d="M20 522l-26 49.998l3 7l181 101c18.667 -1.33301 32.5 -8.16602 41.5 -20.499s13.5 -27.166 13.5 -44.499c0 -6.66699 -1.33301 -13 -4 -19l-201 -77z" />
    <glyph glyph-name="mu" unicode="&#xb5;" horiz-adv-x="661" 
d="M179 -131l-8.99414 0.000976562c-25.333 0 -46.666 2 -63.999 6s-30.666 10.333 -39.999 19v6c9.33301 16.667 17.5 36.167 24.5 58.5s12.667 44.666 17 66.999s7.66602 43.5 9.99902 63.5s3.5 36.667 3.5 50v78c0 12.667 -0.166992 26.834 -0.5 42.501l-1 45
c-0.333008 14.333 -0.666016 27 -0.999023 38s-0.5 18.833 -0.5 23.5c0 8 -1 14.5 -3 19.5s-4.66699 9.16699 -8 12.5c-7.33301 7.33301 -15.833 11.833 -25.5 13.5s-19.834 2.5 -30.501 2.5l-3 4v34l3 3h51c15.333 0 31.666 0.166992 48.999 0.5s32.666 1.5 45.999 3.5
l35 5l6 -9c-1.33301 -2.66699 -2.33301 -7.5 -3 -14.5s-1.33398 -14.5 -2.00098 -22.5s-1 -15.667 -1 -23v-17c0 -9.33301 -0.166992 -19.5 -0.5 -30.5l-1 -33l-1 -31.5c-0.333008 -10 -0.5 -18.667 -0.5 -26c0 -14.667 0.5 -31 1.5 -49s2.83301 -34 5.5 -48
c6 -31.333 17.667 -54.666 35 -69.999s37 -23 59 -23c14.667 0 28.5 3 41.5 9s24.167 13.5 33.5 22.5s17.166 18.667 23.499 29s10.5 19.833 12.5 28.5v110v35.5c0 9.66699 -0.166992 18 -0.5 25s-0.833008 13.5 -1.5 19.5s-1.33398 12.667 -2.00098 20
c-1.33301 7.33301 -3.16602 14 -5.49902 20s-4.5 9.66699 -6.5 11c-6.66699 8.66699 -15 13.667 -25 15s-20.333 2 -31 2l-4 4v34l4 3h18h28.5c11 0 22.333 0.166992 34 0.5l34.5 1c11.333 0.333008 21.333 1.16602 30 2.49902l35 5l6 -9
c-1.33301 -2.66699 -2.33301 -7.5 -3 -14.5s-1.33398 -14.5 -2.00098 -22.5s-1 -15.667 -1 -23v-17c0 -5.33301 -0.166992 -10.333 -0.5 -15s-0.5 -10.334 -0.5 -17.001s-0.166992 -14.5 -0.5 -23.5s-0.5 -20.833 -0.5 -35.5v-92c0 -14.667 0.166992 -26.667 0.5 -36
s0.666016 -17.333 0.999023 -24s0.666016 -12.834 0.999023 -18.501s0.5 -11.834 0.5 -18.501c1.33301 -15.333 3 -26.5 5 -33.5s5.33301 -12.167 10 -15.5c5.33301 -5.33301 13.166 -8.5 23.499 -9.5s20.833 -1.5 31.5 -1.5l4 -4l2 -34l-2 -4
c-12 1.33301 -25 2.33301 -39 3s-27.667 1 -41 1c-19.333 0 -38.166 -0.166992 -56.499 -0.5s-35.833 -1.16602 -52.5 -2.49902l-6 10l6 25.5c2 8.33301 3.66699 19.833 5 34.5c-13.333 -28 -30.5 -48 -51.5 -60s-46.5 -18 -76.5 -18c-8 0 -17.167 0.666992 -27.5 2
s-20.333 3.83301 -30 7.5s-18.5 8.33398 -26.5 14.001s-14 12.5 -18 20.5l-3 -2l-11 -93.5c-2.66699 -23 -6.66699 -43.833 -12 -62.5z" />
    <glyph glyph-name="paragraph" unicode="&#xb6;" horiz-adv-x="620" 
d="M206 -125l2.99902 38.0029l5 3c10.667 0 18 0.833008 22 2.5s7.66699 4.5 11 8.5c5.33301 3.33301 10.166 8.83301 14.499 16.5s7.83301 21.167 10.5 40.5c0.666992 5.33301 1.33398 16.833 2.00098 34.5s1.16699 37.5 1.5 59.5l1 65.5
c0.333008 21.667 0.5 39.5 0.5 53.5v48c-24 1.33301 -50.167 5.33301 -78.5 12s-54.5 17.667 -78.5 33s-44 36.166 -60 62.499s-24 60.166 -24 101.499c0 32 5.33301 60.5 16 85.5s24.5 46 41.5 63s36 30 57 39s41.833 13.5 62.5 13.5h24c10 0 20.667 -0.166992 32 -0.5
s22.666 -0.5 33.999 -0.5h30h133c6.66699 0 14.5 0.333008 23.5 1l26 2l24 2c7.66699 0.666992 13.834 1 18.501 1l2 -4l-3 -38l-5 -4c-10.667 0 -18 -1 -22 -3s-7.66699 -4.66699 -11 -8c-5.33301 -4.66699 -10.166 -10.334 -14.499 -17.001s-7.83301 -19.667 -10.5 -39
c-1.33301 -11.333 -2.16602 -23.833 -2.49902 -37.5s-0.5 -33.167 -0.5 -58.5v-220v-69.5c0 -26.333 0.166992 -51.833 0.5 -76.5s0.666016 -46.5 0.999023 -65.5s0.833008 -30.833 1.5 -35.5c2 -17.333 5.33301 -30.333 10 -39s9.66699 -15 15 -19
c3.33301 -4.66699 8.33301 -7.5 15 -8.5s12.667 -1.5 18 -1.5l5 -3l3 -38l-2 -4c-4.66699 0.666992 -12.334 1.16699 -23.001 1.5s-21.667 0.833008 -33 1.5s-22.333 1.16699 -33 1.5s-18.334 0.5 -23.001 0.5h-106c-5.33301 0 -14.166 -0.166992 -26.499 -0.5
s-25.5 -0.833008 -39.5 -1.5s-27.167 -1.16699 -39.5 -1.5s-21.166 -0.833008 -26.499 -1.5zM345.999 -55.9971h78.9971l2 4c-2.66699 16.667 -4.66699 31.334 -6 44.001s-2.33301 25 -3 37s-1 24.667 -1 38v47v253c0 29.333 0.333008 63.333 1 102
s3.66699 76.334 9 113.001l-2 4h-79l-2 -4c4.66699 -36.667 7.33398 -74.334 8.00098 -113.001s1 -72.667 1 -102v-253c0 -21.333 -0.166992 -39.333 -0.5 -54s-0.666016 -27.834 -0.999023 -39.501s-1.16602 -23 -2.49902 -34s-3 -23.833 -5 -38.5z" />
    <glyph glyph-name="periodcentered" unicode="&#xb7;" horiz-adv-x="255" 
d="M63 244c0 8 1.66504 16.002 4.99805 24.002s8 15.167 14 21.5s12.833 11.333 20.5 15s15.834 5.5 24.501 5.5c16.667 0 31.834 -6.83301 45.501 -20.5s20.5 -28.834 20.5 -45.501c0 -8.66699 -1.83301 -16.834 -5.5 -24.501s-8.66699 -14.5 -15 -20.5
s-13.5 -10.667 -21.5 -14s-16 -5 -24 -5c-17.333 0 -32.333 6.33301 -45 19s-19 27.667 -19 45z" />
    <glyph glyph-name="cedilla" unicode="&#xb8;" horiz-adv-x="202" 
d="M0 -178l12.9971 38h7c8 -2 18.333 -5 31 -9s25.334 -6 38.001 -6c14.667 0 27.334 1.83301 38.001 5.5s16 11.167 16 22.5c0 12 -5.16699 20.167 -15.5 24.5s-22.5 6.5 -36.5 6.5c-8 0 -16.167 -0.666992 -24.5 -2s-16.166 -3 -23.499 -5l-9 26l51 77h54l-25 -39
c2 0.666992 4.5 1.16699 7.5 1.5s5.16699 0.5 6.5 0.5c28 0 49.833 -7.83301 65.5 -23.5s23.5 -35.167 23.5 -58.5c0 -12 -3.16699 -23.667 -9.5 -35s-15 -21.333 -26 -30s-24.167 -15.667 -39.5 -21s-32 -8 -50 -8c-16 0 -31.833 2.66699 -47.5 8s-30.167 12.333 -43.5 21z
" />
    <glyph glyph-name="onesuperior" unicode="&#xb9;" horiz-adv-x="300" 
d="M57 600l1.00293 4.00098c23.333 8.66699 45.166 17.5 65.499 26.5s40.166 20.5 59.499 34.5h4l14 -5c-2 -21.333 -3.16699 -43.833 -3.5 -67.5s-0.5 -51.834 -0.5 -84.501v-55v-34.5v-23c0 -6.33301 0.166992 -11.833 0.5 -16.5s0.833008 -10 1.5 -16
c0.666992 -8.66699 2.5 -15.167 5.5 -19.5s6.16699 -7.5 9.5 -9.5c3.33301 -2.66699 8.83301 -4.83398 16.5 -6.50098s14.5 -2.5 20.5 -2.5l3 -28c-3.33301 0 -7.66602 0.166992 -12.999 0.5s-11.166 0.666016 -17.499 0.999023s-12.333 0.5 -18 0.5h-12.5h-64h-13.5
c-5.66699 0 -11.667 -0.166992 -18 -0.5s-12.333 -0.666016 -18 -0.999023s-9.83398 -0.5 -12.501 -0.5l3 28c6 0 13 0.666992 21 2s14 3.66602 18 6.99902c3.33301 2.66699 6.16602 6.16699 8.49902 10.5s4.16602 10.5 5.49902 18.5c0.666992 4.66699 1.16699 9 1.5 13
s0.5 8.83301 0.5 14.5v20v28.5v67v27.5v17.5c0 4.66699 -0.166992 8.83398 -0.5 12.501s-0.833008 7.83398 -1.5 12.501l-66 -17v41z" />
    <glyph glyph-name="ordmasculine" unicode="&#xba;" horiz-adv-x="370" 
d="M184 658c22.667 0 42.666 -3.99902 59.999 -11.999s32 -18.833 44 -32.5s21 -29.5 27 -47.5s9 -36.667 9 -56c0 -18 -2.83301 -35.5 -8.5 -52.5s-14.334 -32 -26.001 -45s-26.167 -23.5 -43.5 -31.5s-37.666 -12 -60.999 -12c-24 0 -44.667 4 -62 12
s-31.666 18.833 -42.999 32.5s-19.833 29.167 -25.5 46.5s-8.5 35 -8.5 53c0 20 3.16699 38.667 9.5 56s15.5 32.666 27.5 45.999s26.5 23.833 43.5 31.5s36.167 11.5 57.5 11.5zM184.999 424.001c22.667 0 39.833 8.66699 51.5 26s17.5 37.333 17.5 60
c0 11.333 -1.5 22.333 -4.5 33s-7.5 20.334 -13.5 29.001s-13.5 15.5 -22.5 20.5s-19.5 7.5 -31.5 7.5c-23.333 0 -40.5 -8.83301 -51.5 -26.5s-16.5 -37.5 -16.5 -59.5c0 -11.333 1.66699 -22.333 5 -33s8 -20.334 14 -29.001s13.333 -15.5 22 -20.5s18.667 -7.5 30 -7.5z
" />
    <glyph glyph-name="guillemotright" unicode="&#xbb;" horiz-adv-x="531" 
d="M255 421h97.9971l7 -4l24.5 -37l28 -38.5l35 -45.5l44.5 -56l-44.5 -55.5l-35 -45l-28 -38.5l-24.5 -37l-7 -4h-98l-5 10c28.667 29.333 53.834 57.5 75.501 84.5s43.167 55.5 64.5 85.5c-21.333 30.667 -42.666 59.5 -63.999 86.5s-46.666 55.167 -75.999 84.5z
M54.9971 421h97.9971l7 -4l24.5 -37l28 -38.5l35 -45.5l44.5 -56l-44.5 -55.5l-35 -45l-28 -38.5l-24.5 -37l-7 -4h-98l-5 10c28.667 29.333 53.834 57.5 75.501 84.5s43.167 55.5 64.5 85.5c-21.333 30.667 -42.666 59.5 -63.999 86.5s-46.666 55.167 -75.999 84.5z" />
    <glyph glyph-name="onequarter" unicode="&#xbc;" horiz-adv-x="752" 
d="M53 600l1.00293 4.00098c23.333 8.66699 45.166 17.5 65.499 26.5s40.166 20.5 59.499 34.5h4l14 -5c-2 -21.333 -3.16699 -43.833 -3.5 -67.5s-0.5 -51.834 -0.5 -84.501v-55v-34.5v-23c0 -6.33301 0.166992 -11.833 0.5 -16.5s0.833008 -10 1.5 -16
c0.666992 -8.66699 2.5 -15.167 5.5 -19.5s6.16699 -7.5 9.5 -9.5c3.33301 -2.66699 8.83301 -4.83398 16.5 -6.50098s14.5 -2.5 20.5 -2.5l3 -28c-3.33301 0 -7.66602 0.166992 -12.999 0.5s-11.166 0.666016 -17.499 0.999023s-12.333 0.5 -18 0.5h-12.5h-64h-13.5
c-5.66699 0 -11.667 -0.166992 -18 -0.5s-12.333 -0.666016 -18 -0.999023s-9.83398 -0.5 -12.501 -0.5l3 28c6 0 13 0.666992 21 2s14 3.66602 18 6.99902c3.33301 2.66699 6.16602 6.16699 8.49902 10.5s4.16602 10.5 5.49902 18.5c0.666992 4.66699 1.16699 9 1.5 13
s0.5 8.83301 0.5 14.5v20v28.5v67v27.5v17.5c0 4.66699 -0.166992 8.83398 -0.5 12.501s-0.833008 7.83398 -1.5 12.501l-66 -17v41zM90.0029 23.001l51.999 63l47.5 60l47 62l50.5 70l120 165l77 107c26.667 37.333 51.667 77 75 119l5 4h116l-1 -4
c-33.333 -37.333 -63.166 -73.5 -89.499 -108.5l-73.5 -99.5l-133 -183l-50 -70l-43.5 -62l-39.5 -60l-40 -63l-5 -4h-116zM423.002 112.001l-5.99609 25.002l154 219l83 8l7 -5c0 -5.33301 -0.166992 -11.166 -0.5 -17.499l-1.5 -30
c-0.666992 -13.667 -1.16699 -32.334 -1.5 -56.001s-0.5 -55.167 -0.5 -94.5h46l-8 -52h-38c0 -16 0.333008 -29.333 1 -40s2.5 -19.334 5.5 -26.001s8 -11.334 15 -14.001s16.5 -4 28.5 -4l2 -27c-5.33301 0 -14.5 0.333008 -27.5 1s-22.167 1 -27.5 1h-63
c-2.66699 0 -6.83398 -0.166992 -12.501 -0.5s-11.5 -0.5 -17.5 -0.5s-11.833 -0.166992 -17.5 -0.5s-9.83398 -0.5 -12.501 -0.5l3 27c13.333 0 23.666 1.5 30.999 4.5s12.666 7.66699 15.999 14s5.33301 14.833 6 25.5s1 24 1 40h-160zM485.006 161.003l103 -0.000976562
c0 40 -0.166992 70.333 -0.5 91s-0.833008 36.334 -1.5 47.001z" />
    <glyph glyph-name="onehalf" unicode="&#xbd;" horiz-adv-x="775" 
d="M53 600l1.00293 4.00098c23.333 8.66699 45.166 17.5 65.499 26.5s40.166 20.5 59.499 34.5h4l14 -5c-2 -21.333 -3.16699 -43.833 -3.5 -67.5s-0.5 -51.834 -0.5 -84.501v-55v-34.5v-23c0 -6.33301 0.166992 -11.833 0.5 -16.5s0.833008 -10 1.5 -16
c0.666992 -8.66699 2.5 -15.167 5.5 -19.5s6.16699 -7.5 9.5 -9.5c3.33301 -2.66699 8.83301 -4.83398 16.5 -6.50098s14.5 -2.5 20.5 -2.5l3 -28c-3.33301 0 -7.66602 0.166992 -12.999 0.5s-11.166 0.666016 -17.499 0.999023s-12.333 0.5 -18 0.5h-12.5h-64h-13.5
c-5.66699 0 -11.667 -0.166992 -18 -0.5s-12.333 -0.666016 -18 -0.999023s-9.83398 -0.5 -12.501 -0.5l3 28c6 0 13 0.666992 21 2s14 3.66602 18 6.99902c3.33301 2.66699 6.16602 6.16699 8.49902 10.5s4.16602 10.5 5.49902 18.5c0.666992 4.66699 1.16699 9 1.5 13
s0.5 8.83301 0.5 14.5v20v28.5v67v27.5v17.5c0 4.66699 -0.166992 8.83398 -0.5 12.501s-0.833008 7.83398 -1.5 12.501l-66 -17v41zM90.0029 23.001l51.999 63l47.5 60l47 62l50.5 70l120 165l77 107c26.667 37.333 51.667 77 75 119l5 4h116l-1 -4
c-33.333 -37.333 -63.166 -73.5 -89.499 -108.5l-73.5 -99.5l-133 -183l-50 -70l-43.5 -62l-39.5 -60l-40 -63l-5 -4h-116zM477.002 300.001c5.33301 7.33301 11.6709 14.833 19.0039 22.5s16 14.5 26 20.5s21.667 10.833 35 14.5s28.666 5.5 45.999 5.5
c38 0 66.167 -9 84.5 -27s27.5 -41.333 27.5 -70c0 -14.667 -3.66699 -29.167 -11 -43.5s-16.5 -28.666 -27.5 -42.999s-23 -27.833 -36 -40.5l-36 -35.5c-11 -11 -20.167 -20.667 -27.5 -29s-11 -14.833 -11 -19.5h53c14 0 26 0.333008 36 1s18.167 2.83398 24.5 6.50098
s11.333 9.33398 15 17.001s6.5 18.5 8.5 32.5h29l-9 -110l-5 -5c-2 0 -8.33301 0.166992 -19 0.5s-22.334 0.666016 -35.001 0.999023l-36.5 1c-11.667 0.333008 -19.834 0.5 -24.501 0.5h-74c-8 0 -17 -0.333008 -27 -1l-29 -2l-5 16v22c12.667 14.667 29.167 32 49.5 52
s40.166 40.667 59.499 62s36 42.166 50 62.499s21 38.166 21 53.499c0 14 -5 25.5 -15 34.5s-22.333 13.5 -37 13.5c-25.333 0 -43.833 -6.16699 -55.5 -18.5s-18.167 -28.5 -19.5 -48.5h-38z" />
    <glyph glyph-name="threequarters" unicode="&#xbe;" horiz-adv-x="776" 
d="M95 403c2.66699 -20 10.8301 -34.4971 24.4971 -43.4971s28.834 -13.5 45.501 -13.5c19.333 0 36.666 5.66699 51.999 17s23 26.666 23 45.999c0 18.667 -5.5 34.334 -16.5 47.001s-27.5 19 -49.5 19h-42l6 41c28.667 0.666992 49.834 7.16699 63.501 19.5
s20.5 25.5 20.5 39.5c0 13.333 -5.66699 24.166 -17 32.499s-24.333 12.5 -39 12.5s-28.5 -4.33301 -41.5 -13s-19.5 -20.334 -19.5 -35.001c0 -4 0.333008 -7.33301 1 -10h-42l-5 44c4 6.66699 8.83301 13.667 14.5 21s12.834 14 21.501 20s19 10.833 31 14.5
s26.667 5.5 44 5.5c18 0 34.167 -2.5 48.5 -7.5s26.5 -11.667 36.5 -20s17.5 -18 22.5 -29s7.5 -22.167 7.5 -33.5c0 -14.667 -3.5 -28.834 -10.5 -42.501s-19.167 -25.167 -36.5 -34.5c23.333 -5.33301 40 -16 50 -32s15 -33.667 15 -53c0 -14 -3.16699 -28 -9.5 -42
s-15.5 -26.667 -27.5 -38s-26.5 -20.5 -43.5 -27.5s-36.167 -10.5 -57.5 -10.5c-28 0 -51.167 5.5 -69.5 16.5s-34.166 26.167 -47.499 45.5l6 44h41zM97.9961 23.0029l51.999 63l47.5 60l47 62l50.5 70l120 165l77 107c26.667 37.333 51.667 77 75 119l5 4h116l-1 -4
c-33.333 -37.333 -63.166 -73.5 -89.499 -108.5l-73.5 -99.5l-133 -183l-50 -70l-43.5 -62l-39.5 -60l-40 -63l-5 -4h-116zM449.995 112.003l-5.99609 25.002l154 219l83 8l7 -5c0 -5.33301 -0.166992 -11.166 -0.5 -17.499l-1.5 -30
c-0.666992 -13.667 -1.16699 -32.334 -1.5 -56.001s-0.5 -55.167 -0.5 -94.5h46l-8 -52h-38c0 -16 0.333008 -29.333 1 -40s2.5 -19.334 5.5 -26.001s8 -11.334 15 -14.001s16.5 -4 28.5 -4l2 -27c-5.33301 0 -14.5 0.333008 -27.5 1s-22.167 1 -27.5 1h-63
c-2.66699 0 -6.83398 -0.166992 -12.501 -0.5s-11.5 -0.5 -17.5 -0.5s-11.833 -0.166992 -17.5 -0.5s-9.83398 -0.5 -12.501 -0.5l3 27c13.333 0 23.666 1.5 30.999 4.5s12.666 7.66699 15.999 14s5.33301 14.833 6 25.5s1 24 1 40h-160zM511.999 161.005l103 -0.000976562
c0 40 -0.166992 70.333 -0.5 91s-0.833008 36.334 -1.5 47.001z" />
    <glyph glyph-name="questiondown" unicode="&#xbf;" horiz-adv-x="417" 
d="M193 273l5.99902 7l65 16l6 -4c0.666992 -13.333 1.33398 -27.666 2.00098 -42.999s1 -26.666 1 -33.999c0 -26.667 -6.5 -51.5 -19.5 -74.5s-27.167 -45.833 -42.5 -68.5s-29.5 -46.167 -42.5 -70.5s-19.5 -50.833 -19.5 -79.5c0 -24.667 6.66699 -42.667 20 -54
s26.666 -17 39.999 -17c16 0 30.833 2.66699 44.5 8s25.5 12.666 35.5 21.999s18 20.166 24 32.499s10 25.5 12 39.5l2 3h38l12 -103l-2 -9c-6.66699 -11.333 -16.5 -21 -29.5 -29s-27.5 -14.667 -43.5 -20s-32.5 -9.33301 -49.5 -12s-32.5 -4 -46.5 -4
s-30.5 2.33301 -49.5 7s-37 13 -54 25s-31.333 28.333 -43 49s-17.5 47 -17.5 79c0 20.667 3.5 40.5 10.5 59.5s15.833 37.333 26.5 55s22.167 34.5 34.5 50.5l35 46.5c11 15 20.333 29.167 28 42.5s11.834 26 12.501 38zM295.999 412
c0 -8 -1.66504 -16.002 -4.99805 -24.002s-8 -15.167 -14 -21.5s-12.833 -11.333 -20.5 -15s-15.834 -5.5 -24.501 -5.5c-16.667 0 -31.834 6.83301 -45.501 20.5s-20.5 28.834 -20.5 45.501c0 8.66699 1.83301 16.834 5.5 24.501s8.66699 14.5 15 20.5s13.5 10.667 21.5 14
s16 5 24 5c17.333 0 32.333 -6.33301 45 -19s19 -27.667 19 -45z" />
    <glyph glyph-name="Agrave" unicode="&#xc0;" 
d="M386 665l172 -453.997c6 -16.667 11.333 -30.667 16 -42s8.5 -21 11.5 -29s5.66699 -14.5 8 -19.5l6.5 -13.5c8 -16.667 16.167 -29.5 24.5 -38.5s16.666 -15.667 24.999 -20s16.833 -6.83301 25.5 -7.5s17.334 -1 26.001 -1l5 -4l3 -38l-2 -4
c-4.66699 0 -11.667 0.333008 -21 1l-29 2c-10 0.666992 -19.5 1.33398 -28.5 2.00098s-15.833 1 -20.5 1h-73c-4.66699 0 -12.334 -0.333008 -23.001 -1l-33.5 -2l-33.5 -2c-10.667 -0.666992 -18.334 -1 -23.001 -1l-2 4l3 38l4 4c17.333 0 30.5 2.16699 39.5 6.5
s13.5 16.166 13.5 35.499c0 10.667 -1.83301 25.834 -5.5 45.501s-12.167 44.167 -25.5 73.5l-21 48h-175l-20 -48c-12 -29.333 -21 -54.333 -27 -75s-9 -35.334 -9 -44.001c0 -16 3.33301 -27 10 -33s18.667 -9 36 -9l5 -4l3 -38l-2 -4c-4.66699 0 -12 0.333008 -22 1
l-31.5 2l-31.5 2c-10 0.666992 -17.333 1 -22 1h-59c-4.66699 0 -11.667 -0.333008 -21 -1l-29 -2c-10 -0.666992 -19.5 -1.33398 -28.5 -2.00098s-15.833 -1 -20.5 -1l-1 4l2 38l5 4c8.66699 0 17.334 0.666992 26.001 2s17.334 4.33301 26.001 9s17.167 11.167 25.5 19.5
s16.833 19.166 25.5 32.499l9 18.5c4 8.33301 10.333 23.166 19 44.499l36 91l61 157l86 221l71 30h11zM270 322.003h131l-64 177zM418 689.003l-201 77.002c-2.66699 6 -4 12.333 -4 19c0 17.333 4.5 32.166 13.5 44.499s22.833 19.166 41.5 20.499l181 -101l3 -7l-26 -50z
" />
    <glyph glyph-name="Aacute" unicode="&#xc1;" 
d="M386 665l172 -453.997c6 -16.667 11.333 -30.667 16 -42s8.5 -21 11.5 -29s5.66699 -14.5 8 -19.5l6.5 -13.5c8 -16.667 16.167 -29.5 24.5 -38.5s16.666 -15.667 24.999 -20s16.833 -6.83301 25.5 -7.5s17.334 -1 26.001 -1l5 -4l3 -38l-2 -4
c-4.66699 0 -11.667 0.333008 -21 1l-29 2c-10 0.666992 -19.5 1.33398 -28.5 2.00098s-15.833 1 -20.5 1h-73c-4.66699 0 -12.334 -0.333008 -23.001 -1l-33.5 -2l-33.5 -2c-10.667 -0.666992 -18.334 -1 -23.001 -1l-2 4l3 38l4 4c17.333 0 30.5 2.16699 39.5 6.5
s13.5 16.166 13.5 35.499c0 10.667 -1.83301 25.834 -5.5 45.501s-12.167 44.167 -25.5 73.5l-21 48h-175l-20 -48c-12 -29.333 -21 -54.333 -27 -75s-9 -35.334 -9 -44.001c0 -16 3.33301 -27 10 -33s18.667 -9 36 -9l5 -4l3 -38l-2 -4c-4.66699 0 -12 0.333008 -22 1
l-31.5 2l-31.5 2c-10 0.666992 -17.333 1 -22 1h-59c-4.66699 0 -11.667 -0.333008 -21 -1l-29 -2c-10 -0.666992 -19.5 -1.33398 -28.5 -2.00098s-15.833 -1 -20.5 -1l-1 4l2 38l5 4c8.66699 0 17.334 0.666992 26.001 2s17.334 4.33301 26.001 9s17.167 11.167 25.5 19.5
s16.833 19.166 25.5 32.499l9 18.5c4 8.33301 10.333 23.166 19 44.499l36 91l61 157l86 221l71 30h11zM270 322.003h131l-64 177zM246 692.003l-26 49.998l3 7l181 101c18.667 -1.33301 32.5 -8.16602 41.5 -20.499s13.5 -27.166 13.5 -44.499
c0 -6.66699 -1.33301 -13 -4 -19l-201 -77z" />
    <glyph glyph-name="Acircumflex" unicode="&#xc2;" 
d="M386 665l172 -453.997c6 -16.667 11.333 -30.667 16 -42s8.5 -21 11.5 -29s5.66699 -14.5 8 -19.5l6.5 -13.5c8 -16.667 16.167 -29.5 24.5 -38.5s16.666 -15.667 24.999 -20s16.833 -6.83301 25.5 -7.5s17.334 -1 26.001 -1l5 -4l3 -38l-2 -4
c-4.66699 0 -11.667 0.333008 -21 1l-29 2c-10 0.666992 -19.5 1.33398 -28.5 2.00098s-15.833 1 -20.5 1h-73c-4.66699 0 -12.334 -0.333008 -23.001 -1l-33.5 -2l-33.5 -2c-10.667 -0.666992 -18.334 -1 -23.001 -1l-2 4l3 38l4 4c17.333 0 30.5 2.16699 39.5 6.5
s13.5 16.166 13.5 35.499c0 10.667 -1.83301 25.834 -5.5 45.501s-12.167 44.167 -25.5 73.5l-21 48h-175l-20 -48c-12 -29.333 -21 -54.333 -27 -75s-9 -35.334 -9 -44.001c0 -16 3.33301 -27 10 -33s18.667 -9 36 -9l5 -4l3 -38l-2 -4c-4.66699 0 -12 0.333008 -22 1
l-31.5 2l-31.5 2c-10 0.666992 -17.333 1 -22 1h-59c-4.66699 0 -11.667 -0.333008 -21 -1l-29 -2c-10 -0.666992 -19.5 -1.33398 -28.5 -2.00098s-15.833 -1 -20.5 -1l-1 4l2 38l5 4c8.66699 0 17.334 0.666992 26.001 2s17.334 4.33301 26.001 9s17.167 11.167 25.5 19.5
s16.833 19.166 25.5 32.499l9 18.5c4 8.33301 10.333 23.166 19 44.499l36 91l61 157l86 221l71 30h11zM270 322.003h131l-64 177zM343 850.003l110 -99l3 -7l-9 -29l-7 -3l-101 41l-101 -41l-7 3l-9 29l3 7l110 99h8z" />
    <glyph glyph-name="Atilde" unicode="&#xc3;" 
d="M386 665l172 -453.997c6 -16.667 11.333 -30.667 16 -42s8.5 -21 11.5 -29s5.66699 -14.5 8 -19.5l6.5 -13.5c8 -16.667 16.167 -29.5 24.5 -38.5s16.666 -15.667 24.999 -20s16.833 -6.83301 25.5 -7.5s17.334 -1 26.001 -1l5 -4l3 -38l-2 -4
c-4.66699 0 -11.667 0.333008 -21 1l-29 2c-10 0.666992 -19.5 1.33398 -28.5 2.00098s-15.833 1 -20.5 1h-73c-4.66699 0 -12.334 -0.333008 -23.001 -1l-33.5 -2l-33.5 -2c-10.667 -0.666992 -18.334 -1 -23.001 -1l-2 4l3 38l4 4c17.333 0 30.5 2.16699 39.5 6.5
s13.5 16.166 13.5 35.499c0 10.667 -1.83301 25.834 -5.5 45.501s-12.167 44.167 -25.5 73.5l-21 48h-175l-20 -48c-12 -29.333 -21 -54.333 -27 -75s-9 -35.334 -9 -44.001c0 -16 3.33301 -27 10 -33s18.667 -9 36 -9l5 -4l3 -38l-2 -4c-4.66699 0 -12 0.333008 -22 1
l-31.5 2l-31.5 2c-10 0.666992 -17.333 1 -22 1h-59c-4.66699 0 -11.667 -0.333008 -21 -1l-29 -2c-10 -0.666992 -19.5 -1.33398 -28.5 -2.00098s-15.833 -1 -20.5 -1l-1 4l2 38l5 4c8.66699 0 17.334 0.666992 26.001 2s17.334 4.33301 26.001 9s17.167 11.167 25.5 19.5
s16.833 19.166 25.5 32.499l9 18.5c4 8.33301 10.333 23.166 19 44.499l36 91l61 157l86 221l71 30h11zM270 322.003h131l-64 177zM495 801.003c-2 -9.33301 -5.16309 -18.5 -9.49609 -27.5s-10 -17.167 -17 -24.5s-15.5 -13.333 -25.5 -18s-22 -7 -36 -7
c-26.667 0 -53.834 2.33301 -81.501 7s-52.167 7 -73.5 7c-16.667 0 -28.334 -2.16699 -35.001 -6.5s-13.334 -10.5 -20.001 -18.5l-13 48c2.66699 8.66699 6.33398 17.667 11.001 27s10.5 17.5 17.5 24.5s15.667 12.833 26 17.5s22.5 7 36.5 7
c16.667 0 31.167 -0.666992 43.5 -2s23.833 -3 34.5 -5s21 -3.66699 31 -5s21.333 -2 34 -2c11.333 0 22.666 1.33301 33.999 4s21.666 10 30.999 22z" />
    <glyph glyph-name="Adieresis" unicode="&#xc4;" 
d="M386 665l172 -453.997c6 -16.667 11.333 -30.667 16 -42s8.5 -21 11.5 -29s5.66699 -14.5 8 -19.5l6.5 -13.5c8 -16.667 16.167 -29.5 24.5 -38.5s16.666 -15.667 24.999 -20s16.833 -6.83301 25.5 -7.5s17.334 -1 26.001 -1l5 -4l3 -38l-2 -4
c-4.66699 0 -11.667 0.333008 -21 1l-29 2c-10 0.666992 -19.5 1.33398 -28.5 2.00098s-15.833 1 -20.5 1h-73c-4.66699 0 -12.334 -0.333008 -23.001 -1l-33.5 -2l-33.5 -2c-10.667 -0.666992 -18.334 -1 -23.001 -1l-2 4l3 38l4 4c17.333 0 30.5 2.16699 39.5 6.5
s13.5 16.166 13.5 35.499c0 10.667 -1.83301 25.834 -5.5 45.501s-12.167 44.167 -25.5 73.5l-21 48h-175l-20 -48c-12 -29.333 -21 -54.333 -27 -75s-9 -35.334 -9 -44.001c0 -16 3.33301 -27 10 -33s18.667 -9 36 -9l5 -4l3 -38l-2 -4c-4.66699 0 -12 0.333008 -22 1
l-31.5 2l-31.5 2c-10 0.666992 -17.333 1 -22 1h-59c-4.66699 0 -11.667 -0.333008 -21 -1l-29 -2c-10 -0.666992 -19.5 -1.33398 -28.5 -2.00098s-15.833 -1 -20.5 -1l-1 4l2 38l5 4c8.66699 0 17.334 0.666992 26.001 2s17.334 4.33301 26.001 9s17.167 11.167 25.5 19.5
s16.833 19.166 25.5 32.499l9 18.5c4 8.33301 10.333 23.166 19 44.499l36 91l61 157l86 221l71 30h11zM270 322.003h131l-64 177zM192 783.003c0 8 1.66504 16.002 4.99805 24.002s8 15.167 14 21.5s12.833 11.333 20.5 15s15.834 5.5 24.501 5.5
c16.667 0 31.834 -6.83301 45.501 -20.5s20.5 -28.834 20.5 -45.501c0 -8.66699 -1.83301 -16.834 -5.5 -24.501s-8.66699 -14.5 -15 -20.5s-13.5 -10.667 -21.5 -14s-16 -5 -24 -5c-17.333 0 -32.333 6.33301 -45 19s-19 27.667 -19 45zM351.998 783.005
c0 8 1.66504 16.002 4.99805 24.002s8 15.167 14 21.5s12.833 11.333 20.5 15s15.834 5.5 24.501 5.5c16.667 0 31.834 -6.83301 45.501 -20.5s20.5 -28.834 20.5 -45.501c0 -8.66699 -1.83301 -16.834 -5.5 -24.501s-8.66699 -14.5 -15 -20.5s-13.5 -10.667 -21.5 -14
s-16 -5 -24 -5c-17.333 0 -32.333 6.33301 -45 19s-19 27.667 -19 45z" />
    <glyph glyph-name="Aring" unicode="&#xc5;" 
d="M339 795c14.667 0 27.666 -2.49805 38.999 -7.49805s21 -11.5 29 -19.5s14 -17 18 -27s6 -20.333 6 -31c0 -13.333 -3.16699 -25.833 -9.5 -37.5s-15.5 -21.167 -27.5 -28.5l164 -433c6 -16.667 11.333 -30.667 16 -42s8.5 -21 11.5 -29s5.66699 -14.5 8 -19.5l6.5 -13.5
c8 -16.667 16.167 -29.5 24.5 -38.5s16.666 -15.667 24.999 -20s16.833 -6.83301 25.5 -7.5s17.334 -1 26.001 -1l5 -4l3 -38l-2 -4c-4.66699 0 -11.667 0.333008 -21 1l-29 2c-10 0.666992 -19.5 1.33398 -28.5 2.00098s-15.833 1 -20.5 1h-73
c-4.66699 0 -12.334 -0.333008 -23.001 -1l-33.5 -2l-33.5 -2c-10.667 -0.666992 -18.334 -1 -23.001 -1l-2 4l3 38l4 4c17.333 0 30.5 2.16699 39.5 6.5s13.5 16.166 13.5 35.499c0 10.667 -1.83301 25.834 -5.5 45.501s-12.167 44.167 -25.5 73.5l-21 48h-175l-20 -48
c-12 -29.333 -21 -54.333 -27 -75s-9 -35.334 -9 -44.001c0 -16 3.33301 -27 10 -33s18.667 -9 36 -9l5 -4l3 -38l-2 -4c-4.66699 0 -12 0.333008 -22 1l-31.5 2l-31.5 2c-10 0.666992 -17.333 1 -22 1h-59c-4.66699 0 -11.667 -0.333008 -21 -1l-29 -2
c-10 -0.666992 -19.5 -1.33398 -28.5 -2.00098s-15.833 -1 -20.5 -1l-1 4l2 38l5 4c8.66699 0 17.334 0.666992 26.001 2s17.334 4.33301 26.001 9s17.167 11.167 25.5 19.5s16.833 19.166 25.5 32.499l9 18.5c4 8.33301 10.333 23.166 19 44.499l36 91l61 157l86 221
c-19.333 6.66699 -33.666 17.334 -42.999 32.001s-14 29.667 -14 45c0 21.333 8 40.5 24 57.5s38.667 25.5 68 25.5zM269.999 322.002h131l-64 177zM339.999 674.002c10 0 17.999 3.83105 23.999 11.498s9 15.834 9 24.501c0 9.33301 -3.16699 18.5 -9.5 27.5
s-14.833 13.5 -25.5 13.5c-11.333 0 -19.833 -4 -25.5 -12s-8.5 -16.667 -8.5 -26s3.33301 -18.166 10 -26.499s15.334 -12.5 26.001 -12.5z" />
    <glyph glyph-name="AE" unicode="&#xc6;" horiz-adv-x="942" 
d="M339 660c4.66699 -0.666992 12.8369 -1.33691 24.5039 -2.00391s24.667 -1.33398 39 -2.00098s29.333 -1.16699 45 -1.5s30.167 -0.5 43.5 -0.5h204c9.33301 0 23.166 0.166992 41.499 0.5s37.166 0.833008 56.499 1.5s36.666 1.16699 51.999 1.5s24.666 0.5 27.999 0.5
l6 -10l-5 -129h-45l-4 4c-1.33301 12.667 -3.16602 22.667 -5.49902 30s-8.5 12.666 -18.5 15.999s-25.5 5.33301 -46.5 6s-50.167 1 -87.5 1h-57l-1 -9c-0.666992 -9.33301 -1.16699 -18 -1.5 -26s-0.666016 -17.333 -0.999023 -28s-0.5 -23.667 -0.5 -39v-59v-34
c16 0.666992 31.333 1 46 1s28.167 0.333008 40.5 1s23 2 32 4s15.5 5 19.5 9c3.33301 3.33301 6 7 8 11s3 9 3 15l5 5l37 2l4 -2l-3.5 -40c-1 -11.333 -1.5 -24.333 -1.5 -39c0 -16 0.5 -30.833 1.5 -44.5s2.16699 -28.5 3.5 -44.5l-4 -2l-38 2l-4 3
c0 16 -3.33301 28.333 -10 37c-5.33301 7.33301 -20.333 11.5 -45 12.5s-52.334 1.5 -83.001 1.5h-11v-82c0 -19.333 0.166992 -35.333 0.5 -48s0.666016 -23.5 0.999023 -32.5s0.833008 -17.5 1.5 -25.5s1.33398 -17.333 2.00098 -28
c0.666992 -12.667 7.33398 -19 20.001 -19h45c38 0 67.833 0.666992 89.5 2s38.167 4.5 49.5 9.5s19.5 12.167 24.5 21.5s9.5 22 13.5 38l4 4h47l-19 -147l-8 -10c-3.33301 0 -11.5 0.166992 -24.5 0.5s-27.5 0.833008 -43.5 1.5s-32 1.16699 -48 1.5s-28.667 0.5 -38 0.5
h-202c-16.667 0 -35.167 -0.333008 -55.5 -1s-39.166 -1 -56.499 -1l-2 3l3 35l5 4c14 0 25 0.833008 33 2.5s14.667 4.16699 20 7.5c5.33301 4.66699 10.333 11.834 15 21.501s7.66699 20.834 9 33.501c1.33301 10.667 2.16602 24.834 2.49902 42.501
s0.5 32.834 0.5 45.501v105h-169l-67.5 -109.5c-16.333 -27 -28.666 -48 -36.999 -63s-13.5 -26 -15.5 -33s-3 -13.833 -3 -20.5c0 -7.33301 1.66699 -13.166 5 -17.499s7.66602 -7.5 12.999 -9.5s11.5 -3.33301 18.5 -4s14.167 -1 21.5 -1l5 -4l3 -38l-3 -4
c-4.66699 0 -12.834 0.333008 -24.501 1s-24 1.33398 -37 2.00098s-25.333 1.33398 -37 2.00098s-19.834 1 -24.501 1h-69c-4.66699 0 -11.667 -0.333008 -21 -1l-29 -2l-29 -2c-9.33301 -0.666992 -16.333 -1 -21 -1v4l2 38l5 4c12 1.33301 25.833 3.16602 41.5 5.49902
s28.167 6.83301 37.5 13.5c6.66699 4.66699 13.5 11.167 20.5 19.5s14.167 17.833 21.5 28.5c2 3.33301 7.5 12 16.5 26l33 54l44 74l50.5 85l52.5 89l49.5 85l25 43c6.66699 11.333 10 22 10 32c0 2 -0.166992 4 -0.5 6s-1.83301 3.83301 -4.5 5.5s-6.5 3.16699 -11.5 4.5
s-12.5 2.33301 -22.5 3l-4 4l-3 38zM497.003 575.997h-4l-132 -210h134z" />
    <glyph glyph-name="Ccedilla" unicode="&#xc7;" horiz-adv-x="651" 
d="M235 -178l12.9971 37.999h7c8 -2 18.333 -5 31 -9s25.334 -6 38.001 -6c14.667 0 27.334 1.83301 38.001 5.5s16 11.167 16 22.5c0 12 -5.16699 20.167 -15.5 24.5s-22.5 6.5 -36.5 6.5c-8 0 -16.167 -0.666992 -24.5 -2s-16.166 -3 -23.499 -5l-9 26l47 71
c-41.333 6 -78.5 18.333 -111.5 37s-61.167 42.167 -84.5 70.5s-41.333 61.333 -54 99s-19 78.834 -19 123.501c0 46.667 7.16699 90.834 21.5 132.501s35.666 77.834 63.999 108.501s63.333 55 105 73s90.167 27 145.5 27c13.333 0 29 -0.5 47 -1.5s37 -3 57 -6
s40.167 -7.33301 60.5 -13s39.833 -12.834 58.5 -21.501l3 -9l-13 -111h-49l-3 4c-2 14.667 -8.33301 27.167 -19 37.5s-23.834 18.5 -39.501 24.5s-33 10.333 -52 13s-37.833 4 -56.5 4c-59.333 0 -105.333 -15 -138 -45c-25.333 -22.667 -43.666 -52.834 -54.999 -90.501
s-17 -78.5 -17 -122.5c0 -42 5.83301 -79 17.5 -111s27.667 -58.833 48 -80.5s44.5 -38 72.5 -49s58.667 -16.5 92 -16.5c28.667 0 61.834 3.16699 99.501 9.5s73.167 18.5 106.5 36.5l12 -22l-24 -44c-34.667 -21.333 -69.5 -37 -104.5 -47s-70.833 -15 -107.5 -15
c-2 0 -4 0.166992 -6 0.5s-4 0.5 -6 0.5l-18 -29c2 0.666992 4.5 1.16699 7.5 1.5s5.16699 0.5 6.5 0.5c28 0 49.833 -7.83301 65.5 -23.5s23.5 -35.167 23.5 -58.5c0 -12 -3.16699 -23.667 -9.5 -35s-15 -21.333 -26 -30s-24.167 -15.667 -39.5 -21s-32 -8 -50 -8
c-16 0 -31.833 2.66699 -47.5 8s-30.167 12.333 -43.5 21z" />
    <glyph glyph-name="Egrave" unicode="&#xc8;" horiz-adv-x="575" 
d="M328 654c9.33301 0 23.168 0.167969 41.501 0.500977s37.166 0.833008 56.499 1.5s36.666 1.16699 51.999 1.5s24.666 0.5 27.999 0.5l6 -10l-5 -129h-45l-4 4c-1.33301 12.667 -3.16602 22.667 -5.49902 30s-8.5 12.666 -18.5 15.999s-25.5 5.33301 -46.5 6
s-50.167 1 -87.5 1h-57l-1 -9c-0.666992 -9.33301 -1.16699 -18 -1.5 -26s-0.666016 -17.333 -0.999023 -28s-0.5 -23.667 -0.5 -39v-59v-34c16 0.666992 31.333 0.833984 46 0.500977s28.334 -0.166016 41.001 0.500977s23.5 1.83398 32.5 3.50098s15.5 4.5 19.5 8.5
c6.66699 6.66699 10 16 10 28l5 5l37 2l4 -2l-3.5 -40c-1 -11.333 -1.5 -24.333 -1.5 -39c0 -16 0.5 -30.833 1.5 -44.5s2.16699 -28.5 3.5 -44.5l-4 -2l-38 2l-4 3c0 16.667 -3 29 -9 37c-5.33301 7.33301 -20.5 11.5 -45.5 12.5s-52.833 1.5 -83.5 1.5h-11v-82
c0 -19.333 0.166992 -35.333 0.5 -48s0.666016 -23.5 0.999023 -32.5s0.833008 -17.5 1.5 -25.5s1.33398 -17.333 2.00098 -28c0.666992 -12.667 7.33398 -19 20.001 -19h45c38 0 67.833 0.666992 89.5 2s38.167 4.5 49.5 9.5s19.5 12.167 24.5 21.5s9.5 22 13.5 38l4 4h47
l-19 -147l-8 -10c-3.33301 0 -11.5 0.166992 -24.5 0.5s-27.5 0.833008 -43.5 1.5s-32 1.16699 -48 1.5s-28.667 0.5 -38 0.5h-202c-4.66699 0 -12.334 -0.333008 -23.001 -1l-33 -2l-33 -2c-10.667 -0.666992 -18.334 -1 -23.001 -1l-2 4l3 38l5 4
c10.667 0 20.667 0.5 30 1.5s17 3.83301 23 8.5c5.33301 4.66699 10.5 10.667 15.5 18s8.16699 20.333 9.5 39c0 4.66699 0.166992 10.167 0.5 16.5s0.666016 14.166 0.999023 23.499s0.5 20.666 0.5 33.999v50v163v59v41c0 11.333 -0.166992 21 -0.5 29
s-0.833008 16 -1.5 24c-1.33301 18 -4.5 31 -9.5 39s-10.167 14 -15.5 18c-6 5.33301 -13.667 8.33301 -23 9s-19.333 1 -30 1l-5 4l-3 38l2 4c4.66699 0 12.334 -0.333008 23.001 -1s22.167 -1.33398 34.5 -2.00098l36 -2c11.667 -0.666992 21.167 -1 28.5 -1h164z
M363.002 689.001l-201 77.002c-2.66699 6 -4 12.333 -4 19c0 17.333 4.5 32.166 13.5 44.499s22.833 19.166 41.5 20.499l181 -101l3 -7l-26 -50z" />
    <glyph glyph-name="Eacute" unicode="&#xc9;" horiz-adv-x="575" 
d="M328 654c9.33301 0 23.168 0.167969 41.501 0.500977s37.166 0.833008 56.499 1.5s36.666 1.16699 51.999 1.5s24.666 0.5 27.999 0.5l6 -10l-5 -129h-45l-4 4c-1.33301 12.667 -3.16602 22.667 -5.49902 30s-8.5 12.666 -18.5 15.999s-25.5 5.33301 -46.5 6
s-50.167 1 -87.5 1h-57l-1 -9c-0.666992 -9.33301 -1.16699 -18 -1.5 -26s-0.666016 -17.333 -0.999023 -28s-0.5 -23.667 -0.5 -39v-59v-34c16 0.666992 31.333 0.833984 46 0.500977s28.334 -0.166016 41.001 0.500977s23.5 1.83398 32.5 3.50098s15.5 4.5 19.5 8.5
c6.66699 6.66699 10 16 10 28l5 5l37 2l4 -2l-3.5 -40c-1 -11.333 -1.5 -24.333 -1.5 -39c0 -16 0.5 -30.833 1.5 -44.5s2.16699 -28.5 3.5 -44.5l-4 -2l-38 2l-4 3c0 16.667 -3 29 -9 37c-5.33301 7.33301 -20.5 11.5 -45.5 12.5s-52.833 1.5 -83.5 1.5h-11v-82
c0 -19.333 0.166992 -35.333 0.5 -48s0.666016 -23.5 0.999023 -32.5s0.833008 -17.5 1.5 -25.5s1.33398 -17.333 2.00098 -28c0.666992 -12.667 7.33398 -19 20.001 -19h45c38 0 67.833 0.666992 89.5 2s38.167 4.5 49.5 9.5s19.5 12.167 24.5 21.5s9.5 22 13.5 38l4 4h47
l-19 -147l-8 -10c-3.33301 0 -11.5 0.166992 -24.5 0.5s-27.5 0.833008 -43.5 1.5s-32 1.16699 -48 1.5s-28.667 0.5 -38 0.5h-202c-4.66699 0 -12.334 -0.333008 -23.001 -1l-33 -2l-33 -2c-10.667 -0.666992 -18.334 -1 -23.001 -1l-2 4l3 38l5 4
c10.667 0 20.667 0.5 30 1.5s17 3.83301 23 8.5c5.33301 4.66699 10.5 10.667 15.5 18s8.16699 20.333 9.5 39c0 4.66699 0.166992 10.167 0.5 16.5s0.666016 14.166 0.999023 23.499s0.5 20.666 0.5 33.999v50v163v59v41c0 11.333 -0.166992 21 -0.5 29
s-0.833008 16 -1.5 24c-1.33301 18 -4.5 31 -9.5 39s-10.167 14 -15.5 18c-6 5.33301 -13.667 8.33301 -23 9s-19.333 1 -30 1l-5 4l-3 38l2 4c4.66699 0 12.334 -0.333008 23.001 -1s22.167 -1.33398 34.5 -2.00098l36 -2c11.667 -0.666992 21.167 -1 28.5 -1h164z
M184.002 692.001l-26 49.998l3 7l181 101c18.667 -1.33301 32.5 -8.16602 41.5 -20.499s13.5 -27.166 13.5 -44.499c0 -6.66699 -1.33301 -13 -4 -19l-201 -77z" />
    <glyph glyph-name="Ecircumflex" unicode="&#xca;" horiz-adv-x="575" 
d="M328 654c9.33301 0 23.168 0.167969 41.501 0.500977s37.166 0.833008 56.499 1.5s36.666 1.16699 51.999 1.5s24.666 0.5 27.999 0.5l6 -10l-5 -129h-45l-4 4c-1.33301 12.667 -3.16602 22.667 -5.49902 30s-8.5 12.666 -18.5 15.999s-25.5 5.33301 -46.5 6
s-50.167 1 -87.5 1h-57l-1 -9c-0.666992 -9.33301 -1.16699 -18 -1.5 -26s-0.666016 -17.333 -0.999023 -28s-0.5 -23.667 -0.5 -39v-59v-34c16 0.666992 31.333 0.833984 46 0.500977s28.334 -0.166016 41.001 0.500977s23.5 1.83398 32.5 3.50098s15.5 4.5 19.5 8.5
c6.66699 6.66699 10 16 10 28l5 5l37 2l4 -2l-3.5 -40c-1 -11.333 -1.5 -24.333 -1.5 -39c0 -16 0.5 -30.833 1.5 -44.5s2.16699 -28.5 3.5 -44.5l-4 -2l-38 2l-4 3c0 16.667 -3 29 -9 37c-5.33301 7.33301 -20.5 11.5 -45.5 12.5s-52.833 1.5 -83.5 1.5h-11v-82
c0 -19.333 0.166992 -35.333 0.5 -48s0.666016 -23.5 0.999023 -32.5s0.833008 -17.5 1.5 -25.5s1.33398 -17.333 2.00098 -28c0.666992 -12.667 7.33398 -19 20.001 -19h45c38 0 67.833 0.666992 89.5 2s38.167 4.5 49.5 9.5s19.5 12.167 24.5 21.5s9.5 22 13.5 38l4 4h47
l-19 -147l-8 -10c-3.33301 0 -11.5 0.166992 -24.5 0.5s-27.5 0.833008 -43.5 1.5s-32 1.16699 -48 1.5s-28.667 0.5 -38 0.5h-202c-4.66699 0 -12.334 -0.333008 -23.001 -1l-33 -2l-33 -2c-10.667 -0.666992 -18.334 -1 -23.001 -1l-2 4l3 38l5 4
c10.667 0 20.667 0.5 30 1.5s17 3.83301 23 8.5c5.33301 4.66699 10.5 10.667 15.5 18s8.16699 20.333 9.5 39c0 4.66699 0.166992 10.167 0.5 16.5s0.666016 14.166 0.999023 23.499s0.5 20.666 0.5 33.999v50v163v59v41c0 11.333 -0.166992 21 -0.5 29
s-0.833008 16 -1.5 24c-1.33301 18 -4.5 31 -9.5 39s-10.167 14 -15.5 18c-6 5.33301 -13.667 8.33301 -23 9s-19.333 1 -30 1l-5 4l-3 38l2 4c4.66699 0 12.334 -0.333008 23.001 -1s22.167 -1.33398 34.5 -2.00098l36 -2c11.667 -0.666992 21.167 -1 28.5 -1h164z
M281.002 849.001l110 -99l3 -7l-9 -29l-7 -3l-101 41l-101 -41l-7 3l-9 29l3 7l110 99h8z" />
    <glyph glyph-name="Edieresis" unicode="&#xcb;" horiz-adv-x="575" 
d="M328 654c9.33301 0 23.168 0.167969 41.501 0.500977s37.166 0.833008 56.499 1.5s36.666 1.16699 51.999 1.5s24.666 0.5 27.999 0.5l6 -10l-5 -129h-45l-4 4c-1.33301 12.667 -3.16602 22.667 -5.49902 30s-8.5 12.666 -18.5 15.999s-25.5 5.33301 -46.5 6
s-50.167 1 -87.5 1h-57l-1 -9c-0.666992 -9.33301 -1.16699 -18 -1.5 -26s-0.666016 -17.333 -0.999023 -28s-0.5 -23.667 -0.5 -39v-59v-34c16 0.666992 31.333 0.833984 46 0.500977s28.334 -0.166016 41.001 0.500977s23.5 1.83398 32.5 3.50098s15.5 4.5 19.5 8.5
c6.66699 6.66699 10 16 10 28l5 5l37 2l4 -2l-3.5 -40c-1 -11.333 -1.5 -24.333 -1.5 -39c0 -16 0.5 -30.833 1.5 -44.5s2.16699 -28.5 3.5 -44.5l-4 -2l-38 2l-4 3c0 16.667 -3 29 -9 37c-5.33301 7.33301 -20.5 11.5 -45.5 12.5s-52.833 1.5 -83.5 1.5h-11v-82
c0 -19.333 0.166992 -35.333 0.5 -48s0.666016 -23.5 0.999023 -32.5s0.833008 -17.5 1.5 -25.5s1.33398 -17.333 2.00098 -28c0.666992 -12.667 7.33398 -19 20.001 -19h45c38 0 67.833 0.666992 89.5 2s38.167 4.5 49.5 9.5s19.5 12.167 24.5 21.5s9.5 22 13.5 38l4 4h47
l-19 -147l-8 -10c-3.33301 0 -11.5 0.166992 -24.5 0.5s-27.5 0.833008 -43.5 1.5s-32 1.16699 -48 1.5s-28.667 0.5 -38 0.5h-202c-4.66699 0 -12.334 -0.333008 -23.001 -1l-33 -2l-33 -2c-10.667 -0.666992 -18.334 -1 -23.001 -1l-2 4l3 38l5 4
c10.667 0 20.667 0.5 30 1.5s17 3.83301 23 8.5c5.33301 4.66699 10.5 10.667 15.5 18s8.16699 20.333 9.5 39c0 4.66699 0.166992 10.167 0.5 16.5s0.666016 14.166 0.999023 23.499s0.5 20.666 0.5 33.999v50v163v59v41c0 11.333 -0.166992 21 -0.5 29
s-0.833008 16 -1.5 24c-1.33301 18 -4.5 31 -9.5 39s-10.167 14 -15.5 18c-6 5.33301 -13.667 8.33301 -23 9s-19.333 1 -30 1l-5 4l-3 38l2 4c4.66699 0 12.334 -0.333008 23.001 -1s22.167 -1.33398 34.5 -2.00098l36 -2c11.667 -0.666992 21.167 -1 28.5 -1h164z
M150.002 784.001c0 8 1.66504 16.002 4.99805 24.002s8 15.167 14 21.5s12.833 11.333 20.5 15s15.834 5.5 24.501 5.5c16.667 0 31.834 -6.83301 45.501 -20.5s20.5 -28.834 20.5 -45.501c0 -8.66699 -1.83301 -16.834 -5.5 -24.501s-8.66699 -14.5 -15 -20.5
s-13.5 -10.667 -21.5 -14s-16 -5 -24 -5c-17.333 0 -32.333 6.33301 -45 19s-19 27.667 -19 45zM310 784.003c0 8 1.66504 16.002 4.99805 24.002s8 15.167 14 21.5s12.833 11.333 20.5 15s15.834 5.5 24.501 5.5c16.667 0 31.834 -6.83301 45.501 -20.5
s20.5 -28.834 20.5 -45.501c0 -8.66699 -1.83301 -16.834 -5.5 -24.501s-8.66699 -14.5 -15 -20.5s-13.5 -10.667 -21.5 -14s-16 -5 -24 -5c-17.333 0 -32.333 6.33301 -45 19s-19 27.667 -19 45z" />
    <glyph glyph-name="Igrave" unicode="&#xcc;" horiz-adv-x="367" 
d="M327 656l-3.00098 -37.998l-4 -4c-10.667 0 -20.667 -0.5 -30 -1.5s-17.333 -3.83301 -24 -8.5c-6 -4.66699 -11.5 -10.667 -16.5 -18s-7.5 -20.333 -7.5 -39c-0.666992 -9.33301 -1.16699 -18 -1.5 -26s-0.666016 -17.333 -0.999023 -28s-0.5 -23.667 -0.5 -39v-59v-144
v-58.5c0 -15 0.166992 -27.5 0.5 -37.5s0.666016 -18.5 0.999023 -25.5s0.833008 -14.5 1.5 -22.5c1.33301 -18.667 4.33301 -31.667 9 -39s9.66699 -13.333 15 -18c6 -4.66699 13.833 -7.5 23.5 -8.5s19.834 -1.5 30.501 -1.5l4 -4l3 -38l-2 -4
c-4.66699 0 -12.334 0.333008 -23.001 1l-33 2l-33 2c-10.667 0.666992 -18.334 1 -23.001 1h-59c-4.66699 0 -12.334 -0.333008 -23.001 -1l-33 -2l-33 -2c-10.667 -0.666992 -18.334 -1 -23.001 -1l-2 4l3 38l5 4c10.667 0 20.834 0.5 30.501 1.5s17.167 3.83301 22.5 8.5
s10.166 10.667 14.499 18s7.83301 20.333 10.5 39c0 4.66699 0.166992 10.167 0.5 16.5s0.666016 14.166 0.999023 23.499s0.5 20.666 0.5 33.999v50v163v59c0 16 -0.166992 29.667 -0.5 41s-0.666016 21 -0.999023 29s-0.833008 16 -1.5 24
c-1.33301 17.333 -4.33301 30 -9 38s-9.66699 14.333 -15 19c-6 4.66699 -13.667 7.5 -23 8.5s-19.333 1.5 -30 1.5l-5 4l-3 38l2 4c4.66699 0 12.334 -0.333008 23.001 -1l33 -2l33 -2c10.667 -0.666992 18.334 -1 23.001 -1h59c4.66699 0 12.334 0.333008 23.001 1l33 2
l33 2c10.667 0.666992 18.334 1 23.001 1zM266.999 688.002l-201 77.002c-2.66699 6 -4 12.333 -4 19c0 17.333 4.5 32.166 13.5 44.499s22.833 19.166 41.5 20.499l181 -101l3 -7l-26 -50z" />
    <glyph glyph-name="Iacute" unicode="&#xcd;" horiz-adv-x="367" 
d="M327 656l-3.00098 -37.998l-4 -4c-10.667 0 -20.667 -0.5 -30 -1.5s-17.333 -3.83301 -24 -8.5c-6 -4.66699 -11.5 -10.667 -16.5 -18s-7.5 -20.333 -7.5 -39c-0.666992 -9.33301 -1.16699 -18 -1.5 -26s-0.666016 -17.333 -0.999023 -28s-0.5 -23.667 -0.5 -39v-59v-144
v-58.5c0 -15 0.166992 -27.5 0.5 -37.5s0.666016 -18.5 0.999023 -25.5s0.833008 -14.5 1.5 -22.5c1.33301 -18.667 4.33301 -31.667 9 -39s9.66699 -13.333 15 -18c6 -4.66699 13.833 -7.5 23.5 -8.5s19.834 -1.5 30.501 -1.5l4 -4l3 -38l-2 -4
c-4.66699 0 -12.334 0.333008 -23.001 1l-33 2l-33 2c-10.667 0.666992 -18.334 1 -23.001 1h-59c-4.66699 0 -12.334 -0.333008 -23.001 -1l-33 -2l-33 -2c-10.667 -0.666992 -18.334 -1 -23.001 -1l-2 4l3 38l5 4c10.667 0 20.834 0.5 30.501 1.5s17.167 3.83301 22.5 8.5
s10.166 10.667 14.499 18s7.83301 20.333 10.5 39c0 4.66699 0.166992 10.167 0.5 16.5s0.666016 14.166 0.999023 23.499s0.5 20.666 0.5 33.999v50v163v59c0 16 -0.166992 29.667 -0.5 41s-0.666016 21 -0.999023 29s-0.833008 16 -1.5 24
c-1.33301 17.333 -4.33301 30 -9 38s-9.66699 14.333 -15 19c-6 4.66699 -13.667 7.5 -23 8.5s-19.333 1.5 -30 1.5l-5 4l-3 38l2 4c4.66699 0 12.334 -0.333008 23.001 -1l33 -2l33 -2c10.667 -0.666992 18.334 -1 23.001 -1h59c4.66699 0 12.334 0.333008 23.001 1l33 2
l33 2c10.667 0.666992 18.334 1 23.001 1zM93.999 692.002l-26 49.998l3 7l181 101c18.667 -1.33301 32.5 -8.16602 41.5 -20.499s13.5 -27.166 13.5 -44.499c0 -6.66699 -1.33301 -13 -4 -19l-201 -77z" />
    <glyph glyph-name="Icircumflex" unicode="&#xce;" horiz-adv-x="367" 
d="M327 656l-3.00098 -37.998l-4 -4c-10.667 0 -20.667 -0.5 -30 -1.5s-17.333 -3.83301 -24 -8.5c-6 -4.66699 -11.5 -10.667 -16.5 -18s-7.5 -20.333 -7.5 -39c-0.666992 -9.33301 -1.16699 -18 -1.5 -26s-0.666016 -17.333 -0.999023 -28s-0.5 -23.667 -0.5 -39v-59v-144
v-58.5c0 -15 0.166992 -27.5 0.5 -37.5s0.666016 -18.5 0.999023 -25.5s0.833008 -14.5 1.5 -22.5c1.33301 -18.667 4.33301 -31.667 9 -39s9.66699 -13.333 15 -18c6 -4.66699 13.833 -7.5 23.5 -8.5s19.834 -1.5 30.501 -1.5l4 -4l3 -38l-2 -4
c-4.66699 0 -12.334 0.333008 -23.001 1l-33 2l-33 2c-10.667 0.666992 -18.334 1 -23.001 1h-59c-4.66699 0 -12.334 -0.333008 -23.001 -1l-33 -2l-33 -2c-10.667 -0.666992 -18.334 -1 -23.001 -1l-2 4l3 38l5 4c10.667 0 20.834 0.5 30.501 1.5s17.167 3.83301 22.5 8.5
s10.166 10.667 14.499 18s7.83301 20.333 10.5 39c0 4.66699 0.166992 10.167 0.5 16.5s0.666016 14.166 0.999023 23.499s0.5 20.666 0.5 33.999v50v163v59c0 16 -0.166992 29.667 -0.5 41s-0.666016 21 -0.999023 29s-0.833008 16 -1.5 24
c-1.33301 17.333 -4.33301 30 -9 38s-9.66699 14.333 -15 19c-6 4.66699 -13.667 7.5 -23 8.5s-19.333 1.5 -30 1.5l-5 4l-3 38l2 4c4.66699 0 12.334 -0.333008 23.001 -1l33 -2l33 -2c10.667 -0.666992 18.334 -1 23.001 -1h59c4.66699 0 12.334 0.333008 23.001 1l33 2
l33 2c10.667 0.666992 18.334 1 23.001 1zM185.999 850.002l110 -99l3 -7l-9 -29l-7 -3l-101 41l-101 -41l-7 3l-9 29l3 7l110 99h8z" />
    <glyph glyph-name="Idieresis" unicode="&#xcf;" horiz-adv-x="367" 
d="M327 656l-3.00098 -37.998l-4 -4c-10.667 0 -20.667 -0.5 -30 -1.5s-17.333 -3.83301 -24 -8.5c-6 -4.66699 -11.5 -10.667 -16.5 -18s-7.5 -20.333 -7.5 -39c-0.666992 -9.33301 -1.16699 -18 -1.5 -26s-0.666016 -17.333 -0.999023 -28s-0.5 -23.667 -0.5 -39v-59v-144
v-58.5c0 -15 0.166992 -27.5 0.5 -37.5s0.666016 -18.5 0.999023 -25.5s0.833008 -14.5 1.5 -22.5c1.33301 -18.667 4.33301 -31.667 9 -39s9.66699 -13.333 15 -18c6 -4.66699 13.833 -7.5 23.5 -8.5s19.834 -1.5 30.501 -1.5l4 -4l3 -38l-2 -4
c-4.66699 0 -12.334 0.333008 -23.001 1l-33 2l-33 2c-10.667 0.666992 -18.334 1 -23.001 1h-59c-4.66699 0 -12.334 -0.333008 -23.001 -1l-33 -2l-33 -2c-10.667 -0.666992 -18.334 -1 -23.001 -1l-2 4l3 38l5 4c10.667 0 20.834 0.5 30.501 1.5s17.167 3.83301 22.5 8.5
s10.166 10.667 14.499 18s7.83301 20.333 10.5 39c0 4.66699 0.166992 10.167 0.5 16.5s0.666016 14.166 0.999023 23.499s0.5 20.666 0.5 33.999v50v163v59c0 16 -0.166992 29.667 -0.5 41s-0.666016 21 -0.999023 29s-0.833008 16 -1.5 24
c-1.33301 17.333 -4.33301 30 -9 38s-9.66699 14.333 -15 19c-6 4.66699 -13.667 7.5 -23 8.5s-19.333 1.5 -30 1.5l-5 4l-3 38l2 4c4.66699 0 12.334 -0.333008 23.001 -1l33 -2l33 -2c10.667 -0.666992 18.334 -1 23.001 -1h59c4.66699 0 12.334 0.333008 23.001 1l33 2
l33 2c10.667 0.666992 18.334 1 23.001 1zM36.999 785.002c0 8 1.66504 16.002 4.99805 24.002s8 15.167 14 21.5s12.833 11.333 20.5 15s15.834 5.5 24.501 5.5c16.667 0 31.834 -6.83301 45.501 -20.5s20.5 -28.834 20.5 -45.501
c0 -8.66699 -1.83301 -16.834 -5.5 -24.501s-8.66699 -14.5 -15 -20.5s-13.5 -10.667 -21.5 -14s-16 -5 -24 -5c-17.333 0 -32.333 6.33301 -45 19s-19 27.667 -19 45zM196.997 785.004c0 8 1.66504 16.002 4.99805 24.002s8 15.167 14 21.5s12.833 11.333 20.5 15
s15.834 5.5 24.501 5.5c16.667 0 31.834 -6.83301 45.501 -20.5s20.5 -28.834 20.5 -45.501c0 -8.66699 -1.83301 -16.834 -5.5 -24.501s-8.66699 -14.5 -15 -20.5s-13.5 -10.667 -21.5 -14s-16 -5 -24 -5c-17.333 0 -32.333 6.33301 -45 19s-19 27.667 -19 45z" />
    <glyph glyph-name="Eth" unicode="&#xd0;" horiz-adv-x="765" 
d="M130 370v24.002v30.5v43.5c0 15.333 -0.166992 30.333 -0.5 45s-0.833008 26 -1.5 34c-1.33301 16.667 -4.33301 29.334 -9 38.001s-10 15 -16 19c-6 5.33301 -12.167 8.33301 -18.5 9s-17.833 1 -34.5 1l-5 4l-3 38l2 4c4.66699 0 11.334 -0.333008 20.001 -1
s18 -1.33398 28 -2.00098l29.5 -2c9.66699 -0.666992 18.167 -1 25.5 -1h97c8.66699 0 19.5 0.166992 32.5 0.5s26.333 0.833008 40 1.5s27 1.16699 40 1.5s23.5 0.5 31.5 0.5c52 0 98.5 -8.83301 139.5 -26.5s75.5 -41.5 103.5 -71.5s49.5 -65 64.5 -105
s22.5 -82.333 22.5 -127c0 -44 -7.16699 -85.833 -21.5 -125.5s-35.5 -74.667 -63.5 -105s-63 -54.5 -105 -72.5s-90.667 -27 -146 -27c-6 0 -15 0.166992 -27 0.5s-24.667 0.5 -38 0.5s-26.166 0.166992 -38.499 0.5s-22.166 0.5 -29.499 0.5h-93
c-4.66699 0 -12.334 -0.333008 -23.001 -1l-33 -2l-33 -2c-10.667 -0.666992 -18.334 -1 -23.001 -1l-2 4l3 38l5 4c8 0 17.333 0.5 28 1.5s19 3.5 25 7.5c5.33301 4 10.333 10.333 15 19s8 21.667 10 39c0 4.66699 0.166992 10.167 0.5 16.5
s0.666016 14.166 0.999023 23.499s0.5 20.666 0.5 33.999v50v57h-99l15 82h84zM349 78.002c40 0 75.333 6.49805 106 19.498s56.5 30.833 77.5 53.5s37 49.167 48 79.5s16.5 62.833 16.5 97.5c0 36 -5.66699 69.167 -17 99.5s-27.833 56.5 -49.5 78.5
s-48.167 39.167 -79.5 51.5s-67 18.5 -107 18.5h-98c-1.33301 -19.333 -2.16602 -35.5 -2.49902 -48.5s-0.833008 -26.167 -1.5 -39.5s-1 -27.833 -1 -43.5v-59.5v-15h134l-16 -82h-118v-27c0 -40 0.166992 -71.167 0.5 -93.5s1.16602 -39.166 2.49902 -50.499
c2 -17.333 6.33301 -28.166 13 -32.499s18.667 -6.5 36 -6.5h56z" />
    <glyph glyph-name="Ntilde" unicode="&#xd1;" horiz-adv-x="781" 
d="M753 656l-2.00391 -38.001l-5 -4c-10 0 -19.833 -0.5 -29.5 -1.5s-17.5 -3.83301 -23.5 -8.5c-5.33301 -4.66699 -10.833 -10.667 -16.5 -18s-9.5 -20.333 -11.5 -39c-0.666992 -9.33301 -1.16699 -18 -1.5 -26s-0.666016 -17.333 -0.999023 -28s-0.5 -23.667 -0.5 -39
v-59v-156c0 -37.333 0.166992 -68 0.5 -92s0.666016 -44.5 0.999023 -61.5s1 -32.167 2 -45.5s2.16699 -28 3.5 -44l-8 -5l-123 5l-10 12l-309 466c1.33301 -12 2.16602 -31.167 2.49902 -57.5s0.5 -56.833 0.5 -91.5v-74v-31.5c0 -13 0.166992 -26.5 0.5 -40.5l1 -40.5
c0.333008 -13 0.833008 -23.5 1.5 -31.5c1.33301 -16.667 5 -29.334 11 -38.001s12.333 -15 19 -19c5.33301 -5.33301 12.333 -8.33301 21 -9s19.667 -1 33 -1l5 -4l3 -38l-2 -4c-5.33301 0 -12.833 0.333008 -22.5 1l-30 2l-30 2c-9.66699 0.666992 -16.834 1 -21.501 1
h-59c-4.66699 0 -12.334 -0.333008 -23.001 -1l-33 -2l-33 -2c-10.667 -0.666992 -18.334 -1 -23.001 -1l-2 4l3 38l5 4c12 0 22.167 0.5 30.5 1.5s15.833 3.83301 22.5 8.5c4.66699 3.33301 10.334 8.83301 17.001 16.5s11 21.167 13 40.5
c0.666992 4.66699 1.16699 10.167 1.5 16.5s0.5 14.166 0.5 23.499v34v50v163v59v41c0 11.333 -0.166992 21 -0.5 29s-0.833008 16 -1.5 24c-1.33301 14 -5.16602 26 -11.499 36s-12.5 17 -18.5 21c-6 5.33301 -13.5 8.33301 -22.5 9s-19.167 1 -30.5 1l-5 4l-3 38l2 4
c4.66699 0 11.5 -0.333008 20.5 -1l27.5 -2l27.5 -2c9 -0.666992 15.833 -1 20.5 -1h85c5.33301 0 12 0.333008 20 1s15 1.66699 21 3l5 -3c2 -9.33301 7 -22.166 15 -38.499s17.833 -34.666 29.5 -54.999l37.5 -64l40 -66.5l64 -104.5l50 -77.5l38 -55.5l27 -37.5
c0 17.333 0.166992 34.333 0.5 51s0.5 33.667 0.5 51v136v59c0 16 -0.166992 29.667 -0.5 41s-0.666016 21 -0.999023 29s-0.833008 16 -1.5 24c-1.33301 11.333 -4.16602 21.833 -8.49902 31.5s-11.166 18.167 -20.499 25.5c-6 5.33301 -13.833 8.33301 -23.5 9
s-19.834 1 -30.501 1l-4 4l-3 38l2 4c4.66699 0 11.334 -0.333008 20.001 -1l26.5 -2l26.5 -2c8.66699 -0.666992 15.334 -1 20.001 -1h87c4.66699 0 11.334 0.166992 20.001 0.5s17.667 0.833008 27 1.5l27 2c8.66699 0.666992 15.334 1.33398 20.001 2.00098z
M545.996 804.999c-2 -9.33301 -5.16309 -18.5 -9.49609 -27.5s-10 -17.167 -17 -24.5s-15.5 -13.333 -25.5 -18s-22 -7 -36 -7c-26.667 0 -53.834 2.33301 -81.501 7s-52.167 7 -73.5 7c-16.667 0 -28.334 -2.16699 -35.001 -6.5s-13.334 -10.5 -20.001 -18.5l-13 48
c2.66699 8.66699 6.33398 17.667 11.001 27s10.5 17.5 17.5 24.5s15.667 12.833 26 17.5s22.5 7 36.5 7c16.667 0 31.167 -0.666992 43.5 -2s23.833 -3 34.5 -5s21 -3.66699 31 -5s21.333 -2 34 -2c11.333 0 22.666 1.33301 33.999 4s21.666 10 30.999 22z" />
    <glyph glyph-name="Ograve" unicode="&#xd2;" horiz-adv-x="737" 
d="M369 665c51.333 0 96.999 -8.99805 136.999 -26.998s73.667 -42.5 101 -73.5s48.166 -66.833 62.499 -107.5s21.5 -83.334 21.5 -128.001c0 -44 -7 -86.5 -21 -127.5s-34.833 -77.167 -62.5 -108.5s-62 -56.5 -103 -75.5s-88.5 -28.5 -142.5 -28.5
c-52 0 -97.667 9 -137 27s-72.166 42.167 -98.499 72.5s-46.166 65.666 -59.499 105.999s-20 82.833 -20 127.5c0 47.333 7.33301 91.833 22 133.5s35.667 78 63 109s61 55.5 101 73.5s85.333 27 136 27zM367.999 72.002c32.667 0 61.8359 6.83398 87.5029 20.501
s47.167 32 64.5 55s30.666 50 39.999 81s14 64.167 14 99.5c0 36 -4.83301 69.5 -14.5 100.5s-23.667 57.833 -42 80.5s-40.5 40.5 -66.5 53.5s-55.333 19.5 -88 19.5c-32 0 -60.333 -6.33301 -85 -19s-45.334 -30.334 -62.001 -53.001s-29.334 -49.5 -38.001 -80.5
s-13 -64.5 -13 -100.5c0 -40 5 -75.833 15 -107.5s24 -58.5 42 -80.5s39.333 -39 64 -51s52 -18 82 -18zM419.001 688.003l-201 77.002c-2.66699 6 -4 12.333 -4 19c0 17.333 4.5 32.166 13.5 44.499s22.833 19.166 41.5 20.499l181 -101l3 -7l-26 -50z" />
    <glyph glyph-name="Oacute" unicode="&#xd3;" horiz-adv-x="737" 
d="M369 665c51.333 0 96.999 -8.99805 136.999 -26.998s73.667 -42.5 101 -73.5s48.166 -66.833 62.499 -107.5s21.5 -83.334 21.5 -128.001c0 -44 -7 -86.5 -21 -127.5s-34.833 -77.167 -62.5 -108.5s-62 -56.5 -103 -75.5s-88.5 -28.5 -142.5 -28.5
c-52 0 -97.667 9 -137 27s-72.166 42.167 -98.499 72.5s-46.166 65.666 -59.499 105.999s-20 82.833 -20 127.5c0 47.333 7.33301 91.833 22 133.5s35.667 78 63 109s61 55.5 101 73.5s85.333 27 136 27zM367.999 72.002c32.667 0 61.8359 6.83398 87.5029 20.501
s47.167 32 64.5 55s30.666 50 39.999 81s14 64.167 14 99.5c0 36 -4.83301 69.5 -14.5 100.5s-23.667 57.833 -42 80.5s-40.5 40.5 -66.5 53.5s-55.333 19.5 -88 19.5c-32 0 -60.333 -6.33301 -85 -19s-45.334 -30.334 -62.001 -53.001s-29.334 -49.5 -38.001 -80.5
s-13 -64.5 -13 -100.5c0 -40 5 -75.833 15 -107.5s24 -58.5 42 -80.5s39.333 -39 64 -51s52 -18 82 -18zM306.001 692.003l-26 49.998l3 7l181 101c18.667 -1.33301 32.5 -8.16602 41.5 -20.499s13.5 -27.166 13.5 -44.499c0 -6.66699 -1.33301 -13 -4 -19l-201 -77z" />
    <glyph glyph-name="Ocircumflex" unicode="&#xd4;" horiz-adv-x="737" 
d="M369 665c51.333 0 96.999 -8.99805 136.999 -26.998s73.667 -42.5 101 -73.5s48.166 -66.833 62.499 -107.5s21.5 -83.334 21.5 -128.001c0 -44 -7 -86.5 -21 -127.5s-34.833 -77.167 -62.5 -108.5s-62 -56.5 -103 -75.5s-88.5 -28.5 -142.5 -28.5
c-52 0 -97.667 9 -137 27s-72.166 42.167 -98.499 72.5s-46.166 65.666 -59.499 105.999s-20 82.833 -20 127.5c0 47.333 7.33301 91.833 22 133.5s35.667 78 63 109s61 55.5 101 73.5s85.333 27 136 27zM367.999 72.002c32.667 0 61.8359 6.83398 87.5029 20.501
s47.167 32 64.5 55s30.666 50 39.999 81s14 64.167 14 99.5c0 36 -4.83301 69.5 -14.5 100.5s-23.667 57.833 -42 80.5s-40.5 40.5 -66.5 53.5s-55.333 19.5 -88 19.5c-32 0 -60.333 -6.33301 -85 -19s-45.334 -30.334 -62.001 -53.001s-29.334 -49.5 -38.001 -80.5
s-13 -64.5 -13 -100.5c0 -40 5 -75.833 15 -107.5s24 -58.5 42 -80.5s39.333 -39 64 -51s52 -18 82 -18zM378.001 849.003l110 -99l3 -7l-9 -29l-7 -3l-101 41l-101 -41l-7 3l-9 29l3 7l110 99h8z" />
    <glyph glyph-name="Otilde" unicode="&#xd5;" horiz-adv-x="737" 
d="M369 665c51.333 0 96.999 -8.99805 136.999 -26.998s73.667 -42.5 101 -73.5s48.166 -66.833 62.499 -107.5s21.5 -83.334 21.5 -128.001c0 -44 -7 -86.5 -21 -127.5s-34.833 -77.167 -62.5 -108.5s-62 -56.5 -103 -75.5s-88.5 -28.5 -142.5 -28.5
c-52 0 -97.667 9 -137 27s-72.166 42.167 -98.499 72.5s-46.166 65.666 -59.499 105.999s-20 82.833 -20 127.5c0 47.333 7.33301 91.833 22 133.5s35.667 78 63 109s61 55.5 101 73.5s85.333 27 136 27zM367.999 72.002c32.667 0 61.8359 6.83398 87.5029 20.501
s47.167 32 64.5 55s30.666 50 39.999 81s14 64.167 14 99.5c0 36 -4.83301 69.5 -14.5 100.5s-23.667 57.833 -42 80.5s-40.5 40.5 -66.5 53.5s-55.333 19.5 -88 19.5c-32 0 -60.333 -6.33301 -85 -19s-45.334 -30.334 -62.001 -53.001s-29.334 -49.5 -38.001 -80.5
s-13 -64.5 -13 -100.5c0 -40 5 -75.833 15 -107.5s24 -58.5 42 -80.5s39.333 -39 64 -51s52 -18 82 -18zM524.001 803.003c-2 -9.33301 -5.16309 -18.5 -9.49609 -27.5s-10 -17.167 -17 -24.5s-15.5 -13.333 -25.5 -18s-22 -7 -36 -7c-26.667 0 -53.834 2.33301 -81.501 7
s-52.167 7 -73.5 7c-16.667 0 -28.334 -2.16699 -35.001 -6.5s-13.334 -10.5 -20.001 -18.5l-13 48c2.66699 8.66699 6.33398 17.667 11.001 27s10.5 17.5 17.5 24.5s15.667 12.833 26 17.5s22.5 7 36.5 7c16.667 0 31.167 -0.666992 43.5 -2s23.833 -3 34.5 -5
s21 -3.66699 31 -5s21.333 -2 34 -2c11.333 0 22.666 1.33301 33.999 4s21.666 10 30.999 22z" />
    <glyph glyph-name="Odieresis" unicode="&#xd6;" horiz-adv-x="737" 
d="M369 665c51.333 0 96.999 -8.99805 136.999 -26.998s73.667 -42.5 101 -73.5s48.166 -66.833 62.499 -107.5s21.5 -83.334 21.5 -128.001c0 -44 -7 -86.5 -21 -127.5s-34.833 -77.167 -62.5 -108.5s-62 -56.5 -103 -75.5s-88.5 -28.5 -142.5 -28.5
c-52 0 -97.667 9 -137 27s-72.166 42.167 -98.499 72.5s-46.166 65.666 -59.499 105.999s-20 82.833 -20 127.5c0 47.333 7.33301 91.833 22 133.5s35.667 78 63 109s61 55.5 101 73.5s85.333 27 136 27zM367.999 72.002c32.667 0 61.8359 6.83398 87.5029 20.501
s47.167 32 64.5 55s30.666 50 39.999 81s14 64.167 14 99.5c0 36 -4.83301 69.5 -14.5 100.5s-23.667 57.833 -42 80.5s-40.5 40.5 -66.5 53.5s-55.333 19.5 -88 19.5c-32 0 -60.333 -6.33301 -85 -19s-45.334 -30.334 -62.001 -53.001s-29.334 -49.5 -38.001 -80.5
s-13 -64.5 -13 -100.5c0 -40 5 -75.833 15 -107.5s24 -58.5 42 -80.5s39.333 -39 64 -51s52 -18 82 -18zM223.001 785.003c0 8 1.66504 16.002 4.99805 24.002s8 15.167 14 21.5s12.833 11.333 20.5 15s15.834 5.5 24.501 5.5c16.667 0 31.834 -6.83301 45.501 -20.5
s20.5 -28.834 20.5 -45.501c0 -8.66699 -1.83301 -16.834 -5.5 -24.501s-8.66699 -14.5 -15 -20.5s-13.5 -10.667 -21.5 -14s-16 -5 -24 -5c-17.333 0 -32.333 6.33301 -45 19s-19 27.667 -19 45zM382.999 785.005c0 8 1.66504 16.002 4.99805 24.002s8 15.167 14 21.5
s12.833 11.333 20.5 15s15.834 5.5 24.501 5.5c16.667 0 31.834 -6.83301 45.501 -20.5s20.5 -28.834 20.5 -45.501c0 -8.66699 -1.83301 -16.834 -5.5 -24.501s-8.66699 -14.5 -15 -20.5s-13.5 -10.667 -21.5 -14s-16 -5 -24 -5c-17.333 0 -32.333 6.33301 -45 19
s-19 27.667 -19 45z" />
    <glyph glyph-name="multiply" unicode="&#xd7;" horiz-adv-x="465" 
d="M232 187l-113 -113l-52 52l113 113l-113 112l52 52l113 -112l114 114l52 -52l-114 -114l114 -115l-51 -51z" />
    <glyph glyph-name="Oslash" unicode="&#xd8;" horiz-adv-x="738" 
d="M369 665c36 0 69.3311 -4.66699 99.998 -14s58.334 -22.333 83.001 -39l36 45c11.333 14.667 21.333 28.667 30 42l4 3l91 -61l-1 -4c-15.333 -13.333 -30.5 -27.833 -45.5 -43.5l-45.5 -47.5c23.333 -30 40.833 -63.5 52.5 -100.5s17.5 -75.833 17.5 -116.5
c0 -44 -7 -86.5 -21 -127.5s-34.833 -77.167 -62.5 -108.5s-62 -56.5 -103 -75.5s-88.5 -28.5 -142.5 -28.5c-36 0 -68.833 4.33301 -98.5 13s-56.167 20.667 -79.5 36c-27.333 -33.333 -49.333 -62 -66 -86l-4 -2l-82 80l1 4l37 35l40 39
c-21.333 30 -37.166 63.167 -47.499 99.5s-15.5 74.5 -15.5 114.5c0 47.333 7.33301 91.833 22 133.5s35.667 78 63 109s61 55.5 101 73.5s85.333 27 136 27zM190.998 193l150.502 169.001l148.5 175c-17.333 14 -36.5 25 -57.5 33s-44.167 12 -69.5 12
c-32 0 -60.333 -6.33301 -85 -19s-45.334 -30.334 -62.001 -53.001s-29.334 -49.5 -38.001 -80.5s-13 -64.5 -13 -100.5c0 -52 8.66699 -97.333 26 -136zM368 72.001c32.667 0 61.834 6.83203 87.501 20.499s47.167 32 64.5 55s30.666 50 39.999 81s14 64.167 14 99.5
c0 48.667 -9.33301 93.334 -28 134.001l-153 -174.5l-146 -173.5c34 -28 74.333 -42 121 -42z" />
    <glyph glyph-name="Ugrave" unicode="&#xd9;" horiz-adv-x="732" 
d="M712 656l-3.00488 -37.998l-4 -4c-9.33301 0 -19.166 -0.5 -29.499 -1.5s-18.5 -3.83301 -24.5 -8.5c-5.33301 -4.66699 -10.5 -10.667 -15.5 -18s-8.16699 -20.333 -9.5 -39c0 -8 -0.166992 -16 -0.5 -24s-0.666016 -17.667 -0.999023 -29s-0.5 -25 -0.5 -41v-59v-172
c0 -32.667 -5.5 -63.167 -16.5 -91.5s-27.167 -53 -48.5 -74s-47.833 -37.5 -79.5 -49.5s-67.834 -18 -108.501 -18c-50 0 -91.833 6 -125.5 18s-60.5 28.5 -80.5 49.5s-34.333 45.667 -43 74s-13 58.833 -13 91.5v172v59v41c0 11.333 -0.166992 21 -0.5 29
s-0.833008 16 -1.5 24c-1.33301 18 -4.5 31 -9.5 39s-10.167 14 -15.5 18c-6 5.33301 -13.667 8.33301 -23 9s-19.333 1 -30 1l-5 4l-3 38l2 4c4.66699 0 12.334 -0.333008 23.001 -1l33 -2l33 -2c10.667 -0.666992 18.334 -1 23.001 -1h59
c4.66699 0 12.334 0.333008 23.001 1l33 2l33 2c10.667 0.666992 18.334 1 23.001 1l2 -4l-3 -38l-4 -4c-9.33301 0 -19.166 -0.5 -29.499 -1.5s-18.5 -3.83301 -24.5 -8.5c-5.33301 -4.66699 -10.333 -10.667 -15 -18s-7.66699 -20.333 -9 -39
c-0.666992 -9.33301 -1.16699 -18 -1.5 -26s-0.666016 -17.333 -0.999023 -28s-0.5 -23.667 -0.5 -39v-59v-145c0 -62 12.167 -106.167 36.5 -132.5s61.833 -39.5 112.5 -39.5c22.667 0 43.667 3.16699 63 9.5s36 16.5 50 30.5s25 31.833 33 53.5s12 47.834 12 78.501v145
v59c0 15.333 -0.166992 28.333 -0.5 39s-0.666016 20 -0.999023 28s-0.833008 16.667 -1.5 26c-1.33301 19.333 -4.5 32.666 -9.5 39.999s-10.167 13 -15.5 17c-5.33301 5.33301 -12.833 8.33301 -22.5 9s-19.834 1 -30.501 1l-5 4l-3 38l2 4
c4.66699 0 11.667 -0.333008 21 -1s19.166 -1.33398 29.499 -2.00098s20.166 -1.33398 29.499 -2.00098s16.333 -1 21 -1h62c4.66699 0 12 0.333008 22 1l31.5 2l31.5 2c10 0.666992 17.333 1 22 1zM441.995 689.002l-201 77.002c-2.66699 6 -4 12.333 -4 19
c0 17.333 4.5 32.166 13.5 44.499s22.833 19.166 41.5 20.499l181 -101l3 -7l-26 -50z" />
    <glyph glyph-name="Uacute" unicode="&#xda;" horiz-adv-x="732" 
d="M712 656l-3.00488 -37.998l-4 -4c-9.33301 0 -19.166 -0.5 -29.499 -1.5s-18.5 -3.83301 -24.5 -8.5c-5.33301 -4.66699 -10.5 -10.667 -15.5 -18s-8.16699 -20.333 -9.5 -39c0 -8 -0.166992 -16 -0.5 -24s-0.666016 -17.667 -0.999023 -29s-0.5 -25 -0.5 -41v-59v-172
c0 -32.667 -5.5 -63.167 -16.5 -91.5s-27.167 -53 -48.5 -74s-47.833 -37.5 -79.5 -49.5s-67.834 -18 -108.501 -18c-50 0 -91.833 6 -125.5 18s-60.5 28.5 -80.5 49.5s-34.333 45.667 -43 74s-13 58.833 -13 91.5v172v59v41c0 11.333 -0.166992 21 -0.5 29
s-0.833008 16 -1.5 24c-1.33301 18 -4.5 31 -9.5 39s-10.167 14 -15.5 18c-6 5.33301 -13.667 8.33301 -23 9s-19.333 1 -30 1l-5 4l-3 38l2 4c4.66699 0 12.334 -0.333008 23.001 -1l33 -2l33 -2c10.667 -0.666992 18.334 -1 23.001 -1h59
c4.66699 0 12.334 0.333008 23.001 1l33 2l33 2c10.667 0.666992 18.334 1 23.001 1l2 -4l-3 -38l-4 -4c-9.33301 0 -19.166 -0.5 -29.499 -1.5s-18.5 -3.83301 -24.5 -8.5c-5.33301 -4.66699 -10.333 -10.667 -15 -18s-7.66699 -20.333 -9 -39
c-0.666992 -9.33301 -1.16699 -18 -1.5 -26s-0.666016 -17.333 -0.999023 -28s-0.5 -23.667 -0.5 -39v-59v-145c0 -62 12.167 -106.167 36.5 -132.5s61.833 -39.5 112.5 -39.5c22.667 0 43.667 3.16699 63 9.5s36 16.5 50 30.5s25 31.833 33 53.5s12 47.834 12 78.501v145
v59c0 15.333 -0.166992 28.333 -0.5 39s-0.666016 20 -0.999023 28s-0.833008 16.667 -1.5 26c-1.33301 19.333 -4.5 32.666 -9.5 39.999s-10.167 13 -15.5 17c-5.33301 5.33301 -12.833 8.33301 -22.5 9s-19.834 1 -30.501 1l-5 4l-3 38l2 4
c4.66699 0 11.667 -0.333008 21 -1s19.166 -1.33398 29.499 -2.00098s20.166 -1.33398 29.499 -2.00098s16.333 -1 21 -1h62c4.66699 0 12 0.333008 22 1l31.5 2l31.5 2c10 0.666992 17.333 1 22 1zM287.995 690.002l-26 49.998l3 7l181 101
c18.667 -1.33301 32.5 -8.16602 41.5 -20.499s13.5 -27.166 13.5 -44.499c0 -6.66699 -1.33301 -13 -4 -19l-201 -77z" />
    <glyph glyph-name="Ucircumflex" unicode="&#xdb;" horiz-adv-x="731" 
d="M712 656l-3.00488 -37.998l-4 -4c-9.33301 0 -19.166 -0.5 -29.499 -1.5s-18.5 -3.83301 -24.5 -8.5c-5.33301 -4.66699 -10.5 -10.667 -15.5 -18s-8.16699 -20.333 -9.5 -39c0 -8 -0.166992 -16 -0.5 -24s-0.666016 -17.667 -0.999023 -29s-0.5 -25 -0.5 -41v-59v-172
c0 -32.667 -5.5 -63.167 -16.5 -91.5s-27.167 -53 -48.5 -74s-47.833 -37.5 -79.5 -49.5s-67.834 -18 -108.501 -18c-50 0 -91.833 6 -125.5 18s-60.5 28.5 -80.5 49.5s-34.333 45.667 -43 74s-13 58.833 -13 91.5v172v59v41c0 11.333 -0.166992 21 -0.5 29
s-0.833008 16 -1.5 24c-1.33301 18 -4.5 31 -9.5 39s-10.167 14 -15.5 18c-6 5.33301 -13.667 8.33301 -23 9s-19.333 1 -30 1l-5 4l-3 38l2 4c4.66699 0 12.334 -0.333008 23.001 -1l33 -2l33 -2c10.667 -0.666992 18.334 -1 23.001 -1h59
c4.66699 0 12.334 0.333008 23.001 1l33 2l33 2c10.667 0.666992 18.334 1 23.001 1l2 -4l-3 -38l-4 -4c-9.33301 0 -19.166 -0.5 -29.499 -1.5s-18.5 -3.83301 -24.5 -8.5c-5.33301 -4.66699 -10.333 -10.667 -15 -18s-7.66699 -20.333 -9 -39
c-0.666992 -9.33301 -1.16699 -18 -1.5 -26s-0.666016 -17.333 -0.999023 -28s-0.5 -23.667 -0.5 -39v-59v-145c0 -62 12.167 -106.167 36.5 -132.5s61.833 -39.5 112.5 -39.5c22.667 0 43.667 3.16699 63 9.5s36 16.5 50 30.5s25 31.833 33 53.5s12 47.834 12 78.501v145
v59c0 15.333 -0.166992 28.333 -0.5 39s-0.666016 20 -0.999023 28s-0.833008 16.667 -1.5 26c-1.33301 19.333 -4.5 32.666 -9.5 39.999s-10.167 13 -15.5 17c-5.33301 5.33301 -12.833 8.33301 -22.5 9s-19.834 1 -30.501 1l-5 4l-3 38l2 4
c4.66699 0 11.667 -0.333008 21 -1s19.166 -1.33398 29.499 -2.00098s20.166 -1.33398 29.499 -2.00098s16.333 -1 21 -1h62c4.66699 0 12 0.333008 22 1l31.5 2l31.5 2c10 0.666992 17.333 1 22 1zM373.995 851.002l110 -99l3 -7l-9 -29l-7 -3l-101 41l-101 -41l-7 3l-9 29
l3 7l110 99h8z" />
    <glyph glyph-name="Udieresis" unicode="&#xdc;" horiz-adv-x="731" 
d="M712 656l-3.00488 -37.998l-4 -4c-9.33301 0 -19.166 -0.5 -29.499 -1.5s-18.5 -3.83301 -24.5 -8.5c-5.33301 -4.66699 -10.5 -10.667 -15.5 -18s-8.16699 -20.333 -9.5 -39c0 -8 -0.166992 -16 -0.5 -24s-0.666016 -17.667 -0.999023 -29s-0.5 -25 -0.5 -41v-59v-172
c0 -32.667 -5.5 -63.167 -16.5 -91.5s-27.167 -53 -48.5 -74s-47.833 -37.5 -79.5 -49.5s-67.834 -18 -108.501 -18c-50 0 -91.833 6 -125.5 18s-60.5 28.5 -80.5 49.5s-34.333 45.667 -43 74s-13 58.833 -13 91.5v172v59v41c0 11.333 -0.166992 21 -0.5 29
s-0.833008 16 -1.5 24c-1.33301 18 -4.5 31 -9.5 39s-10.167 14 -15.5 18c-6 5.33301 -13.667 8.33301 -23 9s-19.333 1 -30 1l-5 4l-3 38l2 4c4.66699 0 12.334 -0.333008 23.001 -1l33 -2l33 -2c10.667 -0.666992 18.334 -1 23.001 -1h59
c4.66699 0 12.334 0.333008 23.001 1l33 2l33 2c10.667 0.666992 18.334 1 23.001 1l2 -4l-3 -38l-4 -4c-9.33301 0 -19.166 -0.5 -29.499 -1.5s-18.5 -3.83301 -24.5 -8.5c-5.33301 -4.66699 -10.333 -10.667 -15 -18s-7.66699 -20.333 -9 -39
c-0.666992 -9.33301 -1.16699 -18 -1.5 -26s-0.666016 -17.333 -0.999023 -28s-0.5 -23.667 -0.5 -39v-59v-145c0 -62 12.167 -106.167 36.5 -132.5s61.833 -39.5 112.5 -39.5c22.667 0 43.667 3.16699 63 9.5s36 16.5 50 30.5s25 31.833 33 53.5s12 47.834 12 78.501v145
v59c0 15.333 -0.166992 28.333 -0.5 39s-0.666016 20 -0.999023 28s-0.833008 16.667 -1.5 26c-1.33301 19.333 -4.5 32.666 -9.5 39.999s-10.167 13 -15.5 17c-5.33301 5.33301 -12.833 8.33301 -22.5 9s-19.834 1 -30.501 1l-5 4l-3 38l2 4
c4.66699 0 11.667 -0.333008 21 -1s19.166 -1.33398 29.499 -2.00098s20.166 -1.33398 29.499 -2.00098s16.333 -1 21 -1h62c4.66699 0 12 0.333008 22 1l31.5 2l31.5 2c10 0.666992 17.333 1 22 1zM227.995 782.002c0 8 1.66504 16.002 4.99805 24.002s8 15.167 14 21.5
s12.833 11.333 20.5 15s15.834 5.5 24.501 5.5c16.667 0 31.834 -6.83301 45.501 -20.5s20.5 -28.834 20.5 -45.501c0 -8.66699 -1.83301 -16.834 -5.5 -24.501s-8.66699 -14.5 -15 -20.5s-13.5 -10.667 -21.5 -14s-16 -5 -24 -5c-17.333 0 -32.333 6.33301 -45 19
s-19 27.667 -19 45zM387.993 782.004c0 8 1.66504 16.002 4.99805 24.002s8 15.167 14 21.5s12.833 11.333 20.5 15s15.834 5.5 24.501 5.5c16.667 0 31.834 -6.83301 45.501 -20.5s20.5 -28.834 20.5 -45.501c0 -8.66699 -1.83301 -16.834 -5.5 -24.501
s-8.66699 -14.5 -15 -20.5s-13.5 -10.667 -21.5 -14s-16 -5 -24 -5c-17.333 0 -32.333 6.33301 -45 19s-19 27.667 -19 45z" />
    <glyph glyph-name="Yacute" unicode="&#xdd;" horiz-adv-x="653" 
d="M469 -6c-4.66699 0 -12.332 0.333008 -22.999 1l-33 2l-33 2c-10.667 0.666992 -18.334 1 -23.001 1h-59c-4.66699 0 -12.334 -0.333008 -23.001 -1l-33.5 -2l-33.5 -2c-10.667 -0.666992 -18.334 -1 -23.001 -1l-1 4l2 38l5 4c10 0 19.833 0.5 29.5 1.5
s17.5 3.83301 23.5 8.5s11.333 10.667 16 18s7.66699 20.333 9 39c0.666992 4.66699 1.16699 10.167 1.5 16.5s0.666016 14.166 0.999023 23.499s0.5 20.666 0.5 33.999v50v19c0 18.667 -2.66699 33.834 -8 45.501s-10.666 22.167 -15.999 31.5
c-22 36 -46.167 73.333 -72.5 112l-81.5 118c-4.66699 7.33301 -10 14.5 -16 21.5s-11.333 12.5 -16 16.5c-7.33301 6 -16.166 10.333 -26.499 13s-22.166 4.66699 -35.499 6l-8 4v38l5 4l45 -5.5c13.333 -1.66699 28 -2.5 44 -2.5h82c15.333 0 33.166 0.833008 53.499 2.5
s39.833 3.5 58.5 5.5l4 -4v-38l-4 -4c-13.333 -0.666992 -25 -1.83398 -35 -3.50098s-18 -4.5 -24 -8.5c-6.66699 -4.66699 -10 -10.667 -10 -18c0 -4 0.833008 -8 2.5 -12s3.5 -7.66699 5.5 -11l119 -189l112 173c6.66699 11.333 10 23 10 35c0 8 -2.33301 14 -7 18
s-10.5 7 -17.5 9s-14.667 3.33301 -23 4s-16.166 2 -23.499 4l-4 4v38l4 4c19.333 -3.33301 35.333 -5.16602 48 -5.49902s27.334 -0.5 44.001 -0.5h88c16 0 30.667 0.333008 44 1s29.333 2.33398 48 5.00098l4 -4v-38l-4 -4c-15.333 -2 -28.333 -4.66699 -39 -8
s-20.334 -8 -29.001 -14s-17.167 -13.667 -25.5 -23s-17.5 -21 -27.5 -35l-51.5 -75.5l-37 -56l-28.5 -45.5l-27 -44c-2.66699 -4 -5.66699 -10.833 -9 -20.5s-5 -19.5 -5 -29.5v-15v-58c0 -14.667 0.166992 -27 0.5 -37s0.666016 -18.333 0.999023 -25
s0.833008 -14 1.5 -22c1.33301 -18.667 4.5 -31.667 9.5 -39s10.167 -13.333 15.5 -18s12.833 -7.5 22.5 -8.5s19.834 -1.5 30.501 -1.5l5 -4l3 -38zM286.002 689l-26 49.998l3 7l181 101c18.667 -1.33301 32.5 -8.16602 41.5 -20.499s13.5 -27.166 13.5 -44.499
c0 -6.66699 -1.33301 -13 -4 -19l-201 -77z" />
    <glyph glyph-name="Thorn" unicode="&#xde;" horiz-adv-x="587" 
d="M239 540h51.999c48 0 88.833 -4.66699 122.5 -14s61 -22.666 82 -39.999s36.333 -38 46 -62s14.5 -50.333 14.5 -79c0 -42 -8.66699 -76.333 -26 -103s-39.5 -47.667 -66.5 -63s-57 -26 -90 -32s-65.5 -9 -97.5 -9h-37v-34c0 -14 2.5 -25.333 7.5 -34
s10.5 -15.334 16.5 -20.001s14.333 -7.5 25 -8.5s21.334 -1.5 32.001 -1.5l4 -4l3 -38l-2 -4c-4.66699 0 -12.334 0.333008 -23.001 1l-33 2l-33 2c-10.667 0.666992 -18.334 1 -23.001 1h-59c-4.66699 0 -12.334 -0.333008 -23.001 -1l-33 -2l-33 -2
c-10.667 -0.666992 -18.334 -1 -23.001 -1l-2 4l3 38l5 4c10 0 19.833 0.5 29.5 1.5s17.5 3.83301 23.5 8.5c5.33301 4.66699 10.5 10.667 15.5 18s8.16699 20.333 9.5 39c0 4 0.166992 8.66699 0.5 14s0.666016 11.833 0.999023 19.5s0.5 17.167 0.5 28.5v42v203v59v41
c0 11.333 -0.166992 21 -0.5 29s-0.833008 16 -1.5 24c-1.33301 11.333 -4.66602 19.666 -9.99902 24.999s-10.666 9.66602 -15.999 12.999s-12.666 5.66602 -21.999 6.99902s-19.333 2 -30 2l-5 4l-3 38l2 4c4.66699 0 12.334 -0.333008 23.001 -1l33 -2l33 -2
c10.667 -0.666992 18.334 -1 23.001 -1h59c4.66699 0 12.334 0.333008 23.001 1l33 2l33 2c10.667 0.666992 18.334 1 23.001 1l2 -4l-3 -38l-4 -4c-10.667 0 -20.834 -0.666992 -30.501 -2s-17.834 -3.66602 -24.501 -6.99902c-9.33301 -5.33301 -16 -10.666 -20 -15.999
s-6 -11.666 -6 -18.999v-30zM238.999 462v-250h72c48.667 0 83.5 11.333 104.5 34s31.5 54 31.5 94c0 40.667 -12 71.167 -36 91.5s-57 30.5 -99 30.5h-73z" />
    </font>
</defs>
</svg>
