<?xml version="1.0" standalone="no"?>
<!DOCTYPE svg PUBLIC "-//W3C//DTD SVG 1.1//EN" "http://www.w3.org/Graphics/SVG/1.1/DTD/svg11.dtd" >
<svg>
<metadata>
Created by FontForge 20090914 at Fri Jun 19 12:03:39 2015
 By www-data
Copyright (c) 2011, Pablo Impallari (www.impallari.com|impallari@gmail.com),Copyright (c) 2011, Igino Marini. (www.ikern.com|mail@iginomarini.com),Copyright (c) 2011, Brenda Gallo. (gbrenda1987@gmail.com),with Reserved Font Name Quattrocento.
</metadata>
<defs>
<font id="Quattrocento" horiz-adv-x="525" >
  <font-face 
    font-family="Quattrocento"
    font-weight="400"
    font-stretch="normal"
    units-per-em="1000"
    panose-1="2 2 5 2 3 0 0 0 4 4"
    ascent="800"
    descent="-200"
    x-height="458.998"
    cap-height="660"
    bbox="-30 -260 1116 848.998"
    underline-thickness="48"
    underline-position="-47"
    unicode-range="U+000D-U+FB02"
  />
<missing-glyph horiz-adv-x="266" 
d="M65 243c0 18 6.50098 34.001 19.501 48.001s29.167 21 48.5 21c8.66699 0 17.167 -1.83301 25.5 -5.5s15.666 -8.83398 21.999 -15.501s11.333 -14.167 15 -22.5s5.5 -16.833 5.5 -25.5c0 -19.333 -7 -35.333 -21 -48s-29.667 -19 -47 -19
c-19.333 0 -35.5 6.33301 -48.5 19s-19.5 28.667 -19.5 48z" />
    <glyph glyph-name="f_i" unicode="fi" horiz-adv-x="610" 
d="M586 -4c-4.66699 0 -11.6592 0.337891 -20.9922 1.00488s-19.333 1.16699 -30 1.5s-20.667 0.666016 -30 0.999023s-16.333 0.5 -21 0.5h-14c-4.66699 0 -11.834 -0.166992 -21.501 -0.5l-30 -1c-10.333 -0.333008 -20.333 -0.833008 -30 -1.5s-16.834 -1 -21.501 -1
l-1 4l1 14l4 4c10.667 0 21.167 0.5 31.5 1.5s18.166 4.16699 23.499 9.5c5.33301 4.66699 8.83301 10.667 10.5 18s3.16699 17.666 4.5 30.999l2 32.5c0.666992 11 1 28.5 1 52.5v123v35.5c0 9.66699 -0.166992 18.167 -0.5 25.5s-0.666016 14 -0.999023 20
s-0.833008 12.333 -1.5 19c-0.666992 2.66699 -1.5 5.66699 -2.5 9s-3 6.33301 -6 9s-7.5 4.83398 -13.5 6.50098s-14 2.5 -24 2.5h-217v-155v-70.5c0 -19 0.166992 -35 0.5 -48s0.833008 -24.167 1.5 -33.5l2 -28c1.33301 -10 2.83301 -19.5 4.5 -28.5
s5.16699 -15.833 10.5 -20.5c3.33301 -2.66699 8.16602 -4.66699 14.499 -6s13 -2.33301 20 -3s13.833 -1.16699 20.5 -1.5s12 -0.5 16 -0.5l5 -5l2 -13l-2 -4c-4.66699 0 -12.167 0.333008 -22.5 1s-21.166 1.16699 -32.499 1.5l-32.5 1
c-10.333 0.333008 -17.833 0.5 -22.5 0.5h-24c-4.66699 0 -11.834 -0.166992 -21.501 -0.5s-19.834 -0.666016 -30.501 -0.999023s-20.834 -0.833008 -30.501 -1.5s-16.834 -1 -21.501 -1l-1 4l1 14l4 4c10.667 0 21.167 0.5 31.5 1.5s18.166 4.16699 23.499 9.5
c4 4 7.33301 9.16699 10 15.5s4.5 16.833 5.5 31.5s1.66699 34.334 2 59.001s0.5 57.667 0.5 99v179h-74l-4 5v18l4 4l74 15v31c0 39.333 3.66699 75 11 107s19 59.167 35 81.5s36.667 39.666 62 51.999s56 18.5 92 18.5c30 0 58 -3.83301 84 -11.5s47.667 -17.5 65 -29.5
l5 -10l-12 -77h-26c-5.33301 25.333 -18.333 44.833 -39 58.5s-51 20.5 -91 20.5c-27.333 0 -48.833 -4.5 -64.5 -13.5s-27.667 -21 -36 -36s-13.666 -32.167 -15.999 -51.5s-3.5 -39.333 -3.5 -60v-80c74.667 0 140.167 0.666992 196.5 2s102.5 3.66602 138.5 6.99902l6 -9
c-1.33301 -2.66699 -2.5 -7.33398 -3.5 -14.001s-1.66699 -13.834 -2 -21.501l-1 -22.5c-0.333008 -7.33301 -0.5 -13 -0.5 -17c0 -5.33301 -0.166992 -10.5 -0.5 -15.5s-0.5 -10.833 -0.5 -17.5s-0.166992 -14.667 -0.5 -24s-0.5 -21.333 -0.5 -36v-112
c0 -14.667 0.166992 -26.667 0.5 -36s0.666016 -17.333 0.999023 -24s0.666016 -12.834 0.999023 -18.501s0.833008 -11.834 1.5 -18.501c1.33301 -14 2.83301 -24.5 4.5 -31.5s5.16699 -12.833 10.5 -17.5s12.833 -7.66699 22.5 -9s19.5 -2 29.5 -2l5 -5l2 -13z" />
    <glyph glyph-name="f_l" unicode="fl" horiz-adv-x="606" 
d="M438 600c0 36 -10.8223 60.998 -32.4893 74.998s-52.167 21 -91.5 21c-31.333 0 -56 -4.5 -74 -13.5s-31.5 -21 -40.5 -36s-14.833 -32.167 -17.5 -51.5s-4 -39.333 -4 -60v-80l127 6l5 -4v-39l-5 -5h-127v-155v-70.5c0 -19 0.166992 -35 0.5 -48
s0.833008 -24.167 1.5 -33.5l2 -28c1.33301 -10 2.83301 -19.5 4.5 -28.5s5.16699 -15.833 10.5 -20.5c3.33301 -2.66699 8.16602 -4.66699 14.499 -6s13 -2.33301 20 -3s13.833 -1.16699 20.5 -1.5s12 -0.5 16 -0.5l5 -5l2 -13l-2 -4c-4.66699 0 -12.167 0.333008 -22.5 1
s-21.166 1.16699 -32.499 1.5l-32.5 1c-10.333 0.333008 -17.833 0.5 -22.5 0.5h-24c-4.66699 0 -11.834 -0.166992 -21.501 -0.5s-19.834 -0.666016 -30.501 -0.999023s-20.834 -0.833008 -30.501 -1.5s-16.834 -1 -21.501 -1l-1 4l1 14l4 4c10.667 0 21.167 0.5 31.5 1.5
s18.166 4.16699 23.499 9.5c4 4 7.33301 9.16699 10 15.5s4.5 16.833 5.5 31.5s1.66699 34.334 2 59.001s0.5 57.667 0.5 99v179h-74l-4 5v18l4 4l74 15v31c0 39.333 3.66699 75 11 107s19.166 59.167 35.499 81.5s37.833 39.666 64.5 51.999s59.334 18.5 98.001 18.5
c25.333 0 48.5 -2.16699 69.5 -6.5s41.167 -6.5 60.5 -6.5c4.66699 0 10.334 0.333008 17.001 1s20 3 40 7l6 -9c-1.33301 -2.66699 -2.33301 -7.5 -3 -14.5s-1.33398 -14.5 -2.00098 -22.5s-1.16699 -15.667 -1.5 -23s-0.5 -13 -0.5 -17
c-0.666992 -10.667 -1.16699 -20.667 -1.5 -30s-0.666016 -20.333 -0.999023 -33s-0.5 -28 -0.5 -46v-69v-218v-69c0 -18 0.333008 -33.333 1 -46s1.16699 -23.667 1.5 -33s1.16602 -20 2.49902 -32c1.33301 -14 2.66602 -24.5 3.99902 -31.5s4.66602 -12.833 9.99902 -17.5
s12.833 -7.66699 22.5 -9s19.5 -2 29.5 -2l5 -5l2 -13l-2 -4c-4.66699 0 -11.667 0.333008 -21 1s-19.333 1.16699 -30 1.5s-20.667 0.666016 -30 0.999023s-16.333 0.5 -21 0.5h-14c-4.66699 0 -11.834 -0.166992 -21.501 -0.5l-30 -1
c-10.333 -0.333008 -20.333 -0.833008 -30 -1.5s-16.834 -1 -21.501 -1l-1 4l1 14l4 4c10.667 0 21.167 0.5 31.5 1.5s18.166 4.16699 23.499 9.5c5.33301 4.66699 8.83301 10.667 10.5 18s3.16699 17.666 4.5 30.999c0.666992 8.66699 1.16699 17.334 1.5 26.001
s0.666016 18.834 0.999023 30.501s0.5 25.334 0.5 41.001v58.5v366z" />
    <glyph glyph-name=".notdef" horiz-adv-x="266" 
d="M65 243c0 18 6.50098 34.001 19.501 48.001s29.167 21 48.5 21c8.66699 0 17.167 -1.83301 25.5 -5.5s15.666 -8.83398 21.999 -15.501s11.333 -14.167 15 -22.5s5.5 -16.833 5.5 -25.5c0 -19.333 -7 -35.333 -21 -48s-29.667 -19 -47 -19
c-19.333 0 -35.5 6.33301 -48.5 19s-19.5 28.667 -19.5 48z" />
    <glyph glyph-name="NULL" horiz-adv-x="0" 
 />
    <glyph glyph-name="NULL" horiz-adv-x="0" 
 />
    <glyph glyph-name="nonmarkingreturn" unicode="&#xd;" horiz-adv-x="253" 
 />
    <glyph glyph-name="space" unicode=" " horiz-adv-x="240" 
 />
    <glyph glyph-name="exclam" unicode="!" horiz-adv-x="246" 
d="M169 683c0 -6 -0.166992 -11.502 -0.5 -16.502s-0.5 -9.16699 -0.5 -12.5l-2 -22c-0.666992 -7.33301 -1.5 -17.166 -2.5 -29.499s-2.16699 -28.666 -3.5 -48.999s-2.83301 -47.166 -4.5 -80.499s-3.33398 -74.5 -5.00098 -123.5s-3.16699 -108.167 -4.5 -177.5l-5 -7
l-35 -16l-6 4c-1.33301 66 -2.83301 123.167 -4.5 171.5s-3.16699 89.666 -4.5 123.999s-2.66602 63 -3.99902 86s-2.66602 42 -3.99902 57s-2.33301 27 -3 36s-1.33398 16.833 -2.00098 23.5l4 9l82 26zM76 34.998c0 12.667 4.5 23.834 13.5 33.501s20.167 14.5 33.5 14.5
c12 0 22.833 -4.83301 32.5 -14.5s14.5 -20.834 14.5 -33.501s-4.83301 -23.5 -14.5 -32.5s-20.5 -13.5 -32.5 -13.5c-13.333 0 -24.5 4.5 -33.5 13.5s-13.5 19.833 -13.5 32.5z" />
    <glyph glyph-name="quotedbl" unicode="&#x22;" horiz-adv-x="306" 
d="M67 516l-1.99805 5c-0.666992 32 -1.83398 64.833 -3.50098 98.5s-4.5 66.167 -8.5 97.5l1 4l67 9l2 -4c-4.66699 -28.667 -7.83398 -60 -9.50098 -94s-2.5 -68 -2.5 -102l-2 -4zM200.002 516l-1.99902 5c-0.666992 32 -1.83398 64.833 -3.50098 98.5
s-4.5 66.167 -8.5 97.5l2 4l66 9l2 -4c-4.66699 -28.667 -7.66699 -60 -9 -94s-2.33301 -68 -3 -102l-2 -4z" />
    <glyph glyph-name="numbersign" unicode="#" horiz-adv-x="622" 
d="M294 4c11.333 32 21.6641 66.833 30.9971 104.5l27 113.5h-134c-7.33301 -38 -14 -75.833 -20 -113.5s-10.667 -72.5 -14 -104.5l-3 -4h-76l-1 4c11.333 32 21.666 66.833 30.999 104.5l27 113.5h-120l9 53h123l25 119h-128l9 52h130c6.66699 32 13 66.167 19 102.5
s10.333 70.166 13 101.499l2 4h76l2 -4c-11.333 -31.333 -21.666 -65.166 -30.999 -101.499s-17.666 -70.5 -24.999 -102.5h134c6.66699 32 13 66.167 19 102.5s10.333 70.166 13 101.499l2 4h76l2 -4c-11.333 -31.333 -21.666 -65.166 -30.999 -101.499
s-17.666 -70.5 -24.999 -102.5h126l-9 -52h-128l-25 -119h131l-9 -53h-134c-7.33301 -38 -14 -75.833 -20 -113.5s-10.667 -72.5 -14 -104.5l-3 -4h-76zM229.998 275h134l25 119h-135z" />
    <glyph glyph-name="dollar" unicode="$" horiz-adv-x="533" 
d="M238 -93c1.33301 14.667 2.50195 29.998 3.50195 45.998s2.16699 32.333 3.5 49c-38.667 0.666992 -74 5.33398 -106 14.001s-60.667 19.667 -86 33l-4 14l17 101h25l5 -5c3.33301 -36.667 17.666 -64.167 42.999 -82.5s61 -28.166 107 -29.499
c1.33301 25.333 2 50.666 2 75.999v75v111c-1.33301 0 -2.33301 0.333008 -3 1c-26.667 8 -51.334 16.833 -74.001 26.5s-42.334 21.5 -59.001 35.5s-29.667 30.333 -39 49s-14 41 -14 67c0 28 4.66699 51.833 14 71.5s22.166 36 38.499 49s35.833 23 58.5 30
s47.667 11.167 75 12.5c-0.666992 16.667 -1.66699 33.167 -3 49.5s-2.66602 31.833 -3.99902 46.5l2 3h61l2 -3c-2 -14.667 -3.5 -30.167 -4.5 -46.5s-2.16699 -32.833 -3.5 -49.5c30.667 -1.33301 59.167 -5.16602 85.5 -11.499s48.166 -13.166 65.499 -20.499l4 -11
l-14 -85h-28l-4 5c-1.33301 14 -5.5 25.667 -12.5 35s-15.833 17 -26.5 23s-22.167 10.333 -34.5 13s-24.5 4.66699 -36.5 6c-0.666992 -21.333 -1 -41.5 -1 -60.5v-51.5v-114c0.666992 -0.666992 1.66699 -1 3 -1c24.667 -7.33301 48.834 -16 72.501 -26
s44.834 -22.5 63.501 -37.5s33.5 -33.333 44.5 -55s16.5 -47.834 16.5 -78.501c0 -29.333 -5.16699 -54.5 -15.5 -75.5s-24.333 -38.667 -42 -53s-38.5 -25.5 -62.5 -33.5s-49.667 -13 -77 -15c0.666992 -17.333 1.66699 -34 3 -50l4 -47l-2 -3h-61zM293.002 197.998v-74
c0 -25.333 0.333008 -50.666 1 -75.999c42 5.33301 72.833 18.666 92.5 39.999s29.5 48 29.5 80c0 18 -3.33301 33.667 -10 47s-15.5 25 -26.5 35s-24 18.5 -39 25.5s-30.833 13.5 -47.5 19.5v-97zM132.002 499.998c0 -15.333 2.33301 -28.333 7 -39s11.667 -20 21 -28
s21.333 -15.167 36 -21.5s32 -12.5 52 -18.5v100v51.5c0 19 -0.333008 39.167 -1 60.5c-36.667 -3.33301 -65 -13.833 -85 -31.5s-30 -42.167 -30 -73.5z" />
    <glyph glyph-name="percent" unicode="%" horiz-adv-x="783" 
d="M124 23l52 63l47.5 60l47 62l50.5 70l120 165l77 107c26.667 37.333 51.667 77 75 119l5 4h76l-1 -4c-36.667 -40.667 -69.167 -80.167 -97.5 -118.5l-78.5 -107.5l-120 -165l-50 -70l-43.5 -62l-40 -60l-39.5 -63l-5 -4h-76zM596 357c23.333 0 44.001 -5 62.001 -15
s33.333 -23.333 46 -40s22.167 -36 28.5 -58s9.5 -45.333 9.5 -70c0 -24 -3.16699 -47.167 -9.5 -69.5s-15.833 -42 -28.5 -59s-28.334 -30.667 -47.001 -41s-40 -15.5 -64 -15.5c-23.333 0 -43.833 4.83301 -61.5 14.5s-32.334 22.667 -44.001 39s-20.5 35.5 -26.5 57.5
s-9 45.333 -9 70c0 26 3.33301 50.333 10 73s16.167 42.5 28.5 59.5s27.333 30.333 45 40s37.834 14.5 60.501 14.5zM596.001 27c15.333 0 28.998 3.83301 40.998 11.5s22.167 18.167 30.5 31.5s14.666 29 18.999 47s6.5 37 6.5 57c0 20.667 -2.33301 39.834 -7 57.501
s-11.167 33 -19.5 46s-18.666 23.167 -30.999 30.5s-26.166 11 -41.499 11s-28.666 -3.66699 -39.999 -11s-21 -17.5 -29 -30.5s-14 -28.333 -18 -46s-6 -36.834 -6 -57.501c0 -46 8.83301 -82 26.5 -108s40.5 -39 68.5 -39zM188.999 665c22.667 0 42.999 -5 60.999 -15
s33.333 -23.333 46 -40s22.167 -36 28.5 -58s9.5 -45.333 9.5 -70c0 -24 -3.16699 -47.167 -9.5 -69.5s-15.666 -42 -27.999 -59s-27.833 -30.667 -46.5 -41s-40 -15.5 -64 -15.5c-23.333 0 -43.833 4.83301 -61.5 14.5s-32.5 22.667 -44.5 39s-21 35.5 -27 57.5
s-9 45.333 -9 70c0 26 3.33301 50.333 10 73s16.167 42.5 28.5 59.5s27.5 30.333 45.5 40s38.333 14.5 61 14.5zM188.998 335c15.333 0 28.999 3.83301 40.999 11.5s22 18.167 30 31.5s14.167 29 18.5 47s6.5 37 6.5 57c0 20.667 -2.33301 39.834 -7 57.501
s-11.167 33 -19.5 46s-18.666 23.167 -30.999 30.5s-25.833 11 -40.5 11c-15.333 0 -28.833 -3.66699 -40.5 -11s-21.5 -17.5 -29.5 -30.5s-14 -28.333 -18 -46s-6 -36.834 -6 -57.501c0 -46 9 -82 27 -108s41 -39 69 -39z" />
    <glyph glyph-name="ampersand" unicode="&#x26;" horiz-adv-x="755" 
d="M711 424c0 -2 -1.66797 -7.16797 -5.00098 -15.501s-8.5 -17 -15.5 -26s-16.167 -17.167 -27.5 -24.5s-25.333 -11 -42 -11c-8 0 -21.5 0.666992 -40.5 2l-56.5 4c10 -15.333 17.5 -32.833 22.5 -52.5s7.5 -40.167 7.5 -61.5c0 -23.333 -3 -46.666 -9 -69.999
s-15.667 -45 -29 -65c25.333 -25.333 50.666 -45.333 75.999 -60s56 -22.667 92 -24l6 -4l3 -18l-3 -4c-6.66699 0 -15.167 -0.166992 -25.5 -0.5s-20.833 -0.833008 -31.5 -1.5s-20.334 -1.16699 -29.001 -1.5s-15 -0.5 -19 -0.5c-20 0 -39.667 6.33301 -59 19
s-37.666 27.667 -54.999 45c-25.333 -20.667 -54.333 -36.5 -87 -47.5s-67 -16.5 -103 -16.5c-29.333 0 -57.666 3.83301 -84.999 11.5s-51.666 19.167 -72.999 34.5s-38.333 34.333 -51 57s-19 49 -19 79c0 20 3 40 9 60s14.667 38.833 26 56.5s25.166 33.667 41.499 48
s34.833 25.5 55.5 33.5c-21.333 28 -36.666 52.5 -45.999 73.5s-14 44.167 -14 69.5c0 47.333 14.333 84.166 43 110.499s65.334 39.5 110.001 39.5c14 0 28.167 -1.33301 42.5 -4s27.666 -7.16699 39.999 -13.5s22.833 -14.5 31.5 -24.5s14.667 -22.333 18 -37l3 -10
l-12 -71h-33l-4 4c-3.33301 39.333 -12.5 66.666 -27.5 81.999s-35.167 23 -60.5 23c-29.333 0 -50.333 -8.5 -63 -25.5s-19 -36.5 -19 -58.5c0 -25.333 5.33301 -49.666 16 -72.999c5.33301 -12 13.5 -25.667 24.5 -41s26.5 -34.833 46.5 -58.5s45.5 -52.167 76.5 -85.5
l114.5 -122c16.667 31.333 25 62.666 25 93.999c0 19.333 -3.16699 38.333 -9.5 57s-15.5 37.667 -27.5 57c-15.333 -0.666992 -26.333 -3.16699 -33 -7.5s-12.667 -10.166 -18 -17.499l-14 7c0 4.66699 2 11.334 6 20.001s10 17.167 18 25.5s17.833 15.5 29.5 21.5
s25.5 9 41.5 9c6 0 14.333 -0.5 25 -1.5s22.5 -2 35.5 -3s26.5 -1.83301 40.5 -2.5s27.667 -1 41 -1c12.667 0 24.667 1.33301 36 4s21.333 10 30 22zM430.999 95.999l-103.001 111.001l-106 118c-16.667 -5.33301 -31 -13.333 -43 -24s-22 -22.834 -30 -36.501
s-14 -28 -18 -43s-6 -29.167 -6 -42.5c0 -23.333 5 -43.5 15 -60.5s22.833 -31 38.5 -42s33.334 -19.333 53.001 -25s39.167 -8.5 58.5 -8.5c25.333 0 50.333 4.5 75 13.5s46.667 22.167 66 39.5z" />
    <glyph glyph-name="quotesingle" unicode="'" horiz-adv-x="172" 
d="M67 516l-1.99805 5c-0.666992 32 -1.83398 64.833 -3.50098 98.5s-4.5 66.167 -8.5 97.5l1 4l67 9l2 -4c-4.66699 -28.667 -7.83398 -60 -9.50098 -94s-2.5 -68 -2.5 -102l-2 -4z" />
    <glyph glyph-name="parenleft" unicode="(" horiz-adv-x="271" 
d="M257 760l0.000976562 -5.00195c-28 -34.667 -51.833 -71.167 -71.5 -109.5s-34.834 -79.166 -45.501 -122.499c-9.33301 -36.667 -15 -72.167 -17 -106.5s-3 -64.166 -3 -89.499c0 -27.333 1.16699 -57.5 3.5 -90.5s8 -67.833 17 -104.5s22.667 -74.667 41 -114
s43.5 -79 75.5 -119v-5l-15 -11c-64 57.333 -113.667 124.333 -149 201s-53 157.667 -53 243s17.667 166 53 242s85 143.333 149 202z" />
    <glyph glyph-name="parenright" unicode=")" horiz-adv-x="271" 
d="M29 771c64 -58 113.666 -125.168 148.999 -201.501s53 -157.166 53 -242.499c0 -42 -4.66699 -83.5 -14 -124.5s-22.666 -80.5 -39.999 -118.5s-38.5 -74 -63.5 -108s-53.167 -65 -84.5 -93l-15 11v5c32 40 57 79.667 75 119s31.5 77.5 40.5 114.5
s14.667 71.833 17 104.5s3.5 62.667 3.5 90c0 25.333 -1 55 -3 89s-7.66699 69.667 -17 107c-10.667 43.333 -25.667 84 -45 122s-43 74.667 -71 110v5z" />
    <glyph glyph-name="asterisk" unicode="*" horiz-adv-x="439" 
d="M377 481c-8 -9.33301 -14.002 -17.3291 -18.002 -23.9961s-7.66699 -15.334 -11 -26.001c-1.33301 0 -2.33301 -0.166992 -3 -0.5s-1.33398 -0.5 -2.00098 -0.5c-16.667 14 -32.667 26.667 -48 38s-35.333 25 -60 41l5 -48.5l3.5 -34
c1 -9.66699 2.16699 -18.334 3.5 -26.001s3 -15.5 5 -23.5l-4 -3c-6.66699 0.666992 -11.5 1 -14.5 1h-12.5h-13.5c-3.66699 0 -8.5 -0.333008 -14.5 -1l-3 3c3.33301 20 5.83301 39.333 7.5 58s4.16699 43.667 7.5 75l-36 -25.5l-27 -19.5c-8 -6 -15.333 -11.833 -22 -17.5
l-22 -18.5c-1.33301 0 -2.16602 0.166992 -2.49902 0.5s-1.16602 0.5 -2.49902 0.5c-4 9.33301 -7.83301 17.166 -11.5 23.499s-9.16699 13.833 -16.5 22.5c0 0.666992 0.166992 1.66699 0.5 3s0.5 2.66602 0.5 3.99902c23.333 8.66699 44.5 17.167 63.5 25.5
s38.833 18.166 59.5 29.499l-37.5 19c-9.66699 4.66699 -18.334 8.66699 -26.001 12s-15.667 6.5 -24 9.5s-18.833 6.5 -31.5 10.5l-2 7c7.33301 9.33301 13.166 17.333 17.499 24s8.5 14.667 12.5 24l4 1l12 -10.5c4 -3.66699 9.83301 -8.33398 17.5 -14.001l29 -21.5
l46.5 -34c-1.33301 12.667 -2.83301 24.5 -4.5 35.5l-5 32c-1.66699 10.333 -3.83398 20.666 -6.50098 30.999l-9 34.5l3 4c6 -1.33301 10.667 -2 14 -2h15h14c4 0 8.66699 0.666992 14 2c0.666992 -1.33301 1.16699 -2 1.5 -2s0.833008 -0.333008 1.5 -1
c-4.66699 -19.333 -7.5 -40.166 -8.5 -62.499s-1.5 -46.166 -1.5 -71.499l31.5 24.5c9 7 17.167 13.833 24.5 20.5l21 19.5l22 21.5c0.666992 -2 2.33398 -3 5.00098 -3l11.5 -22.5c3.66699 -7 9.16699 -15.167 16.5 -24.5c-0.666992 -1.33301 -1 -2.66602 -1 -3.99902v-3
l-33 -13c-10 -4 -19.667 -8.16699 -29 -12.5l-28 -13.5l-31 -16l32.5 -17.5c9.66699 -5 19.334 -9.5 29.001 -13.5s19.834 -7.66699 30.501 -11s23.334 -7 38.001 -11z" />
    <glyph glyph-name="plus" unicode="+" horiz-adv-x="495" 
d="M273 265h172l-10 -52h-162v-172h-52v172h-171l9 52h162v162h52v-162z" />
    <glyph glyph-name="comma" unicode="," horiz-adv-x="213" 
d="M57 -97l-5.99805 6.00391v4c9.33301 19.333 15.5 36.666 18.5 51.999s4.5 27.333 4.5 36c0 7.33301 -1.83301 14.666 -5.5 21.999s-5.5 16.333 -5.5 27c0 5.33301 2 10.166 6 14.499s8.83301 7.83301 14.5 10.5s12 4.66699 19 6s13.5 2 19.5 2
c5.33301 0 9.66602 -1.5 12.999 -4.5s5.83301 -6.83301 7.5 -11.5s2.83398 -9.33398 3.50098 -14.001s1 -9 1 -13c0 -15.333 -3.16699 -30.5 -9.5 -45.5s-13.833 -28.667 -22.5 -41s-17.834 -23 -27.501 -32s-17.834 -15.167 -24.501 -18.5h-6z" />
    <glyph glyph-name="hyphen" unicode="-" horiz-adv-x="471" 
d="M405 265l-10 -52h-328l9 52h329z" />
    <glyph glyph-name="period" unicode="." horiz-adv-x="217" 
d="M62 35c0 12.667 4.33301 23.834 13 33.501s19.667 14.5 33 14.5c12.667 0 23.834 -4.83301 33.501 -14.5s14.5 -20.834 14.5 -33.501s-4.83301 -23.5 -14.5 -32.5s-20.834 -13.5 -33.501 -13.5c-13.333 0 -24.333 4.5 -33 13.5s-13 19.833 -13 32.5z" />
    <glyph glyph-name="slash" unicode="/" horiz-adv-x="434" 
d="M40 -53c22 44.667 43.333 93.667 64 147l58 155l67 184l21 58c8 22 15.833 44.833 23.5 68.5s15 47.5 22 71.5s12.833 46.333 17.5 67l3 4h78l1 -4c-11.333 -20.667 -22 -43 -32 -67l-29 -71.5l-26 -68.5l-21 -58l-68 -184c-18.667 -50 -37 -101.667 -55 -155
s-32.333 -102.333 -43 -147l-3 -4h-78v4z" />
    <glyph glyph-name="zero" unicode="0" horiz-adv-x="646" 
d="M323 665c42 0 79.499 -8.99805 112.499 -26.998s60.833 -42.5 83.5 -73.5s40 -66.833 52 -107.5s18 -83.334 18 -128.001c0 -44 -5.83301 -86.5 -17.5 -127.5s-28.834 -77.167 -51.501 -108.5s-51 -56.5 -85 -75.5s-73 -28.5 -117 -28.5c-43.333 0 -81.166 9 -113.499 27
s-59.333 42.167 -81 72.5s-38 65.666 -49 105.999s-16.5 82.833 -16.5 127.5c0 47.333 6 91.833 18 133.5s29.333 78 52 109s50.334 55.5 83.001 73.5s70 27 112 27zM321.999 42.002c30 0 56.833 7.49707 80.5 22.4971s43.5 35.5 59.5 61.5s28.333 56.333 37 91
s13 71.667 13 111c0 40 -4.5 77.333 -13.5 112s-21.833 64.834 -38.5 90.501s-36.834 45.667 -60.501 60s-50.5 21.5 -80.5 21.5s-56.333 -7.16699 -79 -21.5s-41.667 -34.166 -57 -59.499s-27 -55.166 -35 -89.499s-12 -71.833 -12 -112.5c0 -44.667 4.5 -84.667 13.5 -120
s21.833 -65.333 38.5 -90s36.334 -43.667 59.001 -57s47.667 -20 75 -20z" />
    <glyph glyph-name="one" unicode="1" horiz-adv-x="354" 
d="M42 554l3.00098 6.00293c28.667 14 56 28.833 82 44.5s51.667 35.167 77 58.5h7l22 -9c-0.666992 -5.33301 -1.16699 -11.5 -1.5 -18.5l-1 -21.5l-1 -21c-0.333008 -6.66699 -0.5 -12 -0.5 -16c-0.666992 -10.667 -1.16699 -20.667 -1.5 -30
s-0.666016 -20.333 -0.999023 -33s-0.5 -28 -0.5 -46v-69v-141v-68.5c0 -17.667 0.166992 -32.5 0.5 -44.5s0.666016 -22.667 0.999023 -32s1.16602 -19.666 2.49902 -30.999c1.33301 -14 4.33301 -24.5 9 -31.5s9.66699 -12.833 15 -17.5
c6 -4.66699 15.333 -8.33398 28 -11.001s24 -4 34 -4l5 -5l2 -13l-2 -4c-4.66699 0 -11.667 0.333008 -21 1s-19.333 1.16699 -30 1.5s-20.667 0.666016 -30 0.999023s-16.333 0.5 -21 0.5h-57c-4.66699 0 -11.667 -0.166992 -21 -0.5s-19.333 -0.666016 -30 -0.999023
s-20.667 -0.833008 -30 -1.5s-16.333 -1 -21 -1l-2 4l2 14l3 4c10.667 0 22.834 1.16699 36.501 3.5s23.167 6.16602 28.5 11.499c5.33301 4.66699 10.333 10.667 15 18s7.66699 17.666 9 30.999l2 25.5c0.666992 8.33301 1.16699 18 1.5 29s0.5 24.167 0.5 39.5v58v163
v66.5c0 17 -0.166992 31.167 -0.5 42.5s-0.833008 21.166 -1.5 29.499s-1.33398 17.833 -2.00098 28.5l-107 -27l-3 4v13z" />
    <glyph glyph-name="two" unicode="2" horiz-adv-x="536" 
d="M60 546l3.00488 9.00195c8 14 18 27.667 30 41s26.5 25 43.5 35s36.333 18.167 58 24.5s46.167 9.5 73.5 9.5c70 0 120.333 -15.5 151 -46.5s46 -72.833 46 -125.5c0 -31.333 -7.5 -60 -22.5 -86s-33.5 -54 -55.5 -84c-18.667 -25.333 -40.5 -52.333 -65.5 -81l-71 -82
l-57 -68.5c-15.667 -19.667 -23.5 -33.167 -23.5 -40.5l2 -3h78c40 0 72 0.5 96 1.5s42.667 4.16699 56 9.5s23.166 13.166 29.499 23.499s11.833 25.166 16.5 44.499l5 6h27l-18 -129l-9 -10c-4.66699 0 -15.834 0.333008 -33.501 1s-37 1.33398 -58 2.00098l-61 2
c-19.667 0.666992 -33.834 1 -42.501 1h-99c-14.667 0 -31.167 -0.666992 -49.5 -2l-53.5 -4l-10 11v23c14.667 18.667 34.5 42.167 59.5 70.5l79.5 90l83 96c27.333 32.333 50.666 61.833 69.999 88.5c15.333 21.333 28.166 42.666 38.499 63.999s15.5 44 15.5 68
c0 33.333 -12.5 59.5 -37.5 78.5s-55.833 28.5 -92.5 28.5c-44 0 -79.667 -11.167 -107 -33.5s-42.333 -55.833 -45 -100.5l-4 -4h-34z" />
    <glyph glyph-name="three" unicode="3" horiz-adv-x="544" 
d="M101 147c0.666992 -13.333 4.49902 -26.3281 11.499 -38.9951s17 -23.834 30 -33.501s29 -17.5 48 -23.5s40.833 -9 65.5 -9c30 0 55 4.5 75 13.5s36 20.5 48 34.5s20.5 29.333 25.5 46s7.5 33 7.5 49c0 18 -2.83301 35.833 -8.5 53.5s-14.167 33.334 -25.5 47.001
s-25.666 24.834 -42.999 33.501s-37.666 13 -60.999 13h-32l-5 4l-3 28l5 5h18c19.333 0 36.5 3.83301 51.5 11.5s27.667 17.667 38 30s18.166 26.666 23.499 42.999s8 33.166 8 50.499c0 14 -2 27.5 -6 40.5s-10.667 24.5 -20 34.5s-22.166 18 -38.499 24s-36.5 9 -60.5 9
s-43.833 -3.16699 -59.5 -9.5s-28.5 -15.333 -38.5 -27s-17.667 -25.667 -23 -42s-9.33301 -34.833 -12 -55.5l-4 -4h-33l-12 72l2 9c6.66699 12.667 15.834 25.667 27.501 39s25.667 25.166 42 35.499s35.166 18.833 56.499 25.5s45.333 10 72 10
c22.667 0 45 -3.16699 67 -9.5s41.5 -15.833 58.5 -28.5s30.833 -28.667 41.5 -48s16 -42 16 -68c0 -20.667 -3 -39.334 -9 -56.001s-13.667 -31.334 -23 -44.001s-19.833 -23.167 -31.5 -31.5s-22.834 -14.5 -33.501 -18.5v-4c40 -7.33301 71.833 -26.666 95.5 -57.999
s35.5 -68 35.5 -110c0 -29.333 -5.83301 -56.333 -17.5 -81s-28 -45.834 -49 -63.501s-46.5 -31.334 -76.5 -41.001s-63 -14.5 -99 -14.5c-85.333 0 -149 30.333 -191 91l-1 9l11 62h33z" />
    <glyph glyph-name="four" unicode="4" horiz-adv-x="508" 
d="M32 223l-10.999 22l43.5 73l51.5 82l54.5 83l51 75.5l42 60l27.5 37.5l65 9h8l12 -11c-0.666992 -5.33301 -1.16699 -11.5 -1.5 -18.5l-1 -21.5l-1 -21c-0.333008 -6.66699 -0.5 -12 -0.5 -16c-0.666992 -10.667 -1.16699 -20.667 -1.5 -30
s-0.666016 -20.333 -0.999023 -33s-0.5 -28 -0.5 -46v-69v-129h85l4 -6l-11 -41l-7 -5h-71v-46c0 -12.667 0.166992 -24 0.5 -34s0.666016 -19.333 0.999023 -28s1.16602 -18 2.49902 -28c1.33301 -14 4.5 -24.5 9.5 -31.5s10.167 -12.833 15.5 -17.5
s14.5 -8.33398 27.5 -11.001s24.5 -4 34.5 -4l4 -5l2 -13l-2 -4c-4.66699 0 -11.667 0.333008 -21 1s-19.166 1.16699 -29.499 1.5s-20.166 0.666016 -29.499 0.999023s-16.333 0.5 -21 0.5h-56c-4.66699 0 -12.334 -0.166992 -23.001 -0.5l-33.5 -1
c-11.667 -0.333008 -22.834 -0.833008 -33.501 -1.5s-18.334 -1 -23.001 -1l-1 4l4 14l4 4c5.33301 0 11.5 0.333008 18.5 1s14 1.66699 21 3s13.333 2.83301 19 4.5s9.83398 3.83398 12.501 6.50098c5.33301 4.66699 10.333 10.667 15 18s7.66699 17.666 9 30.999
c1.33301 16.667 2.33301 35.834 3 57.501s1 47.834 1 78.501h-259zM297.001 581c-11.333 -13.333 -25.833 -32 -43.5 -56s-36 -50.667 -55 -80l-56 -90c-18.333 -30.667 -33.833 -59 -46.5 -85h204v127v45c0 16 -0.166992 32.333 -0.5 49l-1 48.5
c-0.333008 15.667 -0.833008 29.5 -1.5 41.5z" />
    <glyph glyph-name="five" unicode="5" horiz-adv-x="531" 
d="M410 201c0 28 -4.66992 50.8291 -14.0029 68.4961s-21.333 31.667 -36 42s-31.5 17.333 -50.5 21s-37.833 5.5 -56.5 5.5c-24 0 -47.667 -2.66699 -71 -8s-44.666 -13.666 -63.999 -24.999h-10l-27 15l-2 7l32 319l6 8h90c18 0 44.667 0.5 80 1.5s76 3.16699 122 6.5
l9 -8l15 -108l-6 -7h-18l-6 5c-2.66699 14.667 -6 26.167 -10 34.5s-11.667 14.5 -23 18.5s-27.666 6.5 -48.999 7.5s-50.333 1.5 -87 1.5h-60c-4 0 -6 -1.66699 -6 -5l-20 -224c17.333 6.66699 36.5 11.667 57.5 15s43.167 5 66.5 5c27.333 0 53.666 -3.16699 78.999 -9.5
s47.833 -16.666 67.5 -30.999s35.334 -33.5 47.001 -57.5s17.5 -54 17.5 -90c0 -35.333 -6 -66.666 -18 -93.999s-28.833 -50.333 -50.5 -69s-47.5 -32.834 -77.5 -42.501s-63 -14.5 -99 -14.5c-46.667 0 -84.5 7.33301 -113.5 22s-52.5 34.334 -70.5 59.001l-1 10l11 71h36
l3 -4c1.33301 -30 14.166 -55 38.499 -75s59.833 -30 106.5 -30c30 0 55.333 4.33301 76 13s37.334 20.334 50.001 35.001s21.834 31.667 27.501 51s8.5 39.333 8.5 60z" />
    <glyph glyph-name="six" unicode="6" horiz-adv-x="544" 
d="M141 336c10.667 14.667 22.165 26.1689 34.498 34.502s24.833 14.833 37.5 19.5s25.167 7.66699 37.5 9s23.5 2 33.5 2c44.667 0 80.834 -7.16699 108.501 -21.5s49.167 -31.666 64.5 -51.999s25.5 -42.166 30.5 -65.499s7.5 -44 7.5 -62
c0 -24.667 -3.83301 -49.5 -11.5 -74.5s-20 -47.667 -37 -68s-39 -36.833 -66 -49.5s-59.5 -19 -97.5 -19c-40 0 -73.833 7.5 -101.5 22.5s-50 36.167 -67 63.5s-29.167 60.333 -36.5 99s-11 81.667 -11 129c0 40.667 3 82.5 9 125.5s17.5 82 34.5 117s40.5 63.667 70.5 86
s69 33.5 117 33.5c10.667 0 23 -0.666992 37 -2s28.333 -3.83301 43 -7.5s29 -8.5 43 -14.5s26 -13.667 36 -23l-15 -63h-18c-6.66699 11.333 -14.667 20.666 -24 27.999s-19.333 13.166 -30 17.499s-21.667 7.33301 -33 9s-22 2.5 -32 2.5c-32 0 -58.667 -7.33301 -80 -22
s-38.666 -33.334 -51.999 -56.001s-22.833 -47.834 -28.5 -75.501s-8.5 -54.834 -8.5 -81.501c0 -7.33301 0.166992 -14.166 0.5 -20.499s0.833008 -12.833 1.5 -19.5zM288.998 346.002c-48 0 -83.833 -13 -107.5 -39s-35.5 -60.667 -35.5 -104c0 -16 2 -33.333 6 -52
s11 -36 21 -52s23.833 -29.5 41.5 -40.5s40.167 -16.5 67.5 -16.5c46 0 81.667 15 107 45s38 68.333 38 115c0 15.333 -1.83301 31.5 -5.5 48.5s-10.5 32.5 -20.5 46.5s-24 25.667 -42 35s-41.333 14 -70 14z" />
    <glyph glyph-name="seven" unicode="7" horiz-adv-x="512" 
d="M199 0c-16 0 -34.3301 -0.666992 -54.9971 -2s-37.667 -2.66602 -51 -3.99902l-7 10l76 135.5l72 132.5l63 121l50.5 101c14.333 29.333 25.5 53.333 33.5 72s12 30.667 12 36l-5 4h-136c-39.333 0 -70.833 -0.666992 -94.5 -2s-41.834 -4 -54.501 -8
s-21.5 -10.167 -26.5 -18.5s-8.83301 -19.5 -11.5 -33.5l-6 -5h-18l-5 7l15 108l8 8c53.333 -2.66699 106.666 -4.66699 159.999 -6s101.666 -2 144.999 -2h137l5 -3l-5 -25c-4.66699 -5.33301 -12.5 -17.333 -23.5 -36l-37.5 -66.5l-45 -84l-46 -88l-40 -78
c-12 -23.667 -20.667 -41.834 -26 -54.501c-15.333 -34 -29.333 -67.5 -42 -100.5s-25 -70.167 -37 -111.5z" />
    <glyph glyph-name="eight" unicode="8" horiz-adv-x="558" 
d="M276 665c26.667 0 51.6621 -3.49902 74.9951 -10.499s43.5 -17.5 60.5 -31.5s30.333 -31.333 40 -52s14.5 -44.334 14.5 -71.001c0 -20 -2.5 -37.333 -7.5 -52s-11.667 -27.167 -20 -37.5s-17.666 -18.833 -27.999 -25.5s-20.833 -12 -31.5 -16v-4
c21.333 -6.66699 39.666 -16.334 54.999 -29.001s27.833 -27 37.5 -43s16.834 -33.333 21.501 -52s7 -37 7 -55c0 -24 -3.66699 -47.833 -11 -71.5s-19.666 -44.667 -36.999 -63s-40.166 -33.333 -68.499 -45s-63.5 -17.5 -105.5 -17.5
c-41.333 0 -76.166 5.66699 -104.499 17s-51 26.333 -68 45s-29.167 39.834 -36.5 63.501s-11 47.5 -11 71.5c0 40.667 9.83301 77.167 29.5 109.5s50.167 55.5 91.5 69.5v4c-23.333 7.33301 -43.666 21.333 -60.999 42s-26 50.667 -26 90c0 52.667 17 93.167 51 121.5
s78.333 42.5 133 42.5zM276.995 335.001c-26.667 0 -49.1611 -5 -67.4941 -15s-33 -22.5 -44 -37.5s-19 -31.5 -24 -49.5s-7.5 -35.333 -7.5 -52c0 -14 2.5 -29.167 7.5 -45.5s13.167 -31.5 24.5 -45.5s26.166 -25.5 44.499 -34.5s41.166 -13.5 68.499 -13.5
s50.166 4.16699 68.499 12.5s33.166 19 44.499 32s19.5 27.667 24.5 44s7.5 32.5 7.5 48.5c0 18 -2.66699 36.167 -8 54.5s-13.833 35 -25.5 50s-26.834 27.333 -45.501 37s-41.334 14.5 -68.001 14.5zM390.001 504.001c0 38 -9.66699 65.5 -29 82.5s-47.333 25.5 -84 25.5
c-38.667 0 -66.5 -9.16699 -83.5 -27.5s-25.5 -44.5 -25.5 -78.5c0 -40 10 -70.333 30 -91s47 -31 81 -31c16 0 30.833 3.16699 44.5 9.5s25.5 15 35.5 26s17.667 23.667 23 38s8 29.833 8 46.5z" />
    <glyph glyph-name="nine" unicode="9" horiz-adv-x="544" 
d="M403 318c-11.333 -14.667 -23.1699 -26.3291 -35.5029 -34.9961s-24.833 -15.167 -37.5 -19.5s-25 -7.16602 -37 -8.49902s-23 -2 -33 -2c-45.333 0 -81.666 7.16699 -108.999 21.5s-48.666 31.666 -63.999 51.999s-25.5 42.166 -30.5 65.499s-7.5 44 -7.5 62
c0 24.667 3.83301 49.5 11.5 74.5s20 47.667 37 68s38.833 36.833 65.5 49.5s59.334 19 98.001 19c40 0 73.833 -7.5 101.5 -22.5s50 -36.167 67 -63.5s29.167 -60.333 36.5 -99s11 -81.667 11 -129c0 -41.333 -3.16699 -83.333 -9.5 -126s-18 -81.5 -35 -116.5
s-40.5 -63.667 -70.5 -86s-69 -33.5 -117 -33.5c-10.667 0 -23 0.666992 -37 2s-28.333 3.66602 -43 6.99902s-28.834 8.16602 -42.501 14.499s-25.5 14.166 -35.5 23.499l15 63h18c13.333 -22.667 31.333 -37.834 54 -45.501s44.334 -11.5 65.001 -11.5
c32 0 58.833 6.83301 80.5 20.5s39 32 52 55s22.333 49.333 28 79s8.5 60.167 8.5 91.5v8c0 2.66699 -0.166992 5.83398 -0.5 9.50098s-0.833008 7.5 -1.5 11.5zM254.996 308.005c48 0 83.666 13 106.999 39s35 60.667 35 104c0 16 -2 33.333 -6 52s-11 36 -21 52
s-23.833 29.5 -41.5 40.5s-40.167 16.5 -67.5 16.5c-45.333 0 -80.666 -15 -105.999 -45s-38 -68.333 -38 -115c0 -15.333 1.83301 -31.5 5.5 -48.5s10.5 -32.5 20.5 -46.5s24 -25.667 42 -35s41.333 -14 70 -14z" />
    <glyph glyph-name="colon" unicode=":" horiz-adv-x="227" 
d="M67 35c0 12.667 4.33301 23.834 13 33.501s19.667 14.5 33 14.5c12.667 0 23.834 -4.83301 33.501 -14.5s14.5 -20.834 14.5 -33.501s-4.83301 -23.5 -14.5 -32.5s-20.834 -13.5 -33.501 -13.5c-13.333 0 -24.333 4.5 -33 13.5s-13 19.833 -13 32.5zM67 408
c0 12.667 4.33301 23.667 13 33s19.667 14 33 14c12.667 0 23.834 -4.66699 33.501 -14s14.5 -20.333 14.5 -33c0 -13.333 -4.83301 -24.5 -14.5 -33.5s-20.834 -13.5 -33.501 -13.5c-13.333 0 -24.333 4.5 -33 13.5s-13 20.167 -13 33.5z" />
    <glyph glyph-name="semicolon" unicode=";" horiz-adv-x="233" 
d="M71 408c0 12.667 4.33301 23.667 13 33s19.667 14 33 14c12.667 0 23.834 -4.66699 33.501 -14s14.5 -20.333 14.5 -33c0 -13.333 -4.83301 -24.5 -14.5 -33.5s-20.834 -13.5 -33.501 -13.5c-13.333 0 -24.333 4.5 -33 13.5s-13 20.167 -13 33.5zM70 -97
l-5.99805 6.00391v4c9.33301 19.333 15.5 36.666 18.5 51.999s4.5 27.333 4.5 36c0 7.33301 -1.83301 14.666 -5.5 21.999s-5.5 16.333 -5.5 27c0 5.33301 2 10.166 6 14.499s8.83301 7.83301 14.5 10.5s12 4.66699 19 6s13.5 2 19.5 2c5.33301 0 9.66602 -1.5 12.999 -4.5
s5.83301 -6.83301 7.5 -11.5s2.83398 -9.33398 3.50098 -14.001s1 -9 1 -13c0 -15.333 -3.16699 -30.5 -9.5 -45.5s-13.833 -28.667 -22.5 -41s-17.834 -23 -27.501 -32s-17.834 -15.167 -24.501 -18.5h-6z" />
    <glyph glyph-name="less" unicode="&#x3c;" horiz-adv-x="414" 
d="M124 238c34 -23.333 69.833 -46.667 107.5 -70l110.5 -67v-7l-9 -38l-4 -4c-46 34 -93 66.5 -141 97.5s-96 60.5 -144 88.5v5c48 28 96 57.5 144 88.5s95 63.5 141 97.5l4 -4l9 -38v-7l-110.5 -66.5l-107.5 -70.5v-5z" />
    <glyph glyph-name="equal" unicode="=" horiz-adv-x="488" 
d="M413 189l-10 -52h-328l9 52h329zM413 341l-10 -52h-328l9 52h329z" />
    <glyph glyph-name="greater" unicode="&#x3e;" horiz-adv-x="414" 
d="M290 243l-107.5 70.501l-110.5 66.5v7l9 38l4 4c46 -34 93 -66.5 141 -97.5s96 -60.5 144 -88.5v-5c-48 -28 -96 -57.5 -144 -88.5s-95 -63.5 -141 -97.5l-4 4l-9 38v7l110.5 67c37.667 23.333 73.5 46.666 107.5 69.999v5z" />
    <glyph glyph-name="question" unicode="?" horiz-adv-x="424" 
d="M220 172l-5.99805 -6.99707l-35 -16l-6 4c-0.666992 16.667 -1.33398 34.667 -2.00098 54s-1 33.666 -1 42.999c0 26.667 7 51.5 21 74.5s29.333 45.833 46 68.5s32 46 46 70s21 50.667 21 80c0 17.333 -3.16699 32.333 -9.5 45s-14.333 23.167 -24 31.5
s-20.334 14.5 -32.001 18.5s-23.167 6 -34.5 6c-18 0 -34.167 -3 -48.5 -9s-27 -14.167 -38 -24.5s-19.833 -22.333 -26.5 -36s-11 -27.834 -13 -42.501l-2 -3h-18l-12 93l2 9c6 9.33301 15.5 17.5 28.5 24.5s27.333 12.667 43 17s31.334 7.66602 47.001 9.99902
s29.167 3.5 40.5 3.5c14 0 30.5 -2.33301 49.5 -7s37 -13 54 -25s31.333 -28.333 43 -49s17.5 -47 17.5 -79c0 -20.667 -3.5 -40.5 -10.5 -59.5s-15.833 -37.333 -26.5 -55s-22.167 -34.5 -34.5 -50.5l-35 -46.5c-11 -15 -20.333 -29.167 -28 -42.5s-11.834 -26 -12.501 -38
zM150.002 36.0029c0 13.333 4.5 24.5 13.5 33.5s19.833 13.5 32.5 13.5s23.834 -4.5 33.501 -13.5s14.5 -20.167 14.5 -33.5c0 -12.667 -4.83301 -23.667 -14.5 -33s-20.834 -14 -33.501 -14s-23.5 4.66699 -32.5 14s-13.5 20.333 -13.5 33z" />
    <glyph glyph-name="at" unicode="@" horiz-adv-x="722" 
d="M441 354c-4 4 -12.335 6 -25.002 6c-22 0 -41 -6.16699 -57 -18.5s-29 -27.5 -39 -45.5s-17.333 -37.5 -22 -58.5s-7 -40.167 -7 -57.5c0 -22 3 -38.167 9 -48.5s13.667 -15.5 23 -15.5c8.66699 0 17.834 3.5 27.501 10.5s18.834 16 27.501 27s16.5 23.167 23.5 36.5
s11.833 26.333 14.5 39zM576.998 -23c-6.66699 -6 -17.165 -13.502 -31.498 -22.502s-31.5 -17.667 -51.5 -26s-42.333 -15.333 -67 -21s-50.667 -8.5 -78 -8.5c-40 0 -77.667 6.66699 -113 20s-66.333 32.166 -93 56.499s-47.834 53.833 -63.501 88.5
s-23.5 73.334 -23.5 116.001c0 38 6.83301 78.5 20.5 121.5s34.834 82.833 63.501 119.5s65.167 67 109.5 91s97.166 36 158.499 36c46.667 0 87.167 -7.33301 121.5 -22s62.666 -33.667 84.999 -57s38.833 -49.666 49.5 -78.999s16 -59 16 -89
c0 -29.333 -4.83301 -57.666 -14.5 -84.999s-23.5 -51.5 -41.5 -72.5s-39.5 -37.833 -64.5 -50.5s-52.833 -19 -83.5 -19c-16 0 -28.833 1.83301 -38.5 5.5s-17 8.66699 -22 15s-8.33301 14 -10 23s-2.5 18.833 -2.5 29.5c-11.333 -22.667 -25.5 -40.667 -42.5 -54
s-34.167 -20 -51.5 -20c-10 0 -20 2.5 -30 7.5s-19 12.5 -27 22.5s-14.5 22.5 -19.5 37.5s-7.5 32.5 -7.5 52.5c0 30 5.66699 57 17 81s26.166 44.5 44.499 61.5s38.833 30.167 61.5 39.5s45.334 14 68.001 14c16 0 33.5 -2.66699 52.5 -8s34.167 -13.666 45.5 -24.999
l-37 -178c-1.33301 -7.33301 -2.33301 -13.833 -3 -19.5s-1 -10.834 -1 -15.501c0 -9.33301 2 -16.333 6 -21s11.667 -7 23 -7c18 0 34.5 5.16699 49.5 15.5s28 24 39 41s19.5 36.5 25.5 58.5s9 44.333 9 67c0 24.667 -4.16699 49.5 -12.5 74.5s-21.333 47.5 -39 67.5
s-40.167 36.333 -67.5 49s-60.333 19 -99 19c-48 0 -90.333 -9.66699 -127 -29s-67.334 -44.666 -92.001 -75.999s-43.334 -66.5 -56.001 -105.5s-19 -77.833 -19 -116.5c0 -42 6.83301 -78 20.5 -108s31.834 -54.833 54.501 -74.5s48.834 -34 78.501 -43
s60.5 -13.5 92.5 -13.5c27.333 0 52.833 2.83301 76.5 8.5s45 12.667 64 21s35.5 17.166 49.5 26.499s24.667 17.333 32 24l13 -10z" />
    <glyph glyph-name="A" unicode="A" horiz-adv-x="675" 
d="M372 665l164.001 -453.998c6.66699 -20 12.5 -36.667 17.5 -50l13 -34l9.5 -23.5l7 -16.5c7.33301 -16.667 14.833 -29.5 22.5 -38.5s15.5 -15.667 23.5 -20s16.167 -6.83301 24.5 -7.5s16.833 -1 25.5 -1l5 -4l3 -18l-2 -4c-4.66699 0 -11.667 0.333008 -21 1l-29 2
c-10 0.666992 -19.5 1.33398 -28.5 2.00098s-15.833 1 -20.5 1h-33c-4.66699 0 -12.334 -0.333008 -23.001 -1l-33.5 -2l-33.5 -2c-10.667 -0.666992 -18.334 -1 -23.001 -1l-2 4l3 18l4 4c19.333 0 34.333 2.16699 45 6.5s16 16.166 16 35.499
c0 15.333 -5.16699 36.833 -15.5 64.5l-38.5 104.5l-17 48h-224l-17 -48l-38.5 -104.5c-10.333 -27.667 -15.5 -49.167 -15.5 -64.5c0 -19.333 5.33301 -31.166 16 -35.499s25.667 -6.5 45 -6.5l5 -4l3 -18l-2 -4c-4.66699 0 -12 0.333008 -22 1l-31.5 2l-31.5 2
c-10 0.666992 -17.333 1 -22 1h-19c-4.66699 0 -11.667 -0.333008 -21 -1l-29 -2c-10 -0.666992 -19.5 -1.33398 -28.5 -2.00098s-15.833 -1 -20.5 -1l-1 4l2 18l5 4c8.66699 0 17 0.333008 25 1s16 3.16699 24 7.5s15.833 11 23.5 20s15.5 21.833 23.5 38.5
c2 3.33301 3.83301 7.16602 5.5 11.499s4.33398 10.833 8.00098 19.5l14 34.5l22 56l33 84.5l47.5 121l27 69.5l26 64.5l21.5 53c6.33301 15.333 10.833 26.666 13.5 33.999l59 30h11zM228.001 322.002h191l-95 257z" />
    <glyph glyph-name="B" unicode="B" horiz-adv-x="587" 
d="M157 0c-4.66699 0 -12.332 -0.333008 -22.999 -1l-33 -2l-33 -2c-10.667 -0.666992 -18.334 -1 -23.001 -1l-2 4l3 18l5 4c8 0 17.333 0.5 28 1.5s19 3.5 25 7.5c5.33301 4 10.333 10.333 15 19s8 21.667 10 39c0.666992 10 1.16699 25 1.5 45s0.5 49.667 0.5 89v250
v45.5c0 17 -0.666992 33.833 -2 50.5c-1.33301 18 -4.5 31 -9.5 39s-10.167 14 -15.5 18c-6 3.33301 -12.167 5.83301 -18.5 7.5s-17.833 2.5 -34.5 2.5l-5 4l-3 18l2 4c4.66699 0 10.834 -0.333008 18.501 -1l24 -2l25.5 -2c8.66699 -0.666992 16.667 -1 24 -1h36h25
c9.33301 0 18.833 0.166992 28.5 0.5s18.5 0.5 26.5 0.5h19c72 0 123.667 -13.833 155 -41.5s47 -64.167 47 -109.5c0 -20 -2.5 -37.667 -7.5 -53s-11.833 -28.833 -20.5 -40.5s-18.334 -21.667 -29.001 -30s-22 -15.5 -34 -21.5c48.667 -8.66699 86.167 -27 112.5 -55
s39.5 -66.667 39.5 -116c0 -33.333 -6 -61.833 -18 -85.5s-28.833 -43 -50.5 -58s-47.5 -26.167 -77.5 -33.5s-63 -11 -99 -11h-133zM202.002 332v-66.002c0 -25.333 0.166992 -50.166 0.5 -74.499s0.666016 -46.166 0.999023 -65.499s0.833008 -32.333 1.5 -39
c1.33301 -18 5 -29 11 -33s14 -6 24 -6h61c16 0 33.5 2 52.5 6s36.833 11 53.5 21s30.667 24 42 42s17 41 17 69c0 24 -4.33301 45.167 -13 63.5s-20.667 33.5 -36 45.5s-33.166 21.167 -53.499 27.5s-42.5 9.5 -66.5 9.5h-95zM249.002 368.998
c21.333 0 41.667 1.33203 61 3.99902s36.666 9.66699 51.999 21c14.667 9.33301 26.667 22.833 36 40.5s14 38.5 14 62.5c0 35.333 -10 62.333 -30 81s-48.333 28 -85 28h-90c-1.33301 -19.333 -2.16602 -35.666 -2.49902 -48.999s-0.833008 -25 -1.5 -35s-1 -19 -1 -27v-23
v-62c0 -15.333 0.666992 -26 2 -32s6.33301 -9 15 -9h30z" />
    <glyph glyph-name="C" unicode="C" horiz-adv-x="650" 
d="M551 535c-2 14.667 -8.33105 26.998 -18.998 36.998s-23.834 18 -39.501 24s-33 10.167 -52 12.5s-37.833 3.5 -56.5 3.5c-66 0 -118 -15 -156 -45c-31.333 -25.333 -54.833 -59 -70.5 -101s-23.5 -88 -23.5 -138c0 -47.333 6.83301 -88.833 20.5 -124.5
s32.5 -65.5 56.5 -89.5s52.5 -42.167 85.5 -54.5s68.833 -18.5 107.5 -18.5c27.333 0 58.833 3.83301 94.5 11.5s69.5 22.5 101.5 44.5l10 -11l-22 -45c-33.333 -18 -66.5 -31.167 -99.5 -39.5s-67.167 -12.5 -102.5 -12.5c-50 0 -95.333 8 -136 24
s-75.5 38.833 -104.5 68.5s-51.5 65 -67.5 106s-24 86.5 -24 136.5c0 46.667 7.16699 90.834 21.5 132.501s35.666 77.834 63.999 108.501s63.333 55 105 73s90.167 27 145.5 27c12 0 26.167 -0.5 42.5 -1.5s33.5 -2.83301 51.5 -5.5s36.333 -6.16699 55 -10.5
s36.667 -9.83301 54 -16.5l3 -9l-13 -91h-29z" />
    <glyph glyph-name="D" unicode="D" horiz-adv-x="734" 
d="M129 567c-1.33301 16.667 -4.33301 29.1699 -9 37.5029s-10 14.833 -16 19.5c-6 3.33301 -12.167 5.83301 -18.5 7.5s-17.833 2.5 -34.5 2.5l-5 4l-3 18l2 4c4.66699 0 11.334 -0.333008 20.001 -1s18 -1.33398 28 -2.00098l29.5 -2c9.66699 -0.666992 18.167 -1 25.5 -1
h57c8.66699 0 19.5 0.166992 32.5 0.5s26.333 0.833008 40 1.5s27 1.16699 40 1.5s23.5 0.5 31.5 0.5c52 0 98.5 -8.83301 139.5 -26.5s75.5 -41.5 103.5 -71.5s49.5 -65 64.5 -105s22.5 -82.333 22.5 -127c0 -44 -7.16699 -85.833 -21.5 -125.5s-35.5 -74.667 -63.5 -105
s-63 -54.5 -105 -72.5s-90.667 -27 -146 -27c-6 0 -15 0.166992 -27 0.5s-24.667 0.5 -38 0.5s-26.166 0.166992 -38.499 0.5s-22.166 0.5 -29.499 0.5h-53c-4.66699 0 -12.334 -0.333008 -23.001 -1l-33 -2l-33 -2c-10.667 -0.666992 -18.334 -1 -23.001 -1l-2 4l3 18l5 4
c8 0 17.333 0.5 28 1.5s19 3.5 25 7.5c5.33301 4 10.333 10.333 15 19s8 21.667 10 39c0 4.66699 0.166992 10.167 0.5 16.5s0.666016 14.166 0.999023 23.499s0.5 20.666 0.5 33.999v50v203v30.5v43.5c0 15.333 -0.166992 30.333 -0.5 45s-0.833008 26 -1.5 34z
M350 48.0029c40 0 75.333 7.33105 106 21.998s56.5 34.5 77.5 59.5s37 54.5 48 88.5s16.5 70.667 16.5 110c0 40 -5.66699 77 -17 111s-27.833 63.333 -49.5 88s-48.167 44 -79.5 58s-67 21 -107 21h-138c-1.33301 -19.333 -2.16602 -35.5 -2.49902 -48.5
s-0.833008 -26.167 -1.5 -39.5s-1 -27.833 -1 -43.5v-59.5v-184c0 -40 0.166992 -71.167 0.5 -93.5s1.16602 -39.166 2.49902 -50.499c2 -17.333 6.33301 -28.166 13 -32.499s18.667 -6.5 36 -6.5h96z" />
    <glyph glyph-name="E" unicode="E" horiz-adv-x="571" 
d="M331 654c8.66699 0 21.835 0.171875 39.502 0.504883s35.5 0.833008 53.5 1.5s34.167 1.16699 48.5 1.5s23.166 0.5 26.499 0.5l5 -10l-4 -109h-25l-4 4c-1.33301 15.333 -3.16602 27.333 -5.49902 36s-9 15 -20 19s-27.5 6.33301 -49.5 7s-53 1 -93 1h-96l-2 -39
c-0.666992 -10.667 -1.16699 -19.667 -1.5 -27s-0.666016 -16.333 -0.999023 -27s-0.5 -23.5 -0.5 -38.5v-108.5c20 0.666992 40 1 60 1s38.167 0.333008 54.5 1s30.166 2.16699 41.499 4.5s19 5.83301 23 10.5c5.33301 5.33301 10 10.666 14 15.999s6 13 6 23l5 5l17 2
l4 -2l-3.5 -40c-1 -11.333 -1.5 -24.333 -1.5 -39c0 -16 0.5 -30.833 1.5 -44.5s2.16699 -28.5 3.5 -44.5l-4 -2l-18 2l-4 3c0 10.667 -2 20.5 -6 29.5s-8.66699 16.5 -14 22.5c-4 4 -11.667 7 -23 9s-25 3.33301 -41 4s-34 1 -54 1h-61v-97v-58.5
c0 -15 0.166992 -28.333 0.5 -40s0.833008 -22.334 1.5 -32.001s1.66699 -20.834 3 -33.501c0 -12.667 6.66699 -19 20 -19h85c40 0 71.5 0.833008 94.5 2.5s40.5 5.16699 52.5 10.5s20.5 13.5 25.5 24.5s9.83301 25.5 14.5 43.5l4 4h26l-18 -127l-8 -10
c-3.33301 0 -11 0.166992 -23 0.5s-25.5 0.833008 -40.5 1.5s-30 1.16699 -45 1.5s-26.833 0.5 -35.5 0.5h-202c-4.66699 0 -12.334 -0.333008 -23.001 -1l-33 -2l-33 -2c-10.667 -0.666992 -18.334 -1 -23.001 -1l-2 4l3 18l5 4c10.667 0 20.667 0.5 30 1.5
s17 3.83301 23 8.5c5.33301 4.66699 10.5 10.667 15.5 18s8.16699 20.333 9.5 39c0 4.66699 0.166992 10.167 0.5 16.5s0.666016 14.166 0.999023 23.499s0.5 20.666 0.5 33.999v50v203v59v41c0 11.333 -0.166992 21 -0.5 29s-0.833008 16 -1.5 24
c-1.33301 18 -4.5 30.833 -9.5 38.5s-10.167 13.834 -15.5 18.501c-6 4.66699 -13.667 7.5 -23 8.5s-19.333 1.5 -30 1.5l-5 4l-3 18l2 4c4.66699 0 12.334 -0.333008 23.001 -1s22.167 -1.33398 34.5 -2.00098l36 -2c11.667 -0.666992 21.167 -1 28.5 -1h164z" />
    <glyph glyph-name="F" unicode="F" horiz-adv-x="529" 
d="M129 567c-1.33301 18.667 -4.49902 31.6699 -9.49902 39.0029s-10.167 13.333 -15.5 18c-6 4.66699 -13.667 7.5 -23 8.5s-19.333 1.5 -30 1.5l-5 4l-3 18l2 4c4.66699 0 12.334 -0.333008 23.001 -1l33 -2l33 -2c10.667 -0.666992 18.334 -1 23.001 -1h174
c8.66699 0 21.834 0.166992 39.501 0.5s35.5 0.833008 53.5 1.5s34.167 1.16699 48.5 1.5s23.166 0.5 26.499 0.5l5 -10l-4 -109h-25l-4 4c-1.33301 15.333 -3.16602 27.333 -5.49902 36s-9 15 -20 19s-27.5 6.33301 -49.5 7s-53 1 -93 1h-96l-2 -39
c-0.666992 -9.33301 -1.16699 -18 -1.5 -26s-0.666016 -17.333 -0.999023 -28s-0.5 -23.667 -0.5 -39v-108c20 0.666992 40 1 60 1s38.167 0.333008 54.5 1s30.166 2.16699 41.499 4.5s19 5.83301 23 10.5c5.33301 5.33301 10 10.666 14 15.999s6 13 6 23l5 5l17 2l4 -2
l-3.5 -40c-1 -11.333 -1.5 -24.333 -1.5 -39c0 -16 0.5 -30.833 1.5 -44.5s2.16699 -28.5 3.5 -44.5l-4 -2l-18 2l-4 3c0 10.667 -2 20.5 -6 29.5s-8.66699 16.5 -14 22.5c-4 4 -11.667 7 -23 9s-25 3.33301 -41 4s-34 1 -54 1h-61v-97v-58.5
c0 -15 0.166992 -27.5 0.5 -37.5s0.666016 -18.5 0.999023 -25.5s0.833008 -14.5 1.5 -22.5c1.33301 -18.667 4.83301 -31.667 10.5 -39s11.167 -13.333 16.5 -18c6 -4.66699 14.833 -7.5 26.5 -8.5s22.834 -1.5 33.501 -1.5l5 -4l3 -18l-2 -4
c-4.66699 0 -12.834 0.333008 -24.501 1l-36.5 2l-36.5 2c-11.667 0.666992 -19.834 1 -24.501 1h-19c-4.66699 0 -12.334 -0.333008 -23.001 -1l-33 -2l-33 -2c-10.667 -0.666992 -18.334 -1 -23.001 -1l-2 4l3 18l5 4c10.667 0 20.667 0.5 30 1.5s17 3.83301 23 8.5
c5.33301 4.66699 10.5 10.667 15.5 18s8.16699 20.333 9.5 39c0 4.66699 0.166992 10.167 0.5 16.5s0.666016 14.166 0.999023 23.499s0.5 20.666 0.5 33.999v50v203v59c0 16 -0.166992 29.667 -0.5 41s-0.666016 21 -0.999023 29s-0.5 16 -0.5 24z" />
    <glyph glyph-name="G" unicode="G" horiz-adv-x="708" 
d="M607 25c-32 -10 -65.4971 -18.5059 -100.497 -25.5059s-71.5 -10.5 -109.5 -10.5c-58 0 -108.5 8.83301 -151.5 26.5s-78.667 41.834 -107 72.501s-49.5 66.334 -63.5 107.001s-21 83.667 -21 129c0 48 7.5 92.667 22.5 134s37.167 77.333 66.5 108
s65.666 54.834 108.999 72.501s93.666 26.5 150.999 26.5c12 0 26.5 -0.5 43.5 -1.5s34.833 -2.83301 53.5 -5.5s37.667 -6.16699 57 -10.5s37.666 -9.83301 54.999 -16.5l2 -9l-17 -97h-28l-4 3c-4.66699 26.667 -20.167 47.334 -46.5 62.001s-66.5 22 -120.5 22
c-75.333 0 -132.666 -15.667 -171.999 -47c-16 -12.667 -29.667 -27.667 -41 -45s-20.833 -36.333 -28.5 -57s-13.334 -42.5 -17.001 -65.5s-5.5 -45.833 -5.5 -68.5c0 -44.667 6.5 -84.667 19.5 -120s30.833 -65.166 53.5 -89.499s49.667 -43 81 -56
s65.333 -19.5 102 -19.5c11.333 0 24.166 0.5 38.499 1.5s28.333 2.5 42 4.5s25.834 4.33301 36.501 7s18 5.33398 22 8.00098c5.33301 3.33301 8 10.333 8 21v19v25.5c0 9 -0.166992 18 -0.5 27s-0.833008 16.833 -1.5 23.5c-1.33301 17.333 -4.83301 30.5 -10.5 39.5
s-10.5 14.833 -14.5 17.5c-6 4.66699 -15 7.5 -27 8.5s-23.333 1.5 -34 1.5l-5 4l-3 22l2 4c4.66699 0 12.167 -0.333008 22.5 -1l32 -2l32 -2c10.333 -0.666992 17.833 -1 22.5 -1h30c4.66699 0 11 0.333008 19 1l25 2l25 2c8 0.666992 14.333 1 19 1l2 -4l-2 -24l-5 -4
c-19.333 0 -32.833 -5.5 -40.5 -16.5s-12.167 -27.167 -13.5 -48.5c-1.33301 -16.667 -2.16602 -34.5 -2.49902 -53.5s-0.5 -33.167 -0.5 -42.5c0 -10 0.166992 -20.833 0.5 -32.5s1.16602 -19.167 2.49902 -22.5z" />
    <glyph glyph-name="H" unicode="H" horiz-adv-x="760" 
d="M715 -6c-4.66699 0 -12.333 0.335938 -23 1.00293l-33 2l-33 2c-10.667 0.666992 -18.334 1 -23.001 1h-19c-4.66699 0 -12.334 -0.333008 -23.001 -1l-33 -2l-33 -2c-10.667 -0.666992 -18.334 -1 -23.001 -1l-2 4l3 18l4 4c10.667 0 20.834 0.5 30.501 1.5
s17.5 3.83301 23.5 8.5c5.33301 4.66699 10.166 10.667 14.499 18s7.5 20.333 9.5 39c0.666992 4.66699 1.16699 10.167 1.5 16.5s0.666016 14.166 0.999023 23.499s0.5 20.666 0.5 33.999v50v115h-356v-95v-58.5c0 -15 0.166992 -27.5 0.5 -37.5
s0.666016 -18.5 0.999023 -25.5s0.833008 -14.5 1.5 -22.5c1.33301 -18.667 4.33301 -31.667 9 -39s9.66699 -13.333 15 -18c6 -4.66699 13.833 -7.5 23.5 -8.5s19.834 -1.5 30.501 -1.5l4 -4l3 -18l-2 -4c-4.66699 0 -12.334 0.333008 -23.001 1l-33 2l-33 2
c-10.667 0.666992 -18.334 1 -23.001 1h-19c-4.66699 0 -12.334 -0.333008 -23.001 -1l-33 -2l-33 -2c-10.667 -0.666992 -18.334 -1 -23.001 -1l-2 4l3 18l5 4c10.667 0 20.667 0.5 30 1.5s17 3.83301 23 8.5c5.33301 4.66699 10.5 10.667 15.5 18s8.16699 20.333 9.5 39
c0 4.66699 0.166992 10.167 0.5 16.5s0.666016 14.166 0.999023 23.499s0.5 20.666 0.5 33.999v50v203v59c0 16 -0.166992 29.667 -0.5 41s-0.666016 21 -0.999023 29s-0.833008 16 -1.5 24c-1.33301 18 -4.33301 30.833 -9 38.5s-9.66699 13.834 -15 18.501
c-6 4.66699 -13.667 7.5 -23 8.5s-19.333 1.5 -30 1.5l-5 4l-3 18l2 4c4.66699 0 12.334 -0.333008 23.001 -1l33 -2l33 -2c10.667 -0.666992 18.334 -1 23.001 -1h19c4.66699 0 12.334 0.333008 23.001 1l33 2l33 2c10.667 0.666992 18.334 1 23.001 1l2 -4l-3 -18l-4 -4
c-10.667 0 -20.834 -0.5 -30.501 -1.5s-17.5 -3.83301 -23.5 -8.5c-5.33301 -4.66699 -10.333 -10.667 -15 -18s-7.66699 -20.333 -9 -39c-0.666992 -9.33301 -1.16699 -18 -1.5 -26s-0.666016 -17.333 -0.999023 -28s-0.5 -23.667 -0.5 -39v-59v-45h356v44v59
c0 16 -0.166992 29.667 -0.5 41s-0.666016 21 -0.999023 29s-0.833008 16 -1.5 24c-1.33301 18.667 -4.33301 31.667 -9 39s-9.66699 13.333 -15 18c-6 4.66699 -13.833 7.5 -23.5 8.5s-19.834 1.5 -30.501 1.5l-4 4l-3 18l2 4c4.66699 0 12.334 -0.333008 23.001 -1l33 -2
l33 -2c10.667 -0.666992 18.334 -1 23.001 -1h19c4.66699 0 12.334 0.333008 23.001 1l33 2l33 2c10.667 0.666992 18.334 1 23.001 1l2 -4l-3 -18l-5 -4c-10.667 0 -20.667 -0.5 -30 -1.5s-17 -3.83301 -23 -8.5c-5.33301 -4.66699 -10.5 -10.667 -15.5 -18
s-8.16699 -20.333 -9.5 -39c-0.666992 -9.33301 -1.16699 -18 -1.5 -26s-0.5 -17.333 -0.5 -28v-39v-59v-184v-58.5v-37.5c0 -10 0.166992 -18.5 0.5 -25.5s0.833008 -14.5 1.5 -22.5c1.33301 -18.667 4.5 -31.667 9.5 -39s10.167 -13.333 15.5 -18
c6 -4.66699 13.667 -7.5 23 -8.5s19.333 -1.5 30 -1.5l5 -4l3 -18z" />
    <glyph glyph-name="I" unicode="I" horiz-adv-x="333" 
d="M290 656l-3 -17.998l-4 -4c-10.667 0 -20.834 -0.5 -30.501 -1.5s-17.5 -3.83301 -23.5 -8.5c-5.33301 -4.66699 -10.333 -10.667 -15 -18s-7.66699 -20.333 -9 -39c-0.666992 -9.33301 -1.16699 -18 -1.5 -26s-0.666016 -17.333 -0.999023 -28s-0.5 -23.667 -0.5 -39
v-59v-184v-58.5c0 -15 0.166992 -27.5 0.5 -37.5s0.666016 -18.5 0.999023 -25.5s0.833008 -14.5 1.5 -22.5c1.33301 -18.667 4.33301 -31.667 9 -39s9.66699 -13.333 15 -18c6 -4.66699 13.833 -7.5 23.5 -8.5s19.834 -1.5 30.501 -1.5l4 -4l3 -18l-2 -4
c-4.66699 0 -12.334 0.333008 -23.001 1l-33 2l-33 2c-10.667 0.666992 -18.334 1 -23.001 1h-19c-4.66699 0 -12.334 -0.333008 -23.001 -1l-33 -2l-33 -2c-10.667 -0.666992 -18.334 -1 -23.001 -1l-2 4l3 18l5 4c10.667 0 20.667 0.5 30 1.5s17 3.83301 23 8.5
c5.33301 4.66699 10.5 10.667 15.5 18s8.16699 20.333 9.5 39c0 4.66699 0.166992 10.167 0.5 16.5s0.666016 14.166 0.999023 23.499s0.5 20.666 0.5 33.999v50v203v59c0 16 -0.166992 29.667 -0.5 41s-0.666016 21 -0.999023 29s-0.833008 16 -1.5 24
c-1.33301 17.333 -4.33301 30 -9 38s-9.66699 14.333 -15 19c-6 4.66699 -13.667 7.5 -23 8.5s-19.333 1.5 -30 1.5l-5 4l-3 18l2 4c4.66699 0 12.334 -0.333008 23.001 -1l33 -2l33 -2c10.667 -0.666992 18.334 -1 23.001 -1h19c4.66699 0 12.334 0.333008 23.001 1l33 2
l33 2c10.667 0.666992 18.334 1 23.001 1z" />
    <glyph glyph-name="J" unicode="J" horiz-adv-x="318" 
d="M283 656l-3.00684 -18.0049l-4 -4c-10.667 0 -20.834 -0.5 -30.501 -1.5s-17.5 -3.83301 -23.5 -8.5c-5.33301 -4.66699 -10.333 -10.667 -15 -18s-7.66699 -20.333 -9 -39c-0.666992 -9.33301 -1.16699 -18 -1.5 -26s-0.666016 -17.333 -0.999023 -28
s-0.5 -23.667 -0.5 -39v-59v-184v-60.5c0 -16.333 -0.166992 -30.166 -0.5 -41.499s-0.5 -21.166 -0.5 -29.499v-23.5c0 -26.667 -3 -53 -9 -79s-14.5 -49.5 -25.5 -70.5s-24.667 -38.5 -41 -52.5s-34.833 -23 -55.5 -27c-5.33301 -1.33301 -11.333 -2.16602 -18 -2.49902
s-12.667 -0.5 -18 -0.5l-8 3l-2 22l4 5c8.66699 0 16.334 0.166992 23.001 0.5s13.334 1.83301 20.001 4.5c8 4.66699 15.667 10.667 23 18c18.667 18.667 29.5 53.334 32.5 104.001s4.5 120.667 4.5 210v203v59c0 16 -0.166992 29.667 -0.5 41s-0.666016 21 -0.999023 29
s-0.833008 16 -1.5 24c-1.33301 18 -4.33301 30.833 -9 38.5s-9.66699 13.834 -15 18.501c-6 4.66699 -13.667 7.5 -23 8.5s-19.333 1.5 -30 1.5l-5 4l-3 18l2 4c4.66699 0 12.334 -0.333008 23.001 -1l33 -2l33 -2c10.667 -0.666992 18.334 -1 23.001 -1h19
c4.66699 0 12.334 0.333008 23.001 1l33 2l33 2c10.667 0.666992 18.334 1 23.001 1z" />
    <glyph glyph-name="K" unicode="K" horiz-adv-x="656" 
d="M290 656l-2.99512 -18l-4 -4c-10.667 0 -20.834 -0.5 -30.501 -1.5s-17.5 -3.83301 -23.5 -8.5c-5.33301 -4.66699 -10.333 -10.667 -15 -18s-7.66699 -20.333 -9 -39c-0.666992 -9.33301 -1.16699 -18 -1.5 -26s-0.666016 -17.333 -0.999023 -28s-0.5 -23.667 -0.5 -39
v-59v-68c18 11.333 39.833 27.666 65.5 48.999s50.5 44 74.5 68c28.667 28.667 52.667 55.5 72 80.5s29 42.167 29 51.5c0 7.33301 -1.66699 13.166 -5 17.499s-7.5 7.83301 -12.5 10.5s-10.667 4.66699 -17 6l-19.5 4l-5 4v18l5 4c26.667 -4 56 -6 88 -6h49h20.5
c5.66699 0 11.334 0.333008 17.001 1s11.834 1.33398 18.501 2.00098s14.667 1.66699 24 3l4 -4v-18l-4 -4c-8.66699 -2 -20.334 -4.5 -35.001 -7.5s-27 -7.83301 -37 -14.5c-6.66699 -4 -14.167 -10.333 -22.5 -19s-18.333 -19.667 -30 -33l-41.5 -47
c-16 -18 -35.333 -38.333 -58 -61l-80 -82c55.333 -84 116.666 -165.667 183.999 -245l37 -41c11.333 -12 23.5 -22.333 36.5 -31s27.5 -15.667 43.5 -21s35.333 -9.33301 58 -12l6 -4l2 -18l-2 -4c-14.667 0 -31.334 -0.666992 -50.001 -2s-33.334 -2 -44.001 -2
c-17.333 0 -32.333 1.83301 -45 5.5s-24.834 9.83398 -36.501 18.501s-23.834 20 -36.501 34s-27 31 -43 51l-23 31.5l-45.5 64l-52 74l-42.5 61.5h-4c-7.33301 -5.33301 -14.333 -10.166 -21 -14.499s-14 -9.83301 -22 -16.5v-68v-58.5c0 -15 0.166992 -27.5 0.5 -37.5
s0.666016 -18.5 0.999023 -25.5s0.833008 -14.5 1.5 -22.5c1.33301 -18.667 4.33301 -31.667 9 -39s9.66699 -13.333 15 -18c6 -4.66699 13.833 -7.5 23.5 -8.5s19.834 -1.5 30.501 -1.5l4 -4l3 -18l-2 -4c-4.66699 0 -12.334 0.333008 -23.001 1l-33 2l-33 2
c-10.667 0.666992 -18.334 1 -23.001 1h-19c-4.66699 0 -12.334 -0.333008 -23.001 -1l-33 -2l-33 -2c-10.667 -0.666992 -18.334 -1 -23.001 -1l-2 4l3 18l5 4c10.667 0 20.667 0.5 30 1.5s17 3.83301 23 8.5c5.33301 4.66699 10.5 10.667 15.5 18s8.16699 20.333 9.5 39
c0 4.66699 0.166992 10.167 0.5 16.5s0.666016 14.166 0.999023 23.499s0.5 20.666 0.5 33.999v50v203v59v41c0 11.333 -0.166992 21 -0.5 29s-0.833008 16 -1.5 24c-1.33301 18 -4.5 30.833 -9.5 38.5s-10.167 13.834 -15.5 18.501c-6 4.66699 -13.667 7.5 -23 8.5
s-19.333 1.5 -30 1.5l-5 4l-3 18l2 4c4.66699 0 12.334 -0.333008 23.001 -1l33 -2l33 -2c10.667 -0.666992 18.334 -1 23.001 -1h19c4.66699 0 12.334 0.333008 23.001 1l33 2l33 2c10.667 0.666992 18.334 1 23.001 1z" />
    <glyph glyph-name="L" unicode="L" horiz-adv-x="516" 
d="M128 567c-1.33301 18.667 -4.33594 31.667 -9.00293 39s-9.66699 13.333 -15 18c-6 4.66699 -13.667 7.5 -23 8.5s-19.333 1.5 -30 1.5l-5 4l-3 18l2 4c4.66699 0 12.334 -0.333008 23.001 -1l33 -2l33 -2c10.667 -0.666992 18.334 -1 23.001 -1h19
c4.66699 0 12.334 0.333008 23.001 1l33 2l33 2c10.667 0.666992 18.334 1 23.001 1l2 -4l-3 -18l-4 -4c-10.667 0 -20.834 -0.5 -30.501 -1.5s-17.5 -3.83301 -23.5 -8.5c-5.33301 -4.66699 -10.5 -10.834 -15.5 -18.501s-8.16699 -20.5 -9.5 -38.5
c-0.666992 -9.33301 -1.16699 -18 -1.5 -26s-0.5 -17.333 -0.5 -28v-39v-59v-184v-58c0 -15.333 0.166992 -28.666 0.5 -39.999s0.833008 -22 1.5 -32s1.33398 -21.333 2.00098 -34s7.66699 -19 21 -19h85c40 0 70.167 0.833008 90.5 2.5s35 5.16699 44 10.5
s14.5 13.5 16.5 24.5s5.33301 25.5 10 43.5l3 4h26l-18 -127l-8 -10c-3.33301 0 -9.5 0.166992 -18.5 0.5s-19.333 0.833008 -31 1.5s-23.667 1.16699 -36 1.5s-22.833 0.5 -31.5 0.5h-202c-4.66699 0 -12.334 -0.333008 -23.001 -1l-33 -2l-33 -2
c-10.667 -0.666992 -18.334 -1 -23.001 -1l-2 4l3 18l5 4c10.667 0 20.667 0.5 30 1.5s17 3.83301 23 8.5c5.33301 4.66699 10.333 11.334 15 20.001s8 21 10 37c0.666992 4.66699 1.16699 10.167 1.5 16.5s0.5 14.166 0.5 23.499v34v50v203v59
c0 16 -0.166992 29.667 -0.5 41s-0.666016 21 -0.999023 29s-0.833008 16 -1.5 24z" />
    <glyph glyph-name="M" unicode="M" horiz-adv-x="901" 
d="M874 -6c-4.66699 0 -12.3281 0.337891 -22.9951 1.00488l-33 2l-33 2c-10.667 0.666992 -18.334 1 -23.001 1h-19c-4.66699 0 -12.334 -0.333008 -23.001 -1l-33 -2l-33 -2c-10.667 -0.666992 -18.334 -1 -23.001 -1l-3 4l3 18l4 4c10.667 0 20.834 0.5 30.501 1.5
s17.167 3.83301 22.5 8.5c4.66699 4.66699 9.16699 10.667 13.5 18s6.5 20.333 6.5 39v16.5c0 6.33301 -0.166992 14.166 -0.5 23.499s-0.833008 20.666 -1.5 33.999s-1.66699 30 -3 50l-12.5 167.5c-3 41.667 -5.5 74.167 -7.5 97.5s-3.5 40 -4.5 50l-2.5 25l-22 -55.5
l-34.5 -86l-41.5 -103.5l-43.5 -109l-41 -102l-33.5 -82h-47l-200 536l-2 -21c-0.666992 -7.33301 -1.33398 -16.166 -2.00098 -26.499s-1.5 -22.333 -2.5 -36s-2.16699 -30.5 -3.5 -50.5l-14 -184c-2 -22.667 -3.33301 -41.334 -4 -56.001
s-1.33398 -27.334 -2.00098 -38.001s-1 -19.667 -1 -27v-23c0 -18.667 2.16699 -31.667 6.5 -39s9.16602 -13.333 14.499 -18s11.5 -7.5 18.5 -8.5s15.833 -1.5 26.5 -1.5l4 -4l3 -18l-2 -4c-4.66699 0 -11.5 0.333008 -20.5 1l-27.5 2l-27.5 2
c-9 0.666992 -15.833 1 -20.5 1h-19c-4.66699 0 -12.167 -0.333008 -22.5 -1s-21.333 -1.33398 -33 -2.00098s-22.667 -1.33398 -33 -2.00098s-17.833 -1 -22.5 -1l-2 4l3 18l6 4c10 0 19.667 0.5 29 1.5s17.333 3.83301 24 8.5c5.33301 4.66699 10.833 10.667 16.5 18
s9.83398 20.333 12.501 39c0.666992 4.66699 1.33398 10.167 2.00098 16.5l2.5 23.5l3.5 34c1.33301 13.333 2.66602 30 3.99902 50l14 203c2 23.333 3.5 43 4.5 59s1.66699 29.667 2 41s0.666016 21 0.999023 29s0.5 16 0.5 24c0 18.667 -2.83301 31.834 -8.5 39.501
s-11.167 13.5 -16.5 17.5c-6 4.66699 -13.667 7.5 -23 8.5s-19.333 1.5 -30 1.5l-5 4l-3 18l2 4c4.66699 0 12.334 -0.333008 23.001 -1l33 -2l33 -2c10.667 -0.666992 18.334 -1 23.001 -1h35c5.33301 0 12.833 0.333008 22.5 1s17.5 1.66699 23.5 3l5 -3
c0.666992 -8.66699 3.16699 -20.167 7.5 -34.5s9.66602 -30.5 15.999 -48.5l20.5 -57.5l22 -60.5l68 -185c11.333 -32 21.666 -59.167 30.999 -81.5l25 -59.5c2 3.33301 7.66699 16.166 17 38.499l34.5 83l43.5 108.5l44 115.5c14 37.667 26 72.5 36 104.5
s16.333 57.333 19 76l5 4c5.33301 -1.33301 11 -2.33301 17 -3s11.667 -1 17 -1h36c4.66699 0 12.334 0.333008 23.001 1l33 2l33 2c10.667 0.666992 18.334 1 23.001 1l2 -4l-3 -18l-5 -4c-10.667 0 -20.834 -0.5 -30.501 -1.5s-17.167 -3.83301 -22.5 -8.5
c-5.33301 -4 -10.833 -10 -16.5 -18s-8.5 -21 -8.5 -39c0 -9.33301 0.166992 -18 0.5 -26s0.666016 -17.333 0.999023 -28s1 -23.667 2 -39s2.5 -35 4.5 -59l12 -184c2 -24 3.5 -43.5 4.5 -58.5s2 -27.5 3 -37.5s2 -18.5 3 -25.5s2.16699 -14.5 3.5 -22.5
c2.66699 -18.667 6.66699 -31.667 12 -39s10.666 -13.333 15.999 -18c6 -4.66699 13.833 -7.5 23.5 -8.5s19.834 -1.5 30.501 -1.5l5 -4l3 -18z" />
    <glyph glyph-name="N" unicode="N" horiz-adv-x="746" 
d="M708 656l-1.99902 -18.0029l-5 -4c-10.667 0 -20.834 -0.5 -30.501 -1.5s-17.167 -3.83301 -22.5 -8.5s-10.166 -10.667 -14.499 -18s-7.16602 -20.333 -8.49902 -39c-0.666992 -9.33301 -1.16699 -18 -1.5 -26s-0.666016 -17.333 -0.999023 -28s-0.5 -23.667 -0.5 -39
v-59v-176c0 -37.333 0.166992 -68 0.5 -92s0.666016 -44.5 0.999023 -61.5s1 -32.167 2 -45.5s2.16699 -28 3.5 -44l-8 -5l-62 4l-10 12l-356 533c0 -6.66699 -0.166992 -13.334 -0.5 -20.001s-0.5 -14.834 -0.5 -24.501v-33.5v-47v-184v-31.5
c0 -13 0.166992 -26.5 0.5 -40.5l1 -40.5c0.333008 -13 0.833008 -23.5 1.5 -31.5c1.33301 -16.667 4.16602 -29.167 8.49902 -37.5s9.83301 -14.833 16.5 -19.5c5.33301 -4 12.333 -6.66699 21 -8s19.667 -2 33 -2l5 -4l3 -18l-2 -4c-4.66699 0 -11.834 0.333008 -21.501 1
s-19.834 1.33398 -30.501 2.00098s-20.834 1.33398 -30.501 2.00098s-16.834 1 -21.501 1h-19c-4.66699 0 -12.334 -0.333008 -23.001 -1l-33 -2l-33 -2c-10.667 -0.666992 -18.334 -1 -23.001 -1l-2 4l3 18l5 4c12 0 22.167 0.5 30.5 1.5s15.833 3.83301 22.5 8.5
c4.66699 3.33301 9.5 8.83301 14.5 16.5s8.5 21.167 10.5 40.5c0.666992 4.66699 1.16699 10.167 1.5 16.5s0.5 14.166 0.5 23.499v34v50v203v59v41c0 11.333 -0.166992 21 -0.5 29s-0.833008 16 -1.5 24c-1.33301 14 -4.33301 25.833 -9 35.5s-10 16.834 -16 21.501
s-13.5 7.5 -22.5 8.5s-19.167 1.5 -30.5 1.5l-5 4l-3 18l2 4c4.66699 0 11.5 -0.333008 20.5 -1l27.5 -2l27.5 -2c9 -0.666992 15.833 -1 20.5 -1h35c5.33301 0 12.833 0.333008 22.5 1s17.5 1.66699 23.5 3l5 -3c2.66699 -9.33301 8.16699 -22.166 16.5 -38.499
s18.333 -34.5 30 -54.5l38 -64l41.5 -67c50.667 -81.333 94.834 -147.666 132.501 -198.999l72.5 -100c0 4.66699 0.166992 9 0.5 13s0.5 8.66699 0.5 14v20v32v203v59c0 16 -0.166992 29.667 -0.5 41s-0.666016 21 -0.999023 29s-0.833008 16 -1.5 24
c-1.33301 18.667 -4.33301 31.667 -9 39s-9.66699 13.333 -15 18c-6 4.66699 -13.833 7.5 -23.5 8.5s-19.834 1.5 -30.501 1.5l-4 4l-3 18l2 4c4.66699 0 11.334 -0.333008 20.001 -1l26.5 -2l26.5 -2c8.66699 -0.666992 15.334 -1 20.001 -1h47
c4.66699 0 11.334 0.166992 20.001 0.5s17.667 0.833008 27 1.5l27 2c8.66699 0.666992 15.334 1.33398 20.001 2.00098z" />
    <glyph glyph-name="O" unicode="O" horiz-adv-x="763" 
d="M382 665c52 0 98.332 -8.99805 138.999 -26.998s74.834 -42.5 102.501 -73.5s48.834 -66.833 63.501 -107.5s22 -83.334 22 -128.001c0 -44 -7.16699 -86.5 -21.5 -127.5s-35.5 -77.167 -63.5 -108.5s-62.833 -56.5 -104.5 -75.5s-89.834 -28.5 -144.501 -28.5
c-53.333 0 -99.833 9 -139.5 27s-73 42.167 -100 72.5s-47.167 65.666 -60.5 105.999s-20 82.833 -20 127.5c0 47.333 7.33301 91.833 22 133.5s36 78 64 109s62.333 55.5 103 73.5s86.667 27 138 27zM380.999 42.002c40 0 75.5 7.49707 106.5 22.4971
s57.167 35.5 78.5 61.5s37.666 56.333 48.999 91s17 71.667 17 111c0 40 -5.83301 77.333 -17.5 112s-28.5 64.834 -50.5 90.501s-48.833 45.667 -80.5 60s-67.5 21.5 -107.5 21.5c-39.333 0 -74.166 -7.16699 -104.499 -21.5s-55.833 -34.166 -76.5 -59.499
s-36.167 -55.166 -46.5 -89.499s-15.5 -71.833 -15.5 -112.5c0 -44.667 6 -84.667 18 -120s29 -65.333 51 -90s48.167 -43.667 78.5 -57s63.833 -20 100.5 -20z" />
    <glyph glyph-name="P" unicode="P" horiz-adv-x="549" 
d="M288 -6c-4.66699 0 -12.3271 0.334961 -22.9941 1.00195l-33 2l-33 2c-10.667 0.666992 -18.334 1 -23.001 1h-19c-4.66699 0 -12.334 -0.333008 -23.001 -1l-33 -2l-33 -2c-10.667 -0.666992 -18.334 -1 -23.001 -1l-2 4l3 18l5 4c8 0 17.333 0.5 28 1.5s19 3.5 25 7.5
c5.33301 4 10.333 10.333 15 19s8 21.667 10 39c0 4.66699 0.166992 10.167 0.5 16.5s0.666016 14.166 0.999023 23.499s0.5 20.666 0.5 33.999v50v260v45.5c0 17 -0.666992 33.833 -2 50.5c-1.33301 17.333 -4.5 30 -9.5 38s-10.167 14.333 -15.5 19
c-6 3.33301 -12.167 5.83301 -18.5 7.5s-17.833 2.5 -34.5 2.5l-5 4l-3 18l2 4c4.66699 0 10.834 -0.333008 18.501 -1l24 -2l25.5 -2c8.66699 -0.666992 16.667 -1 24 -1h36h25c9.33301 0 18.833 0.166992 28.5 0.5s18.5 0.5 26.5 0.5h20c44.667 0 82.5 -4.33301 113.5 -13
s56.167 -21 75.5 -37s33.5 -35.167 42.5 -57.5s13.5 -46.833 13.5 -73.5c0 -38.667 -8 -70.5 -24 -95.5s-36.5 -44.667 -61.5 -59s-53 -24.166 -84 -29.499s-61.167 -8 -90.5 -8h-56v-57c0 -20 0.166992 -39 0.5 -57s0.666016 -34.333 0.999023 -49
s0.833008 -25.334 1.5 -32.001c1.33301 -19.333 4.66602 -32.833 9.99902 -40.5s10 -13.167 14 -16.5c6 -3.33301 12.167 -5.83301 18.5 -7.5s18.166 -2.5 35.499 -2.5l4 -4l3 -18zM293.007 326.002c56 0 95.998 12.666 119.998 37.999s36 60.333 36 105
c0 46 -13.833 80.333 -41.5 103s-65.5 34 -113.5 34h-87c-1.33301 -19.333 -2.16602 -35.666 -2.49902 -48.999s-0.833008 -25 -1.5 -35s-1 -19 -1 -27v-23v-109c0 -8.66699 0.333008 -15.5 1 -20.5s2.33398 -8.66699 5.00098 -11s6.5 -3.83301 11.5 -4.5s11.833 -1 20.5 -1
h53z" />
    <glyph glyph-name="Q" unicode="Q" horiz-adv-x="763" 
d="M382 665c52 0 98.3301 -8.99609 138.997 -26.9961s74.834 -42.333 102.501 -73s48.834 -66.334 63.501 -107.001s22 -83.334 22 -128.001c0 -42.667 -6.66699 -83.834 -20 -123.501s-33 -75 -59 -106s-58.333 -56.5 -97 -76.5s-83.334 -31.333 -134.001 -34
c34.667 -0.666992 65.5 -4.66699 92.5 -12s52.5 -15.5 76.5 -24.5s47.5 -17.167 70.5 -24.5s48.167 -11 75.5 -11c9.33301 0 20.5 1 33.5 3s26.833 7.33301 41.5 16l3 -2l4 -8l-1 -4c-14.667 -17.333 -32 -31.833 -52 -43.5s-42.667 -17.5 -68 -17.5
c-22.667 0 -46 4.66699 -70 14s-49 19.666 -75 30.999s-53 21.666 -81 30.999s-57.333 14 -88 14c-25.333 0 -49.5 -3.16699 -72.5 -9.5s-40.167 -13.166 -51.5 -20.499l-3 1l-5 14l1 3c14.667 10 34.334 20.167 59.001 30.5s51.334 16.5 80.001 18.5
c-52 0.666992 -97.667 10 -137 28s-72 42.167 -98 72.5s-45.667 65.5 -59 105.5s-20 82.333 -20 127c0 47.333 7.33301 91.833 22 133.5s36 78 64 109s62.333 55.5 103 73.5s86.667 27 138 27zM380.997 42.0039c40 0 75.5 7.49707 106.5 22.4971s57.167 35.5 78.5 61.5
s37.666 56.333 48.999 91s17 71.667 17 111c0 40 -5.83301 77.333 -17.5 112s-28.5 64.834 -50.5 90.501s-48.833 45.667 -80.5 60s-67.5 21.5 -107.5 21.5c-39.333 0 -74.166 -7.16699 -104.499 -21.5s-55.833 -34.166 -76.5 -59.499s-36.167 -55.166 -46.5 -89.499
s-15.5 -71.833 -15.5 -112.5c0 -44.667 6 -84.667 18 -120s29 -65.333 51 -90s48.167 -43.667 78.5 -57s63.833 -20 100.5 -20z" />
    <glyph glyph-name="R" unicode="R" horiz-adv-x="638" 
d="M288 -6c-4.66699 0 -12.3262 0.334961 -22.9932 1.00195l-33 2l-33 2c-10.667 0.666992 -18.334 1 -23.001 1h-19c-4.66699 0 -12.334 -0.333008 -23.001 -1l-33 -2l-33 -2c-10.667 -0.666992 -18.334 -1 -23.001 -1l-2 4l3 18l5 4c8 0 17.333 0.5 28 1.5s19 3.5 25 7.5
c5.33301 4 10.333 10.333 15 19s8 21.667 10 39c0 4.66699 0.166992 10.167 0.5 16.5s0.666016 14.166 0.999023 23.499s0.5 20.666 0.5 33.999v50v260c0 13.333 -0.166992 28.5 -0.5 45.5s-1.16602 33.833 -2.49902 50.5c-1.33301 15.333 -4.33301 27.5 -9 36.5
s-9.66699 15.833 -15 20.5c-6 3.33301 -12.167 5.83301 -18.5 7.5s-17.833 2.5 -34.5 2.5l-5 4l-3 18l2 4c4.66699 0 10.834 -0.333008 18.501 -1l24 -2l25.5 -2c8.66699 -0.666992 16.667 -1 24 -1h36h25c9.33301 0 18.833 0.166992 28.5 0.5s18.5 0.5 26.5 0.5h20
c44.667 0 82.5 -4.33301 113.5 -13s56.167 -20.5 75.5 -35.5s33.5 -33 42.5 -54s13.5 -43.5 13.5 -67.5c0 -28.667 -5.16699 -53.5 -15.5 -74.5s-23.5 -39 -39.5 -54s-34 -27 -54 -36s-39.667 -15.833 -59 -20.5l66 -89c22.667 -29.333 46 -58 70 -86l37 -41
c11.333 -12 23.5 -22.333 36.5 -31s27.5 -15.667 43.5 -21s35.333 -9.33301 58 -12l6 -4l2 -18l-2 -4c-14.667 -0.666992 -31.334 -1.5 -50.001 -2.5s-33.334 -1.5 -44.001 -1.5c-17.333 0 -32.333 2 -45 6s-25 10.333 -37 19s-24.167 20 -36.5 34l-42.5 50
c-2 2 -7.83301 9.83301 -17.5 23.5l-35 49l-43 61l-41.5 60.5h-73v-59c0 -21.333 0.166992 -41.666 0.5 -60.999s0.666016 -36.833 0.999023 -52.5s0.833008 -26.834 1.5 -33.501c1.33301 -19.333 4.66602 -32.833 9.99902 -40.5s10 -13.167 14 -16.5
c6 -3.33301 12.167 -5.83301 18.5 -7.5s18.166 -2.5 35.499 -2.5l4 -4l3 -18zM293.008 337.002c55.333 0 95.165 12.832 119.498 38.499s36.5 60.167 36.5 103.5c0 40.667 -13.833 72 -41.5 94s-65.5 33 -113.5 33h-87c-1.33301 -19.333 -2.16602 -35.666 -2.49902 -48.999
s-0.833008 -25 -1.5 -35s-1 -19 -1 -27v-23v-98c0 -8.66699 0.333008 -15.5 1 -20.5s2.33398 -8.66699 5.00098 -11s6.5 -3.83301 11.5 -4.5s11.833 -1 20.5 -1h53z" />
    <glyph glyph-name="S" unicode="S" horiz-adv-x="551" 
d="M138 508c0 -18.667 3.33398 -34.166 10.001 -46.499s16.834 -23.166 30.501 -32.499s31 -17.833 52 -25.5s45.833 -15.834 74.5 -24.501c24.667 -8 49 -17 73 -27s45.5 -22.833 64.5 -38.5s34.167 -34.667 45.5 -57s17 -49.5 17 -81.5c0 -34 -6.66699 -62.833 -20 -86.5
s-31 -42.834 -53 -57.501s-47.5 -25.334 -76.5 -32.001s-59.5 -10 -91.5 -10c-41.333 0 -79 4.66699 -113 14s-64.667 21 -92 35l-4 13l17 107h25l5 -6c3.33301 -40.667 19.666 -70.5 48.999 -89.5s69.333 -28.5 120 -28.5c52 0 91.167 11.833 117.5 35.5
s39.5 54.5 39.5 92.5c0 23.333 -5 42.833 -15 58.5s-23.167 29 -39.5 40s-35 20.167 -56 27.5l-63.5 22c-26.667 8.66699 -51.5 18.167 -74.5 28.5s-43 22.5 -60 36.5s-30.333 30.667 -40 50s-14.5 42.333 -14.5 69c0 31.333 5.5 57.833 16.5 79.5
s26.167 39.334 45.5 53.001s41.833 23.5 67.5 29.5s53.5 9 83.5 9c36 0 70 -3.33301 102 -10s58 -14.667 78 -24l4 -11l-14 -89h-28l-5 5c-1.33301 17.333 -7 31.333 -17 42s-21.833 19 -35.5 25s-28.334 10 -44.001 12s-29.5 3 -41.5 3c-43.333 0 -77.333 -9.5 -102 -28.5
s-37 -46.167 -37 -81.5z" />
    <glyph glyph-name="T" unicode="T" horiz-adv-x="589" 
d="M431 -6c-4.66699 0 -11.998 0.331055 -21.998 0.998047s-20.667 1.33398 -32 2.00098s-22 1.33398 -32 2.00098s-17.333 1 -22 1h-57c-4.66699 0 -12 -0.333008 -22 -1l-31.5 -2l-31.5 -2c-10 -0.666992 -17.333 -1 -22 -1l-2 4l3 18l5 4c10.667 0 22.667 0.5 36 1.5
s22.666 3.83301 27.999 8.5s11 10.667 17 18s9.66699 20.333 11 39c0.666992 4.66699 1.16699 10.167 1.5 16.5s0.666016 14.166 0.999023 23.499s0.5 20.666 0.5 33.999v50v203c0 43.333 -0.333008 81.833 -1 115.5s-1.33398 59.167 -2.00098 76.5h-11
c-33.333 0 -60.666 -0.166992 -81.999 -0.5s-38.5 -1 -51.5 -2s-22.667 -2.16699 -29 -3.5s-10.833 -3 -13.5 -5c-14.667 -8 -23.667 -25.333 -27 -52l-4 -4h-23l7 114l4 9l6 3c5.33301 -2 17 -3.83301 35 -5.5s37.667 -2.83398 59 -3.50098s41.833 -1.16699 61.5 -1.5
s33.834 -0.5 42.501 -0.5h126c8.66699 0 22.834 0.166992 42.501 0.5s40.167 0.833008 61.5 1.5s41 1.83398 59 3.50098s29.667 3.5 35 5.5l6 -3l4 -9l8 -114h-24l-4 4c-3.33301 26.667 -12.333 44 -27 52c-2.66699 2 -7.16699 3.66699 -13.5 5s-16 2.5 -29 3.5
s-30.167 1.66699 -51.5 2s-48.333 0.5 -81 0.5h-11c-0.666992 -19.333 -1.16699 -44.666 -1.5 -75.999s-0.5 -69.666 -0.5 -114.999v-184v-58.5c0 -15 0.166992 -27.5 0.5 -37.5s0.666016 -18.5 0.999023 -25.5s0.833008 -14.5 1.5 -22.5c1.33301 -18.667 5 -31.667 11 -39
s11.667 -13.333 17 -18s14.666 -7.5 27.999 -8.5s25.333 -1.5 36 -1.5l5 -4l3 -18z" />
    <glyph glyph-name="U" unicode="U" horiz-adv-x="723" 
d="M697 656l-3.00098 -17.999l-4 -4c-10.667 0 -20.834 -0.5 -30.501 -1.5s-17.5 -3.83301 -23.5 -8.5c-5.33301 -4.66699 -10.333 -10.667 -15 -18s-7.66699 -20.333 -9 -39c-0.666992 -8 -1.16699 -16 -1.5 -24s-0.666016 -17.667 -0.999023 -29s-0.5 -25 -0.5 -41v-59
v-192c0 -32.667 -4.83301 -63.167 -14.5 -91.5s-24.5 -53 -44.5 -74s-45.167 -37.5 -75.5 -49.5s-65.833 -18 -106.5 -18c-46.667 0 -86.167 6 -118.5 18s-58.5 28.5 -78.5 49.5s-34.5 45.667 -43.5 74s-13.5 58.833 -13.5 91.5v192v59v41c0 11.333 -0.166992 21 -0.5 29
s-0.833008 16 -1.5 24c-1.33301 18 -4.5 30.833 -9.5 38.5s-10.167 13.834 -15.5 18.501c-6 4.66699 -13.667 7.5 -23 8.5s-19.333 1.5 -30 1.5l-5 4l-3 18l2 4c4.66699 0 12.334 -0.333008 23.001 -1l33 -2l33 -2c10.667 -0.666992 18.334 -1 23.001 -1h19
c4.66699 0 12.334 0.333008 23.001 1l33 2l33 2c10.667 0.666992 18.334 1 23.001 1l2 -4l-3 -18l-4 -4c-10.667 0 -20.834 -0.5 -30.501 -1.5s-17.5 -3.83301 -23.5 -8.5c-5.33301 -4.66699 -10.333 -10.667 -15 -18s-7.66699 -20.333 -9 -39
c-0.666992 -9.33301 -1.16699 -18 -1.5 -26s-0.666016 -17.333 -0.999023 -28s-0.5 -23.667 -0.5 -39v-59v-165c0 -72 16.167 -123.667 48.5 -155s77.166 -47 134.499 -47s102.333 15.667 135 47s49 83 49 155v165v59c0 15.333 -0.166992 28.333 -0.5 39
s-0.666016 20 -0.999023 28s-0.833008 16.667 -1.5 26c-1.33301 18.667 -4.5 31.667 -9.5 39s-10.167 13.333 -15.5 18s-12.833 7.5 -22.5 8.5s-19.834 1.5 -30.501 1.5l-5 4l-3 18l2 4c4.66699 0 11.667 -0.333008 21 -1s19.166 -1.33398 29.499 -2.00098
s20.166 -1.33398 29.499 -2.00098s16.333 -1 21 -1h22c4.66699 0 12 0.333008 22 1l31.5 2l31.5 2c10 0.666992 17.333 1 22 1z" />
    <glyph glyph-name="V" unicode="V" horiz-adv-x="674" 
d="M302 -11l-163 454l-18.5 50l-13 34c-3.66699 9.33301 -6.83398 17 -9.50098 23s-5 11.667 -7 17c-7.33301 16.667 -14.833 29.5 -22.5 38.5s-15.5 15.667 -23.5 20s-16.167 6.83301 -24.5 7.5s-16.833 1 -25.5 1l-5 4l-2 18l1 4c4.66699 0 11.5 -0.333008 20.5 -1
s18.5 -1.33398 28.5 -2.00098l29 -2c9.33301 -0.666992 16.333 -1 21 -1h34c4.66699 0 12.334 0.333008 23.001 1l33.5 2l33.5 2c10.667 0.666992 18.334 1 23.001 1l2 -4l-3 -18l-5 -4c-19.333 0 -34.333 -2.16699 -45 -6.5s-16 -16.166 -16 -35.499
c0 -15.333 5.16699 -36.833 15.5 -64.5l38.5 -104.5l68 -184l33.5 -93.5c9.66699 -27.667 18.5 -51.5 26.5 -71.5l26.5 69l35.5 96l68 184l38.5 104.5c10.333 27.667 15.5 49.167 15.5 64.5c0 19.333 -5.33301 31.166 -16 35.499s-25.667 6.5 -45 6.5l-5 4l-2 18l2 4
c4.66699 0 12 -0.333008 22 -1l31 -2l31 -2c10 -0.666992 17.333 -1 22 -1h19c4.66699 0 11.5 0.333008 20.5 1s18.5 1.33398 28.5 2.00098l29 2c9.33301 0.666992 16.333 1 21 1l2 -4l-3 -18l-5 -4c-8.66699 0 -17 -0.333008 -25 -1s-16 -3.16699 -24 -7.5
s-15.833 -11 -23.5 -20s-15.5 -21.833 -23.5 -38.5c-2 -5.33301 -4.83301 -12 -8.5 -20s-9.83398 -23 -18.501 -45l-37.5 -94.5l-65.5 -167.5l-28.5 -72.5l-28 -71l-23.5 -59.5l-14 -37l-52 -11h-12z" />
    <glyph glyph-name="W" unicode="W" horiz-adv-x="1096" 
d="M302 -11l-163.003 454.002l-18.5 50l-13 34c-3.66699 9.33301 -6.83398 17 -9.50098 23s-5 11.667 -7 17c-7.33301 16.667 -14.833 29.5 -22.5 38.5s-15.5 15.667 -23.5 20s-16.167 6.83301 -24.5 7.5s-16.833 1 -25.5 1l-5 4l-2 18l1 4
c4.66699 0 11.5 -0.333008 20.5 -1s18.5 -1.33398 28.5 -2.00098l29 -2c9.33301 -0.666992 16.333 -1 21 -1h34c4.66699 0 12.334 0.333008 23.001 1l33.5 2l33.5 2c10.667 0.666992 18.334 1 23.001 1l2 -4l-3 -18l-5 -4c-19.333 0 -34.333 -2.16699 -45 -6.5
s-16 -16.166 -16 -35.499c0 -15.333 5.16699 -36.833 15.5 -64.5l38.5 -104.5l68 -184l33.5 -93.5c9.66699 -27.667 18.5 -51.5 26.5 -71.5l26.5 69l35.5 96l68 184l25.5 69c7.66699 20 14.167 38 19.5 54c-3.33301 10.667 -7.16602 21 -11.499 31s-9.66602 19 -15.999 27
s-14.5 14.667 -24.5 20s-22.333 8.66602 -37 9.99902l-5 4l-2 18l1 4c4.66699 0 11.5 -0.333008 20.5 -1l28 -2l28 -2c9 -0.666992 15.833 -1 20.5 -1h33c4.66699 0 12 0.333008 22 1s20.667 1.33398 32 2.00098s22 1.33398 32 2.00098s17.333 1 22 1l2 -4l-3 -18l-5 -4
c-7.33301 0 -15.166 -1.16699 -23.499 -3.5s-16 -5.83301 -23 -10.5s-12.667 -10.334 -17 -17.001s-6.5 -14.334 -6.5 -23.001c0 -6.66699 0.666992 -11.334 2 -14.001c4 -16.667 10.5 -36.667 19.5 -60l30.5 -83l68 -184l34 -93.5l26 -71.5l26.5 69l35.5 96l68 184
l38.5 104.5c10.333 27.667 15.5 49.167 15.5 64.5c0 19.333 -5.33301 31.166 -16 35.499s-25.667 6.5 -45 6.5l-4 4l-3 18l2 4c4.66699 0 12 -0.333008 22 -1l31 -2l31 -2c10 -0.666992 17.333 -1 22 -1h19c4.66699 0 11.5 0.333008 20.5 1s18.5 1.33398 28.5 2.00098l29 2
c9.33301 0.666992 16.333 1 21 1l2 -4l-3 -18l-5 -4c-8.66699 0 -17 -0.333008 -25 -1s-16 -3.16699 -24 -7.5s-15.833 -11 -23.5 -20s-15.5 -21.833 -23.5 -38.5c-2 -5.33301 -4.83301 -12 -8.5 -20s-9.83398 -23 -18.501 -45l-37.5 -94.5l-65.5 -167.5l-28.5 -72.5
l-28 -71l-23.5 -59.5l-14 -37l-52 -11h-12l-174 482l-35.5 -90l-54.5 -141l-28 -72.5l-28.5 -71l-23.5 -59.5l-14 -37l-52 -11h-12z" />
    <glyph glyph-name="X" unicode="X" horiz-adv-x="662" 
d="M215 622c-7.33301 -5.33301 -11.0049 -10.9932 -11.0049 -16.9932c0 -3.33301 1 -7.33301 3 -12s4 -8.66699 6 -12l31.5 -55.5l28.5 -47l29 -46c10 -15.667 21.667 -32.834 35 -51.501c14 18 27.333 36.5 40 55.5s24 37 34 54s18.333 32 25 45s11.667 23.167 15 30.5
c1.33301 3.33301 2.66602 7.5 3.99902 12.5s2 10.167 2 15.5c0 8 -2.16699 14.333 -6.5 19s-9.66602 8.16699 -15.999 10.5s-13.5 4.16602 -21.5 5.49902s-15.667 3 -23 5l-5 4v18l5 4c19.333 -3.33301 35.5 -5.16602 48.5 -5.49902s27.5 -0.5 43.5 -0.5h58
c16 0 30.5 0.333008 43.5 1s28.833 2.33398 47.5 5.00098l4 -4v-18l-4 -4c-14.667 -2 -27.5 -5 -38.5 -9s-21 -9.33301 -30 -16s-17.833 -15 -26.5 -25s-18 -22 -28 -36l-52.5 -75l-36 -52l-28 -41l-27.5 -41l65.5 -96.5l54.5 -80.5l39 -57.5
c10 -15 16.667 -24.167 20 -27.5c6.66699 -7.33301 12.834 -13.833 18.501 -19.5s12.5 -10.834 20.5 -15.501s18 -8.83398 30 -12.501s27 -6.83398 45 -9.50098l9 -7v-14l-6 -6c-16 2 -33.667 3.83301 -53 5.5s-36.666 2.5 -51.999 2.5h-40
c-15.333 0 -33.5 -0.833008 -54.5 -2.5s-40.5 -3.5 -58.5 -5.5l-5 6v15l5 6c15.333 1.33301 29.333 5.16602 42 11.499s19 15.166 19 26.499c0 7.33301 -4.66699 20 -14 38s-20.833 38.167 -34.5 60.5l-44 68.5l-43.5 63l-46.5 -61.5l-43 -60l-34.5 -51.5
c-10 -15.333 -17.333 -27.666 -22 -36.999c-2.66699 -5.33301 -4 -11.333 -4 -18c0 -5.33301 0.833008 -10.166 2.5 -14.499s5 -8 10 -11s12.5 -5.66699 22.5 -8s23.333 -4.5 40 -6.5l6 -6v-14l-6 -6c-19.333 3.33301 -38 5.16602 -56 5.49902s-34.667 0.5 -50 0.5h-47
c-15.333 0 -30.833 -0.333008 -46.5 -1s-32.834 -2.33398 -51.501 -5.00098l-5 6v13l8 7c14.667 2 27.334 4.5 38.001 7.5s20.5 7.16699 29.5 12.5s17.833 12.166 26.5 20.499s18.334 19.5 29.001 33.5l70 95l100 141l-36 51l-42 61l-45 66.5l-45 68.5
c-5.33301 7.33301 -10.833 14.5 -16.5 21.5s-11.167 12.5 -16.5 16.5c-7.33301 6 -16.166 10.333 -26.499 13s-22.166 4.66699 -35.499 6l-8 4v18l6 4c30.667 -4 60 -6 88 -6h43c15.333 0 33 0.5 53 1.5s39.333 2.5 58 4.5l5 -4v-18l-5 -4
c-13.333 -0.666992 -25 -1.83398 -35 -3.50098s-18 -4.5 -24 -8.5z" />
    <glyph glyph-name="Y" unicode="Y" horiz-adv-x="612" 
d="M428 -6c-4.66699 0 -12.333 0.334961 -23 1.00195l-33 2l-33 2c-10.667 0.666992 -18.334 1 -23.001 1h-19c-4.66699 0 -12.334 -0.333008 -23.001 -1l-33.5 -2l-33.5 -2c-10.667 -0.666992 -18.334 -1 -23.001 -1l-1 4l2 18l5 4c10.667 0 20.834 0.5 30.501 1.5
s17.167 3.83301 22.5 8.5s10.5 10.667 15.5 18s8.16699 20.333 9.5 39c0.666992 4.66699 1.16699 10.167 1.5 16.5s0.666016 14.166 0.999023 23.499s0.5 20.666 0.5 33.999v50v39c0 18.667 -2.66699 33.834 -8 45.501s-10.666 22.167 -15.999 31.5l-33.5 58l-38.5 64
l-41 65.5l-40 62.5c-4.66699 7.33301 -10 14.5 -16 21.5s-11.333 12.5 -16 16.5c-7.33301 6 -16.166 10.333 -26.499 13s-22.166 4.66699 -35.499 6l-8 4v18l5 4l45 -5.5c14 -1.66699 28.667 -2.5 44 -2.5h42c15.333 0 33.166 0.833008 53.499 2.5s39.833 3.5 58.5 5.5l4 -4
v-18l-4 -4c-13.333 -0.666992 -25 -1.83398 -35 -3.50098s-18 -4.5 -24 -8.5c-8 -6 -12 -11.667 -12 -17c0 -3.33301 1.16699 -7.33301 3.5 -12s4.5 -8.66699 6.5 -12l68 -125l70 -124l36.5 64.5l37.5 69l31.5 60.5c9 18 15.167 30.667 18.5 38
c1.33301 3.33301 3.33301 8.66602 6 15.999s4 13.666 4 18.999c0 8 -2.33301 14 -7 18s-10.5 7 -17.5 9s-14.667 3.33301 -23 4s-16.166 2 -23.499 4l-4 4v18l4 4c19.333 -3.33301 35.5 -5.16602 48.5 -5.49902s27.5 -0.5 43.5 -0.5h58c16 0 30.667 0.333008 44 1
s29.333 2.33398 48 5.00098l4 -4v-18l-4 -4c-15.333 -2 -28.333 -4.66699 -39 -8s-20.5 -7.83301 -29.5 -13.5s-17.5 -13.167 -25.5 -22.5s-17 -21.333 -27 -36l-50.5 -78l-38.5 -62.5l-30.5 -52.5l-26.5 -47c-2.66699 -4 -5.66699 -10.833 -9 -20.5s-5 -19.5 -5 -29.5v-35
v-58c0 -14.667 0.166992 -27 0.5 -37s0.666016 -18.333 0.999023 -25s0.833008 -14 1.5 -22c1.33301 -18.667 4.5 -31.667 9.5 -39s10.167 -13.333 15.5 -18s12.833 -7.5 22.5 -8.5s19.834 -1.5 30.501 -1.5l5 -4l3 -18z" />
    <glyph glyph-name="Z" unicode="Z" horiz-adv-x="614" 
d="M56 546l16 108.004l8 8c84.667 -4 155.5 -6.33301 212.5 -7s94.167 -1 111.5 -1h66c4 0 9.5 0.166992 16.5 0.5s14.333 0.833008 22 1.5s15.334 1.5 23.001 2.5s14.5 2.16699 20.5 3.5l8 -11l-5 -25c-12 -12.667 -29.333 -33.667 -52 -63l-75 -100.5l-84 -120.5
l-80 -121.5c-24.667 -38.333 -45.667 -72.666 -63 -102.999s-28.333 -52.5 -33 -66.5l5 -3h80c59.333 0 106.666 0.5 141.999 1.5s62.666 4.16699 81.999 9.5s33 13.166 41 23.499s14.333 25.166 19 44.499l6 6h27l-18 -129l-9 -10c-2.66699 0 -9.66699 0.166992 -21 0.5
s-24.666 0.833008 -39.999 1.5s-31.833 1.16699 -49.5 1.5l-51 1c-16.333 0.333008 -31 0.666016 -44 0.999023s-22.5 0.5 -28.5 0.5h-160c-14.667 0 -31.167 -0.666992 -49.5 -2l-53.5 -4l-10 11v23c13.333 13.333 30.833 33.666 52.5 60.999s45.167 58.666 70.5 93.999
l78 113l76 117c24 38 45.5 73.5 64.5 106.5s33.167 60.167 42.5 81.5l-5 5h-142c-37.333 0 -67.5 -0.5 -90.5 -1.5s-41.167 -3.5 -54.5 -7.5s-23 -10.167 -29 -18.5s-10.333 -19.833 -13 -34.5l-6 -5h-18z" />
    <glyph glyph-name="bracketleft" unicode="[" horiz-adv-x="278" 
d="M262 751l-1.99805 -18.001l-5 -4c-5.33301 0 -11.5 -0.166992 -18.5 -0.5s-14 -0.833008 -21 -1.5s-13.5 -1.66699 -19.5 -3s-10.333 -3 -13 -5c-5.33301 -4.66699 -10.5 -10.667 -15.5 -18s-8.16699 -20.333 -9.5 -39s-2.16602 -41.334 -2.49902 -68.001
s-0.5 -64 -0.5 -112v-251v-73.5c0 -25 0.166992 -48.5 0.5 -70.5s0.666016 -41.333 0.999023 -58s0.833008 -29 1.5 -37c1.33301 -18.667 4.5 -31.667 9.5 -39s10.167 -13.333 15.5 -18c2.66699 -2 7 -3.66699 13 -5s12.5 -2.33301 19.5 -3s14 -1.16699 21 -1.5
s13.167 -0.5 18.5 -0.5l5 -4l2 -18l-1 -4c-4.66699 0 -11.834 0.333008 -21.501 1l-30 2l-30 2c-9.66699 0.666992 -16.834 1 -21.501 1h-76l-2 4c5.33301 44.667 8.66602 93.834 9.99902 147.501s2 105.167 2 154.5v270v57.5c0 21.667 -0.5 44.5 -1.5 68.5
s-2.33301 47.833 -4 71.5s-3.83398 45.834 -6.50098 66.501l2 4h76c4.66699 0 11.834 0.333008 21.501 1l30 2l30 2c9.66699 0.666992 16.834 1 21.501 1z" />
    <glyph glyph-name="backslash" unicode="\" horiz-adv-x="434" 
d="M393 -57h-78l-3 4c-10.667 44.667 -25.167 93.667 -43.5 147l-54.5 155l-67 184l-21.5 58l-26.5 68.5l-29 71.5c-10 24 -20.333 46.333 -31 67v4h78l3 -4c4.66699 -20.667 10.5 -43 17.5 -67s14.5 -47.833 22.5 -71.5l24 -68.5l21 -58l66 -184l58.5 -155
c21 -53.333 42.5 -102.333 64.5 -147z" />
    <glyph glyph-name="bracketright" unicode="]" horiz-adv-x="278" 
d="M17 755c4.66699 0 11.834 -0.332031 21.501 -0.999023l30 -2l30 -2c9.66699 -0.666992 16.834 -1 21.501 -1h76l2 -4c-3.33301 -20.667 -5.66602 -42.834 -6.99902 -66.501s-2.5 -47.5 -3.5 -71.5s-1.5 -46.833 -1.5 -68.5v-57.5v-270
c0 -49.333 0.666992 -100.833 2 -154.5s4.66602 -102.834 9.99902 -147.501l-2 -4h-76c-4.66699 0 -11.834 -0.333008 -21.501 -1l-30 -2l-30 -2c-9.66699 -0.666992 -16.834 -1 -21.501 -1l-1 4l2 18l5 4c5.33301 0 11.5 0.166992 18.5 0.5s14 0.833008 21 1.5
s13.5 1.66699 19.5 3s10.333 3 13 5c5.33301 4.66699 10.5 10.667 15.5 18s8.16699 20.333 9.5 39c0.666992 8 1.16699 20.333 1.5 37s0.666016 36 0.999023 58s0.5 45.5 0.5 70.5v73.5v251c0 48 -0.166992 85.333 -0.5 112s-1.16602 49.334 -2.49902 68.001
s-4.5 31.667 -9.5 39s-10.167 13.333 -15.5 18c-2.66699 2 -7 3.66699 -13 5s-12.5 2.33301 -19.5 3s-14 1.16699 -21 1.5s-13.167 0.5 -18.5 0.5l-5 4l-2 18z" />
    <glyph glyph-name="asciicircum" unicode="^" horiz-adv-x="348" 
d="M178 673l110 -99l3 -7l-6 -19l-7 -3l-104 61l-104 -61l-7 3l-6 19l3 7l110 99h8z" />
    <glyph glyph-name="underscore" unicode="_" horiz-adv-x="463" 
d="M448 0v-52h-433v52h433z" />
    <glyph glyph-name="grave" unicode="`" horiz-adv-x="219" 
d="M205 549l-201 76.999c-2.66699 6 -4 12.333 -4 19c0 9.33301 3 17.333 9 24s14.667 10.334 26 11.001l181 -101l3 -7l-6 -20z" />
    <glyph glyph-name="a" unicode="a" horiz-adv-x="496" 
d="M324 7c2 7.33301 3.5 18.332 4.5 32.999s2.5 28.334 4.5 41.001l-1 3c-8.66699 -12 -19 -23.667 -31 -35s-25.167 -21.5 -39.5 -30.5s-29.666 -16.167 -45.999 -21.5s-33.5 -8 -51.5 -8c-20.667 0 -39 3.66699 -55 11s-29.333 17 -40 29s-18.667 26 -24 42
s-8 32.667 -8 50c0 24.667 5.66699 46.167 17 64.5s26.333 33.5 45 45.5c17.333 10.667 37.833 19.334 61.5 26.001s46.667 11.5 69 14.5s42.5 5 60.5 6s30 1.5 36 1.5h14c-0.666992 24.667 -2 44.167 -4 58.5s-4.66699 26.166 -8 35.499c-7.33301 20 -20 34.5 -38 43.5
s-39.667 13.5 -65 13.5c-10.667 0 -22.167 -1 -34.5 -3s-24 -5.66699 -35 -11s-20.5 -12.833 -28.5 -22.5s-12.667 -22.167 -14 -37.5l-4 -3h-22l-9 74l3 6c3.33301 4 10.333 8.33301 21 13s23.167 9.16699 37.5 13.5s30.333 8 48 11s35.167 4.5 52.5 4.5
c24 0 46.333 -3.16699 67 -9.5s38.5 -15.833 53.5 -28.5s26.833 -28.5 35.5 -47.5s13 -41.167 13 -66.5c0 -28 -0.166992 -52.833 -0.5 -74.5s-0.833008 -41.667 -1.5 -60s-1.16699 -36.333 -1.5 -54s-0.5 -36.5 -0.5 -56.5c1.33301 -15.333 3 -26.5 5 -33.5
s5.33301 -12.167 10 -15.5c5.33301 -5.33301 13.166 -8.5 23.499 -9.5s20.833 -1.5 31.5 -1.5l4 -4l1 -14l-1 -4c-12 1.33301 -25 2.33301 -39 3s-27.667 1 -41 1c-25.333 0 -48.333 -1 -69 -3zM324 114.999c2 3.33301 4.16797 7.33203 6.50098 11.999
s3.83301 10.334 4.5 17.001l5 100h-9c-26.667 0 -53.334 -1.5 -80.001 -4.5s-50.5 -8.83301 -71.5 -17.5s-38.167 -20.667 -51.5 -36s-20 -35 -20 -59c0 -25.333 7.33301 -45.5 22 -60.5s33.667 -22.5 57 -22.5c14 0 28 2.33301 42 7s27.167 10.667 39.5 18s23.333 15 33 23
s17.167 15.667 22.5 23z" />
    <glyph glyph-name="b" unicode="b" horiz-adv-x="599" 
d="M166 80c0 -13.333 1.50586 -26.9961 4.50586 -40.9961s5.83301 -24.667 8.5 -32l-7 -7h-46c-4.66699 0 -11.834 -0.166992 -21.501 -0.5l-30 -1c-10.333 -0.333008 -20.333 -0.833008 -30 -1.5s-16.834 -1 -21.501 -1l-1 4l1 14l4 4c10.667 0 21.167 0.5 31.5 1.5
s18.166 4.16699 23.499 9.5c5.33301 4.66699 8.83301 10.667 10.5 18s3.16699 17.666 4.5 30.999l1 9c0 6 0.166992 12.833 0.5 20.5s0.666016 17 0.999023 28s0.5 24.333 0.5 40v58.5v240v69.5c0 19 -0.166992 35.5 -0.5 49.5s-0.666016 26.167 -0.999023 36.5
s-0.833008 21.166 -1.5 32.499c-0.666992 7.33301 -2.5 13.666 -5.5 18.999s-5.5 9.33301 -7.5 12c-6.66699 7.33301 -15 12 -25 14s-20.333 3 -31 3l-4 4v13l4 4h18c11.333 0 25.666 0.166992 42.999 0.5s32.333 1.5 45 3.5l35 5l6 -9
c-1.33301 -2.66699 -2.5 -7.5 -3.5 -14.5s-1.83301 -14.5 -2.5 -22.5s-1.16699 -15.667 -1.5 -23s-0.5 -13 -0.5 -17v-30c0 -9.33301 -0.166992 -20.333 -0.5 -33s-0.5 -28 -0.5 -46v-69c0 -28.667 -0.333008 -49.5 -1 -62.5s-1.33398 -23.5 -2.00098 -31.5l3 -2
c19.333 28 43 50.833 71 68.5s59.667 26.5 95 26.5c38 0 70.833 -6.66699 98.5 -20s50.5 -31 68.5 -53s31.333 -47.167 40 -75.5s13 -57.833 13 -88.5c0 -45.333 -7 -83.833 -21 -115.5s-31.833 -57.334 -53.5 -77.001s-45.334 -34 -71.001 -43s-50.167 -13.5 -73.5 -13.5
c-32 0 -62.167 7 -90.5 21s-52.833 38 -73.5 72zM476.006 236.004c0 22.667 -3 45 -9 67s-15.167 41.5 -27.5 58.5s-27.833 30.667 -46.5 41s-40.667 15.5 -66 15.5c-26 0 -49 -5 -69 -15s-36.833 -22 -50.5 -36s-24 -28.5 -31 -43.5s-10.5 -27.833 -10.5 -38.5v-109
c2 -10.667 6.66699 -23.5 14 -38.5s17.5 -29.5 30.5 -43.5s28.833 -25.833 47.5 -35.5s41 -14.5 67 -14.5s48.5 5.5 67.5 16.5s34.667 25.5 47 43.5s21.5 38.5 27.5 61.5s9 46.5 9 70.5z" />
    <glyph glyph-name="c" unicode="c" horiz-adv-x="509" 
d="M427 353l-3.99902 3c0 15.333 -4.5 27.833 -13.5 37.5s-19.833 17.167 -32.5 22.5s-26.167 9 -40.5 11s-26.833 3 -37.5 3c-30.667 0 -57.167 -5.5 -79.5 -16.5s-40.833 -25.667 -55.5 -44s-25.5 -39.333 -32.5 -63s-10.5 -47.834 -10.5 -72.501
c0 -25.333 3.83301 -49.666 11.5 -72.999s19.5 -44 35.5 -62s36 -32.333 60 -43s52.667 -16 86 -16c22.667 0 47.834 3.5 75.501 10.5s51.5 15.833 71.5 26.5l10 -10l-15 -28c-7.33301 -5.33301 -16.833 -10.833 -28.5 -16.5s-24.834 -11 -39.501 -16
s-30.5 -9.16699 -47.5 -12.5s-33.833 -5 -50.5 -5c-32.667 0 -63.834 5.83301 -93.501 17.5s-55.667 28 -78 49s-40.166 46.333 -53.499 76s-20 62.5 -20 98.5c0 36.667 6.66699 70 20 100s31.666 55.667 54.999 77s50.5 38 81.5 50s64.167 18 99.5 18
c32 0 62.167 -4 90.5 -12s49.833 -16 64.5 -24l3 -9l-11 -77h-21z" />
    <glyph glyph-name="d" unicode="d" horiz-adv-x="599" 
d="M420 7c2 7.33301 3.83691 18.333 5.50391 33l4.5 39l-1 4c-18.667 -28 -41.667 -50.667 -69 -68s-58.666 -26 -93.999 -26c-38 0 -70.833 6.66699 -98.5 20s-50.334 31 -68.001 53s-30.834 47.167 -39.501 75.5s-13 57.833 -13 88.5c0 45.333 7 83.833 21 115.5
s31.667 57.334 53 77.001s44.833 34 70.5 43s50.167 13.5 73.5 13.5c32 0 62.667 -7.16699 92 -21.5s54.333 -38.5 75 -72.5l2 4c-1.33301 15.333 -2 30.166 -2 44.499v44.5v69.5c0 19 -0.166992 35.5 -0.5 49.5s-0.666016 26.333 -0.999023 37
s-0.833008 21.334 -1.5 32.001c-0.666992 7.33301 -2.5 13.666 -5.5 18.999s-5.5 9.33301 -7.5 12c-6.66699 7.33301 -15 12 -25 14s-20.333 3 -31 3l-4 4v13l4 4h18c11.333 0 25.666 0.166992 42.999 0.5s32.333 1.5 45 3.5l35 5l6 -9
c-1.33301 -2.66699 -2.5 -7.5 -3.5 -14.5s-1.66699 -14.5 -2 -22.5l-1 -23c-0.333008 -7.33301 -0.5 -13 -0.5 -17c0 -10.667 -0.166992 -20.667 -0.5 -30s-0.5 -20.333 -0.5 -33s-0.166992 -28 -0.5 -46s-0.5 -41 -0.5 -69v-218c0 -28 0.166992 -51 0.5 -69
s0.666016 -33.333 0.999023 -46s0.666016 -23.667 0.999023 -33s0.833008 -20 1.5 -32c1.33301 -15.333 3 -26.5 5 -33.5s5 -12.167 9 -15.5c6 -5.33301 14 -8.5 24 -9.5s20.333 -1.5 31 -1.5l4 -4l2 -14l-2 -4c-12 1.33301 -24.833 2.33301 -38.5 3s-27.5 1 -41.5 1
c-24.667 0 -47.334 -1 -68.001 -3zM123.004 228c0 -22.667 2.99805 -44.999 8.99805 -66.999s15 -41.5 27 -58.5s27.333 -30.667 46 -41s41 -15.5 67 -15.5c24.667 0 46.834 4.66699 66.501 14s36.167 20.666 49.5 33.999s23.833 27.333 31.5 42
s11.834 27.334 12.501 38.001v111c-1.33301 10.667 -5.5 23.667 -12.5 39s-17 30.166 -30 44.499s-29 26.5 -48 36.5s-41.5 15 -67.5 15c-26.667 0 -49.5 -5.5 -68.5 -16.5s-34.667 -25.5 -47 -43.5s-21.333 -38.5 -27 -61.5s-8.5 -46.5 -8.5 -70.5z" />
    <glyph glyph-name="e" unicode="e" 
d="M480 269l-16.002 -6.99805c-36 0 -73 -0.333008 -111 -1s-75.333 -1 -112 -1h-118c-0.666992 -4.66699 -1 -9.16699 -1 -13.5v-12.5c0 -25.333 3.66699 -49.5 11 -72.5s18.833 -43.167 34.5 -60.5s35.834 -31.166 60.501 -41.499s54.667 -15.5 90 -15.5
c20.667 0 42.834 2.16699 66.501 6.5s45.5 12.166 65.5 23.499l10 -6v-18l-10 -11c-16 -12.667 -38.667 -24.167 -68 -34.5s-62 -15.5 -98 -15.5c-35.333 0 -67.5 5.83301 -96.5 17.5s-54 28.167 -75 49.5s-37.333 46.666 -49 75.999s-17.5 62 -17.5 98
c0 36.667 6 70 18 100s28.5 55.667 49.5 77s45.667 38 74 50s58.833 18 91.5 18c17.333 0 36.833 -2.33301 58.5 -7s42.5 -13.5 62.5 -26.5s38 -31.333 54 -55s27 -54.834 33 -93.501zM279.998 430.002c-21.333 0 -40.501 -3.49707 -57.501 -10.4971s-32 -16.333 -45 -28
s-23.667 -25.334 -32 -41.001s-14.166 -32.167 -17.499 -49.5h39c36 0 71 0.5 105 1.5s69.667 2.5 107 4.5c8.66699 0.666992 14.5 3 17.5 7s4.5 8.66699 4.5 14c0 4 -0.333008 7.66699 -1 11s-1.66699 6.66602 -3 9.99902c-7.33301 25.333 -21 45.166 -41 59.499
s-45.333 21.5 -76 21.5z" />
    <glyph glyph-name="f" unicode="f" horiz-adv-x="333" 
d="M305 413h-126.996v-155v-70.5c0 -19 0.166992 -35 0.5 -48s0.833008 -24.167 1.5 -33.5l2 -28c1.33301 -10 2.83301 -19.5 4.5 -28.5s5.16699 -15.833 10.5 -20.5c3.33301 -2.66699 8.16602 -4.66699 14.499 -6s13 -2.33301 20 -3s13.833 -1.16699 20.5 -1.5
s12 -0.5 16 -0.5l5 -5l2 -13l-2 -4c-4.66699 0 -12.167 0.333008 -22.5 1s-21.166 1.16699 -32.499 1.5l-32.5 1c-10.333 0.333008 -17.833 0.5 -22.5 0.5h-24c-4.66699 -0 -11.834 -0.166992 -21.501 -0.5s-19.834 -0.666016 -30.501 -0.999023
s-20.834 -0.833008 -30.501 -1.5s-16.834 -1 -21.501 -1l-1 4l1 14l4 4c10.667 0 21.167 0.5 31.5 1.5s18.166 4.16699 23.499 9.5c4 4 7.33301 9.16699 10 15.5s4.5 16.833 5.5 31.5s1.66699 34.334 2 59.001s0.5 57.667 0.5 99v179h-74l-4 5v18l4 4l74 15v57
c0 71.333 13.333 128 40 170s65.667 63 117 63c15.333 0 32 -2.33301 50 -7s36.667 -12.334 56 -23.001l5 -10l-12 -77h-26c-2.66699 21.333 -12.5 38 -29.5 50s-36.167 18 -57.5 18c-19.333 0 -34.166 -3.83301 -44.499 -11.5s-18 -17.834 -23 -30.501
s-7.83301 -27.167 -8.5 -43.5s-1 -32.833 -1 -49.5v-106l127 6l5 -4v-39z" />
    <glyph glyph-name="g" unicode="g" horiz-adv-x="506" 
d="M151 136c-36 13.333 -61.9971 34.334 -77.9971 63.001s-24 60.334 -24 95.001c0 24.667 4.33301 48 13 70s21.167 41.167 37.5 57.5s36 29.166 59 38.499s49.167 14 78.5 14c17.333 0 34.5 -1.66699 51.5 -5s31.833 -8 44.5 -14c28 0.666992 54.167 2.33398 78.5 5.00098
s47.166 7 68.499 13l5 -4l-7 -55l-5 -5l-91 4l-1 -3c17.333 -14 30 -32.333 38 -55s12 -44.667 12 -66c0 -22 -4.16699 -43 -12.5 -63s-20.5 -37.5 -36.5 -52.5s-36 -27 -60 -36s-51.667 -13.5 -83 -13.5c-5.33301 0 -12 0.166992 -20 0.5s-14.667 0.5 -20 0.5
c-11.333 -4.66699 -19.833 -11 -25.5 -19s-8.5 -14.667 -8.5 -20c0 -6.66699 4.5 -12.5 13.5 -17.5s23.5 -8.5 43.5 -10.5l97 -10c22 -2.66699 42.5 -7.33398 61.5 -14.001s35.667 -15.5 50 -26.5s25.5 -24.333 33.5 -40s12 -33.834 12 -54.501
c0 -19.333 -4.33301 -38.833 -13 -58.5s-21.667 -37.167 -39 -52.5c-17.333 -14.667 -41.333 -26.667 -72 -36s-66 -14 -106 -14c-36 0 -67.167 3.83301 -93.5 11.5s-48.333 18 -66 31s-30.834 27.667 -39.501 44s-13 33.166 -13 50.499c0 28 9.16699 52.833 27.5 74.5
s41.833 36.834 70.5 45.501l1 3c-14.667 6 -26.334 13.5 -35.001 22.5s-13 20.167 -13 33.5c0 17.333 7 31.333 21 42s29 18 45 22v4zM241.003 166.001c18.667 0 35.165 3.33496 49.498 10.002s26.5 15.667 36.5 27s17.667 24.5 23 39.5s8 30.5 8 46.5
c0 16.667 -2.66699 33.334 -8 50.001s-13.166 31.667 -23.499 45s-23.166 24.333 -38.499 33s-33 13 -53 13c-19.333 0 -36.166 -4 -50.499 -12s-26.333 -18.333 -36 -31s-16.834 -26.834 -21.501 -42.501s-7 -31.167 -7 -46.5c0 -16 2.5 -31.833 7.5 -47.5
s12.667 -29.834 23 -42.501s23 -22.834 38 -30.501s32.5 -11.5 52.5 -11.5zM209.001 -4.99707c-18.667 -0.666992 -35 -4.00098 -49 -10.001s-25.833 -13.5 -35.5 -22.5s-16.834 -19 -21.501 -30s-7 -21.833 -7 -32.5c0 -25.333 14 -46 42 -62s66 -24 114 -24
c22 0 42.333 1.83301 61 5.5s34.834 9.33398 48.501 17.001s24.5 17 32.5 28s12 23.833 12 38.5c0 16 -3.83301 29 -11.5 39s-17.667 18.167 -30 24.5s-26.333 11 -42 14s-31.167 5.5 -46.5 7.5z" />
    <glyph glyph-name="h" unicode="h" horiz-adv-x="597" 
d="M425 7c2.66699 8.66699 4.67285 19.999 6.00586 33.999s2.33301 26.333 3 37c1.33301 28 2.33301 55.5 3 82.5s1 49.5 1 67.5c0 15.333 -0.5 32 -1.5 50s-3.16699 33.667 -6.5 47c-6.66699 31.333 -20.334 54.666 -41.001 69.999s-44.667 23 -72 23
c-22 0 -42.5 -4.83301 -61.5 -14.5s-35.167 -21.334 -48.5 -35.001s-23.833 -28 -31.5 -43s-11.5 -27.5 -11.5 -37.5v-86.5c0 -21.667 0.166992 -39.834 0.5 -54.501s0.666016 -26.834 0.999023 -36.501s1.16602 -20.5 2.49902 -32.5c1.33301 -14 2.83301 -24.5 4.5 -31.5
s5.16699 -12.833 10.5 -17.5s12.833 -7.66699 22.5 -9s19.5 -2 29.5 -2l5 -5l2 -13l-2 -4c-4.66699 0 -11.667 0.333008 -21 1s-19.333 1.16699 -30 1.5s-20.667 0.666016 -30 0.999023s-16.333 0.5 -21 0.5h-14c-4.66699 0 -11.834 -0.166992 -21.501 -0.5l-30 -1
c-10.333 -0.333008 -20.333 -0.833008 -30 -1.5s-16.834 -1 -21.501 -1l-1 4l1 14l4 4c10.667 0 21.167 0.5 31.5 1.5s18.166 4.16699 23.499 9.5c5.33301 4.66699 8.83301 10.667 10.5 18s3.16699 17.666 4.5 30.999c0.666992 8.66699 1.16699 17.334 1.5 26.001
s0.666016 18.834 0.999023 30.501s0.5 25.334 0.5 41.001v58.5v240v69.5c0 19 -0.166992 35.5 -0.5 49.5s-0.666016 26.333 -0.999023 37s-0.833008 21.334 -1.5 32.001c-0.666992 7.33301 -2.5 13.666 -5.5 18.999s-5.5 9.33301 -7.5 12c-6.66699 7.33301 -15 12 -25 14
s-20.333 3 -31 3l-4 4v13l4 4h18c11.333 0 25.666 0.166992 42.999 0.5s32.333 1.5 45 3.5l35 5l6 -9c-1.33301 -2.66699 -2.33301 -7.5 -3 -14.5s-1.33398 -14.5 -2.00098 -22.5s-1 -15.667 -1 -23v-17c0 -21.333 -0.5 -46.833 -1.5 -76.5s-1.5 -63.5 -1.5 -101.5
c0 -28 -0.166992 -50 -0.5 -66s-1.16602 -28.667 -2.49902 -38l3 -2c16.667 29.333 39 54.166 67 74.499s62.667 30.5 104 30.5c18.667 0 37.5 -2.66699 56.5 -8s36.167 -13.666 51.5 -24.999s28.333 -25.666 39 -42.999s17.334 -38 20.001 -62
c2 -17.333 3.16699 -37.166 3.5 -59.499s0.5 -40.5 0.5 -54.5v-141c0 -15.333 1.5 -27.166 4.5 -35.499s6.5 -14.166 10.5 -17.499c6 -5.33301 14.167 -8.5 24.5 -9.5s20.833 -1.5 31.5 -1.5l3 -4l2 -14l-2 -4c-11.333 1.33301 -24 2.33301 -38 3s-27.667 1 -41 1
c-25.333 0 -48.333 -1 -69 -3z" />
    <glyph glyph-name="i" unicode="i" horiz-adv-x="276" 
d="M252 -4c-4.66699 0 -11.6621 0.338867 -20.9951 1.00586s-19.333 1.16699 -30 1.5s-20.667 0.666016 -30 0.999023s-16.333 0.5 -21 0.5h-14c-4.66699 0 -11.834 -0.166992 -21.501 -0.5l-30 -1c-10.333 -0.333008 -20.333 -0.833008 -30 -1.5s-16.834 -1 -21.501 -1
l-1 4l1 14l4 4c10.667 0 21.167 0.5 31.5 1.5s18.166 4.16699 23.499 9.5c5.33301 4.66699 8.83301 10.667 10.5 18s3.16699 17.666 4.5 30.999l2 32.5c0.666992 11 1 28.5 1 52.5v123v35.5c0 9.66699 -0.166992 18.167 -0.5 25.5s-0.666016 14 -0.999023 20
s-0.833008 12.333 -1.5 19c-1.33301 7.33301 -3.33301 13.833 -6 19.5s-5 9.5 -7 11.5c-6.66699 8 -15 12.833 -25 14.5s-20.333 2.5 -31 2.5l-4 4v14l4 3h18c11.333 0 25.666 0.166992 42.999 0.5s32.333 1.5 45 3.5l35 5l6 -9
c-1.33301 -2.66699 -2.5 -7.33398 -3.5 -14.001s-1.66699 -13.834 -2 -21.501l-1 -22.5c-0.333008 -7.33301 -0.5 -13 -0.5 -17c0 -5.33301 -0.166992 -10.5 -0.5 -15.5s-0.5 -10.833 -0.5 -17.5s-0.166992 -14.667 -0.5 -24s-0.5 -21.333 -0.5 -36v-112
c0 -14.667 0.166992 -26.667 0.5 -36s0.666016 -17.333 0.999023 -24s0.666016 -12.834 0.999023 -18.501s0.833008 -11.834 1.5 -18.501c1.33301 -14 2.83301 -24.5 4.5 -31.5s5.16699 -12.833 10.5 -17.5s12.833 -7.66699 22.5 -9s19.5 -2 29.5 -2l5 -5l2 -13z
M84.0049 631.006c0 13.333 4.5 24.833 13.5 34.5s20.167 14.5 33.5 14.5s24.833 -4.83301 34.5 -14.5s14.5 -21.167 14.5 -34.5s-4.83301 -24.5 -14.5 -33.5s-21.167 -13.5 -34.5 -13.5s-24.5 4.5 -33.5 13.5s-13.5 20.167 -13.5 33.5z" />
    <glyph glyph-name="j" unicode="j" horiz-adv-x="252" 
d="M23 452l4.00195 3.00293h18c11.333 0 25.666 0.166992 42.999 0.5s32.333 1.5 45 3.5l35 5l5 -9c-1.33301 -2.66699 -2.16602 -7.33398 -2.49902 -14.001s-0.833008 -14 -1.5 -22s-1.16699 -15.667 -1.5 -23s-0.5 -13.333 -0.5 -18c0 -6 -0.166992 -12.667 -0.5 -20
s-0.666016 -16.5 -0.999023 -27.5s-0.5 -24.5 -0.5 -40.5v-58v-236c0 -31.333 -2.83301 -61 -8.5 -89s-14 -53 -25 -75s-24.5 -40.833 -40.5 -56.5s-34.667 -26.5 -56 -32.5c-6.66699 -1.33301 -12.667 -2.16602 -18 -2.49902s-11.333 -0.5 -18 -0.5l-8 2l-2 19l4 5
c13.333 0 25.166 1.16699 35.499 3.5s20.5 9.16602 30.5 20.499c15.333 16 25.166 36.667 29.499 62s6.83301 54 7.5 86c0 4 0.166992 12.833 0.5 26.5s0.666016 29.667 0.999023 48s0.5 37.666 0.5 57.999s0.166992 39.666 0.5 57.999s0.5 34.333 0.5 48v27.5v33
c0 15.333 -0.166992 32 -0.5 50l-1 54c-0.333008 18 -0.833008 32.667 -1.5 44c-0.666992 7.33301 -2.5 14 -5.5 20s-5.5 10 -7.5 12c-6.66699 8 -15 12.833 -25 14.5s-20.333 2.5 -31 2.5l-4 4v14zM73.002 631.003c0 13.333 4.5 24.833 13.5 34.5s20.167 14.5 33.5 14.5
s24.833 -4.83301 34.5 -14.5s14.5 -21.167 14.5 -34.5s-4.83301 -24.5 -14.5 -33.5s-21.167 -13.5 -34.5 -13.5s-24.5 4.5 -33.5 13.5s-13.5 20.167 -13.5 33.5z" />
    <glyph glyph-name="k" unicode="k" 
d="M22 727l4.00684 4h18c11.333 0 25.666 0.166992 42.999 0.5s32.333 1.5 45 3.5l35 5l6 -9c-1.33301 -2.66699 -2.33301 -7.5 -3 -14.5s-1.33398 -14.5 -2.00098 -22.5s-1 -15.667 -1 -23v-17c0 -10.667 -0.166992 -20.667 -0.5 -30s-0.666016 -20.333 -0.999023 -33
s-0.666016 -28 -0.999023 -46s-0.5 -41 -0.5 -69v-238l119 110c1.33301 1.33301 4.5 4.33301 9.5 9l15.5 14.5l15.5 15l10.5 10.5c6 6.66699 9 12.667 9 18c0 8 -5.16699 13.667 -15.5 17s-20.5 5.66602 -30.5 6.99902l-4 4v12l4 4l38 -4c12.667 -1.33301 25.667 -2 39 -2
h28c12.667 0 25.5 0.666992 38.5 2l39.5 4l3 -4v-14l-5 -5c-6.66699 -1.33301 -14.667 -2.83301 -24 -4.5s-17.666 -4.83398 -24.999 -9.50098c-10 -6 -20.5 -13.167 -31.5 -21.5s-22 -17.166 -33 -26.499l-32 -28c-10.333 -9.33301 -19.833 -18.333 -28.5 -27l-41 -38
c3.33301 -4.66699 7.66602 -11.167 12.999 -19.5s13.333 -18.833 24 -31.5l89 -110l27.5 -34.5c9 -11.667 18.667 -22.334 29 -32.001s21.5 -17.834 33.5 -24.501s25.667 -10.334 41 -11.001l3 -4l2 -14l-2 -4c-11.333 -1.33301 -24 -2.16602 -38 -2.49902
s-28 -0.5 -42 -0.5c-18.667 0 -36.334 8.33301 -53.001 25l-19 19c-10.667 10.667 -21.667 22.667 -33 36l-80 103c-11.333 15.333 -20.333 26.833 -27 34.5s-13.667 15.167 -21 22.5c-14.667 -13.333 -24.834 -23.166 -30.501 -29.499s-10.834 -11.833 -15.501 -16.5
c0 -13.333 0.166992 -24.666 0.5 -33.999s0.666016 -18 0.999023 -26l1 -23.5c0.333008 -7.66699 0.833008 -16.167 1.5 -25.5c0.666992 -14 2 -24.5 4 -31.5s5.66699 -12.833 11 -17.5s12.833 -7.66699 22.5 -9s19.5 -2 29.5 -2l5 -5l2 -13l-2 -4
c-4.66699 0 -11.667 0.333008 -21 1s-19.333 1.16699 -30 1.5s-20.667 0.666016 -30 0.999023s-16.333 0.5 -21 0.5h-14c-4.66699 0 -11.834 -0.166992 -21.501 -0.5l-30 -1c-10.333 -0.333008 -20.333 -0.833008 -30 -1.5s-16.834 -1 -21.501 -1l-1 4l1 14l4 4
c10.667 0 21.167 0.5 31.5 1.5s18.166 4.16699 23.499 9.5c5.33301 4.66699 8.83301 10.667 10.5 18s3.16699 17.666 4.5 30.999c0.666992 8.66699 1.16699 17.334 1.5 26.001s0.666016 18.834 0.999023 30.501s0.5 25.334 0.5 41.001v58.5v240v69.5
c0 19 -0.166992 35.5 -0.5 49.5s-0.666016 26.333 -0.999023 37s-0.833008 21.334 -1.5 32.001c-0.666992 7.33301 -2.5 13.666 -5.5 18.999s-5.5 9.33301 -7.5 12c-6.66699 7.33301 -15 12 -25 14s-20.333 3 -31 3l-4 4v13z" />
    <glyph glyph-name="l" unicode="l" horiz-adv-x="270" 
d="M26 727l4.00586 3.99902h18c11.333 0 25.666 0.166992 42.999 0.5s32.333 1.5 45 3.5l36 5l6 -9c-1.33301 -2.66699 -2.33301 -7.5 -3 -14.5s-1.33398 -14.5 -2.00098 -22.5s-1.16699 -15.667 -1.5 -23s-0.5 -13 -0.5 -17c-0.666992 -10.667 -1.16699 -20.667 -1.5 -30
s-0.666016 -20.333 -0.999023 -33s-0.5 -28 -0.5 -46v-69v-218c0 -28 0.166992 -51 0.5 -69s0.666016 -33.333 0.999023 -46s0.666016 -23.667 0.999023 -33s0.833008 -20 1.5 -32c1.33301 -14 2.83301 -24.5 4.5 -31.5s5.16699 -12.833 10.5 -17.5s12.833 -7.66699 22.5 -9
s19.5 -2 29.5 -2l5 -5l2 -13l-2 -4c-4.66699 0 -11.667 0.333008 -21 1s-19.333 1.16699 -30 1.5s-20.667 0.666016 -30 0.999023s-16.333 0.5 -21 0.5h-14c-4.66699 0 -11.834 -0.166992 -21.501 -0.5l-30 -1c-10.333 -0.333008 -20.333 -0.833008 -30 -1.5
s-16.834 -1 -21.501 -1l-1 4l1 14l4 4c10.667 0 21.167 0.5 31.5 1.5s18.166 4.16699 23.499 9.5c5.33301 4.66699 8.83301 10.667 10.5 18s3.16699 17.666 4.5 30.999c0.666992 8.66699 1.16699 17.334 1.5 26.001s0.666016 18.834 0.999023 30.501s0.5 25.334 0.5 41.001
v58.5v240v69.5c0 19 -0.166992 35.5 -0.5 49.5s-0.666016 26.333 -0.999023 37s-0.833008 21.334 -1.5 32.001c-0.666992 7.33301 -2.5 13.666 -5.5 18.999s-5.5 9.33301 -7.5 12c-6.66699 7.33301 -15 12 -25 14s-20.333 3 -31 3l-4 4v13z" />
    <glyph glyph-name="m" unicode="m" horiz-adv-x="924" 
d="M34 452l4.01367 3.00684h18c11.333 0 25.666 0.166992 42.999 0.5s32.333 1.5 45 3.5l35 5l6 -9c-1.33301 -4 -2.5 -9.16699 -3.5 -15.5s-2 -13.333 -3 -21s-1.83301 -15.167 -2.5 -22.5s-1 -13.666 -1 -18.999l3 -2c7.33301 13.333 15.833 26.166 25.5 38.499
s20.834 23 33.501 32s27 16.167 43 21.5s34.333 8 55 8c17.333 0 34.333 -2.16699 51 -6.5s32.167 -11 46.5 -20s27 -20.667 38 -35s19.5 -31.5 25.5 -51.5c8 14.667 16.833 28.834 26.5 42.501s21 25.667 34 36s28 18.666 45 24.999s36.5 9.5 58.5 9.5
c19.333 0 38.166 -2.66699 56.499 -8s35 -13.666 50 -24.999s28 -25.666 39 -42.999s18.5 -38.333 22.5 -63c3.33301 -17.333 5.16602 -35.666 5.49902 -54.999s0.5 -38.666 0.5 -57.999v-145c0 -15.333 1.33301 -26.5 4 -33.5s6.33398 -12.167 11.001 -15.5
c5.33301 -5.33301 13.166 -8.5 23.499 -9.5s20.833 -1.5 31.5 -1.5l4 -4l2 -14l-2 -4c-12 1.33301 -24.833 2.33301 -38.5 3s-27.5 1 -41.5 1c-24.667 0 -47.334 -1 -68.001 -3l-7 10c2.66699 8.66699 4.66699 20 6 34s2.33301 26.333 3 37
c0.666992 10 1.16699 22.333 1.5 37l1 44.5c0.333008 15 0.5 29.167 0.5 42.5v31c0 13.333 -0.5 30.166 -1.5 50.499s-3.16699 37.5 -6.5 51.5c-6.66699 27.333 -20.167 48 -40.5 62s-43.166 21 -68.499 21c-18.667 0 -35.834 -3.5 -51.501 -10.5s-29.5 -15.667 -41.5 -26
s-22.167 -21.833 -30.5 -34.5s-14.5 -24.667 -18.5 -36c1.33301 -14.667 2.16602 -29.334 2.49902 -44.001s0.5 -29.334 0.5 -44.001v-145c0 -14 1.33301 -24.5 4 -31.5s6.66699 -12.833 12 -17.5s12.833 -7.66699 22.5 -9s19.5 -2 29.5 -2l5 -5l2 -13l-2 -4
c-4.66699 0 -11.667 0.333008 -21 1s-19.333 1.16699 -30 1.5s-20.667 0.666016 -30 0.999023s-16.333 0.5 -21 0.5h-14c-4.66699 0 -11.834 -0.166992 -21.501 -0.5l-30 -1c-10.333 -0.333008 -20.333 -0.833008 -30 -1.5s-16.834 -1 -21.501 -1l-2 4l2 14l4 4
c10.667 0 21.167 0.5 31.5 1.5s18.166 4.16699 23.499 9.5c5.33301 4.66699 8.66602 10.667 9.99902 18s2.66602 17.666 3.99902 30.999c0.666992 10 1.16699 22.333 1.5 37l1 44.5c0.333008 15 0.666016 29.167 0.999023 42.5s0.5 23.666 0.5 30.999v23.5
c0 9 -0.333008 18.167 -1 27.5s-1.5 18.333 -2.5 27s-2.5 16.667 -4.5 24c-7.33301 27.333 -21 48 -41 62s-42.667 21 -68 21c-22 0 -42 -4.83301 -60 -14.5s-33.5 -21.334 -46.5 -35.001s-23 -28 -30 -43s-10.5 -27.833 -10.5 -38.5v-112
c0 -14.667 0.166992 -26.667 0.5 -36s0.666016 -17.333 0.999023 -24s0.666016 -12.834 0.999023 -18.501s0.833008 -11.834 1.5 -18.501c1.33301 -14 2.83301 -24.5 4.5 -31.5s5.16699 -12.833 10.5 -17.5s12.833 -7.66699 22.5 -9s19.5 -2 29.5 -2l5 -5l2 -13l-2 -4
c-4.66699 0 -11.667 0.333008 -21 1s-19.333 1.16699 -30 1.5s-20.667 0.666016 -30 0.999023s-16.333 0.5 -21 0.5h-14c-4.66699 0 -11.834 -0.166992 -21.501 -0.5l-30 -1c-10.333 -0.333008 -20.333 -0.833008 -30 -1.5s-16.834 -1 -21.501 -1l-1 4l1 14l4 4
c10.667 0 21.167 0.5 31.5 1.5s18.166 4.16699 23.499 9.5c5.33301 4.66699 8.83301 10.667 10.5 18s3.16699 17.666 4.5 30.999l2 32.5c0.666992 11 1 28.5 1 52.5v123v35.5c0 9.66699 -0.166992 18.167 -0.5 25.5s-0.666016 14 -0.999023 20s-0.833008 12.333 -1.5 19
c-1.33301 7.33301 -3.33301 13.833 -6 19.5s-5 9.5 -7 11.5c-6.66699 8 -15 12.833 -25 14.5s-20.333 2.5 -31 2.5l-4 4v14z" />
    <glyph glyph-name="n" unicode="n" horiz-adv-x="609" 
d="M178 374c17.333 28.667 39.668 52.6689 67.001 72.002s61.333 29 102 29c18.667 0 37.334 -2.66699 56.001 -8s35.834 -13.666 51.501 -24.999s28.667 -25.833 39 -43.5s17.166 -38.5 20.499 -62.5c2 -17.333 3.16699 -35.666 3.5 -54.999s0.5 -38.666 0.5 -57.999
c0 -24 0.166992 -48.167 0.5 -72.5s0.5 -48.5 0.5 -72.5c1.33301 -15.333 3 -26.5 5 -33.5s5 -12.167 9 -15.5c6 -5.33301 14.167 -8.5 24.5 -9.5s20.833 -1.5 31.5 -1.5l3 -4l2 -14l-2 -4c-11.333 1.33301 -24 2.33301 -38 3s-27.667 1 -41 1c-25.333 0 -48.333 -1 -69 -3
l-7 10c2.66699 8.66699 4.66699 20 6 34s2.33301 26.333 3 37c1.33301 28 2.33301 55.5 3 82.5s1 49.5 1 67.5c0 15.333 -0.5 32 -1.5 50s-3.16699 33.667 -6.5 47c-6.66699 31.333 -20.334 54.666 -41.001 69.999s-44.667 23 -72 23c-22 0 -42.5 -4.66699 -61.5 -14
s-35.167 -20.833 -48.5 -34.5s-23.833 -28 -31.5 -43s-11.5 -27.833 -11.5 -38.5v-113v-36c0 -9.33301 0.166992 -17.333 0.5 -24s0.833008 -12.834 1.5 -18.501s1.33398 -11.834 2.00098 -18.501c1.33301 -14 2.83301 -24.5 4.5 -31.5s5.16699 -12.833 10.5 -17.5
s12.833 -7.66699 22.5 -9s19.5 -2 29.5 -2l5 -5l2 -13l-2 -4c-4.66699 0 -11.667 0.333008 -21 1s-19.333 1.16699 -30 1.5s-20.667 0.666016 -30 0.999023s-16.333 0.5 -21 0.5h-14c-4.66699 0 -11.834 -0.166992 -21.501 -0.5l-30 -1
c-10.333 -0.333008 -20.333 -0.833008 -30 -1.5s-16.834 -1 -21.501 -1l-1 4l1 14l4 4c10.667 0 21.167 0.5 31.5 1.5s18.166 4.16699 23.499 9.5c5.33301 4.66699 8.83301 10.667 10.5 18s3.16699 17.666 4.5 30.999l2 32.5c0.666992 11 1 28.5 1 52.5v123v35.5
c0 9.66699 -0.166992 18.167 -0.5 25.5s-0.666016 14 -0.999023 20s-0.833008 12.333 -1.5 19c-1.33301 7.33301 -3.33301 13.833 -6 19.5s-5 9.5 -7 11.5c-6.66699 8 -15 12.833 -25 14.5s-20.333 2.5 -31 2.5l-4 4v14l4 3h18c11.333 0 25.666 0.166992 42.999 0.5
s32.333 1.5 45 3.5l35 5l6 -9c-3.33301 -8.66699 -5.66602 -20.5 -6.99902 -35.5s-2.33301 -29.5 -3 -43.5z" />
    <glyph glyph-name="o" unicode="o" horiz-adv-x="583" 
d="M291 475c39.333 0 74.334 -6.83105 105.001 -20.498s56.5 -32 77.5 -55s37 -49.5 48 -79.5s16.5 -61 16.5 -93c0 -30.667 -5 -60.334 -15 -89.001s-25.333 -54 -46 -76s-46.334 -39.667 -77.001 -53s-66.334 -20 -107.001 -20c-42 0 -78.667 7 -110 21
s-57.166 32.333 -77.499 55s-35.5 48.5 -45.5 77.5s-15 58.833 -15 89.5c0 32.667 5.66699 63.667 17 93s27.5 55.166 48.5 77.499s46.667 40 77 53s64.833 19.5 103.5 19.5zM292.001 28.002c28 0 52.6689 5.66602 74.002 16.999s39 26.333 53 45s24.5 39.834 31.5 63.501
s10.5 48.167 10.5 73.5c0 24 -3.83301 48.333 -11.5 73s-18.834 46.834 -33.501 66.501s-32.667 35.667 -54 48s-46 18.5 -74 18.5c-29.333 0 -54.5 -5.83301 -75.5 -17.5s-38.333 -26.834 -52 -45.501s-23.834 -40 -30.501 -64s-10 -48 -10 -72
c0 -24.667 3.83301 -49.167 11.5 -73.5s18.834 -46.333 33.501 -66s32.667 -35.667 54 -48s45.666 -18.5 72.999 -18.5z" />
    <glyph glyph-name="p" unicode="p" horiz-adv-x="598" 
d="M168 384c19.333 27.333 42.8379 49.3389 70.5049 66.0059s58.5 25 92.5 25c38 0 70.833 -6.66699 98.5 -20s50.5 -31 68.5 -53s31.333 -47.167 40 -75.5s13 -57.833 13 -88.5c0 -45.333 -7 -83.833 -21 -115.5s-31.833 -57.334 -53.5 -77.001s-45.334 -34 -71.001 -43
s-50.167 -13.5 -73.5 -13.5c-32 0 -62.667 7.5 -92 22.5s-54.333 39.5 -75 73.5l-3 -2c0.666992 -9.33301 1.33398 -20.333 2.00098 -33s1 -31 1 -55v-66.5c0 -17 0.166992 -31.5 0.5 -43.5s0.666016 -22.833 0.999023 -32.5s1.16602 -20.167 2.49902 -31.5
c1.33301 -13.333 2.83301 -23.666 4.5 -30.999s5.16699 -13 10.5 -17c5.33301 -5.33301 12.833 -8.66602 22.5 -9.99902s19.5 -2 29.5 -2l5 -4l2 -14l-2 -3c-4.66699 0 -11.667 0.166992 -21 0.5s-19.333 0.666016 -30 0.999023s-20.667 0.666016 -30 0.999023
s-16.333 0.5 -21 0.5h-14c-4.66699 0 -11.834 -0.166992 -21.501 -0.5l-30 -1l-30 -1c-9.66699 -0.333008 -16.834 -0.5 -21.501 -0.5l-1 3l1 15l4 3c10.667 0 21 0.666992 31 2s18 4.66602 24 9.99902c5.33301 4.66699 8.83301 10.5 10.5 17.5s3.16699 17.167 4.5 30.5
c0.666992 8.66699 1.16699 17.167 1.5 25.5s0.666016 18.166 0.999023 29.499s0.5 24.666 0.5 39.999v56v233v67c0 18 -0.166992 33.667 -0.5 47s-0.666016 25.166 -0.999023 35.499s-0.833008 20.833 -1.5 31.5c-0.666992 7.33301 -2.5 13.833 -5.5 19.5
s-5.5 9.5 -7.5 11.5c-6.66699 8 -15 12.833 -25 14.5s-20.333 2.5 -31 2.5l-4 4v14l4 3h18c11.333 0 25.666 0.166992 42.999 0.5s32.333 1.5 45 3.5l35 5l6 -9c-1.33301 -2.66699 -2.5 -6.83398 -3.5 -12.501s-2 -12 -3 -19s-1.66699 -14 -2 -21s-0.5 -12.833 -0.5 -17.5z
M475.005 236.006c0 22.667 -2.99902 45.001 -8.99902 67.001s-15.167 41.5 -27.5 58.5s-27.833 30.667 -46.5 41s-40.667 15.5 -66 15.5s-47.666 -4.66699 -66.999 -14s-35.833 -20.833 -49.5 -34.5s-24.334 -27.834 -32.001 -42.501s-11.834 -27.334 -12.501 -38.001v-110
c2 -10.667 6.33301 -23.667 13 -39s16.5 -30.166 29.5 -44.499s29.167 -26.5 48.5 -36.5s42 -15 68 -15s48.5 5.5 67.5 16.5s34.667 25.5 47 43.5s21.5 38.5 27.5 61.5s9 46.5 9 70.5z" />
    <glyph glyph-name="q" unicode="q" horiz-adv-x="597" 
d="M433 388c0 4.66699 -0.320312 10.3369 -0.987305 17.0039l-2 20c-0.666992 6.66699 -1.66699 12.667 -3 18l-3 12l6 9l35 -5c12 -2 26.667 -3.16699 44 -3.5s31.666 -0.5 42.999 -0.5h18l4 -3v-14l-4 -4c-10.667 0 -20.834 -0.833008 -30.501 -2.5
s-18.167 -6.5 -25.5 -14.5c-2 -2 -4.33301 -5.83301 -7 -11.5s-4.33398 -12.167 -5.00098 -19.5c-0.666992 -12 -1.33398 -23 -2.00098 -33s-1.16699 -21.333 -1.5 -34s-0.5 -27.834 -0.5 -45.501v-67.5v-211c0 -27.333 0.166992 -49.5 0.5 -66.5
s0.666016 -31.5 0.999023 -43.5s0.666016 -22.833 0.999023 -32.5s0.833008 -20.167 1.5 -31.5c1.33301 -13.333 2.83301 -23.666 4.5 -30.999s5.16699 -13 10.5 -17c5.33301 -5.33301 12.833 -8.66602 22.5 -9.99902s19.5 -2 29.5 -2l5 -4l2 -14l-2 -3
c-4.66699 0 -11.667 0.166992 -21 0.5s-19.333 0.666016 -30 0.999023s-20.667 0.666016 -30 0.999023s-16.333 0.5 -21 0.5h-14c-4.66699 0 -11.834 -0.166992 -21.501 -0.5l-30 -1l-30 -1c-9.66699 -0.333008 -16.834 -0.5 -21.501 -0.5l-1 3l1 15l4 3
c10.667 0 21.167 0.666992 31.5 2s18.166 4.66602 23.499 9.99902c5.33301 4 8.83301 9.66699 10.5 17s3.16699 17.666 4.5 30.999c0.666992 8.66699 1.16699 17.167 1.5 25.5s0.666016 18.166 0.999023 29.499s0.5 24.666 0.5 39.999v56v38.5
c0 11 0.166992 20.833 0.5 29.5s0.666016 16.5 0.999023 23.5s0.833008 14.167 1.5 21.5l-3 2c-19.333 -29.333 -42.833 -53 -70.5 -71s-59.5 -27 -95.5 -27c-38 0 -70.833 6.66699 -98.5 20s-50.334 31 -68.001 53s-30.834 47.167 -39.501 75.5s-13 57.833 -13 88.5
c0 45.333 7 83.833 21 115.5s31.667 57.334 53 77.001s44.833 34 70.5 43s50.167 13.5 73.5 13.5c31.333 0 61.333 -6.83301 90 -20.5s53.667 -36.5 75 -68.5zM123.013 228.003c0 -22.667 2.99805 -45.001 8.99805 -67.001s15 -41.5 27 -58.5s27.333 -30.667 46 -41
s41 -15.5 67 -15.5c24.667 0 46.834 4.66699 66.501 14s36.334 20.833 50.001 34.5s24.167 27.834 31.5 42.501s11.333 27.334 12 38.001v110c-1.33301 10.667 -5.5 23.667 -12.5 39s-17 30.166 -30 44.499s-29 26.5 -48 36.5s-41.5 15 -67.5 15
c-26.667 0 -49.5 -5.5 -68.5 -16.5s-34.667 -25.5 -47 -43.5s-21.333 -38.5 -27 -61.5s-8.5 -46.5 -8.5 -70.5z" />
    <glyph glyph-name="r" unicode="r" horiz-adv-x="408" 
d="M177 354c6.66699 12.667 14.1719 25.999 22.5049 39.999s17.833 27 28.5 39s22.834 22 36.501 30s29.167 12 46.5 12c12 0 25.5 -1.83301 40.5 -5.5s25.167 -8.5 30.5 -14.5l8 -9l-12 -77h-33c-2 9.33301 -7.16699 17.833 -15.5 25.5s-21.166 11.5 -38.499 11.5
c-16.667 0 -32 -4.83301 -46 -14.5s-26.167 -21.834 -36.5 -36.501s-18.333 -30.167 -24 -46.5s-8.5 -31.166 -8.5 -44.499v-89c0 -14.667 0.166992 -26.5 0.5 -35.5s0.666016 -16.667 0.999023 -23s0.666016 -11.666 0.999023 -15.999s0.5 -8.83301 0.5 -13.5l1 -9
c1.33301 -10 2.83301 -19.5 4.5 -28.5s5.16699 -15.833 10.5 -20.5c3.33301 -2.66699 8.16602 -4.66699 14.499 -6s13 -2.33301 20 -3s13.833 -1.16699 20.5 -1.5s12 -0.5 16 -0.5l5 -5l2 -13l-2 -4c-4.66699 0 -12.167 0.333008 -22.5 1s-21.166 1.16699 -32.499 1.5
l-32.5 1c-10.333 0.333008 -17.833 0.5 -22.5 0.5h-24c-4.66699 -0 -11.834 -0.166992 -21.501 -0.5s-19.834 -0.666016 -30.501 -0.999023s-20.834 -0.833008 -30.501 -1.5s-16.834 -1 -21.501 -1l-1 4l1 14l4 4c10.667 0 21.167 0.5 31.5 1.5s18.166 4.16699 23.499 9.5
c5.33301 4.66699 8.83301 10.667 10.5 18s3.16699 17.666 4.5 30.999l1 9c0.666992 6.66699 1.16699 15 1.5 25s0.5 27 0.5 51v123v35.5c0 9.66699 -0.166992 18.167 -0.5 25.5s-0.666016 14 -0.999023 20s-0.833008 12.333 -1.5 19
c-1.33301 7.33301 -3.33301 13.833 -6 19.5s-5 9.5 -7 11.5c-6.66699 8 -15 12.833 -25 14.5s-20.333 2.5 -31 2.5l-4 4v14l4 3h18c11.333 0 25.666 0.166992 42.999 0.5s32.333 1.5 45 3.5l35 5l6 -9c-4 -14 -6.83301 -30 -8.5 -48s-2.5 -35.333 -2.5 -52z" />
    <glyph glyph-name="s" unicode="s" horiz-adv-x="439" 
d="M270 265c28 -6 50.499 -14.166 67.499 -24.499s30.167 -21.5 39.5 -33.5s15.5 -24.167 18.5 -36.5s4.5 -23.833 4.5 -34.5c0 -21.333 -4.33301 -41 -13 -59s-21.167 -33.5 -37.5 -46.5s-36.166 -23.167 -59.499 -30.5s-49.666 -11 -78.999 -11
c-32.667 0 -63.167 3.83301 -91.5 11.5s-50.833 15.834 -67.5 24.501l-2 9l15 103h23l3 -4c0 -32 10 -57.167 30 -75.5s49 -27.5 87 -27.5c22.667 0 41.667 2.66699 57 8s27.5 12.333 36.5 21s15.5 18 19.5 28s6 19.667 6 29c0 6 -0.333008 12.833 -1 20.5
s-3.33398 15.334 -8.00098 23.001s-11.667 15 -21 22s-22.666 12.833 -39.999 17.5l-96 24c-22 5.33301 -40 12.333 -54 21s-25 18.167 -33 28.5s-13.667 21.333 -17 33s-5 23.5 -5 35.5c0 22 4.33301 41.5 13 58.5s20.5 31 35.5 42s32.5 19.333 52.5 25s41.667 8.5 65 8.5
c31.333 0 60.166 -4 86.499 -12s46.833 -16 61.5 -24l3 -9l-11 -77h-21l-4 3c0 15.333 -4.16699 28.166 -12.5 38.499s-18.5 18.666 -30.5 24.999s-24.667 10.833 -38 13.5s-25 4 -35 4c-33.333 0 -57.333 -8.33301 -72 -25s-22 -35.334 -22 -56.001
c0 -15.333 5.16699 -29.833 15.5 -43.5s30.5 -24.167 60.5 -31.5z" />
    <glyph glyph-name="t" unicode="t" horiz-adv-x="326" 
d="M296 413l-130.002 0.00390625c0 -43.333 -0.166992 -83.333 -0.5 -120s-0.5 -68.834 -0.5 -96.501s-0.166992 -49.834 -0.5 -66.501s-0.5 -27 -0.5 -31c0 -26 5 -43.333 15 -52s21.667 -13 35 -13c11.333 0 24.5 2.16699 39.5 6.5s27.167 9.16602 36.5 14.499l9 -7
l-9 -28c-15.333 -10.667 -32.5 -18.5 -51.5 -23.5s-35.833 -7.5 -50.5 -7.5c-34 0 -58 9.33301 -72 28s-21 42.667 -21 72c0 6 0.333008 18.333 1 37s1.33398 42 2.00098 70s1.33398 60.333 2.00098 97s1 76.667 1 120h-72l-4 5v19l4 4l72 14
c0 23.333 -0.5 47.166 -1.5 71.499s-2.16699 48.166 -3.5 71.499l7 6l14 1c5.33301 0.666992 14 2 26 4s20.333 4.33301 25 7l9 -4c-2 -9.33301 -3.66699 -20.166 -5 -32.499s-2.5 -25.5 -3.5 -39.5s-1.66699 -28.333 -2 -43s-0.5 -28.667 -0.5 -42l130 6l5 -4v-39z" />
    <glyph glyph-name="u" unicode="u" horiz-adv-x="599" 
d="M429 86c-17.333 -28 -39.4951 -51.166 -66.4951 -69.499s-60.167 -27.5 -99.5 -27.5c-19.333 0 -37.833 2.16699 -55.5 6.5s-34 11.5 -49 21.5s-27.833 23.333 -38.5 40s-18.334 37.667 -23.001 63c-3.33301 17.333 -4.83301 35.5 -4.5 54.5
s0.166016 38.167 -0.500977 57.5c0 8.66699 -0.166992 20.5 -0.5 35.5s-0.5 30.333 -0.5 46v43.5v29c0 7.33301 -1.66699 13.833 -5 19.5s-6 9.83398 -8 12.501c-6.66699 7.33301 -15 11.833 -25 13.5s-20.333 2.5 -31 2.5l-3 4v14l3 3h18
c11.333 0 25.666 0.166992 42.999 0.5s32.333 1.5 45 3.5l35 5l6 -9c-1.33301 -2.66699 -2.33301 -7.5 -3 -14.5s-1.33398 -14.5 -2.00098 -22.5s-1 -15.667 -1 -23v-17c0 -11.333 -0.166992 -23.833 -0.5 -37.5l-1 -41.5l-0.999023 -40s-0.5 -23.334 -0.5 -32.001
c0 -14.667 0.5 -31.167 1.5 -49.5s3.16699 -34.166 6.5 -47.499c6.66699 -31.333 20.334 -54.666 41.001 -69.999s44.667 -23 72 -23c20.667 0 39.667 4.16699 57 12.5s32.5 18.5 45.5 30.5s23.667 24.833 32 38.5s13.833 26.167 16.5 37.5v130
c0 14 -0.166992 25.833 -0.5 35.5s-0.666016 18.167 -0.999023 25.5s-0.666016 14 -0.999023 20s-0.833008 12.333 -1.5 19c-1.33301 7.33301 -3.16602 13.833 -5.49902 19.5s-4.5 9.5 -6.5 11.5c-6.66699 8 -15 12.833 -25 14.5s-20.333 2.5 -31 2.5l-4 4v14l4 3h18
c11.333 0 25.666 0.166992 42.999 0.5s32 1.5 44 3.5l35 5l6 -9c-1.33301 -2.66699 -2.33301 -7.5 -3 -14.5s-1.33398 -14.5 -2.00098 -22.5s-1 -15.667 -1 -23v-17c0 -5.33301 -0.166992 -10.333 -0.5 -15s-0.5 -10.334 -0.5 -17.001s-0.166992 -14.5 -0.5 -23.5
s-0.5 -20.833 -0.5 -35.5v-112c0 -14.667 0.166992 -26.667 0.5 -36s0.666016 -17.333 0.999023 -24s0.666016 -12.834 0.999023 -18.501s0.5 -11.834 0.5 -18.501c1.33301 -15.333 3 -26.5 5 -33.5s5.33301 -12.167 10 -15.5c5.33301 -5.33301 13.166 -8.5 23.499 -9.5
s20.833 -1.5 31.5 -1.5l4 -4l2 -14l-2 -4c-12 1.33301 -25 2.33301 -39 3s-27.667 1 -41 1c-25.333 0 -48.333 -1 -69 -3l-6 10c2 8.66699 4.16699 20 6.5 34s4.16602 28.333 5.49902 43z" />
    <glyph glyph-name="v" unicode="v" horiz-adv-x="515" 
d="M230 -5l-10.001 5l-60 160c-2 6 -6.16699 17 -12.5 33l-21.5 53l-24.5 60.5l-22.5 55.5c-6.66699 16 -12.667 28.667 -18 38c-6.66699 10.667 -14.167 19 -22.5 25s-19.5 9.66699 -33.5 11l-6 5v14l4 4c11.333 -1.33301 23.333 -2.66602 36 -3.99902s24.334 -2 35.001 -2
h39c10.667 0 23.5 0.666992 38.5 2s29.167 2.66602 42.5 3.99902l4 -4v-12l-4 -4c-14.667 -1.33301 -26.834 -5.16602 -36.501 -11.499s-14.5 -15.5 -14.5 -27.5c0 -8 3.16699 -22.167 9.5 -42.5s13.5 -42 21.5 -65l23 -64c7.33301 -19.667 12.333 -32.834 15 -39.501
l49 -130l48 115l19 46c8 19.333 16 40 24 62s14.833 43.5 20.5 64.5s8.5 38.833 8.5 53.5s-5.33301 24.5 -16 29.5s-22.667 8.16699 -36 9.5l-4 4v12l4 4c26 -4 50.333 -6 73 -6h41c11.333 0 22.5 0.666992 33.5 2s22.833 2.66602 35.5 3.99902l4 -4v-14l-6 -5
c-11.333 -1.33301 -21.166 -4.66602 -29.499 -9.99902s-16.166 -14 -23.499 -26c-6 -10.667 -12.833 -24 -20.5 -40s-15.334 -33.333 -23.001 -52l-23 -57l-21 -54l-16 -43.5c-4.33301 -12.333 -7.5 -20.833 -9.5 -25.5l-51 -128z" />
    <glyph glyph-name="w" unicode="w" horiz-adv-x="819" 
d="M527 0l-117.998 303.997l-21.5 -56l-19.5 -52.5l-16 -42.5c-4.66699 -12 -8 -20.333 -10 -25l-51 -128l-61 -5l-10 5l-60 160c-2 5.33301 -6.16699 15.833 -12.5 31.5l-21.5 53.5l-24.5 61.5l-22.5 55.5c-6.66699 16 -12.667 28.667 -18 38
c-6.66699 10.667 -14.167 19 -22.5 25s-19.5 9.66699 -33.5 11l-6 5v14l4 4c11.333 -1.33301 23.333 -2.66602 36 -3.99902s24.334 -2 35.001 -2h39c10.667 0 23.5 0.666992 38.5 2s29.167 2.66602 42.5 3.99902l4 -4v-12l-4 -4
c-14.667 -1.33301 -26.834 -5.16602 -36.501 -11.499s-14.5 -15.5 -14.5 -27.5c0 -5.33301 1.5 -13.666 4.5 -24.999s6.83301 -24 11.5 -38l15 -44.5c5.33301 -15.667 10.666 -30.5 15.999 -44.5l14 -37c4 -10.667 6.66699 -18 8 -22l49 -130l48 115c4 10 9.5 23 16.5 39
s14 33.333 21 52s13.667 37.667 20 57s10.833 37 13.5 53c-3.33301 12.667 -8.5 25.167 -15.5 37.5s-20.833 20.166 -41.5 23.499l-6 5v14l4 4c11.333 -1.33301 21.833 -2.66602 31.5 -3.99902s19.834 -2 30.501 -2h39c22 0 45.667 2 71 6l4 -4v-12l-4 -4
c-29.333 -3.33301 -44 -16.333 -44 -39c0 -5.33301 1.5 -13.666 4.5 -24.999s6.83301 -24 11.5 -38l15 -44.5c5.33301 -15.667 10.666 -30.5 15.999 -44.5l14 -37c4 -10.667 6.66699 -18 8 -22l49 -130l48 115l19 46c8 19.333 16 40 24 62s14.833 43.5 20.5 64.5
s8.5 38.833 8.5 53.5s-5.33301 24.5 -16 29.5s-22.667 8.16699 -36 9.5l-4 4v12l4 4c26.667 -4 51 -6 73 -6h41c11.333 0 22.166 0.666992 32.499 2s22.166 2.66602 35.499 3.99902l3 -4v-14l-5 -5c-12 -1.33301 -22.167 -4.66602 -30.5 -9.99902s-16.166 -14 -23.499 -26
c-6.66699 -10.667 -13.667 -24 -21 -40s-14.833 -33.333 -22.5 -52l-22.5 -57l-20.5 -54l-16.5 -43.5c-4.66699 -12.333 -8 -20.833 -10 -25.5l-51 -128l-61 -5z" />
    <glyph glyph-name="x" unicode="x" 
d="M175 410c0 -2.66699 2.49707 -8.33594 7.49707 -17.0029s11.833 -19.334 20.5 -32.001l30 -43c11.333 -16 23.666 -32.333 36.999 -49c12.667 15.333 24.334 30.666 35.001 45.999l28 41.5c8 12.333 14.333 23 19 32s7 14.833 7 17.5c0 13.333 -2.66699 21.5 -8 24.5
s-15.666 5.83301 -30.999 8.5l-4 4v12l4 4c13.333 -2 24.5 -3.5 33.5 -4.5s19.167 -1.5 30.5 -1.5h41c11.333 0 22.5 0.666992 33.5 2s23.167 2.66602 36.5 3.99902l4 -4v-14l-6 -5c-10.667 -1.33301 -20.167 -3.16602 -28.5 -5.49902s-16 -5.66602 -23 -9.99902
s-13.667 -9.66602 -20 -15.999s-12.833 -14.5 -19.5 -24.5l-31.5 -43l-26 -35.5l-24 -32.5l-24.5 -35l46 -60.5l41 -53l29.5 -38c7.66699 -9.66699 12.167 -14.834 13.5 -15.501c9.33301 -12.667 19.833 -23.167 31.5 -31.5s28.167 -14.166 49.5 -17.499l6 -5v-14l-4 -4
c-11.333 1.33301 -24 2.66602 -38 3.99902s-26.333 2 -37 2h-39c-10.667 0 -23 -0.666992 -37 -2l-41 -4l-4 4v12l4 4c11.333 0.666992 21 3.33398 29 8.00098s12 9.66699 12 15c0 3.33301 -1.16699 8 -3.5 14s-7.33301 14.833 -15 26.5l-32 46.5l-53.5 74l-39.5 -49
l-35.5 -46c-10.667 -14 -19.167 -26 -25.5 -36s-9.5 -16.333 -9.5 -19c0 -11.333 4.16699 -19 12.5 -23s20.166 -7.33301 35.499 -10l4 -4v-12l-4 -4c-13.333 2 -24.333 3.16699 -33 3.5s-18.667 0.5 -30 0.5h-41c-11.333 0 -22.666 -0.333008 -33.999 -1
s-23.333 -1.66699 -36 -3l-4 4v14l6 5c10.667 2 19.5 4 26.5 6s13.5 4.83301 19.5 8.5s11.833 8.33398 17.5 14.001s12.167 13.167 19.5 22.5l50.5 66.5l71.5 99.5l-54.5 73.5l-69.5 90.5c-8 10 -17.167 18.167 -27.5 24.5s-23.166 10.166 -38.499 11.499l-6 5v14l4 4
c11.333 -1.33301 24 -2.66602 38 -3.99902s26.333 -2 37 -2h39c10.667 0 22.834 0.666992 36.501 2l40.5 4l4 -4v-12l-4 -4c-13.333 -1.33301 -24.833 -3.66602 -34.5 -6.99902s-14.5 -10.666 -14.5 -21.999z" />
    <glyph glyph-name="y" unicode="y" horiz-adv-x="514" 
d="M41 -229c9.33301 0 18.1689 0.333008 26.502 1s16.5 2.16699 24.5 4.5s15.833 6.16602 23.5 11.499s16.167 12.666 25.5 21.999c12.667 13.333 23.667 27.5 33 42.5s17 30.167 23 45.5l32 81l-69 181c-2.66699 6 -7.16699 17 -13.5 33l-21.5 53.5l-24.5 60.5l-21.5 55
c-6.66699 16 -12.667 28.667 -18 38c-6.66699 10.667 -14.167 19 -22.5 25s-19.5 9.66699 -33.5 11l-6 5v14l4 4c11.333 -1.33301 23.333 -2.66602 36 -3.99902s24.334 -2 35.001 -2h39c10.667 0 23.5 0.666992 38.5 2s29.167 2.66602 42.5 3.99902l4 -4v-12l-4 -4
c-14.667 -1.33301 -26.834 -5.16602 -36.501 -11.499s-14.5 -15.5 -14.5 -27.5c0 -8 3.16699 -22.167 9.5 -42.5s13.5 -42 21.5 -65l23 -64.5c7.33301 -20 12.333 -33 15 -39l50 -130l47 115l19 46c8 19.333 16 40 24 62s14.833 43.5 20.5 64.5s8.5 38.833 8.5 53.5
s-5.33301 24.5 -16 29.5s-22.667 8.16699 -36 9.5l-4 4v12l4 4c26 -4 50.333 -6 73 -6h41c11.333 0 22.166 0.666992 32.499 2s21.833 2.66602 34.5 3.99902l4 -4v-14l-5 -5c-12 -1.33301 -21.167 -4.66602 -27.5 -9.99902s-13.166 -14 -20.499 -26
c-6 -10.667 -12.833 -24 -20.5 -40s-15.334 -33.333 -23.001 -52l-23 -57l-21 -54l-16 -43.5c-4.33301 -12.333 -7.5 -20.833 -9.5 -25.5l-98 -244c-17.333 -43.333 -40.833 -75.5 -70.5 -96.5s-61.834 -35.833 -96.501 -44.5
c-6.66699 -1.33301 -12.667 -2.16602 -18 -2.49902s-11.333 -0.5 -18 -0.5l-8 2l-2 24z" />
    <glyph glyph-name="z" unicode="z" horiz-adv-x="488" 
d="M50 350l7.99902 105.003l3 6c29.333 -1.33301 58.5 -2.5 87.5 -3.5s55.667 -1.66699 80 -2s45.333 -0.5 63 -0.5h35.5h45c6 0 15.167 0.5 27.5 1.5s22.5 2.5 30.5 4.5l6 -8l-3 -16c-8.66699 -8.66699 -19.834 -21.834 -33.501 -39.501l-45 -61l-51.5 -74l-51.5 -78.5
l-46 -74.5c-14.333 -23.667 -25.833 -44.167 -34.5 -61.5l4 -4h51c40 0 71.5 0.666992 94.5 2s40.833 4.5 53.5 9.5s22 12.667 28 23s12.333 24.5 19 42.5l3 4h22l-16 -119l-5 -10c-2 0 -8.83301 0.166992 -20.5 0.5s-25.834 0.5 -42.501 0.5s-34.834 0.333008 -54.501 1
s-38.167 1 -55.5 1s-32.666 0.166992 -45.999 0.5s-22 0.5 -26 0.5h-32c-5.33301 0 -12.5 -0.166992 -21.5 -0.5s-18.5 -0.666016 -28.5 -0.999023l-29 -1c-9.33301 -0.333008 -17 -0.833008 -23 -1.5l-7 8v14c9.33301 9.33301 21.5 23.333 36.5 42l48.5 63.5l53 76l51.5 80
c16.333 26.333 30.833 51.166 43.5 74.499s22.334 43.333 29.001 60l-4 4h-95c-26 0 -46.667 -1.16699 -62 -3.5s-27.166 -6.33301 -35.499 -12s-14.166 -12.834 -17.499 -21.501s-6.33301 -19.334 -9 -32.001l-4 -4h-17z" />
    <glyph glyph-name="braceleft" unicode="{" horiz-adv-x="254" 
d="M227 749c-17.333 -2 -30.835 -6.16699 -40.502 -12.5s-17.167 -14.5 -22.5 -24.5s-8.66602 -21.5 -9.99902 -34.5s-2 -26.5 -2 -40.5c0 -6 0.166992 -15.333 0.5 -28s0.5 -26 0.5 -40s0.166992 -27.833 0.5 -41.5s0.5 -24.834 0.5 -33.501
c0 -20.667 -1.5 -40.167 -4.5 -58.5s-8 -34.833 -15 -49.5s-16.5 -27.167 -28.5 -37.5s-27.333 -17.5 -46 -21.5c18.667 -4 34 -11.167 46 -21.5s21.5 -22.833 28.5 -37.5s12 -31.167 15 -49.5s4.5 -37.833 4.5 -58.5c0 -8.66699 -0.166992 -19.834 -0.5 -33.501
s-0.5 -27.5 -0.5 -41.5s-0.166992 -27.333 -0.5 -40s-0.5 -22 -0.5 -28c0 -14 0.666992 -27.5 2 -40.5s4.66602 -24.5 9.99902 -34.5s12.833 -18.167 22.5 -24.5s23.167 -10.5 40.5 -12.5l-2 -11c-28.667 0 -51.834 3.5 -69.501 10.5s-31.167 16.667 -40.5 29
s-15.666 27.166 -18.999 44.499s-5 36.666 -5 57.999c0 7.33301 0.166992 17.333 0.5 30s0.5 26.167 0.5 40.5s0.166992 28.5 0.5 42.5s0.5 25.667 0.5 35c0 13.333 -0.5 27.833 -1.5 43.5s-3.66699 30.334 -8 44.001s-11.333 25.334 -21 35.001s-23.5 14.834 -41.5 15.501
v10c18 0.666992 31.833 6 41.5 16s16.834 22.167 21.501 36.5s7.33398 29.5 8.00098 45.5s1 30.333 1 43c0 10 -0.166992 21.833 -0.5 35.5s-0.5 27.5 -0.5 41.5s-0.166992 27 -0.5 39s-0.5 21.667 -0.5 29c0 20.667 1.66699 39.834 5 57.501s9.66602 32.667 18.999 45
s22.833 22 40.5 29s40.834 10.5 69.501 10.5z" />
    <glyph glyph-name="bar" unicode="|" horiz-adv-x="237" 
d="M79 -110c5.33301 44.667 8.66797 93.834 10.001 147.501s2 105.167 2 154.5v308v57.5c0 21.667 -0.5 44.5 -1.5 68.5s-2.33301 47.833 -4 71.5s-3.83398 45.834 -6.50098 66.501l1 4h76l2 -4c-3.33301 -20.667 -5.66602 -42.834 -6.99902 -66.501s-2.5 -47.5 -3.5 -71.5
s-1.5 -46.833 -1.5 -68.5v-57.5v-308c0 -49.333 0.666992 -100.833 2 -154.5s4.66602 -102.834 9.99902 -147.501l-2 -4h-76z" />
    <glyph glyph-name="braceright" unicode="}" horiz-adv-x="253" 
d="M28 760c28.667 0 51.834 -3.5 69.501 -10.5s31.167 -16.667 40.5 -29s15.666 -27.333 18.999 -45s5 -36.834 5 -57.501v-29c0 -12 -0.166992 -25 -0.5 -39s-0.5 -27.833 -0.5 -41.5v-35.5c0 -12.667 0.333008 -27 1 -43s3.33398 -31.167 8.00098 -45.5
s11.667 -26.5 21 -36.5s23 -15.333 41 -16v-10c-18 -0.666992 -31.667 -5.83398 -41 -15.501s-16.333 -21.334 -21 -35.001s-7.33398 -28.334 -8.00098 -44.001s-1 -30.167 -1 -43.5v-35c0 -14 0.166992 -28.167 0.5 -42.5s0.5 -27.833 0.5 -40.5v-30
c0 -21.333 -1.66699 -40.666 -5 -57.999s-9.66602 -32.166 -18.999 -44.499s-22.833 -22 -40.5 -29s-40.834 -10.5 -69.501 -10.5l-2 11c16.667 2 30.167 6.16699 40.5 12.5s18 14.5 23 24.5s8.33301 21.5 10 34.5s2.5 26.5 2.5 40.5c0 6 -0.166992 15.333 -0.5 28
s-0.5 26 -0.5 40s-0.166992 27.833 -0.5 41.5s-0.5 24.834 -0.5 33.501c0 20.667 1.5 40.167 4.5 58.5s8 34.833 15 49.5s16.5 27.167 28.5 37.5s27.333 17.5 46 21.5c-18.667 4 -34 11.167 -46 21.5s-21.5 22.833 -28.5 37.5s-12 31.167 -15 49.5s-4.5 37.833 -4.5 58.5
c0 8.66699 0.166992 19.834 0.5 33.501s0.5 27.5 0.5 41.5s0.166992 27.333 0.5 40s0.5 22 0.5 28c0 14 -0.833008 27.5 -2.5 40.5s-5 24.5 -10 34.5s-12.667 18.167 -23 24.5s-23.833 10.5 -40.5 12.5z" />
    <glyph glyph-name="asciitilde" unicode="~" horiz-adv-x="479" 
d="M413 288c0 -2 -1.66406 -7.16895 -4.99707 -15.502s-8.5 -17 -15.5 -26s-16 -17.167 -27 -24.5s-24.5 -11 -40.5 -11c-7.33301 0 -19.333 0.5 -36 1.5s-34.834 2 -54.501 3l-57 3c-18.333 1 -32.833 1.5 -43.5 1.5c-16.667 0 -28.334 -2.16699 -35.001 -6.5
s-13.334 -10.5 -20.001 -18.5l-13 7c0 4.66699 2 11.334 6 20.001s10 17.334 18 26.001s17.667 16 29 22s24 9 38 9c8.66699 0 20.167 -0.5 34.5 -1.5s29.666 -2 45.999 -3l50.5 -3c17.333 -1 33.333 -1.5 48 -1.5c11.333 0 22.833 1.33301 34.5 4s21.834 10 30.501 22z" />
    <glyph glyph-name="uni00A0" unicode="&#xa0;" horiz-adv-x="240" 
 />
    <glyph glyph-name="exclamdown" unicode="&#xa1;" horiz-adv-x="225" 
d="M65 429c0 12.667 4.5 23.5 13.5 32.5s20.167 13.5 33.5 13.5c12 0 22.833 -4.5 32.5 -13.5s14.5 -19.833 14.5 -32.5s-4.83301 -23.834 -14.5 -33.501s-20.5 -14.5 -32.5 -14.5c-13.333 0 -24.5 4.83301 -33.5 14.5s-13.5 20.834 -13.5 33.501zM153 -222l-82 25.998l-4 9
c0.666992 6.66699 1.33398 14.5 2.00098 23.5s1.66699 21 3 36s2.66602 34 3.99902 57s2.66602 51.667 3.99902 86s2.83301 75.666 4.5 123.999s3.16699 105.5 4.5 171.5l6 4l35 -17l5 -6c1.33301 -69.333 2.83301 -128.5 4.5 -177.5s3.33398 -90.167 5.00098 -123.5
s3.16699 -60.166 4.5 -80.499s2.5 -36.666 3.5 -48.999s1.83301 -22.166 2.5 -29.499l2 -22c0 -3.33301 0.166992 -7.5 0.5 -12.5s0.5 -10.5 0.5 -16.5z" />
    <glyph glyph-name="cent" unicode="&#xa2;" horiz-adv-x="515" 
d="M245 -133c2.66699 18 4.66895 37.5 6.00195 58.5l4 65.5c-28.667 2.66699 -55.834 9.5 -81.501 20.5s-48.167 25.667 -67.5 44s-34.666 40.666 -45.999 66.999s-17 56.166 -17 89.499c0 32.667 5.5 62 16.5 88s26.167 48.5 45.5 67.5s41.833 34.167 67.5 45.5
s53.167 18.666 82.5 21.999c-0.666992 25.333 -1.83398 50 -3.50098 74s-3.83398 45.333 -6.50098 64l2 4h76l2 -4c-3.33301 -18 -5.66602 -38.833 -6.99902 -62.5l-4 -73.5c30 -1.33301 57.5 -5.66602 82.5 -12.999s44.167 -14.666 57.5 -21.999l3 -9l-11 -77h-21l-4 3
c0 14 -3.5 25.5 -10.5 34.5s-15.833 16.167 -26.5 21.5s-22.334 9.33301 -35.001 12s-24.667 4.33398 -36 5.00098c-0.666992 -24 -1 -46.833 -1 -68.5v-52.5v-83v-71c0 -25.333 0.333008 -50.666 1 -75.999c28.667 0.666992 55.667 4.66699 81 12s47 15.666 65 24.999
l10 -10l-15 -28c-13.333 -9.33301 -32 -19 -56 -29s-51.667 -16.667 -83 -20l4 -65c1.33301 -21.333 3.33301 -41 6 -59l-2 -4h-76zM119.002 218c0 -44.667 11.333 -82.332 34 -112.999s56.667 -50.667 102 -60c0.666992 25.333 1.16699 50.166 1.5 74.499
s0.5 47.166 0.5 68.499v83v51.5c0 21 -0.333008 43.5 -1 67.5c-23.333 -4 -43.5 -11.167 -60.5 -21.5s-31.167 -23 -42.5 -38s-19.833 -32.167 -25.5 -51.5s-8.5 -39.666 -8.5 -60.999z" />
    <glyph glyph-name="sterling" unicode="&#xa3;" horiz-adv-x="531" 
d="M148 312c-3.33301 24 -6.49609 48.333 -9.49609 73s-4.5 48.667 -4.5 72c0 64 15.333 114.667 46 152s74.334 56 131.001 56c14 0 29 -1.66699 45 -5s31.5 -8.83301 46.5 -16.5s29 -18 42 -31s23.5 -28.833 31.5 -47.5l-13 -91h-27l-4 4
c-4 44.667 -14.167 78.167 -30.5 100.5s-42.5 33.5 -78.5 33.5c-21.333 0 -38.833 -3.66699 -52.5 -11s-24.834 -17.5 -33.501 -30.5s-14.667 -28.333 -18 -46s-5 -37.167 -5 -58.5s1.16699 -45.166 3.5 -71.499s4.16602 -53.833 5.49902 -82.5h149l-10 -42h-137v-11
c0 -23.333 -1.33301 -45.833 -4 -67.5s-7.16699 -41.834 -13.5 -60.501s-15.166 -35.167 -26.499 -49.5s-26 -25.5 -44 -33.5l2 -3c59.333 -4.66699 104.166 -8.5 134.499 -11.5s50.166 -4.5 59.499 -4.5c20 0 36 1.33301 48 4s21.5 6.66699 28.5 12s12.167 12.5 15.5 21.5
s7 19.833 11 32.5l5 6h27l-37 -139l-9 -10c-14.667 8 -36.334 15 -65.001 21s-60.5 10.667 -95.5 14s-70.833 5.83301 -107.5 7.5s-70.334 2.5 -101.001 2.5l-10 10v23c22 17.333 40.167 34.333 54.5 51s25.5 33.5 33.5 50.5s13.667 34 17 51s5 34.5 5 52.5v15.5
c0 5 -0.333008 10.167 -1 15.5h-102l20 42h78z" />
    <glyph glyph-name="currency" unicode="&#xa4;" horiz-adv-x="580" 
d="M136 107c-29.333 36 -44 77.0029 -44 123.003c0 21.333 3.33301 41.666 10 60.999s18.334 39.333 35.001 60l-82 80l30 30l80 -79c21.333 15.333 41.666 26.5 60.999 33.5s40.333 10.5 63 10.5c23.333 0 44.833 -3.5 64.5 -10.5s39.167 -18.167 58.5 -33.5l81 78l30 -29
l-79 -80c15.333 -20.667 26.5 -40.667 33.5 -60s10.5 -40.333 10.5 -63c0 -22 -3.33301 -42.667 -10 -62s-17.667 -39 -33 -59l80 -80l-31 -30l-81 79c-19.333 -14.667 -39 -25.834 -59 -33.501s-41 -11.5 -63 -11.5c-21.333 0 -41.833 3.66699 -61.5 11
s-40.5 18.666 -62.5 33.999l-80 -79l-29 30zM290 378.003c-20 0 -39.001 -3.83398 -57.001 -11.501s-33.833 -18.167 -47.5 -31.5s-24.334 -29.166 -32.001 -47.499s-11.5 -37.833 -11.5 -58.5s3.83301 -40 11.5 -58s18.334 -33.833 32.001 -47.5s29.5 -24.334 47.5 -32.001
s37.333 -11.5 58 -11.5s39.834 3.83301 57.501 11.5s33.167 18.334 46.5 32.001s23.833 29.5 31.5 47.5s11.5 37.333 11.5 58s-3.83301 40 -11.5 58s-18.167 33.667 -31.5 47s-29 24 -47 32s-37.333 12 -58 12z" />
    <glyph glyph-name="yen" unicode="&#xa5;" horiz-adv-x="702" 
d="M393 307c-2.66699 -5.33301 -4.99805 -12.3271 -6.99805 -20.9941s-3 -19.334 -3 -32.001h170v-44h-170v-47.5c0 -12.333 0.166992 -23 0.5 -32s0.666016 -16.833 0.999023 -23.5s0.833008 -13.334 1.5 -20.001c1.33301 -18.667 4.5 -31.667 9.5 -39
s10.167 -13.333 15.5 -18s12.833 -7.5 22.5 -8.5s19.834 -1.5 30.501 -1.5l5 -4l3 -18l-2 -4c-4.66699 0 -12.334 0.333008 -23.001 1l-33 2l-33 2c-10.667 0.666992 -18.334 1 -23.001 1h-19c-4.66699 0 -12.334 -0.333008 -23.001 -1l-33.5 -2l-33.5 -2
c-10.667 -0.666992 -18.334 -1 -23.001 -1l-1 4l2 18l5 4c10.667 0 20.834 0.5 30.501 1.5s17.167 3.83301 22.5 8.5s10.5 10.667 15.5 18s8.16699 20.333 9.5 39c0.666992 4.66699 1.16699 10.167 1.5 16.5s0.666016 14.166 0.999023 23.499s0.5 20.666 0.5 33.999v49h-170
v44h170c-0.666992 12.667 -2.16699 23 -4.5 31s-4.83301 15.333 -7.5 22h-158v44h133l-67.5 111.5l-72.5 114.5c-4.66699 7.33301 -10 14.5 -16 21.5s-11.333 12.5 -16 16.5c-7.33301 6 -16.166 10.333 -26.499 13s-22.166 4.66699 -35.499 6l-8 4v18l5 4l45 -5.5
c14 -1.66699 28.667 -2.5 44 -2.5h42c15.333 0 33.166 0.833008 53.499 2.5s39.833 3.5 58.5 5.5l4 -4v-18l-4 -4c-13.333 -0.666992 -25 -1.83398 -35 -3.50098s-18 -4.5 -24 -8.5c-8 -6 -12 -11.667 -12 -17c0 -3.33301 1.16699 -7.33301 3.5 -12s4.5 -8.66699 6.5 -12
l68 -125l70 -124l36.5 64.5l37.5 69l31.5 60.5c9 18 15.167 30.667 18.5 38c1.33301 3.33301 3.33301 8.66602 6 15.999s4 13.666 4 18.999c0 8 -2.33301 14 -7 18s-10.5 7 -17.5 9s-14.667 3.33301 -23 4s-16.166 2 -23.499 4l-4 4v18l4 4
c19.333 -3.33301 35.5 -5.16602 48.5 -5.49902s27.5 -0.5 43.5 -0.5h58c16 0 30.667 0.333008 44 1s29.333 2.33398 48 5.00098l4 -4v-18l-4 -4c-15.333 -2 -28.333 -4.66699 -39 -8s-20.5 -7.83301 -29.5 -13.5s-17.5 -13.167 -25.5 -22.5s-17 -21.333 -27 -36
c-31.333 -46.667 -56.5 -85.834 -75.5 -117.501l-49.5 -85.5h135v-44h-160z" />
    <glyph glyph-name="brokenbar" unicode="&#xa6;" horiz-adv-x="241" 
d="M81 384c2.66699 22 4.83008 41 6.49707 57s2.83398 30.833 3.50098 44.5s1.16699 27.167 1.5 40.5s0.5 28.666 0.5 45.999v33v29c0 10 -0.5 21.167 -1.5 33.5s-2.33301 26.333 -4 42s-3.83398 33.834 -6.50098 54.501l1 4h76l2 -4
c-3.33301 -20.667 -5.66602 -38.834 -6.99902 -54.501l-3.5 -42c-1 -12.333 -1.5 -23.5 -1.5 -33.5v-29v-33c0 -17.333 0.166992 -32.666 0.5 -45.999s0.833008 -26.833 1.5 -40.5s1.83398 -28.5 3.50098 -44.5s3.83398 -35 6.50098 -57l-2 -4h-76zM80.9961 -110
c2.66699 22 4.83008 41 6.49707 57s2.83398 30.833 3.50098 44.5s1.16699 27.167 1.5 40.5s0.5 28.666 0.5 45.999v32v29c0 10 -0.5 21.167 -1.5 33.5s-2.33301 26.5 -4 42.5s-3.83398 34.333 -6.50098 55l1 4h76l2 -4c-3.33301 -20.667 -5.66602 -39 -6.99902 -55
l-3.5 -42.5c-1 -12.333 -1.5 -23.5 -1.5 -33.5v-29v-32c0 -17.333 0.166992 -32.666 0.5 -45.999s0.833008 -26.833 1.5 -40.5s1.83398 -28.5 3.50098 -44.5s3.83398 -35 6.50098 -57l-2 -4h-76z" />
    <glyph glyph-name="section" unicode="&#xa7;" horiz-adv-x="422" 
d="M321 249c0 9.33301 -1.5 18 -4.5 26s-10.667 18.5 -23 31.5s-31.333 30.167 -57 51.5l-105.5 87c-13.333 -12.667 -22.333 -23.167 -27 -31.5s-7 -16.833 -7 -25.5c0 -7.33301 2.16699 -15.5 6.5 -24.5s13.333 -20.667 27 -35s33.167 -32.666 58.5 -54.999l101 -85.5
c13.333 10.667 21.833 20.167 25.5 28.5s5.5 19.166 5.5 32.499zM286 591c-8 18.667 -19.8389 32.833 -35.5059 42.5s-31.167 14.5 -46.5 14.5c-16 0 -29.833 -4.83301 -41.5 -14.5s-17.5 -24.834 -17.5 -45.501c0 -14.667 4.33301 -28.5 13 -41.5s19.167 -25.333 31.5 -37
s25.333 -22.667 39 -33s25.834 -20.166 36.501 -29.499c38 -34 66 -64.167 84 -90.5s27 -51.833 27 -76.5c0 -19.333 -5.66699 -38.833 -17 -58.5s-27.666 -40.834 -48.999 -63.501c5.33301 -11.333 8.5 -20.666 9.5 -27.999s1.5 -15.333 1.5 -24
c0 -24.667 -3.83301 -47.167 -11.5 -67.5s-18 -37.833 -31 -52.5s-28.333 -26 -46 -34s-36.5 -12 -56.5 -12c-17.333 0 -32.666 3.16699 -45.999 9.5s-28 16.833 -44 31.5l-1 6l50 67l3 -1c5.33301 -19.333 14.833 -33.5 28.5 -42.5s27.834 -13.5 42.501 -13.5
c17.333 0 32.666 5 45.999 15s20 24.333 20 43c0 12 -3.66699 23.333 -11 34s-16.666 21.334 -27.999 32.001s-24.166 21.167 -38.499 31.5l-43.5 31.5c-22 16.667 -39.833 31.834 -53.5 45.501s-24.334 26.5 -32.001 38.5s-12.667 23.5 -15 34.5s-3.5 22.5 -3.5 34.5
c0 12.667 1 24.167 3 34.5s5.5 20.666 10.5 30.999s11.167 21 18.5 32s16.666 23.167 27.999 36.5c-7.33301 11.333 -12.666 23.333 -15.999 36s-5 25.334 -5 38.001c0 20.667 4.33301 40.667 13 60s20.334 36.666 35.001 51.999s31.834 27.666 51.501 36.999
s40.5 14 62.5 14c15.333 0 29.5 -2.16699 42.5 -6.5s25.833 -11.5 38.5 -21.5l2 -8l-43 -81h-5z" />
    <glyph glyph-name="dieresis" unicode="&#xa8;" horiz-adv-x="220" 
d="M0 631c0 12 4 22.5 12 31.5s17.667 13.5 29 13.5s21.166 -4.5 29.499 -13.5s12.5 -19.5 12.5 -31.5c0 -12.667 -4.16699 -23.167 -12.5 -31.5s-18.166 -12.5 -29.499 -12.5s-21 4.16699 -29 12.5s-12 18.833 -12 31.5zM137 631c0 12 4 22.5 12 31.5s17.667 13.5 29 13.5
s21.166 -4.5 29.499 -13.5s12.5 -19.5 12.5 -31.5c0 -12.667 -4.16699 -23.167 -12.5 -31.5s-18.166 -12.5 -29.499 -12.5s-21 4.16699 -29 12.5s-12 18.833 -12 31.5z" />
    <glyph glyph-name="copyright" unicode="&#xa9;" horiz-adv-x="725" 
d="M435 455c-2 13.333 -10.501 22.498 -25.501 27.498s-30.167 7.5 -45.5 7.5c-30 0 -54 -7 -72 -21c-13.333 -12 -23.666 -28.167 -30.999 -48.5s-11 -42.166 -11 -65.499c0 -44 11.667 -77.5 35 -100.5s52.333 -34.5 87 -34.5c13.333 0 29 2.16699 47 6.5
s36 13.166 54 26.499l9 -14l-12 -28c-16.667 -9.33301 -33.834 -16.166 -51.501 -20.499s-35.5 -6.5 -53.5 -6.5c-26 0 -49.667 4.16699 -71 12.5s-39.5 19.833 -54.5 34.5s-26.667 32.334 -35 53.001s-12.5 43.667 -12.5 69c0 24 3.66699 46.5 11 67.5s18.333 39.333 33 55
s33 28 55 37s47.333 13.5 76 13.5c12 0 28.333 -1.33301 49 -4s40.334 -7.66699 59.001 -15l1 -7l-8 -50h-27zM361.999 653.998c42 0 81.499 -7.83301 118.499 -23.5s69.167 -37.167 96.5 -64.5s49 -59.166 65 -95.499s24 -75.166 24 -116.499c0 -42 -8 -81.5 -24 -118.5
s-37.833 -69 -65.5 -96s-60.334 -48.333 -98.001 -64s-78.167 -23.5 -121.5 -23.5c-40.667 0 -79.167 8 -115.5 24s-68 37.667 -95 65s-48.333 59.333 -64 96s-23.5 75.667 -23.5 117s7.83301 80.166 23.5 116.499s37.334 68.166 65.001 95.499s59.834 48.833 96.501 64.5
s76 23.5 118 23.5zM361.998 624.998c-37.333 0 -72.166 -7.16797 -104.499 -21.501s-60.666 -33.666 -84.999 -57.999s-43.5 -53 -57.5 -86s-21 -68.167 -21 -105.5s7 -72.666 21 -105.999s33 -62.333 57 -87s52 -44.167 84 -58.5s66 -21.5 102 -21.5c38 0 73.667 7 107 21
s62.333 33.333 87 58s44 53.667 58 87s21 69 21 107c0 37.333 -7 72.5 -21 105.5s-33.333 61.667 -58 86s-53.334 43.666 -86.001 57.999s-67.334 21.5 -104.001 21.5z" />
    <glyph glyph-name="ordfeminine" unicode="&#xaa;" horiz-adv-x="355" 
d="M208 445c1.33301 2 2.83301 4.5 4.5 7.5s2.5 6.16699 2.5 9.5l3 54c-16.667 0 -32.334 -0.666992 -47.001 -2s-27.5 -4 -38.5 -8s-19.667 -10 -26 -18s-9.5 -19 -9.5 -33c0 -16.667 4.33301 -28.667 13 -36s19.334 -11 32.001 -11c14 0 27 3.83301 39 11.5
s21 16.167 27 25.5zM213 426c-10 -14.667 -21.834 -27.8311 -35.501 -39.498s-29.167 -17.5 -46.5 -17.5c-24.667 0 -44.334 8 -59.001 24s-22 35.333 -22 58c0 22 7.16699 39.333 21.5 52s30.833 22 49.5 28s37.334 9.66699 56.001 11s32.334 2 41.001 2
c-0.666992 18 -2.33398 32.333 -5.00098 43s-6.16699 19 -10.5 25s-9.66602 9.83301 -15.999 11.5s-13.5 2.5 -21.5 2.5c-5.33301 0 -11.5 -0.333008 -18.5 -1s-13.833 -2.5 -20.5 -5.5s-12.5 -7.16699 -17.5 -12.5s-7.83301 -12.666 -8.5 -21.999l-2 -3h-16l-5 46l2 4
c2 2 6.16699 4.5 12.5 7.5s14 5.83301 23 8.5s19 5 30 7s21.833 3 32.5 3c57.333 0 86 -30.333 86 -91c0 -17.333 -0.166992 -32.333 -0.5 -45s-0.5 -24.334 -0.5 -35.001s-0.166992 -21 -0.5 -31s-0.5 -21 -0.5 -33c0 -15.333 4 -24.333 12 -27s17.667 -4 29 -4l2 -18
c-7.33301 0.666992 -14.833 1.16699 -22.5 1.5s-16.167 0.5 -25.5 0.5c-7.33301 0 -14.5 -0.166992 -21.5 -0.5s-13.5 -0.5 -19.5 -0.5l-4 4c1.33301 7.33301 2.33301 14.666 3 21.999s1 14.666 1 21.999z" />
    <glyph glyph-name="guillemotleft" unicode="&#xab;" horiz-adv-x="464" 
d="M249 411c-29.333 -29.333 -54.666 -57.5 -75.999 -84.5s-42.666 -55.833 -63.999 -86.5c21.333 -30 42.666 -58.5 63.999 -85.5s46.666 -55.167 75.999 -84.5l-5 -10h-58l-7 4l-24.5 37l-28 38.5l-35 45l-44.5 55.5l44.5 56l35 45.5l28 38.5l24.5 37l7 4h58zM411 411
c-29.333 -29.333 -54.666 -57.5 -75.999 -84.5s-42.666 -55.833 -63.999 -86.5c21.333 -30 42.666 -58.5 63.999 -85.5s46.666 -55.167 75.999 -84.5l-5 -10h-58l-8 4l-24.5 37l-28 38.5l-35 45l-44.5 55.5l44.5 56l35 45.5l28 38.5l24.5 37l8 4h58z" />
    <glyph glyph-name="logicalnot" unicode="&#xac;" horiz-adv-x="632" 
d="M557 341v-224h-53v172h-427v52h480z" />
    <glyph glyph-name="uni00AD" unicode="&#xad;" horiz-adv-x="471" 
d="M405 265l-10 -52h-328l9 52h329z" />
    <glyph glyph-name="registered" unicode="&#xae;" horiz-adv-x="725" 
d="M225 201l0.999023 15.9961c10.667 0.666992 18.834 2.83398 24.501 6.50098s9.83398 9.33398 12.501 17.001s4.16699 17.334 4.5 29.001s0.5 25.5 0.5 41.5v133c0 18 -2.33301 33.5 -7 46.5s-16.334 20.167 -35.001 21.5v20h120c46 0 77.833 -8.16699 95.5 -24.5
s26.5 -36.833 26.5 -61.5c0 -13.333 -2.33301 -25.166 -7 -35.499s-10.834 -19.333 -18.501 -27s-16.334 -14 -26.001 -19s-19.5 -8.83301 -29.5 -11.5l34 -46c12 -16 24 -30.667 36 -44s24 -24.333 36 -33s23 -13 33 -13v-16c-10.667 0 -17.5 -0.333008 -20.5 -1
s-7.16699 -1 -12.5 -1c-14 0 -25.833 2 -35.5 6s-19.667 11.5 -30 22.5s-22.166 26.167 -35.499 45.5l-51 74h-31c0 -26 0.5 -47.5 1.5 -64.5s3 -30.333 6 -40s7.33301 -16.5 13 -20.5s12.834 -6 21.501 -6l2 -15h-129zM354.999 376.996
c23.333 0 40.666 5.83203 51.999 17.499s17 27.834 17 48.501c0 18 -6 32.333 -18 43s-28.667 16 -50 16h-46v-111c0 -7.33301 1.83301 -11.5 5.5 -12.5s7.83398 -1.5 12.501 -1.5h27zM361.999 653.995c42 0 81.499 -7.83301 118.499 -23.5s69.167 -37.167 96.5 -64.5
s49 -59.166 65 -95.499s24 -75.166 24 -116.499c0 -42 -8 -81.5 -24 -118.5s-37.833 -69 -65.5 -96s-60.334 -48.333 -98.001 -64s-78.167 -23.5 -121.5 -23.5c-40.667 0 -79.167 8 -115.5 24s-68 37.667 -95 65s-48.333 59.333 -64 96s-23.5 75.667 -23.5 117
s7.83301 80.166 23.5 116.499s37.334 68.166 65.001 95.499s59.834 48.833 96.501 64.5s76 23.5 118 23.5zM361.998 624.995c-37.333 0 -72.166 -7.16797 -104.499 -21.501s-60.666 -33.666 -84.999 -57.999s-43.5 -53 -57.5 -86s-21 -68.167 -21 -105.5
s7 -72.666 21 -105.999s33 -62.333 57 -87s52 -44.167 84 -58.5s66 -21.5 102 -21.5c38 0 73.667 7 107 21s62.333 33.333 87 58s44 53.667 58 87s21 69 21 107c0 37.333 -7 72.5 -21 105.5s-33.333 61.667 -58 86s-53.334 43.666 -86.001 57.999
s-67.334 21.5 -104.001 21.5z" />
    <glyph glyph-name="degree" unicode="&#xb0;" horiz-adv-x="340" 
d="M169 658c40.667 0 71.335 -11.6709 92.002 -35.0039s31 -51 31 -83c0 -14.667 -2.5 -28.667 -7.5 -42s-12.5 -25.166 -22.5 -35.499s-22.833 -18.5 -38.5 -24.5s-33.834 -9 -54.501 -9c-21.333 0 -39.666 3.16699 -54.999 9.5s-27.833 14.833 -37.5 25.5
s-16.834 22.834 -21.501 36.501s-7 27.834 -7 42.501c0 16 2.66699 30.833 8 44.5s13.166 25.834 23.499 36.501s23 19 38 25s32.167 9 51.5 9zM169.001 458.996c26.667 0 46.5 7.66699 59.5 23s19.5 34.666 19.5 57.999c0 22.667 -6.5 42.5 -19.5 59.5
s-33.167 25.5 -60.5 25.5c-28 0 -48 -8.16699 -60 -24.5s-18 -35.166 -18 -56.499c0 -23.333 6.66699 -43.333 20 -60s33 -25 59 -25z" />
    <glyph glyph-name="plusminus" unicode="&#xb1;" horiz-adv-x="480" 
d="M266 351h134l-10 -53h-124v-115h-52v115h-133l9 53h124v104h52v-104zM400 123l-10 -53h-309l9 53h310z" />
    <glyph glyph-name="twosuperior" unicode="&#xb2;" horiz-adv-x="355" 
d="M68 606c8.66699 15.333 21.832 29.0029 39.499 41.0029s41.5 18 71.5 18c38 0 65.333 -8.33301 82 -25s25 -39.334 25 -68.001c0 -23.333 -7.83301 -47 -23.5 -71s-32.834 -46.5 -51.501 -67.5l-51.5 -56c-15.667 -16.333 -23.5 -28.5 -23.5 -36.5h33
c22 0 39.333 0.333008 52 1s22.834 2.5 30.501 5.5s13.334 7.66699 17.001 14s7.16699 15.166 10.5 26.499h14l-9 -80l-5 -5c-2 0 -7.83301 0.166992 -17.5 0.5s-20.167 0.666016 -31.5 0.999023l-33 1c-10.667 0.333008 -18.334 0.5 -23.001 0.5h-54
c-8 0 -17 -0.333008 -27 -1l-29 -2l-5 6v12c12.667 16 29.167 35 49.5 57l59.5 67.5c19.333 23 36 45.5 50 67.5s21 41.333 21 58c0 14.667 -4.16699 27.667 -12.5 39s-25.166 17 -50.499 17c-48.667 0 -75 -25 -79 -75h-23z" />
    <glyph glyph-name="threesuperior" unicode="&#xb3;" horiz-adv-x="338" 
d="M80 403c3.33301 -28 12.667 -47.165 28 -57.498s32.666 -15.5 51.999 -15.5c22 0 41.667 6.5 59 19.5s26 32.833 26 59.5c0 19.333 -6 36.833 -18 52.5s-30.333 23.5 -55 23.5h-15l6 21c20.667 0.666992 36.5 8.16699 47.5 22.5s16.5 29.833 16.5 46.5
c0 20 -7 34.833 -21 44.5s-29.667 14.5 -47 14.5s-33.166 -5 -47.499 -15s-21.5 -25.667 -21.5 -47c0 -4.66699 0.333008 -8 1 -10h-22l-5 44c3.33301 6.66699 7.5 13.667 12.5 21s11.333 13.666 19 18.999s17 9.83301 28 13.5s24.167 5.5 39.5 5.5
c34 0 60.333 -8.83301 79 -26.5s28 -38.167 28 -61.5c0 -14.667 -4.16699 -28.834 -12.5 -42.501s-21.833 -25.167 -40.5 -34.5c24.667 -5.33301 42.667 -16 54 -32s17 -33.667 17 -53c0 -14 -3 -28 -9 -42s-14.5 -26.667 -25.5 -38s-24.333 -20.5 -40 -27.5
s-33.5 -10.5 -53.5 -10.5c-25.333 0 -46.5 5.5 -63.5 16.5s-31.5 26.167 -43.5 45.5l6 44h21z" />
    <glyph glyph-name="acute" unicode="&#xb4;" horiz-adv-x="219" 
d="M6 552l-5.99902 20.001l3 7l180 101c11.333 -0.666992 20.166 -4.33398 26.499 -11.001s9.5 -14.667 9.5 -24c0 -6.66699 -1.33301 -13 -4 -19l-202 -77z" />
    <glyph glyph-name="mu" unicode="&#xb5;" horiz-adv-x="642" 
d="M139 -131l-8.99805 -0.000976562c-31.333 0 -52.666 8.33301 -63.999 25v6c8.66699 17.333 16.5 37 23.5 59s12.833 44.167 17.5 66.5s8.16699 43.5 10.5 63.5s3.5 36.667 3.5 50v98c0 12.667 -0.166992 26.834 -0.5 42.501l-1 45
c-0.333008 14.333 -0.666016 27 -0.999023 38s-0.5 18.833 -0.5 23.5c-0.666992 7.33301 -2.16699 13.833 -4.5 19.5s-4.5 9.83398 -6.5 12.501c-6.66699 7.33301 -15 11.833 -25 13.5s-20.333 2.5 -31 2.5l-3 4v14l3 3h18c11.333 0 25.666 0.166992 42.999 0.5
s32.333 1.5 45 3.5l35 5l6 -9c-1.33301 -2.66699 -2.33301 -7.5 -3 -14.5s-1.33398 -14.5 -2.00098 -22.5s-1 -15.667 -1 -23v-17c0 -11.333 -0.166992 -23.833 -0.5 -37.5l-1 -41.5l-0.999023 -40s-0.5 -23.334 -0.5 -32.001c0 -14.667 0.5 -31.167 1.5 -49.5
s3.16699 -34.166 6.5 -47.499c6.66699 -31.333 20.334 -54.666 41.001 -69.999s44.667 -23 72 -23c20.667 0 39.667 4.16699 57 12.5s32.5 18.5 45.5 30.5s23.667 24.833 32 38.5s13.833 26.167 16.5 37.5v130v35.5c0 9.66699 -0.166992 18.167 -0.5 25.5
s-0.833008 14 -1.5 20s-1.33398 12.333 -2.00098 19c-1.33301 7.33301 -3.16602 13.833 -5.49902 19.5s-4.5 9.5 -6.5 11.5c-6.66699 8 -15 12.833 -25 14.5s-20.333 2.5 -31 2.5l-4 4v14l4 3h18c11.333 0 25.666 0.166992 42.999 0.5s32 1.5 44 3.5l35 5l6 -9
c-1.33301 -2.66699 -2.33301 -7.5 -3 -14.5s-1.33398 -14.5 -2.00098 -22.5s-1 -15.667 -1 -23v-17c0 -5.33301 -0.166992 -10.333 -0.5 -15s-0.5 -10.334 -0.5 -17.001s-0.166992 -14.5 -0.5 -23.5s-0.5 -20.833 -0.5 -35.5v-112c0 -14.667 0.166992 -26.667 0.5 -36
s0.666016 -17.333 0.999023 -24s0.666016 -12.834 0.999023 -18.501s0.5 -11.834 0.5 -18.501c1.33301 -15.333 3 -26.5 5 -33.5s5.33301 -12.167 10 -15.5c5.33301 -5.33301 13.166 -8.5 23.499 -9.5s20.833 -1.5 31.5 -1.5l4 -4l2 -14l-2 -4
c-12 1.33301 -25 2.33301 -39 3s-27.667 1 -41 1c-25.333 0 -48.333 -1 -69 -3l-6 10c2 8.66699 3.66699 20.334 5 35.001l4 44c-17.333 -28 -39.5 -51.167 -66.5 -69.5s-60.167 -27.5 -99.5 -27.5c-9.33301 0 -20.166 0.833008 -32.499 2.5s-24.5 4.66699 -36.5 9
s-22.833 10 -32.5 17s-16.5 15.5 -20.5 25.5l-3 -2c-4 -42 -7.5 -75.167 -10.5 -99.5s-7.16699 -46.5 -12.5 -66.5z" />
    <glyph glyph-name="paragraph" unicode="&#xb6;" horiz-adv-x="530" 
d="M171 -125l3.00684 17.9971l5 3c16.667 0 28.167 0.833008 34.5 2.5s12.5 4.5 18.5 8.5c4 3.33301 8.83301 8.83301 14.5 16.5s9.16699 21.167 10.5 40.5c0 4.66699 0.166992 15.834 0.5 33.501s0.666016 37.5 0.999023 59.5s0.5 44 0.5 66v54v105
c-23.333 0 -48 2.83301 -74 8.5s-50 16.167 -72 31.5s-40.167 36.833 -54.5 64.5s-21.5 63.167 -21.5 106.5c0 22 4 42.833 12 62.5s18.667 36.834 32 51.501s29.166 26.334 47.499 35.001s38.166 13 59.499 13h19.5c8.33301 0 17.333 -0.166992 27 -0.5
s19.167 -0.5 28.5 -0.5h25h103c6.66699 0 14.5 0.333008 23.5 1l26 2l24 2c7.66699 0.666992 13.834 1 18.501 1l2 -4l-3 -18l-5 -4c-16.667 0 -28.334 -0.833008 -35.001 -2.5s-12.667 -4.16699 -18 -7.5c-5.33301 -4.66699 -10.333 -10.5 -15 -17.5s-8 -20.167 -10 -39.5
c-1.33301 -16.667 -2.16602 -33.5 -2.49902 -50.5s-0.5 -32.167 -0.5 -45.5v-260v-69.5c0 -26.333 0.166992 -51.833 0.5 -76.5s0.666016 -46.5 0.999023 -65.5s0.833008 -30.833 1.5 -35.5c2 -17.333 5.33301 -30.5 10 -39.5s9.66699 -15.167 15 -18.5
c6 -4.66699 14.333 -7.5 25 -8.5s20 -1.5 28 -1.5l5 -3l3 -18l-2 -4c-4.66699 0.666992 -12.334 1.16699 -23.001 1.5s-21.667 0.833008 -33 1.5s-22.333 1.16699 -33 1.5s-18.334 0.5 -23.001 0.5h-86c-4.66699 0 -12.334 -0.166992 -23.001 -0.5
s-21.667 -0.833008 -33 -1.5s-22.333 -1.16699 -33 -1.5s-18.334 -0.833008 -23.001 -1.5zM291.007 -86.0029h79.0029l2 4c-3.33301 22.667 -5.83301 42.667 -7.5 60s-2.83398 34.166 -3.50098 50.499s-1.16699 33.666 -1.5 51.999s-0.5 39.5 -0.5 63.5v223
c0 33.333 0.5 72 1.5 116s4.83301 87 11.5 129l-2 4h-79l-2 -4c6 -42 9.5 -85 10.5 -129s1.5 -82.667 1.5 -116v-223c0 -24 -0.166992 -45.167 -0.5 -63.5s-0.833008 -35.666 -1.5 -51.999s-1.83398 -33.166 -3.50098 -50.499s-3.83398 -37.333 -6.50098 -60z" />
    <glyph glyph-name="periodcentered" unicode="&#xb7;" horiz-adv-x="227" 
d="M67 243c0 12.667 4.5 23.834 13.5 33.501s20.167 14.5 33.5 14.5c12 0 22.833 -4.83301 32.5 -14.5s14.5 -20.834 14.5 -33.501s-4.83301 -23.5 -14.5 -32.5s-20.5 -13.5 -32.5 -13.5c-13.333 0 -24.5 4.5 -33.5 13.5s-13.5 19.833 -13.5 32.5z" />
    <glyph glyph-name="cedilla" unicode="&#xb8;" horiz-adv-x="202" 
d="M0 -178l12.999 23.001h7c8 -3.33301 18.333 -6.16602 31 -8.49902s25.334 -3.5 38.001 -3.5c14.667 0 27.334 2.83301 38.001 8.5s16 16.167 16 31.5c0 18 -5.16699 30.167 -15.5 36.5s-22.5 9.5 -36.5 9.5c-8 0 -16.167 -0.666992 -24.5 -2s-16.166 -3 -23.499 -5l-9 11
l51 77h34l-30 -51c11.333 2.66699 22.666 4 33.999 4c23.333 0 42.333 -6.83301 57 -20.5s22 -30.834 22 -51.501c0 -11.333 -2.83301 -22 -8.5 -32s-13.334 -18.833 -23.001 -26.5s-21.167 -13.834 -34.5 -18.501s-28 -7 -44 -7s-31.833 1.83301 -47.5 5.5
s-30.167 8.16699 -43.5 13.5z" />
    <glyph glyph-name="onesuperior" unicode="&#xb9;" horiz-adv-x="269" 
d="M55 600l1.00488 4.00293c17.333 8.66699 33.666 17.5 48.999 26.5s30.666 20.5 45.999 34.5h4l14 -5c-2 -21.333 -3.16699 -43.833 -3.5 -67.5s-0.5 -51.834 -0.5 -84.501v-55v-40.5v-26.5c0 -7.33301 0.166992 -13.833 0.5 -19.5s0.833008 -11.834 1.5 -18.501
c0.666992 -8 2.5 -14.167 5.5 -18.5s6.16699 -7.83301 9.5 -10.5s8.83301 -4.83398 16.5 -6.50098s14.5 -2.5 20.5 -2.5l3 -13c-3.33301 0 -7.83301 0.166992 -13.5 0.5l-17.5 1c-6 0.333008 -11.833 0.5 -17.5 0.5h-12.5h-34h-13.5c-5.66699 0 -11.667 -0.166992 -18 -0.5
s-12.333 -0.666016 -18 -0.999023s-9.83398 -0.5 -12.501 -0.5l3 13c6 0 13 0.666992 21 2s14 3.66602 18 6.99902c3.33301 2.66699 6.16602 6.16699 8.49902 10.5s4.16602 10.5 5.49902 18.5c0.666992 5.33301 1.16699 10.5 1.5 15.5s0.5 10.833 0.5 17.5v23.5v34.5v67v39
v25.5c0 7 -0.166992 13 -0.5 18s-0.833008 10.833 -1.5 17.5l-66 -17v11z" />
    <glyph glyph-name="ordmasculine" unicode="&#xba;" horiz-adv-x="374" 
d="M186 658c22.667 0 42.666 -3.99902 59.999 -11.999s32 -18.833 44 -32.5s21 -29.5 27 -47.5s9 -36.667 9 -56c0 -18 -2.83301 -35.5 -8.5 -52.5s-14.334 -32 -26.001 -45s-26.167 -23.5 -43.5 -31.5s-37.666 -12 -60.999 -12c-24 0 -44.667 4 -62 12
s-31.666 18.833 -42.999 32.5s-19.833 29.167 -25.5 46.5s-8.5 35 -8.5 53c0 20 3.16699 38.667 9.5 56s15.5 32.666 27.5 45.999s26.5 23.833 43.5 31.5s36.167 11.5 57.5 11.5zM186.999 399.001c15.333 0 28.835 3.00098 40.502 9.00098s21.5 14.167 29.5 24.5
s14 22.166 18 35.499s6 27.333 6 42c0 14 -2.16699 28 -6.5 42s-10.666 26.333 -18.999 37s-18.5 19.334 -30.5 26.001s-25.667 10 -41 10c-16 0 -29.833 -3.16699 -41.5 -9.5s-21.334 -14.666 -29.001 -24.999s-13.334 -22.166 -17.001 -35.499s-5.5 -27 -5.5 -41
c0 -14.667 2.16699 -28.834 6.5 -42.501s10.666 -25.834 18.999 -36.501s18.333 -19.334 30 -26.001s25.167 -10 40.5 -10z" />
    <glyph glyph-name="guillemotright" unicode="&#xbb;" horiz-adv-x="464" 
d="M57 421h58l8 -4l24.5 -37l28 -38.5l35 -45.5l44.5 -56l-44.5 -55.5l-35 -45l-28 -38.5l-24.5 -37l-8 -4h-58l-4 10c28.667 29.333 53.667 57.5 75 84.5s42.666 55.5 63.999 85.5c-21.333 30.667 -42.666 59.5 -63.999 86.5s-46.333 55.167 -75 84.5zM219 421
l58 0.000976562l7 -4l24.5 -37c8.33301 -12 17.833 -24.833 28.5 -38.5l35 -45.5c12.667 -16.667 27.667 -35.334 45 -56.001l-45 -55.5l-35 -45c-10.667 -13.667 -20.167 -26.5 -28.5 -38.5l-24.5 -37l-7 -4h-58l-5 10c28.667 29.333 53.834 57.5 75.501 84.5
s43.167 55.5 64.5 85.5c-21.333 30.667 -42.833 59.5 -64.5 86.5s-46.834 55.167 -75.501 84.5z" />
    <glyph glyph-name="onequarter" unicode="&#xbc;" horiz-adv-x="679" 
d="M59 23c19.333 22 36.999 43.167 52.999 63.5l47 60.5l46.5 62l50.5 69l121 165l77 107.5c26.667 37.667 51.667 77.167 75 118.5l5 4h76l-1 -4c-37.333 -41.333 -70.166 -80.833 -98.499 -118.5l-78.5 -107.5l-120 -165l-50 -70l-43.5 -62l-39.5 -60l-40 -63l-4 -4h-76v4
zM62.999 600l2.00098 4.00293c17.333 8.66699 33.666 17.5 48.999 26.5s30.666 20.5 45.999 34.5h4l13 -5c-1.33301 -21.333 -2.16602 -43.833 -2.49902 -67.5s-0.5 -51.834 -0.5 -84.501v-55c0 -29.333 0.333008 -53.333 1 -72s2.33398 -33.334 5.00098 -44.001
s7 -17.834 13 -21.501s14.333 -5.5 25 -5.5l3 -13c-5.33301 0.666992 -13.833 1.16699 -25.5 1.5s-20.167 0.5 -25.5 0.5h-34h-13.5c-5.66699 0 -11.667 -0.166992 -18 -0.5s-12.333 -0.666016 -18 -0.999023s-9.83398 -0.5 -12.501 -0.5l3 13c6 0 13 0.666992 21 2
s14 3.66602 18 6.99902c4 4 7 8 9 12s3.5 10 4.5 18s1.66699 19 2 33s0.5 33 0.5 57v67v39v25.5c0 7 -0.166992 13 -0.5 18s-0.833008 10.833 -1.5 17.5l-67 -17v11zM390 116.003l-5.99805 15.001l134 219l58 8l7 -5c-0.666992 -5.33301 -1.16699 -11.333 -1.5 -18
s-0.666016 -17.167 -0.999023 -31.5s-0.666016 -34 -0.999023 -59s-0.5 -58.167 -0.5 -99.5h48l3 -3l-8 -26l-4 -3h-39c0 -21.333 0.333008 -38.833 1 -52.5s2.5 -24.834 5.5 -33.501s8 -14.667 15 -18s16.5 -5 28.5 -5l2 -12c-5.33301 0 -14.5 0.333008 -27.5 1
s-22.167 1 -27.5 1h-38c-2.66699 0 -6.83398 -0.166992 -12.501 -0.5s-11.5 -0.5 -17.5 -0.5s-11.833 -0.166992 -17.5 -0.5s-9.83398 -0.5 -12.501 -0.5l3 12c13.333 0 23.666 1.83301 30.999 5.5s12.666 9.66699 15.999 18s5.33301 19.5 6 33.5s1 31.333 1 52h-140z
M434.002 145.004h101c0 48.667 -0.166992 85.5 -0.5 110.5s-0.833008 44.167 -1.5 57.5z" />
    <glyph glyph-name="onehalf" unicode="&#xbd;" horiz-adv-x="700" 
d="M62 23c19.333 22 37 43.167 53 63.5l47 60.5l46.5 62l50.5 69l121 165l77 107.5c26.667 37.667 51.667 77.167 75 118.5l5 4h76l-1 -4c-36 -41.333 -68.5 -80.833 -97.5 -118.5l-79.5 -107.5l-120 -165l-50 -70l-43.5 -62l-39.5 -60l-40 -63l-4 -4h-76v4zM62 600
l2.00293 4.00293c17.333 8.66699 33.666 17.5 48.999 26.5s30.666 20.5 45.999 34.5h4l14 -5c-2 -21.333 -3.16699 -43.833 -3.5 -67.5s-0.5 -51.834 -0.5 -84.501v-55v-40.5v-26.5c0 -7.33301 0.166992 -13.833 0.5 -19.5s0.833008 -11.834 1.5 -18.501
c0.666992 -8 2.5 -14.167 5.5 -18.5s6.16699 -7.83301 9.5 -10.5s7.16602 -4.83398 11.499 -6.50098s9.5 -2.5 15.5 -2.5l3 -13c-5.33301 0.666992 -13.833 1.16699 -25.5 1.5s-20.167 0.5 -25.5 0.5h-34h-13.5c-5.66699 0 -11.667 -0.166992 -18 -0.5
s-12.333 -0.666016 -18 -0.999023s-9.83398 -0.5 -12.501 -0.5l3 13c6 0 13 0.666992 21 2s14 3.66602 18 6.99902c2.66699 2.66699 5.33398 6.16699 8.00098 10.5s4.66699 10.5 6 18.5c0.666992 5.33301 1.16699 10.5 1.5 15.5s0.5 10.833 0.5 17.5v23.5v34.5v67v39v25.5
c0 7 -0.166992 13 -0.5 18s-0.833008 10.833 -1.5 17.5l-67 -17v11zM423.003 299.003c8.66699 15.333 21.8311 29.0029 39.498 41.0029s41.5 18 71.5 18c38 0 65.333 -8.33301 82 -25s25 -39.334 25 -68.001c0 -22 -6.5 -43.833 -19.5 -65.5s-28 -42.167 -45 -61.5
s-34.167 -37.5 -51.5 -54.5s-30.333 -32.167 -39 -45.5l2 -4h36c22 0 39.333 0.333008 52 1s22.834 2.5 30.501 5.5s13.334 7.66699 17.001 14s7.16699 15.166 10.5 26.499h14l-9 -80l-5 -5c-2 0 -7.83301 0.166992 -17.5 0.5s-20.167 0.666016 -31.5 0.999023l-33 1
c-10.667 0.333008 -18.334 0.5 -23.001 0.5h-54c-8 0 -17 -0.333008 -27 -1l-29 -2l-5 6v12c12.667 16 29.167 35 49.5 57l59.5 67.5c19.333 23 36 45.5 50 67.5s21 41.333 21 58c0 14.667 -4.16699 27.667 -12.5 39s-25.166 17 -50.499 17c-48.667 0 -75 -25 -79 -75h-23z
" />
    <glyph glyph-name="threequarters" unicode="&#xbe;" horiz-adv-x="719" 
d="M100 23l52.5 63.5l47.5 60.5l46.5 62l50.5 69l121 165l76.5 107.5c26.333 37.667 51.5 77.167 75.5 118.5l4 4h76l-1 -4c-36.667 -40.667 -69.167 -80.167 -97.5 -118.5l-78.5 -107.5l-120 -165l-50 -70l-43.5 -62l-40 -60l-39.5 -63l-5 -4h-76zM79 403
c3.33301 -27.333 12.667 -46.3301 28 -56.9971s32.666 -16 51.999 -16c10.667 0 21.167 1.66699 31.5 5s19.5 8.16602 27.5 14.499s14.5 14.5 19.5 24.5s7.5 21.667 7.5 35c0 19.333 -6.16699 36.833 -18.5 52.5s-30.833 23.5 -55.5 23.5h-15l6 21
c20.667 0.666992 36.5 8.16699 47.5 22.5s16.5 29.833 16.5 46.5c0 20 -7 34.833 -21 44.5s-29.667 14.5 -47 14.5s-33.166 -5 -47.499 -15s-21.5 -25.667 -21.5 -47c0 -4 0.333008 -7.33301 1 -10h-22l-5 44c3.33301 6.66699 7.5 13.667 12.5 21s11.333 13.666 19 18.999
s17 9.83301 28 13.5s24.167 5.5 39.5 5.5c34 0 60.333 -8.83301 79 -26.5s28 -38.167 28 -61.5c0 -14.667 -4.16699 -28.834 -12.5 -42.501s-21.833 -25.167 -40.5 -34.5c24.667 -5.33301 42.667 -16 54 -32s17 -33.667 17 -53c0 -14 -3 -28 -9 -42s-14.5 -26.667 -25.5 -38
s-24.333 -20.5 -40 -27.5s-33.5 -10.5 -53.5 -10.5c-25.333 0 -46.5 5.5 -63.5 16.5s-31.167 26.167 -42.5 45.5l5 44h21zM430.001 116.003l-5.99805 15.001l134 219l58 8l7 -5c-0.666992 -5.33301 -1.16699 -11.333 -1.5 -18s-0.666016 -17.167 -0.999023 -31.5
s-0.666016 -34 -0.999023 -59s-0.5 -58.167 -0.5 -99.5h48l3 -3l-8 -26l-4 -3h-39c0 -21.333 0.333008 -38.833 1 -52.5s2.5 -24.834 5.5 -33.501s8 -14.667 15 -18s16.5 -5 28.5 -5l2 -12c-5.33301 0 -14.5 0.333008 -27.5 1s-22.167 1 -27.5 1h-38
c-2.66699 0 -6.83398 -0.166992 -12.501 -0.5s-11.5 -0.5 -17.5 -0.5s-11.833 -0.166992 -17.5 -0.5s-9.83398 -0.5 -12.501 -0.5l3 12c13.333 0 23.666 1.83301 30.999 5.5s12.666 9.66699 15.999 18s5.33301 19.5 6 33.5s1 31.333 1 52h-140zM474.003 145.004h101
c0 48.667 -0.166992 85.5 -0.5 110.5s-0.833008 44.167 -1.5 57.5z" />
    <glyph glyph-name="questiondown" unicode="&#xbf;" horiz-adv-x="415" 
d="M198 292l5.99902 6l35 17l6 -4c0.666992 -17.333 1.5 -35.5 2.5 -54.5s1.5 -33.167 1.5 -42.5c0 -27.333 -7 -52.5 -21 -75.5s-29.333 -45.667 -46 -68s-32 -45.666 -46 -69.999s-21 -50.833 -21 -79.5c0 -17.333 3 -32.333 9 -45s13.833 -23.334 23.5 -32.001
s20.334 -15 32.001 -19s23.167 -6 34.5 -6c18 0 34.333 3 49 9s27.334 14.333 38.001 25s19.334 22.667 26.001 36s11 27.666 13 42.999l3 3h17l12 -93l-2 -9c-6 -9.33301 -15.5 -17.5 -28.5 -24.5s-27.333 -12.833 -43 -17.5s-31.334 -8 -47.001 -10s-29.167 -3 -40.5 -3
c-14 0 -30.5 2.33301 -49.5 7s-37 13 -54 25s-31.333 28.333 -43 49s-17.5 47 -17.5 79c0 30.667 7.5 59.834 22.5 87.501s31.5 53.667 49.5 78l50 68c15.333 21 23.666 40.5 24.999 58.5zM173.999 429c0 12.667 4.5 23.5 13.5 32.5s20.167 13.5 33.5 13.5
c12.667 0 23.834 -4.5 33.501 -13.5s14.5 -19.833 14.5 -32.5s-4.83301 -23.834 -14.5 -33.501s-20.834 -14.5 -33.501 -14.5c-13.333 0 -24.5 4.83301 -33.5 14.5s-13.5 20.834 -13.5 33.501z" />
    <glyph glyph-name="Agrave" unicode="&#xc0;" horiz-adv-x="675" 
d="M429 718l-201 77.001c-2.66699 6 -4 12.333 -4 19c0 9.33301 3 17.166 9 23.499s14.667 9.83301 26 10.5l181 -100l2 -7l-5 -20zM372 665.001l164.001 -453.998c6.66699 -20 12.5 -36.667 17.5 -50l13 -34l9.5 -23.5l7 -16.5c7.33301 -16.667 14.833 -29.5 22.5 -38.5
s15.5 -15.667 23.5 -20s16.167 -6.83301 24.5 -7.5s16.833 -1 25.5 -1l5 -4l3 -18l-2 -4c-4.66699 0 -11.667 0.333008 -21 1l-29 2c-10 0.666992 -19.5 1.33398 -28.5 2.00098s-15.833 1 -20.5 1h-33c-4.66699 0 -12.334 -0.333008 -23.001 -1l-33.5 -2l-33.5 -2
c-10.667 -0.666992 -18.334 -1 -23.001 -1l-2 4l3 18l4 4c19.333 0 34.333 2.16699 45 6.5s16 16.166 16 35.499c0 15.333 -5.16699 36.833 -15.5 64.5l-38.5 104.5l-17 48h-224l-17 -48l-38.5 -104.5c-10.333 -27.667 -15.5 -49.167 -15.5 -64.5
c0 -19.333 5.33301 -31.166 16 -35.499s25.667 -6.5 45 -6.5l5 -4l3 -18l-2 -4c-4.66699 0 -12 0.333008 -22 1l-31.5 2l-31.5 2c-10 0.666992 -17.333 1 -22 1h-19c-4.66699 0 -11.667 -0.333008 -21 -1l-29 -2c-10 -0.666992 -19.5 -1.33398 -28.5 -2.00098
s-15.833 -1 -20.5 -1l-1 4l2 18l5 4c8.66699 0 17 0.333008 25 1s16 3.16699 24 7.5s15.833 11 23.5 20s15.5 21.833 23.5 38.5c2 3.33301 3.83301 7.16602 5.5 11.499s4.33398 10.833 8.00098 19.5l14 34.5l22 56l33 84.5l47.5 121l27 69.5l26 64.5l21.5 53
c6.33301 15.333 10.833 26.666 13.5 33.999l59 30h11zM228.001 322.003h191l-95 257z" />
    <glyph glyph-name="Aacute" unicode="&#xc1;" horiz-adv-x="675" 
d="M230 721l-6.00098 19.999l3 7l180 100c11.333 -0.666992 20 -4.16699 26 -10.5s9 -14.166 9 -23.499c0 -3.33301 -0.166992 -6.5 -0.5 -9.5s-1.16602 -6.16699 -2.49902 -9.5l-202 -77zM371.999 664.999l164.001 -453.998c6.66699 -20 12.5 -36.667 17.5 -50l13 -34
l9.5 -23.5l7 -16.5c7.33301 -16.667 14.833 -29.5 22.5 -38.5s15.5 -15.667 23.5 -20s16.167 -6.83301 24.5 -7.5s16.833 -1 25.5 -1l5 -4l3 -18l-2 -4c-4.66699 0 -11.667 0.333008 -21 1l-29 2c-10 0.666992 -19.5 1.33398 -28.5 2.00098s-15.833 1 -20.5 1h-33
c-4.66699 0 -12.334 -0.333008 -23.001 -1l-33.5 -2l-33.5 -2c-10.667 -0.666992 -18.334 -1 -23.001 -1l-2 4l3 18l4 4c19.333 0 34.333 2.16699 45 6.5s16 16.166 16 35.499c0 15.333 -5.16699 36.833 -15.5 64.5l-38.5 104.5l-17 48h-224l-17 -48l-38.5 -104.5
c-10.333 -27.667 -15.5 -49.167 -15.5 -64.5c0 -19.333 5.33301 -31.166 16 -35.499s25.667 -6.5 45 -6.5l5 -4l3 -18l-2 -4c-4.66699 0 -12 0.333008 -22 1l-31.5 2l-31.5 2c-10 0.666992 -17.333 1 -22 1h-19c-4.66699 0 -11.667 -0.333008 -21 -1l-29 -2
c-10 -0.666992 -19.5 -1.33398 -28.5 -2.00098s-15.833 -1 -20.5 -1l-1 4l2 18l5 4c8.66699 0 17 0.333008 25 1s16 3.16699 24 7.5s15.833 11 23.5 20s15.5 21.833 23.5 38.5c2 3.33301 3.83301 7.16602 5.5 11.499s4.33398 10.833 8.00098 19.5l14 34.5l22 56l33 84.5
l47.5 121l27 69.5l26 64.5l21.5 53c6.33301 15.333 10.833 26.666 13.5 33.999l59 30h11zM228 322.001h191l-95 257z" />
    <glyph glyph-name="Acircumflex" unicode="&#xc2;" horiz-adv-x="675" 
d="M340 842l110 -99l3 -7l-6 -20l-7 -3l-104 62l-104 -62l-7 3l-6 20l3 7l110 99h8zM372 665l164.001 -453.998c6.66699 -20 12.5 -36.667 17.5 -50l13 -34l9.5 -23.5l7 -16.5c7.33301 -16.667 14.833 -29.5 22.5 -38.5s15.5 -15.667 23.5 -20s16.167 -6.83301 24.5 -7.5
s16.833 -1 25.5 -1l5 -4l3 -18l-2 -4c-4.66699 0 -11.667 0.333008 -21 1l-29 2c-10 0.666992 -19.5 1.33398 -28.5 2.00098s-15.833 1 -20.5 1h-33c-4.66699 0 -12.334 -0.333008 -23.001 -1l-33.5 -2l-33.5 -2c-10.667 -0.666992 -18.334 -1 -23.001 -1l-2 4l3 18l4 4
c19.333 0 34.333 2.16699 45 6.5s16 16.166 16 35.499c0 15.333 -5.16699 36.833 -15.5 64.5l-38.5 104.5l-17 48h-224l-17 -48l-38.5 -104.5c-10.333 -27.667 -15.5 -49.167 -15.5 -64.5c0 -19.333 5.33301 -31.166 16 -35.499s25.667 -6.5 45 -6.5l5 -4l3 -18l-2 -4
c-4.66699 0 -12 0.333008 -22 1l-31.5 2l-31.5 2c-10 0.666992 -17.333 1 -22 1h-19c-4.66699 0 -11.667 -0.333008 -21 -1l-29 -2c-10 -0.666992 -19.5 -1.33398 -28.5 -2.00098s-15.833 -1 -20.5 -1l-1 4l2 18l5 4c8.66699 0 17 0.333008 25 1s16 3.16699 24 7.5
s15.833 11 23.5 20s15.5 21.833 23.5 38.5c2 3.33301 3.83301 7.16602 5.5 11.499s4.33398 10.833 8.00098 19.5l14 34.5l22 56l33 84.5l47.5 121l27 69.5l26 64.5l21.5 53c6.33301 15.333 10.833 26.666 13.5 33.999l59 30h11zM228.001 322.002h191l-95 257z" />
    <glyph glyph-name="Atilde" unicode="&#xc3;" horiz-adv-x="675" 
d="M372 665l164.001 -453.998c6.66699 -20 12.5 -36.667 17.5 -50l13 -34l9.5 -23.5l7 -16.5c7.33301 -16.667 14.833 -29.5 22.5 -38.5s15.5 -15.667 23.5 -20s16.167 -6.83301 24.5 -7.5s16.833 -1 25.5 -1l5 -4l3 -18l-2 -4c-4.66699 0 -11.667 0.333008 -21 1l-29 2
c-10 0.666992 -19.5 1.33398 -28.5 2.00098s-15.833 1 -20.5 1h-33c-4.66699 0 -12.334 -0.333008 -23.001 -1l-33.5 -2l-33.5 -2c-10.667 -0.666992 -18.334 -1 -23.001 -1l-2 4l3 18l4 4c19.333 0 34.333 2.16699 45 6.5s16 16.166 16 35.499
c0 15.333 -5.16699 36.833 -15.5 64.5l-38.5 104.5l-17 48h-224l-17 -48l-38.5 -104.5c-10.333 -27.667 -15.5 -49.167 -15.5 -64.5c0 -19.333 5.33301 -31.166 16 -35.499s25.667 -6.5 45 -6.5l5 -4l3 -18l-2 -4c-4.66699 0 -12 0.333008 -22 1l-31.5 2l-31.5 2
c-10 0.666992 -17.333 1 -22 1h-19c-4.66699 0 -11.667 -0.333008 -21 -1l-29 -2c-10 -0.666992 -19.5 -1.33398 -28.5 -2.00098s-15.833 -1 -20.5 -1l-1 4l2 18l5 4c8.66699 0 17 0.333008 25 1s16 3.16699 24 7.5s15.833 11 23.5 20s15.5 21.833 23.5 38.5
c2 3.33301 3.83301 7.16602 5.5 11.499s4.33398 10.833 8.00098 19.5l14 34.5l22 56l33 84.5l47.5 121l27 69.5l26 64.5l21.5 53c6.33301 15.333 10.833 26.666 13.5 33.999l59 30h11zM228.001 322.002h191l-95 257zM489.001 832.002
c-2 -9.33301 -5.16309 -18.5 -9.49609 -27.5s-10 -17.167 -17 -24.5s-15.5 -13.333 -25.5 -18s-22 -7 -36 -7c-26.667 0 -53.834 2.33301 -81.501 7s-52.167 7 -73.5 7c-16.667 0 -28.334 -2.16699 -35.001 -6.5s-13.334 -10.5 -20.001 -18.5l-13 8
c2.66699 8.66699 6.33398 17.667 11.001 27s10.5 17.5 17.5 24.5s15.667 12.833 26 17.5s22.5 7 36.5 7c16.667 0 31.167 -0.666992 43.5 -2s23.833 -3 34.5 -5s21 -3.66699 31 -5s21.333 -2 34 -2c11.333 0 22.666 1.33301 33.999 4s21.666 10 30.999 22z" />
    <glyph glyph-name="Adieresis" unicode="&#xc4;" horiz-adv-x="675" 
d="M372 665l164.001 -453.998c6.66699 -20 12.5 -36.667 17.5 -50l13 -34l9.5 -23.5l7 -16.5c7.33301 -16.667 14.833 -29.5 22.5 -38.5s15.5 -15.667 23.5 -20s16.167 -6.83301 24.5 -7.5s16.833 -1 25.5 -1l5 -4l3 -18l-2 -4c-4.66699 0 -11.667 0.333008 -21 1l-29 2
c-10 0.666992 -19.5 1.33398 -28.5 2.00098s-15.833 1 -20.5 1h-33c-4.66699 0 -12.334 -0.333008 -23.001 -1l-33.5 -2l-33.5 -2c-10.667 -0.666992 -18.334 -1 -23.001 -1l-2 4l3 18l4 4c19.333 0 34.333 2.16699 45 6.5s16 16.166 16 35.499
c0 15.333 -5.16699 36.833 -15.5 64.5l-38.5 104.5l-17 48h-224l-17 -48l-38.5 -104.5c-10.333 -27.667 -15.5 -49.167 -15.5 -64.5c0 -19.333 5.33301 -31.166 16 -35.499s25.667 -6.5 45 -6.5l5 -4l3 -18l-2 -4c-4.66699 0 -12 0.333008 -22 1l-31.5 2l-31.5 2
c-10 0.666992 -17.333 1 -22 1h-19c-4.66699 0 -11.667 -0.333008 -21 -1l-29 -2c-10 -0.666992 -19.5 -1.33398 -28.5 -2.00098s-15.833 -1 -20.5 -1l-1 4l2 18l5 4c8.66699 0 17 0.333008 25 1s16 3.16699 24 7.5s15.833 11 23.5 20s15.5 21.833 23.5 38.5
c2 3.33301 3.83301 7.16602 5.5 11.499s4.33398 10.833 8.00098 19.5l14 34.5l22 56l33 84.5l47.5 121l27 69.5l26 64.5l21.5 53c6.33301 15.333 10.833 26.666 13.5 33.999l59 30h11zM228.001 322.002h191l-95 257zM214.001 794.002c0 12 4 22.5 12 31.5
s17.667 13.5 29 13.5s21.166 -4.5 29.499 -13.5s12.5 -19.5 12.5 -31.5c0 -12.667 -4.16699 -23.167 -12.5 -31.5s-18.166 -12.5 -29.499 -12.5s-21 4.16699 -29 12.5s-12 18.833 -12 31.5zM371.001 794.002c0 12 4 22.5 12 31.5s17.667 13.5 29 13.5
c10.667 0 20.167 -4.5 28.5 -13.5s12.5 -19.5 12.5 -31.5c0 -12.667 -4.16699 -23.167 -12.5 -31.5s-17.833 -12.5 -28.5 -12.5c-11.333 0 -21 4.16699 -29 12.5s-12 18.833 -12 31.5z" />
    <glyph glyph-name="Aring" unicode="&#xc5;" horiz-adv-x="676" 
d="M333 778c26 0 46.334 -7.82812 61.001 -23.4951s22 -32.834 22 -51.501c0 -11.333 -3.16699 -22.333 -9.5 -33s-15.5 -19.334 -27.5 -26.001l157 -433c6.66699 -20 12.5 -36.667 17.5 -50l13 -34l9.5 -23.5l7 -16.5c7.33301 -16.667 14.833 -29.5 22.5 -38.5
s15.5 -15.667 23.5 -20s16.167 -6.83301 24.5 -7.5s16.833 -1 25.5 -1l5 -4l3 -18l-2 -4c-4.66699 0 -11.667 0.333008 -21 1l-29 2c-10 0.666992 -19.5 1.33398 -28.5 2.00098s-15.833 1 -20.5 1h-33c-4.66699 0 -12.334 -0.333008 -23.001 -1l-33.5 -2l-33.5 -2
c-10.667 -0.666992 -18.334 -1 -23.001 -1l-2 4l3 18l4 4c19.333 0 34.333 2.16699 45 6.5s16 16.166 16 35.499c0 15.333 -5.16699 36.833 -15.5 64.5l-38.5 104.5l-17 48h-224l-17 -48l-38.5 -104.5c-10.333 -27.667 -15.5 -49.167 -15.5 -64.5
c0 -19.333 5.33301 -31.166 16 -35.499s25.667 -6.5 45 -6.5l5 -4l3 -18l-2 -4c-4.66699 0 -12 0.333008 -22 1l-31.5 2l-31.5 2c-10 0.666992 -17.333 1 -22 1h-19c-4.66699 0 -11.667 -0.333008 -21 -1l-29 -2c-10 -0.666992 -19.5 -1.33398 -28.5 -2.00098
s-15.833 -1 -20.5 -1l-1 4l2 18l5 4c8.66699 0 17 0.333008 25 1s16 3.16699 24 7.5s15.833 11 23.5 20s15.5 21.833 23.5 38.5c2 3.33301 3.83301 7.16602 5.5 11.499s4.33398 10.833 8.00098 19.5l14 34.5l22 56l33 84.5l47.5 121l25.5 66l25.5 64l22 54.5l16 38.5
c-17.333 5.33301 -30.333 14.666 -39 27.999s-13 26.666 -13 39.999c0 18.667 7.33301 35.5 22 50.5s34.667 22.5 60 22.5zM228.001 322.005h191l-95 257zM334.001 656.005c13.333 0 24 5 32 15s12 20.667 12 32c0 12 -4.16699 23.333 -12.5 34s-19.5 16 -33.5 16
s-24.833 -5 -32.5 -15s-11.5 -20.667 -11.5 -32c0 -12.667 4.33301 -24.167 13 -34.5s19.667 -15.5 33 -15.5z" />
    <glyph glyph-name="AE" unicode="&#xc6;" horiz-adv-x="868" 
d="M359 520l26.999 46.5049c8 13.667 12 25.5 12 35.5c0 9.33301 -2.33301 16.333 -7 21s-16.667 8.33398 -36 11.001l-4 4l-3 18l2 4c4.66699 -0.666992 13.334 -1.33398 26.001 -2.00098s26.5 -1.33398 41.5 -2.00098s29.333 -1.16699 43 -1.5s24.167 -0.5 31.5 -0.5h136
c8.66699 0 21.834 0.166992 39.501 0.5s35.5 0.833008 53.5 1.5s34.333 1.16699 49 1.5s23.667 0.5 27 0.5l4 -10l-4 -109h-25l-4 4c-1.33301 15.333 -3.16602 27.333 -5.49902 36s-9 15 -20 19s-27.5 6.33301 -49.5 7s-53 1 -93 1h-67
c-3.33301 -39.333 -5.16602 -78.666 -5.49902 -117.999s-0.5 -80 -0.5 -122c40.667 1.33301 74 2.16602 100 2.49902s43 5.16602 51 14.499c4.66699 5.33301 9.16699 12.333 13.5 21s6.5 18 6.5 28l4 4l18 2l3 -2c-1.33301 -14.667 -2.33301 -29.334 -3 -44.001
s-1 -29.334 -1 -44.001c0 -16 0.333008 -30.833 1 -44.5s1.66699 -28.5 3 -44.5l-3 -2l-19 2l-3 3c0 10.667 -2 20.5 -6 29.5s-8.66699 16.5 -14 22.5c-8 8.66699 -24.5 13 -49.5 13s-58.833 0.333008 -101.5 1v-114.5c0 -28.333 0.166992 -51.333 0.5 -69
s0.833008 -31.834 1.5 -42.501s1.66699 -22.334 3 -35.001c0.666992 -12.667 7.66699 -19 21 -19h56c40 0 71.5 0.833008 94.5 2.5s40.667 5.16699 53 10.5s21 13.5 26 24.5s9.83301 25.5 14.5 43.5l3 4h26l-18 -127l-8 -10c-3.33301 0 -11 0.166992 -23 0.5
s-25.5 0.833008 -40.5 1.5s-30 1.16699 -45 1.5s-26.833 0.5 -35.5 0.5h-173c-4.66699 0 -12.334 -0.333008 -23.001 -1l-33 -2l-33 -2c-10.667 -0.666992 -18.334 -1 -23.001 -1l-2 4l3 18l4 4c10.667 0 20.834 0.5 30.501 1.5s17.5 3.83301 23.5 8.5
c5.33301 4.66699 10.333 10.667 15 18s7.66699 20.333 9 39c0.666992 4.66699 1.16699 10.834 1.5 18.501s0.666016 19.667 0.999023 36s0.5 39.166 0.5 68.499v118h-159l-77.5 -131c-19.667 -33.333 -34.667 -60 -45 -80s-17.166 -34.833 -20.499 -44.5s-5 -17.5 -5 -23.5
c0 -13.333 5.5 -21.5 16.5 -24.5s24.5 -4.5 40.5 -4.5l5 -4l3 -18l-3 -4c-4.66699 0 -12.834 0.333008 -24.501 1s-24 1.33398 -37 2.00098s-25.333 1.33398 -37 2.00098s-19.834 1 -24.501 1h-19c-4.66699 0 -11.667 -0.333008 -21 -1l-29 -2l-29 -2
c-9.33301 -0.666992 -16.333 -1 -21 -1v4l2 18l5 4c12 1.33301 25.833 3.16602 41.5 5.49902s28.167 6.83301 37.5 13.5c6.66699 4.66699 13.5 11.167 20.5 19.5s14.167 17.833 21.5 28.5c2 3.33301 7.83301 12.5 17.5 27.5l35.5 57.5l47.5 78.5l54.5 90l55.5 93z
M321.999 366.005h135v88.5v64.5c0 18 -0.166992 32.833 -0.5 44.5s-0.5 21.5 -0.5 29.5z" />
    <glyph glyph-name="Ccedilla" unicode="&#xc7;" horiz-adv-x="651" 
d="M276 -178l12.999 22.999h7c8 -3.33301 18.333 -6.16602 31 -8.49902s25.334 -3.5 38.001 -3.5c14.667 0 27.334 2.83301 38.001 8.5s16 16.167 16 31.5c0 18 -5.16699 30.167 -15.5 36.5s-22.5 9.5 -36.5 9.5c-8 0 -16.167 -0.666992 -24.5 -2s-16.166 -3 -23.499 -5
l-9 11l44 67c-45.333 3.33301 -86.5 13.833 -123.5 31.5s-68.5 41 -94.5 70s-46 63.167 -60 102.5s-21 82.666 -21 129.999c0 46.667 7.16699 90.834 21.5 132.501s35.666 77.834 63.999 108.501s63.333 55 105 73s90.167 27 145.5 27c12 0 26.167 -0.5 42.5 -1.5
s33.5 -2.83301 51.5 -5.5s36.333 -6.16699 55 -10.5s36.667 -9.83301 54 -16.5l3 -9l-13 -91h-29l-3 4c-2 14.667 -8.33301 27 -19 37s-23.834 18 -39.501 24s-33 10.167 -52 12.5s-37.833 3.5 -56.5 3.5c-66 0 -118 -15 -156 -45c-31.333 -25.333 -54.833 -59 -70.5 -101
s-23.5 -88 -23.5 -138c0 -47.333 6.83301 -88.833 20.5 -124.5s32.5 -65.5 56.5 -89.5s52.5 -42.167 85.5 -54.5s68.833 -18.5 107.5 -18.5c27.333 0 58.833 3.83301 94.5 11.5s69.5 22.5 101.5 44.5l10 -11l-22 -45c-32 -17.333 -64.167 -30.166 -96.5 -38.499
s-65.166 -12.833 -98.499 -13.5l-23 -40c5.33301 2 10 3.16699 14 3.5s8.66699 0.5 14 0.5c23.333 0 42.333 -6.83301 57 -20.5s22 -30.834 22 -51.501c0 -11.333 -2.83301 -22 -8.5 -32s-13.334 -18.833 -23.001 -26.5s-21.167 -13.834 -34.5 -18.501s-28 -7 -44 -7
s-31.833 1.83301 -47.5 5.5s-30.167 8.16699 -43.5 13.5z" />
    <glyph glyph-name="Egrave" unicode="&#xc8;" horiz-adv-x="571" 
d="M381 718l-201 77.001c-2.66699 6 -4 12.333 -4 19c0 9.33301 3 17.166 9 23.499s14.667 9.83301 26 10.5l181 -100l3 -7l-6 -20zM331 654.001c8.66699 0 21.835 0.171875 39.502 0.504883s35.5 0.833008 53.5 1.5s34.167 1.16699 48.5 1.5s23.166 0.5 26.499 0.5l5 -10
l-4 -109h-25l-4 4c-1.33301 15.333 -3.16602 27.333 -5.49902 36s-9 15 -20 19s-27.5 6.33301 -49.5 7s-53 1 -93 1h-96l-2 -39c-0.666992 -9.33301 -1.16699 -18 -1.5 -26s-0.666016 -17.333 -0.999023 -28s-0.5 -23.667 -0.5 -39v-108c20 0.666992 40 1 60 1
s38.167 0.333008 54.5 1s30.166 2.16699 41.499 4.5s19 5.83301 23 10.5c5.33301 5.33301 10 10.666 14 15.999s6 13 6 23l5 5l17 2l4 -2l-3.5 -40c-1 -11.333 -1.5 -24.333 -1.5 -39c0 -16 0.5 -30.833 1.5 -44.5s2.16699 -28.5 3.5 -44.5l-4 -2l-18 2l-4 3
c0 10.667 -2 20.5 -6 29.5s-8.66699 16.5 -14 22.5c-4 4 -11.667 7 -23 9s-25 3.33301 -41 4s-34 1 -54 1h-61v-97v-58.5c0 -15 0.166992 -28.333 0.5 -40s0.833008 -22.334 1.5 -32.001s1.66699 -20.834 3 -33.501c0 -12.667 6.66699 -19 20 -19h85
c40 0 71.5 0.833008 94.5 2.5s40.5 5.16699 52.5 10.5s20.5 13.5 25.5 24.5s9.83301 25.5 14.5 43.5l4 4h26l-18 -127l-8 -10c-3.33301 0 -11 0.166992 -23 0.5s-25.5 0.833008 -40.5 1.5s-30 1.16699 -45 1.5s-26.833 0.5 -35.5 0.5h-202
c-4.66699 0 -12.334 -0.333008 -23.001 -1l-33 -2l-33 -2c-10.667 -0.666992 -18.334 -1 -23.001 -1l-2 4l3 18l5 4c10.667 0 20.667 0.5 30 1.5s17 3.83301 23 8.5c5.33301 4.66699 10.5 10.667 15.5 18s8.16699 20.333 9.5 39c0 4.66699 0.166992 10.167 0.5 16.5
s0.666016 14.166 0.999023 23.499s0.5 20.666 0.5 33.999v50v203v59v41c0 11.333 -0.166992 21 -0.5 29s-0.833008 16 -1.5 24c-1.33301 18 -4.5 30.833 -9.5 38.5s-10.167 13.834 -15.5 18.501c-6 4.66699 -13.667 7.5 -23 8.5s-19.333 1.5 -30 1.5l-5 4l-3 18l2 4
c4.66699 0 12.334 -0.333008 23.001 -1s22.167 -1.33398 34.5 -2.00098l36 -2c11.667 -0.666992 21.167 -1 28.5 -1h164z" />
    <glyph glyph-name="Eacute" unicode="&#xc9;" horiz-adv-x="571" 
d="M182 721l-6 19.999l3 7l181 100c11.333 -0.666992 20 -4.16699 26 -10.5s9 -14.166 9 -23.499c0 -6.66699 -1.33301 -13 -4 -19l-202 -77zM331 653.999c8.66699 0 21.835 0.171875 39.502 0.504883s35.5 0.833008 53.5 1.5s34.167 1.16699 48.5 1.5
s23.166 0.5 26.499 0.5l5 -10l-4 -109h-25l-4 4c-1.33301 15.333 -3.16602 27.333 -5.49902 36s-9 15 -20 19s-27.5 6.33301 -49.5 7s-53 1 -93 1h-96l-2 -39c-0.666992 -9.33301 -1.16699 -18 -1.5 -26s-0.666016 -17.333 -0.999023 -28s-0.5 -23.667 -0.5 -39v-108
c20 0.666992 40 1 60 1s38.167 0.333008 54.5 1s30.166 2.16699 41.499 4.5s19 5.83301 23 10.5c5.33301 5.33301 10 10.666 14 15.999s6 13 6 23l5 5l17 2l4 -2l-3.5 -40c-1 -11.333 -1.5 -24.333 -1.5 -39c0 -16 0.5 -30.833 1.5 -44.5s2.16699 -28.5 3.5 -44.5l-4 -2
l-18 2l-4 3c0 10.667 -2 20.5 -6 29.5s-8.66699 16.5 -14 22.5c-4 4 -11.667 7 -23 9s-25 3.33301 -41 4s-34 1 -54 1h-61v-97v-58.5c0 -15 0.166992 -28.333 0.5 -40s0.833008 -22.334 1.5 -32.001s1.66699 -20.834 3 -33.501c0 -12.667 6.66699 -19 20 -19h85
c40 0 71.5 0.833008 94.5 2.5s40.5 5.16699 52.5 10.5s20.5 13.5 25.5 24.5s9.83301 25.5 14.5 43.5l4 4h26l-18 -127l-8 -10c-3.33301 0 -11 0.166992 -23 0.5s-25.5 0.833008 -40.5 1.5s-30 1.16699 -45 1.5s-26.833 0.5 -35.5 0.5h-202
c-4.66699 0 -12.334 -0.333008 -23.001 -1l-33 -2l-33 -2c-10.667 -0.666992 -18.334 -1 -23.001 -1l-2 4l3 18l5 4c10.667 0 20.667 0.5 30 1.5s17 3.83301 23 8.5c5.33301 4.66699 10.5 10.667 15.5 18s8.16699 20.333 9.5 39c0 4.66699 0.166992 10.167 0.5 16.5
s0.666016 14.166 0.999023 23.499s0.5 20.666 0.5 33.999v50v203v59v41c0 11.333 -0.166992 21 -0.5 29s-0.833008 16 -1.5 24c-1.33301 18 -4.5 30.833 -9.5 38.5s-10.167 13.834 -15.5 18.501c-6 4.66699 -13.667 7.5 -23 8.5s-19.333 1.5 -30 1.5l-5 4l-3 18l2 4
c4.66699 0 12.334 -0.333008 23.001 -1s22.167 -1.33398 34.5 -2.00098l36 -2c11.667 -0.666992 21.167 -1 28.5 -1h164z" />
    <glyph glyph-name="Ecircumflex" unicode="&#xca;" horiz-adv-x="571" 
d="M299 842l110 -99l3 -7l-6 -20l-7 -3l-104 62l-104 -62l-7 3l-6 20l3 7l110 99h8zM331 654c8.66699 0 21.835 0.171875 39.502 0.504883s35.5 0.833008 53.5 1.5s34.167 1.16699 48.5 1.5s23.166 0.5 26.499 0.5l5 -10l-4 -109h-25l-4 4
c-1.33301 15.333 -3.16602 27.333 -5.49902 36s-9 15 -20 19s-27.5 6.33301 -49.5 7s-53 1 -93 1h-96l-2 -39c-0.666992 -9.33301 -1.16699 -18 -1.5 -26s-0.666016 -17.333 -0.999023 -28s-0.5 -23.667 -0.5 -39v-108c20 0.666992 40 1 60 1s38.167 0.333008 54.5 1
s30.166 2.16699 41.499 4.5s19 5.83301 23 10.5c5.33301 5.33301 10 10.666 14 15.999s6 13 6 23l5 5l17 2l4 -2l-3.5 -40c-1 -11.333 -1.5 -24.333 -1.5 -39c0 -16 0.5 -30.833 1.5 -44.5s2.16699 -28.5 3.5 -44.5l-4 -2l-18 2l-4 3c0 10.667 -2 20.5 -6 29.5
s-8.66699 16.5 -14 22.5c-4 4 -11.667 7 -23 9s-25 3.33301 -41 4s-34 1 -54 1h-61v-97v-58.5c0 -15 0.166992 -28.333 0.5 -40s0.833008 -22.334 1.5 -32.001s1.66699 -20.834 3 -33.501c0 -12.667 6.66699 -19 20 -19h85c40 0 71.5 0.833008 94.5 2.5
s40.5 5.16699 52.5 10.5s20.5 13.5 25.5 24.5s9.83301 25.5 14.5 43.5l4 4h26l-18 -127l-8 -10c-3.33301 0 -11 0.166992 -23 0.5s-25.5 0.833008 -40.5 1.5s-30 1.16699 -45 1.5s-26.833 0.5 -35.5 0.5h-202c-4.66699 0 -12.334 -0.333008 -23.001 -1l-33 -2l-33 -2
c-10.667 -0.666992 -18.334 -1 -23.001 -1l-2 4l3 18l5 4c10.667 0 20.667 0.5 30 1.5s17 3.83301 23 8.5c5.33301 4.66699 10.5 10.667 15.5 18s8.16699 20.333 9.5 39c0 4.66699 0.166992 10.167 0.5 16.5s0.666016 14.166 0.999023 23.499s0.5 20.666 0.5 33.999v50v203
v59v41c0 11.333 -0.166992 21 -0.5 29s-0.833008 16 -1.5 24c-1.33301 18 -4.5 30.833 -9.5 38.5s-10.167 13.834 -15.5 18.501c-6 4.66699 -13.667 7.5 -23 8.5s-19.333 1.5 -30 1.5l-5 4l-3 18l2 4c4.66699 0 12.334 -0.333008 23.001 -1s22.167 -1.33398 34.5 -2.00098
l36 -2c11.667 -0.666992 21.167 -1 28.5 -1h164z" />
    <glyph glyph-name="Edieresis" unicode="&#xcb;" horiz-adv-x="571" 
d="M331 654c8.66699 0 21.835 0.171875 39.502 0.504883s35.5 0.833008 53.5 1.5s34.167 1.16699 48.5 1.5s23.166 0.5 26.499 0.5l5 -10l-4 -109h-25l-4 4c-1.33301 15.333 -3.16602 27.333 -5.49902 36s-9 15 -20 19s-27.5 6.33301 -49.5 7s-53 1 -93 1h-96l-2 -39
c-0.666992 -9.33301 -1.16699 -18 -1.5 -26s-0.666016 -17.333 -0.999023 -28s-0.5 -23.667 -0.5 -39v-108c20 0.666992 40 1 60 1s38.167 0.333008 54.5 1s30.166 2.16699 41.499 4.5s19 5.83301 23 10.5c5.33301 5.33301 10 10.666 14 15.999s6 13 6 23l5 5l17 2l4 -2
l-3.5 -40c-1 -11.333 -1.5 -24.333 -1.5 -39c0 -16 0.5 -30.833 1.5 -44.5s2.16699 -28.5 3.5 -44.5l-4 -2l-18 2l-4 3c0 10.667 -2 20.5 -6 29.5s-8.66699 16.5 -14 22.5c-4 4 -11.667 7 -23 9s-25 3.33301 -41 4s-34 1 -54 1h-61v-97v-58.5
c0 -15 0.166992 -28.333 0.5 -40s0.833008 -22.334 1.5 -32.001s1.66699 -20.834 3 -33.501c0 -12.667 6.66699 -19 20 -19h85c40 0 71.5 0.833008 94.5 2.5s40.5 5.16699 52.5 10.5s20.5 13.5 25.5 24.5s9.83301 25.5 14.5 43.5l4 4h26l-18 -127l-8 -10
c-3.33301 0 -11 0.166992 -23 0.5s-25.5 0.833008 -40.5 1.5s-30 1.16699 -45 1.5s-26.833 0.5 -35.5 0.5h-202c-4.66699 0 -12.334 -0.333008 -23.001 -1l-33 -2l-33 -2c-10.667 -0.666992 -18.334 -1 -23.001 -1l-2 4l3 18l5 4c10.667 0 20.667 0.5 30 1.5
s17 3.83301 23 8.5c5.33301 4.66699 10.5 10.667 15.5 18s8.16699 20.333 9.5 39c0 4.66699 0.166992 10.167 0.5 16.5s0.666016 14.166 0.999023 23.499s0.5 20.666 0.5 33.999v50v203v59v41c0 11.333 -0.166992 21 -0.5 29s-0.833008 16 -1.5 24
c-1.33301 18 -4.5 30.833 -9.5 38.5s-10.167 13.834 -15.5 18.501c-6 4.66699 -13.667 7.5 -23 8.5s-19.333 1.5 -30 1.5l-5 4l-3 18l2 4c4.66699 0 12.334 -0.333008 23.001 -1s22.167 -1.33398 34.5 -2.00098l36 -2c11.667 -0.666992 21.167 -1 28.5 -1h164z
M166.001 794.005c0 12 4 22.5 12 31.5s17.667 13.5 29 13.5s21.166 -4.5 29.499 -13.5s12.5 -19.5 12.5 -31.5c0 -12.667 -4.16699 -23.167 -12.5 -31.5s-18.166 -12.5 -29.499 -12.5s-21 4.16699 -29 12.5s-12 18.833 -12 31.5zM323.001 794.005c0 12 4 22.5 12 31.5
s17.667 13.5 29 13.5s21.166 -4.5 29.499 -13.5s12.5 -19.5 12.5 -31.5c0 -12.667 -4.16699 -23.167 -12.5 -31.5s-18.166 -12.5 -29.499 -12.5s-21 4.16699 -29 12.5s-12 18.833 -12 31.5z" />
    <glyph glyph-name="Igrave" unicode="&#xcc;" horiz-adv-x="333" 
d="M263 718l-202 77.001c-2.66699 6 -4 12.333 -4 19c0 9.33301 3 17.166 9 23.499s14.667 9.83301 26 10.5l181 -100l3 -7l-6 -20zM290 656.001l-3 -17.998l-4 -4c-10.667 0 -20.834 -0.5 -30.501 -1.5s-17.5 -3.83301 -23.5 -8.5
c-5.33301 -4.66699 -10.333 -10.667 -15 -18s-7.66699 -20.333 -9 -39c-0.666992 -9.33301 -1.16699 -18 -1.5 -26s-0.666016 -17.333 -0.999023 -28s-0.5 -23.667 -0.5 -39v-59v-184v-58.5c0 -15 0.166992 -27.5 0.5 -37.5s0.666016 -18.5 0.999023 -25.5
s0.833008 -14.5 1.5 -22.5c1.33301 -18.667 4.33301 -31.667 9 -39s9.66699 -13.333 15 -18c6 -4.66699 13.833 -7.5 23.5 -8.5s19.834 -1.5 30.501 -1.5l4 -4l3 -18l-2 -4c-4.66699 0 -12.334 0.333008 -23.001 1l-33 2l-33 2c-10.667 0.666992 -18.334 1 -23.001 1h-19
c-4.66699 0 -12.334 -0.333008 -23.001 -1l-33 -2l-33 -2c-10.667 -0.666992 -18.334 -1 -23.001 -1l-2 4l3 18l5 4c10.667 0 20.667 0.5 30 1.5s17 3.83301 23 8.5c5.33301 4.66699 10.5 10.667 15.5 18s8.16699 20.333 9.5 39c0 4.66699 0.166992 10.167 0.5 16.5
s0.666016 14.166 0.999023 23.499s0.5 20.666 0.5 33.999v50v203v59c0 16 -0.166992 29.667 -0.5 41s-0.666016 21 -0.999023 29s-0.833008 16 -1.5 24c-1.33301 17.333 -4.33301 30 -9 38s-9.66699 14.333 -15 19c-6 4.66699 -13.667 7.5 -23 8.5s-19.333 1.5 -30 1.5l-5 4
l-3 18l2 4c4.66699 0 12.334 -0.333008 23.001 -1l33 -2l33 -2c10.667 -0.666992 18.334 -1 23.001 -1h19c4.66699 0 12.334 0.333008 23.001 1l33 2l33 2c10.667 0.666992 18.334 1 23.001 1z" />
    <glyph glyph-name="Iacute" unicode="&#xcd;" horiz-adv-x="333" 
d="M63 721l-6 19.999l3 7l181 100c11.333 -0.666992 20 -4.16699 26 -10.5s9 -14.166 9 -23.499c0 -6.66699 -1.33301 -13 -4 -19l-201 -77zM290 655.999l-3 -17.998l-4 -4c-10.667 0 -20.834 -0.5 -30.501 -1.5s-17.5 -3.83301 -23.5 -8.5
c-5.33301 -4.66699 -10.333 -10.667 -15 -18s-7.66699 -20.333 -9 -39c-0.666992 -9.33301 -1.16699 -18 -1.5 -26s-0.666016 -17.333 -0.999023 -28s-0.5 -23.667 -0.5 -39v-59v-184v-58.5c0 -15 0.166992 -27.5 0.5 -37.5s0.666016 -18.5 0.999023 -25.5
s0.833008 -14.5 1.5 -22.5c1.33301 -18.667 4.33301 -31.667 9 -39s9.66699 -13.333 15 -18c6 -4.66699 13.833 -7.5 23.5 -8.5s19.834 -1.5 30.501 -1.5l4 -4l3 -18l-2 -4c-4.66699 0 -12.334 0.333008 -23.001 1l-33 2l-33 2c-10.667 0.666992 -18.334 1 -23.001 1h-19
c-4.66699 0 -12.334 -0.333008 -23.001 -1l-33 -2l-33 -2c-10.667 -0.666992 -18.334 -1 -23.001 -1l-2 4l3 18l5 4c10.667 0 20.667 0.5 30 1.5s17 3.83301 23 8.5c5.33301 4.66699 10.5 10.667 15.5 18s8.16699 20.333 9.5 39c0 4.66699 0.166992 10.167 0.5 16.5
s0.666016 14.166 0.999023 23.499s0.5 20.666 0.5 33.999v50v203v59c0 16 -0.166992 29.667 -0.5 41s-0.666016 21 -0.999023 29s-0.833008 16 -1.5 24c-1.33301 17.333 -4.33301 30 -9 38s-9.66699 14.333 -15 19c-6 4.66699 -13.667 7.5 -23 8.5s-19.333 1.5 -30 1.5l-5 4
l-3 18l2 4c4.66699 0 12.334 -0.333008 23.001 -1l33 -2l33 -2c10.667 -0.666992 18.334 -1 23.001 -1h19c4.66699 0 12.334 0.333008 23.001 1l33 2l33 2c10.667 0.666992 18.334 1 23.001 1z" />
    <glyph glyph-name="Icircumflex" unicode="&#xce;" horiz-adv-x="333" 
d="M170 842l111 -99l3 -7l-6 -20l-8 -3l-103 62l-104 -62l-8 3l-5 20l3 7l110 99h7zM290 656l-3 -17.998l-4 -4c-10.667 0 -20.834 -0.5 -30.501 -1.5s-17.5 -3.83301 -23.5 -8.5c-5.33301 -4.66699 -10.333 -10.667 -15 -18s-7.66699 -20.333 -9 -39
c-0.666992 -9.33301 -1.16699 -18 -1.5 -26s-0.666016 -17.333 -0.999023 -28s-0.5 -23.667 -0.5 -39v-59v-184v-58.5c0 -15 0.166992 -27.5 0.5 -37.5s0.666016 -18.5 0.999023 -25.5s0.833008 -14.5 1.5 -22.5c1.33301 -18.667 4.33301 -31.667 9 -39
s9.66699 -13.333 15 -18c6 -4.66699 13.833 -7.5 23.5 -8.5s19.834 -1.5 30.501 -1.5l4 -4l3 -18l-2 -4c-4.66699 0 -12.334 0.333008 -23.001 1l-33 2l-33 2c-10.667 0.666992 -18.334 1 -23.001 1h-19c-4.66699 0 -12.334 -0.333008 -23.001 -1l-33 -2l-33 -2
c-10.667 -0.666992 -18.334 -1 -23.001 -1l-2 4l3 18l5 4c10.667 0 20.667 0.5 30 1.5s17 3.83301 23 8.5c5.33301 4.66699 10.5 10.667 15.5 18s8.16699 20.333 9.5 39c0 4.66699 0.166992 10.167 0.5 16.5s0.666016 14.166 0.999023 23.499s0.5 20.666 0.5 33.999v50v203
v59c0 16 -0.166992 29.667 -0.5 41s-0.666016 21 -0.999023 29s-0.833008 16 -1.5 24c-1.33301 17.333 -4.33301 30 -9 38s-9.66699 14.333 -15 19c-6 4.66699 -13.667 7.5 -23 8.5s-19.333 1.5 -30 1.5l-5 4l-3 18l2 4c4.66699 0 12.334 -0.333008 23.001 -1l33 -2l33 -2
c10.667 -0.666992 18.334 -1 23.001 -1h19c4.66699 0 12.334 0.333008 23.001 1l33 2l33 2c10.667 0.666992 18.334 1 23.001 1z" />
    <glyph glyph-name="Idieresis" unicode="&#xcf;" horiz-adv-x="333" 
d="M290 656l-3 -17.998l-4 -4c-10.667 0 -20.834 -0.5 -30.501 -1.5s-17.5 -3.83301 -23.5 -8.5c-5.33301 -4.66699 -10.333 -10.667 -15 -18s-7.66699 -20.333 -9 -39c-0.666992 -9.33301 -1.16699 -18 -1.5 -26s-0.666016 -17.333 -0.999023 -28s-0.5 -23.667 -0.5 -39
v-59v-184v-58.5c0 -15 0.166992 -27.5 0.5 -37.5s0.666016 -18.5 0.999023 -25.5s0.833008 -14.5 1.5 -22.5c1.33301 -18.667 4.33301 -31.667 9 -39s9.66699 -13.333 15 -18c6 -4.66699 13.833 -7.5 23.5 -8.5s19.834 -1.5 30.501 -1.5l4 -4l3 -18l-2 -4
c-4.66699 0 -12.334 0.333008 -23.001 1l-33 2l-33 2c-10.667 0.666992 -18.334 1 -23.001 1h-19c-4.66699 0 -12.334 -0.333008 -23.001 -1l-33 -2l-33 -2c-10.667 -0.666992 -18.334 -1 -23.001 -1l-2 4l3 18l5 4c10.667 0 20.667 0.5 30 1.5s17 3.83301 23 8.5
c5.33301 4.66699 10.5 10.667 15.5 18s8.16699 20.333 9.5 39c0 4.66699 0.166992 10.167 0.5 16.5s0.666016 14.166 0.999023 23.499s0.5 20.666 0.5 33.999v50v203v59c0 16 -0.166992 29.667 -0.5 41s-0.666016 21 -0.999023 29s-0.833008 16 -1.5 24
c-1.33301 17.333 -4.33301 30 -9 38s-9.66699 14.333 -15 19c-6 4.66699 -13.667 7.5 -23 8.5s-19.333 1.5 -30 1.5l-5 4l-3 18l2 4c4.66699 0 12.334 -0.333008 23.001 -1l33 -2l33 -2c10.667 -0.666992 18.334 -1 23.001 -1h19c4.66699 0 12.334 0.333008 23.001 1l33 2
l33 2c10.667 0.666992 18.334 1 23.001 1zM51 794.002c0 12 4 22.5 12 31.5s17.667 13.5 29 13.5s21.166 -4.5 29.499 -13.5s12.5 -19.5 12.5 -31.5c0 -12.667 -4.16699 -23.167 -12.5 -31.5s-18.166 -12.5 -29.499 -12.5s-21 4.16699 -29 12.5s-12 18.833 -12 31.5z
M208 794.002c0 12 4 22.5 12 31.5s17.667 13.5 29 13.5s21.166 -4.5 29.499 -13.5s12.5 -19.5 12.5 -31.5c0 -12.667 -4.16699 -23.167 -12.5 -31.5s-18.166 -12.5 -29.499 -12.5s-21 4.16699 -29 12.5s-12 18.833 -12 31.5z" />
    <glyph glyph-name="Eth" unicode="&#xd0;" horiz-adv-x="735" 
d="M52 370l80 0.00292969v44v30.5v43.5c0 15.333 -0.166992 30.333 -0.5 45s-0.833008 26 -1.5 34c-1.33301 16.667 -4.33301 29.167 -9 37.5s-10 14.833 -16 19.5c-6 3.33301 -12.167 5.83301 -18.5 7.5s-17.833 2.5 -34.5 2.5l-5 4l-3 18l2 4
c4.66699 0 11.334 -0.333008 20.001 -1s18 -1.33398 28 -2.00098l29.5 -2c9.66699 -0.666992 18.167 -1 25.5 -1h57c8.66699 0 19.5 0.166992 32.5 0.5s26.333 0.833008 40 1.5s27 1.16699 40 1.5s23.5 0.5 31.5 0.5c52 0 98.5 -8.83301 139.5 -26.5s75.5 -41.5 103.5 -71.5
s49.5 -65 64.5 -105s22.5 -82.333 22.5 -127c0 -44 -7.16699 -85.833 -21.5 -125.5s-35.5 -74.667 -63.5 -105s-63 -54.5 -105 -72.5s-90.667 -27 -146 -27c-6 0 -15 0.166992 -27 0.5s-24.667 0.5 -38 0.5s-26.166 0.166992 -38.499 0.5s-22.166 0.5 -29.499 0.5h-53
c-4.66699 0 -12.334 -0.333008 -23.001 -1l-33 -2l-33 -2c-10.667 -0.666992 -18.334 -1 -23.001 -1l-2 4l3 18l5 4c8 0 17.333 0.5 28 1.5s19 3.5 25 7.5c5.33301 4 10.333 10.333 15 19s8 21.667 10 39c0 4.66699 0.166992 10.167 0.5 16.5
s0.666016 14.166 0.999023 23.499s0.5 20.666 0.5 33.999v50v115h-88zM351 48.0029c40 0 75.333 7.33105 106 21.998s56.5 34.5 77.5 59.5s37 54.5 48 88.5s16.5 70.667 16.5 110c0 40 -5.66699 77 -17 111s-27.833 63.333 -49.5 88s-48.167 44 -79.5 58s-67 21 -107 21
h-138c-1.33301 -19.333 -2.16602 -35.5 -2.49902 -48.5s-0.833008 -26.167 -1.5 -39.5s-1 -27.833 -1 -43.5v-59.5v-45h178l-8 -44h-170v-95c0 -40 0.166992 -71.167 0.5 -93.5s1.16602 -39.166 2.49902 -50.499c2 -17.333 6.33301 -28.166 13 -32.499s18.667 -6.5 36 -6.5
h96z" />
    <glyph glyph-name="Ntilde" unicode="&#xd1;" horiz-adv-x="746" 
d="M522 832c-2 -9.33301 -5.16309 -18.5 -9.49609 -27.5s-10 -17.167 -17 -24.5s-15.5 -13.333 -25.5 -18s-22 -7 -36 -7c-26.667 0 -53.834 2.33301 -81.501 7s-52.167 7 -73.5 7c-16.667 0 -28.334 -2.16699 -35.001 -6.5s-13.334 -10.5 -20.001 -18.5l-13 8
c2.66699 8.66699 6.33398 17.667 11.001 27s10.5 17.5 17.5 24.5s15.667 12.833 26 17.5s22.5 7 36.5 7c16.667 0 31.167 -0.666992 43.5 -2s23.833 -3 34.5 -5s21 -3.66699 31 -5s21.333 -2 34 -2c11.333 0 22.666 1.33301 33.999 4s21.666 10 30.999 22zM708.004 656
l-1.99902 -18.0029l-5 -4c-10.667 0 -20.834 -0.5 -30.501 -1.5s-17.167 -3.83301 -22.5 -8.5s-10.166 -10.667 -14.499 -18s-7.16602 -20.333 -8.49902 -39c-0.666992 -9.33301 -1.16699 -18 -1.5 -26s-0.666016 -17.333 -0.999023 -28s-0.5 -23.667 -0.5 -39v-59v-176
c0 -37.333 0.166992 -68 0.5 -92s0.666016 -44.5 0.999023 -61.5s1 -32.167 2 -45.5s2.16699 -28 3.5 -44l-8 -5l-62 4l-10 12l-356 533c0 -6.66699 -0.166992 -13.334 -0.5 -20.001s-0.5 -14.834 -0.5 -24.501v-33.5v-47v-184v-31.5c0 -13 0.166992 -26.5 0.5 -40.5
l1 -40.5c0.333008 -13 0.833008 -23.5 1.5 -31.5c1.33301 -16.667 4.16602 -29.167 8.49902 -37.5s9.83301 -14.833 16.5 -19.5c5.33301 -4 12.333 -6.66699 21 -8s19.667 -2 33 -2l5 -4l3 -18l-2 -4c-4.66699 0 -11.834 0.333008 -21.501 1
s-19.834 1.33398 -30.501 2.00098s-20.834 1.33398 -30.501 2.00098s-16.834 1 -21.501 1h-19c-4.66699 0 -12.334 -0.333008 -23.001 -1l-33 -2l-33 -2c-10.667 -0.666992 -18.334 -1 -23.001 -1l-2 4l3 18l5 4c12 0 22.167 0.5 30.5 1.5s15.833 3.83301 22.5 8.5
c4.66699 3.33301 9.5 8.83301 14.5 16.5s8.5 21.167 10.5 40.5c0.666992 4.66699 1.16699 10.167 1.5 16.5s0.5 14.166 0.5 23.499v34v50v203v59v41c0 11.333 -0.166992 21 -0.5 29s-0.833008 16 -1.5 24c-1.33301 14 -4.33301 25.833 -9 35.5s-10 16.834 -16 21.501
s-13.5 7.5 -22.5 8.5s-19.167 1.5 -30.5 1.5l-5 4l-3 18l2 4c4.66699 0 11.5 -0.333008 20.5 -1l27.5 -2l27.5 -2c9 -0.666992 15.833 -1 20.5 -1h35c5.33301 0 12.833 0.333008 22.5 1s17.5 1.66699 23.5 3l5 -3c2.66699 -9.33301 8.16699 -22.166 16.5 -38.499
s18.333 -34.5 30 -54.5l38 -64l41.5 -67c50.667 -81.333 94.834 -147.666 132.501 -198.999l72.5 -100c0 4.66699 0.166992 9 0.5 13s0.5 8.66699 0.5 14v20v32v203v59c0 16 -0.166992 29.667 -0.5 41s-0.666016 21 -0.999023 29s-0.833008 16 -1.5 24
c-1.33301 18.667 -4.33301 31.667 -9 39s-9.66699 13.333 -15 18c-6 4.66699 -13.833 7.5 -23.5 8.5s-19.834 1.5 -30.501 1.5l-4 4l-3 18l2 4c4.66699 0 11.334 -0.333008 20.001 -1l26.5 -2l26.5 -2c8.66699 -0.666992 15.334 -1 20.001 -1h47
c4.66699 0 11.334 0.166992 20.001 0.5s17.667 0.833008 27 1.5l27 2c8.66699 0.666992 15.334 1.33398 20.001 2.00098z" />
    <glyph glyph-name="Ograve" unicode="&#xd2;" horiz-adv-x="763" 
d="M382 665c52 0 98.332 -8.99805 138.999 -26.998s74.834 -42.5 102.501 -73.5s48.834 -66.833 63.501 -107.5s22 -83.334 22 -128.001c0 -44 -7.16699 -86.5 -21.5 -127.5s-35.5 -77.167 -63.5 -108.5s-62.833 -56.5 -104.5 -75.5s-89.834 -28.5 -144.501 -28.5
c-53.333 0 -99.833 9 -139.5 27s-73 42.167 -100 72.5s-47.167 65.666 -60.5 105.999s-20 82.833 -20 127.5c0 47.333 7.33301 91.833 22 133.5s36 78 64 109s62.333 55.5 103 73.5s86.667 27 138 27zM380.999 42.002c40 0 75.5 7.49707 106.5 22.4971
s57.167 35.5 78.5 61.5s37.666 56.333 48.999 91s17 71.667 17 111c0 40 -5.83301 77.333 -17.5 112s-28.5 64.834 -50.5 90.501s-48.833 45.667 -80.5 60s-67.5 21.5 -107.5 21.5c-39.333 0 -74.166 -7.16699 -104.499 -21.5s-55.833 -34.166 -76.5 -59.499
s-36.167 -55.166 -46.5 -89.499s-15.5 -71.833 -15.5 -112.5c0 -44.667 6 -84.667 18 -120s29 -65.333 51 -90s48.167 -43.667 78.5 -57s63.833 -20 100.5 -20zM448.999 717.999l-201 77.001c-2.66699 6 -4 12.333 -4 19c0 9.33301 3 17.166 9 23.499
s14.667 9.83301 26 10.5l180 -100l3 -7l-5 -20z" />
    <glyph glyph-name="Oacute" unicode="&#xd3;" horiz-adv-x="763" 
d="M382 665c52 0 98.332 -8.99805 138.999 -26.998s74.834 -42.5 102.501 -73.5s48.834 -66.833 63.501 -107.5s22 -83.334 22 -128.001c0 -44 -7.16699 -86.5 -21.5 -127.5s-35.5 -77.167 -63.5 -108.5s-62.833 -56.5 -104.5 -75.5s-89.834 -28.5 -144.501 -28.5
c-53.333 0 -99.833 9 -139.5 27s-73 42.167 -100 72.5s-47.167 65.666 -60.5 105.999s-20 82.833 -20 127.5c0 47.333 7.33301 91.833 22 133.5s36 78 64 109s62.333 55.5 103 73.5s86.667 27 138 27zM380.999 42.002c40 0 75.5 7.49707 106.5 22.4971
s57.167 35.5 78.5 61.5s37.666 56.333 48.999 91s17 71.667 17 111c0 40 -5.83301 77.333 -17.5 112s-28.5 64.834 -50.5 90.501s-48.833 45.667 -80.5 60s-67.5 21.5 -107.5 21.5c-39.333 0 -74.166 -7.16699 -104.499 -21.5s-55.833 -34.166 -76.5 -59.499
s-36.167 -55.166 -46.5 -89.499s-15.5 -71.833 -15.5 -112.5c0 -44.667 6 -84.667 18 -120s29 -65.333 51 -90s48.167 -43.667 78.5 -57s63.833 -20 100.5 -20zM305.999 720.999l-5 19.999l3 7l180 100c11.333 -0.666992 20 -4.16699 26 -10.5s9 -14.166 9 -23.499
c0 -6 -1 -12.333 -3 -19l-202 -77z" />
    <glyph glyph-name="Ocircumflex" unicode="&#xd4;" horiz-adv-x="763" 
d="M382 665c52 0 98.332 -8.99805 138.999 -26.998s74.834 -42.5 102.501 -73.5s48.834 -66.833 63.501 -107.5s22 -83.334 22 -128.001c0 -44 -7.16699 -86.5 -21.5 -127.5s-35.5 -77.167 -63.5 -108.5s-62.833 -56.5 -104.5 -75.5s-89.834 -28.5 -144.501 -28.5
c-53.333 0 -99.833 9 -139.5 27s-73 42.167 -100 72.5s-47.167 65.666 -60.5 105.999s-20 82.833 -20 127.5c0 47.333 7.33301 91.833 22 133.5s36 78 64 109s62.333 55.5 103 73.5s86.667 27 138 27zM380.999 42.002c40 0 75.5 7.49707 106.5 22.4971
s57.167 35.5 78.5 61.5s37.666 56.333 48.999 91s17 71.667 17 111c0 40 -5.83301 77.333 -17.5 112s-28.5 64.834 -50.5 90.501s-48.833 45.667 -80.5 60s-67.5 21.5 -107.5 21.5c-39.333 0 -74.166 -7.16699 -104.499 -21.5s-55.833 -34.166 -76.5 -59.499
s-36.167 -55.166 -46.5 -89.499s-15.5 -71.833 -15.5 -112.5c0 -44.667 6 -84.667 18 -120s29 -65.333 51 -90s48.167 -43.667 78.5 -57s63.833 -20 100.5 -20zM395.999 841.999l110 -99l3 -7l-6 -20l-7 -3l-104 62l-104 -62l-7 3l-6 20l3 7l110 99h8z" />
    <glyph glyph-name="Otilde" unicode="&#xd5;" horiz-adv-x="763" 
d="M382 665c52 0 98.332 -8.99805 138.999 -26.998s74.834 -42.5 102.501 -73.5s48.834 -66.833 63.501 -107.5s22 -83.334 22 -128.001c0 -44 -7.16699 -86.5 -21.5 -127.5s-35.5 -77.167 -63.5 -108.5s-62.833 -56.5 -104.5 -75.5s-89.834 -28.5 -144.501 -28.5
c-53.333 0 -99.833 9 -139.5 27s-73 42.167 -100 72.5s-47.167 65.666 -60.5 105.999s-20 82.833 -20 127.5c0 47.333 7.33301 91.833 22 133.5s36 78 64 109s62.333 55.5 103 73.5s86.667 27 138 27zM380.999 42.002c40 0 75.5 7.49707 106.5 22.4971
s57.167 35.5 78.5 61.5s37.666 56.333 48.999 91s17 71.667 17 111c0 40 -5.83301 77.333 -17.5 112s-28.5 64.834 -50.5 90.501s-48.833 45.667 -80.5 60s-67.5 21.5 -107.5 21.5c-39.333 0 -74.166 -7.16699 -104.499 -21.5s-55.833 -34.166 -76.5 -59.499
s-36.167 -55.166 -46.5 -89.499s-15.5 -71.833 -15.5 -112.5c0 -44.667 6 -84.667 18 -120s29 -65.333 51 -90s48.167 -43.667 78.5 -57s63.833 -20 100.5 -20zM538.999 831.999c-2 -9.33301 -5.16309 -18.5 -9.49609 -27.5s-10 -17.167 -17 -24.5s-15.5 -13.333 -25.5 -18
s-22 -7 -36 -7c-26.667 0 -53.834 2.33301 -81.501 7s-52.167 7 -73.5 7c-16.667 0 -28.334 -2.16699 -35.001 -6.5s-13.334 -10.5 -20.001 -18.5l-13 8c2.66699 8.66699 6.33398 17.667 11.001 27s10.5 17.5 17.5 24.5s15.667 12.833 26 17.5s22.5 7 36.5 7
c16.667 0 31.167 -0.666992 43.5 -2s23.833 -3 34.5 -5s21 -3.66699 31 -5s21.333 -2 34 -2c11.333 0 22.666 1.33301 33.999 4s21.666 10 30.999 22z" />
    <glyph glyph-name="Odieresis" unicode="&#xd6;" horiz-adv-x="763" 
d="M382 665c52 0 98.332 -8.99805 138.999 -26.998s74.834 -42.5 102.501 -73.5s48.834 -66.833 63.501 -107.5s22 -83.334 22 -128.001c0 -44 -7.16699 -86.5 -21.5 -127.5s-35.5 -77.167 -63.5 -108.5s-62.833 -56.5 -104.5 -75.5s-89.834 -28.5 -144.501 -28.5
c-53.333 0 -99.833 9 -139.5 27s-73 42.167 -100 72.5s-47.167 65.666 -60.5 105.999s-20 82.833 -20 127.5c0 47.333 7.33301 91.833 22 133.5s36 78 64 109s62.333 55.5 103 73.5s86.667 27 138 27zM380.999 42.002c40 0 75.5 7.49707 106.5 22.4971
s57.167 35.5 78.5 61.5s37.666 56.333 48.999 91s17 71.667 17 111c0 40 -5.83301 77.333 -17.5 112s-28.5 64.834 -50.5 90.501s-48.833 45.667 -80.5 60s-67.5 21.5 -107.5 21.5c-39.333 0 -74.166 -7.16699 -104.499 -21.5s-55.833 -34.166 -76.5 -59.499
s-36.167 -55.166 -46.5 -89.499s-15.5 -71.833 -15.5 -112.5c0 -44.667 6 -84.667 18 -120s29 -65.333 51 -90s48.167 -43.667 78.5 -57s63.833 -20 100.5 -20zM262.999 793.999c0 12 4 22.5 12 31.5s17.667 13.5 29 13.5s21.166 -4.5 29.499 -13.5s12.5 -19.5 12.5 -31.5
c0 -12.667 -4.16699 -23.167 -12.5 -31.5s-18.166 -12.5 -29.499 -12.5s-21 4.16699 -29 12.5s-12 18.833 -12 31.5zM419.999 793.999c0 12 4 22.5 12 31.5s17.667 13.5 29 13.5s21.166 -4.5 29.499 -13.5s12.5 -19.5 12.5 -31.5c0 -12.667 -4.16699 -23.167 -12.5 -31.5
s-18.166 -12.5 -29.499 -12.5s-21 4.16699 -29 12.5s-12 18.833 -12 31.5z" />
    <glyph glyph-name="multiply" unicode="&#xd7;" horiz-adv-x="462" 
d="M230 202l-120 -121l-37 37l120 121l-120 120l37 37l120 -120l122 121l37 -37l-122 -121l122 -122l-37 -37z" />
    <glyph glyph-name="Oslash" unicode="&#xd8;" horiz-adv-x="763" 
d="M382 665c40 0 76.3359 -5.16895 109.003 -15.502s62 -25.166 88 -44.499l58 67l6 4h66l-2 -4l-88 -103c30 -30.667 52.667 -66.834 68 -108.501s23 -85.5 23 -131.5c0 -44 -7.16699 -86.5 -21.5 -127.5s-35.5 -77.167 -63.5 -108.5s-62.833 -56.5 -104.5 -75.5
s-89.834 -28.5 -144.501 -28.5c-42.667 0 -80.834 5.5 -114.501 16.5s-63.5 26.833 -89.5 47.5l-59 -68l-5 -4h-67l2 4l91 105c-26 30.667 -45.667 65.834 -59 105.501s-20 81.834 -20 126.501c0 47.333 7.5 91.833 22.5 133.5s36.5 78 64.5 109s62.167 55.5 102.5 73.5
s86.166 27 137.499 27zM381.003 41.998c40 0 75.5 7.5 106.5 22.5s57.333 35.5 79 61.5s38 56.333 49 91s16.5 71.667 16.5 111c0 37.333 -5 72 -15 104s-24.667 60.333 -44 85l-356 -412c43.333 -42 98 -63 164 -63zM134.003 328.998
c0 -74 16.332 -135.002 48.999 -183.002l354 410c-21.333 17.333 -45.333 31 -72 41s-56 15 -88 15c-39.333 0 -74.166 -7.16699 -104.499 -21.5s-55.833 -34.166 -76.5 -59.499s-36.167 -55.166 -46.5 -89.499s-15.5 -71.833 -15.5 -112.5z" />
    <glyph glyph-name="Ugrave" unicode="&#xd9;" horiz-adv-x="723" 
d="M448 718l-201 77.001c-2.66699 6 -4 12.333 -4 19c0 9.33301 3 17.166 9 23.499s14.667 9.83301 26 10.5l181 -100l2 -7l-5 -20zM697 656.001l-3.00098 -17.999l-4 -4c-10.667 0 -20.834 -0.5 -30.501 -1.5s-17.5 -3.83301 -23.5 -8.5
c-5.33301 -4.66699 -10.333 -10.667 -15 -18s-7.66699 -20.333 -9 -39c-0.666992 -8 -1.16699 -16 -1.5 -24s-0.666016 -17.667 -0.999023 -29s-0.5 -25 -0.5 -41v-59v-192c0 -32.667 -4.83301 -63.167 -14.5 -91.5s-24.5 -53 -44.5 -74s-45.167 -37.5 -75.5 -49.5
s-65.833 -18 -106.5 -18c-46.667 0 -86.167 6 -118.5 18s-58.5 28.5 -78.5 49.5s-34.5 45.667 -43.5 74s-13.5 58.833 -13.5 91.5v192v59v41c0 11.333 -0.166992 21 -0.5 29s-0.833008 16 -1.5 24c-1.33301 18 -4.5 30.833 -9.5 38.5s-10.167 13.834 -15.5 18.501
c-6 4.66699 -13.667 7.5 -23 8.5s-19.333 1.5 -30 1.5l-5 4l-3 18l2 4c4.66699 0 12.334 -0.333008 23.001 -1l33 -2l33 -2c10.667 -0.666992 18.334 -1 23.001 -1h19c4.66699 0 12.334 0.333008 23.001 1l33 2l33 2c10.667 0.666992 18.334 1 23.001 1l2 -4l-3 -18l-4 -4
c-10.667 0 -20.834 -0.5 -30.501 -1.5s-17.5 -3.83301 -23.5 -8.5c-5.33301 -4.66699 -10.333 -10.667 -15 -18s-7.66699 -20.333 -9 -39c-0.666992 -9.33301 -1.16699 -18 -1.5 -26s-0.666016 -17.333 -0.999023 -28s-0.5 -23.667 -0.5 -39v-59v-165
c0 -72 16.167 -123.667 48.5 -155s77.166 -47 134.499 -47s102.333 15.667 135 47s49 83 49 155v165v59c0 15.333 -0.166992 28.333 -0.5 39s-0.666016 20 -0.999023 28s-0.833008 16.667 -1.5 26c-1.33301 18.667 -4.5 31.667 -9.5 39s-10.167 13.333 -15.5 18
s-12.833 7.5 -22.5 8.5s-19.834 1.5 -30.501 1.5l-5 4l-3 18l2 4c4.66699 0 11.667 -0.333008 21 -1s19.166 -1.33398 29.499 -2.00098s20.166 -1.33398 29.499 -2.00098s16.333 -1 21 -1h22c4.66699 0 12 0.333008 22 1l31.5 2l31.5 2c10 0.666992 17.333 1 22 1z" />
    <glyph glyph-name="Uacute" unicode="&#xda;" horiz-adv-x="723" 
d="M277 721l-6 19.999l3 7l181 100c11.333 -0.666992 20 -4.16699 26 -10.5s9 -14.166 9 -23.499c0 -6.66699 -1.33301 -13 -4 -19l-201 -77zM697 655.999l-3.00098 -17.999l-4 -4c-10.667 0 -20.834 -0.5 -30.501 -1.5s-17.5 -3.83301 -23.5 -8.5
c-5.33301 -4.66699 -10.333 -10.667 -15 -18s-7.66699 -20.333 -9 -39c-0.666992 -8 -1.16699 -16 -1.5 -24s-0.666016 -17.667 -0.999023 -29s-0.5 -25 -0.5 -41v-59v-192c0 -32.667 -4.83301 -63.167 -14.5 -91.5s-24.5 -53 -44.5 -74s-45.167 -37.5 -75.5 -49.5
s-65.833 -18 -106.5 -18c-46.667 0 -86.167 6 -118.5 18s-58.5 28.5 -78.5 49.5s-34.5 45.667 -43.5 74s-13.5 58.833 -13.5 91.5v192v59v41c0 11.333 -0.166992 21 -0.5 29s-0.833008 16 -1.5 24c-1.33301 18 -4.5 30.833 -9.5 38.5s-10.167 13.834 -15.5 18.501
c-6 4.66699 -13.667 7.5 -23 8.5s-19.333 1.5 -30 1.5l-5 4l-3 18l2 4c4.66699 0 12.334 -0.333008 23.001 -1l33 -2l33 -2c10.667 -0.666992 18.334 -1 23.001 -1h19c4.66699 0 12.334 0.333008 23.001 1l33 2l33 2c10.667 0.666992 18.334 1 23.001 1l2 -4l-3 -18l-4 -4
c-10.667 0 -20.834 -0.5 -30.501 -1.5s-17.5 -3.83301 -23.5 -8.5c-5.33301 -4.66699 -10.333 -10.667 -15 -18s-7.66699 -20.333 -9 -39c-0.666992 -9.33301 -1.16699 -18 -1.5 -26s-0.666016 -17.333 -0.999023 -28s-0.5 -23.667 -0.5 -39v-59v-165
c0 -72 16.167 -123.667 48.5 -155s77.166 -47 134.499 -47s102.333 15.667 135 47s49 83 49 155v165v59c0 15.333 -0.166992 28.333 -0.5 39s-0.666016 20 -0.999023 28s-0.833008 16.667 -1.5 26c-1.33301 18.667 -4.5 31.667 -9.5 39s-10.167 13.333 -15.5 18
s-12.833 7.5 -22.5 8.5s-19.834 1.5 -30.501 1.5l-5 4l-3 18l2 4c4.66699 0 11.667 -0.333008 21 -1s19.166 -1.33398 29.499 -2.00098s20.166 -1.33398 29.499 -2.00098s16.333 -1 21 -1h22c4.66699 0 12 0.333008 22 1l31.5 2l31.5 2c10 0.666992 17.333 1 22 1z" />
    <glyph glyph-name="Ucircumflex" unicode="&#xdb;" horiz-adv-x="723" 
d="M697 656l-3.00098 -17.999l-4 -4c-10.667 0 -20.834 -0.5 -30.501 -1.5s-17.5 -3.83301 -23.5 -8.5c-5.33301 -4.66699 -10.333 -10.667 -15 -18s-7.66699 -20.333 -9 -39c-0.666992 -8 -1.16699 -16 -1.5 -24s-0.666016 -17.667 -0.999023 -29s-0.5 -25 -0.5 -41v-59
v-192c0 -32.667 -4.83301 -63.167 -14.5 -91.5s-24.5 -53 -44.5 -74s-45.167 -37.5 -75.5 -49.5s-65.833 -18 -106.5 -18c-46.667 0 -86.167 6 -118.5 18s-58.5 28.5 -78.5 49.5s-34.5 45.667 -43.5 74s-13.5 58.833 -13.5 91.5v192v59v41c0 11.333 -0.166992 21 -0.5 29
s-0.833008 16 -1.5 24c-1.33301 18 -4.5 30.833 -9.5 38.5s-10.167 13.834 -15.5 18.501c-6 4.66699 -13.667 7.5 -23 8.5s-19.333 1.5 -30 1.5l-5 4l-3 18l2 4c4.66699 0 12.334 -0.333008 23.001 -1l33 -2l33 -2c10.667 -0.666992 18.334 -1 23.001 -1h19
c4.66699 0 12.334 0.333008 23.001 1l33 2l33 2c10.667 0.666992 18.334 1 23.001 1l2 -4l-3 -18l-4 -4c-10.667 0 -20.834 -0.5 -30.501 -1.5s-17.5 -3.83301 -23.5 -8.5c-5.33301 -4.66699 -10.333 -10.667 -15 -18s-7.66699 -20.333 -9 -39
c-0.666992 -9.33301 -1.16699 -18 -1.5 -26s-0.666016 -17.333 -0.999023 -28s-0.5 -23.667 -0.5 -39v-59v-165c0 -72 16.167 -123.667 48.5 -155s77.166 -47 134.499 -47s102.333 15.667 135 47s49 83 49 155v165v59c0 15.333 -0.166992 28.333 -0.5 39
s-0.666016 20 -0.999023 28s-0.833008 16.667 -1.5 26c-1.33301 18.667 -4.5 31.667 -9.5 39s-10.167 13.333 -15.5 18s-12.833 7.5 -22.5 8.5s-19.834 1.5 -30.501 1.5l-5 4l-3 18l2 4c4.66699 0 11.667 -0.333008 21 -1s19.166 -1.33398 29.499 -2.00098
s20.166 -1.33398 29.499 -2.00098s16.333 -1 21 -1h22c4.66699 0 12 0.333008 22 1l31.5 2l31.5 2c10 0.666992 17.333 1 22 1zM365.999 842.001l111 -99l2 -7l-5 -20l-8 -3l-103 62l-104 -62l-8 3l-5 20l2 7l111 99h7z" />
    <glyph glyph-name="Udieresis" unicode="&#xdc;" horiz-adv-x="723" 
d="M697 656l-3.00098 -17.999l-4 -4c-10.667 0 -20.834 -0.5 -30.501 -1.5s-17.5 -3.83301 -23.5 -8.5c-5.33301 -4.66699 -10.333 -10.667 -15 -18s-7.66699 -20.333 -9 -39c-0.666992 -8 -1.16699 -16 -1.5 -24s-0.666016 -17.667 -0.999023 -29s-0.5 -25 -0.5 -41v-59
v-192c0 -32.667 -4.83301 -63.167 -14.5 -91.5s-24.5 -53 -44.5 -74s-45.167 -37.5 -75.5 -49.5s-65.833 -18 -106.5 -18c-46.667 0 -86.167 6 -118.5 18s-58.5 28.5 -78.5 49.5s-34.5 45.667 -43.5 74s-13.5 58.833 -13.5 91.5v192v59v41c0 11.333 -0.166992 21 -0.5 29
s-0.833008 16 -1.5 24c-1.33301 18 -4.5 30.833 -9.5 38.5s-10.167 13.834 -15.5 18.501c-6 4.66699 -13.667 7.5 -23 8.5s-19.333 1.5 -30 1.5l-5 4l-3 18l2 4c4.66699 0 12.334 -0.333008 23.001 -1l33 -2l33 -2c10.667 -0.666992 18.334 -1 23.001 -1h19
c4.66699 0 12.334 0.333008 23.001 1l33 2l33 2c10.667 0.666992 18.334 1 23.001 1l2 -4l-3 -18l-4 -4c-10.667 0 -20.834 -0.5 -30.501 -1.5s-17.5 -3.83301 -23.5 -8.5c-5.33301 -4.66699 -10.333 -10.667 -15 -18s-7.66699 -20.333 -9 -39
c-0.666992 -9.33301 -1.16699 -18 -1.5 -26s-0.666016 -17.333 -0.999023 -28s-0.5 -23.667 -0.5 -39v-59v-165c0 -72 16.167 -123.667 48.5 -155s77.166 -47 134.499 -47s102.333 15.667 135 47s49 83 49 155v165v59c0 15.333 -0.166992 28.333 -0.5 39
s-0.666016 20 -0.999023 28s-0.833008 16.667 -1.5 26c-1.33301 18.667 -4.5 31.667 -9.5 39s-10.167 13.333 -15.5 18s-12.833 7.5 -22.5 8.5s-19.834 1.5 -30.501 1.5l-5 4l-3 18l2 4c4.66699 0 11.667 -0.333008 21 -1s19.166 -1.33398 29.499 -2.00098
s20.166 -1.33398 29.499 -2.00098s16.333 -1 21 -1h22c4.66699 0 12 0.333008 22 1l31.5 2l31.5 2c10 0.666992 17.333 1 22 1zM257.999 794.001c0 12 4 22.5 12 31.5s17.667 13.5 29 13.5s21.166 -4.5 29.499 -13.5s12.5 -19.5 12.5 -31.5
c0 -12.667 -4.16699 -23.167 -12.5 -31.5s-18.166 -12.5 -29.499 -12.5s-21 4.16699 -29 12.5s-12 18.833 -12 31.5zM414.999 794.001c0 12 4 22.5 12 31.5s17.667 13.5 29 13.5s21.166 -4.5 29.499 -13.5s12.5 -19.5 12.5 -31.5c0 -12.667 -4.16699 -23.167 -12.5 -31.5
s-18.166 -12.5 -29.499 -12.5s-21 4.16699 -29 12.5s-12 18.833 -12 31.5z" />
    <glyph glyph-name="Yacute" unicode="&#xdd;" horiz-adv-x="612" 
d="M428 -6c-4.66699 0 -12.333 0.334961 -23 1.00195l-33 2l-33 2c-10.667 0.666992 -18.334 1 -23.001 1h-19c-4.66699 0 -12.334 -0.333008 -23.001 -1l-33.5 -2l-33.5 -2c-10.667 -0.666992 -18.334 -1 -23.001 -1l-1 4l2 18l5 4c10.667 0 20.834 0.5 30.501 1.5
s17.167 3.83301 22.5 8.5s10.5 10.667 15.5 18s8.16699 20.333 9.5 39c0.666992 4.66699 1.16699 10.167 1.5 16.5s0.666016 14.166 0.999023 23.499s0.5 20.666 0.5 33.999v50v39c0 18.667 -2.66699 33.834 -8 45.501s-10.666 22.167 -15.999 31.5l-33.5 58l-38.5 64
l-41 65.5l-40 62.5c-4.66699 7.33301 -10 14.5 -16 21.5s-11.333 12.5 -16 16.5c-7.33301 6 -16.166 10.333 -26.499 13s-22.166 4.66699 -35.499 6l-8 4v18l5 4l45 -5.5c14 -1.66699 28.667 -2.5 44 -2.5h42c15.333 0 33.166 0.833008 53.499 2.5s39.833 3.5 58.5 5.5l4 -4
v-18l-4 -4c-13.333 -0.666992 -25 -1.83398 -35 -3.50098s-18 -4.5 -24 -8.5c-8 -6 -12 -11.667 -12 -17c0 -3.33301 1.16699 -7.33301 3.5 -12s4.5 -8.66699 6.5 -12l68 -125l70 -124l36.5 64.5l37.5 69l31.5 60.5c9 18 15.167 30.667 18.5 38
c1.33301 3.33301 3.33301 8.66602 6 15.999s4 13.666 4 18.999c0 8 -2.33301 14 -7 18s-10.5 7 -17.5 9s-14.667 3.33301 -23 4s-16.166 2 -23.499 4l-4 4v18l4 4c19.333 -3.33301 35.5 -5.16602 48.5 -5.49902s27.5 -0.5 43.5 -0.5h58c16 0 30.667 0.333008 44 1
s29.333 2.33398 48 5.00098l4 -4v-18l-4 -4c-15.333 -2 -28.333 -4.66699 -39 -8s-20.5 -7.83301 -29.5 -13.5s-17.5 -13.167 -25.5 -22.5s-17 -21.333 -27 -36l-50.5 -78l-38.5 -62.5l-30.5 -52.5l-26.5 -47c-2.66699 -4 -5.66699 -10.833 -9 -20.5s-5 -19.5 -5 -29.5v-35
v-58c0 -14.667 0.166992 -27 0.5 -37s0.666016 -18.333 0.999023 -25s0.833008 -14 1.5 -22c1.33301 -18.667 4.5 -31.667 9.5 -39s10.167 -13.333 15.5 -18s12.833 -7.5 22.5 -8.5s19.834 -1.5 30.501 -1.5l5 -4l3 -18zM242.001 721.002l-5 19.999l3 7l180 100
c11.333 -0.666992 20 -4.16699 26 -10.5s9 -14.166 9 -23.499c0 -6 -1 -12.333 -3 -19l-202 -77z" />
    <glyph glyph-name="Thorn" unicode="&#xde;" horiz-adv-x="537" 
d="M202 524l52.002 -0.000976562c44.667 0 82.5 -4.33301 113.5 -13s56.167 -21 75.5 -37s33.5 -35 42.5 -57s13.5 -46.333 13.5 -73c0 -38.667 -8 -70.5 -24 -95.5s-36.5 -44.667 -61.5 -59s-53 -24.166 -84 -29.499s-61.167 -8 -90.5 -8h-37
c0 -15.333 0.166992 -27.666 0.5 -36.999s1.16602 -18.666 2.49902 -27.999c1.33301 -18.667 4.33301 -31.667 9 -39s9.66699 -13.333 15 -18c6 -4.66699 13.833 -7.5 23.5 -8.5s19.834 -1.5 30.501 -1.5l4 -4l3 -18l-2 -4c-4.66699 0 -12.334 0.333008 -23.001 1l-33 2
l-33 2c-10.667 0.666992 -18.334 1 -23.001 1h-19c-4.66699 0 -12.334 -0.333008 -23.001 -1l-33 -2l-33 -2c-10.667 -0.666992 -18.334 -1 -23.001 -1l-2 4l3 18l5 4c10.667 0 20.667 0.5 30 1.5s17 3.83301 23 8.5c5.33301 4.66699 10.5 10.667 15.5 18
s8.16699 20.333 9.5 39c0 4.66699 0.166992 10.167 0.5 16.5s0.666016 14.166 0.999023 23.499s0.5 20.666 0.5 33.999v50v203v59v41c0 11.333 -0.166992 21 -0.5 29s-0.833008 16 -1.5 24c-1.33301 17.333 -4.5 30 -9.5 38s-10.167 14.333 -15.5 19
c-6 4.66699 -13.667 7.5 -23 8.5s-19.333 1.5 -30 1.5l-5 4l-3 18l2 4c4.66699 0 12.334 -0.333008 23.001 -1l33 -2l33 -2c10.667 -0.666992 18.334 -1 23.001 -1h19c4.66699 0 12.334 0.333008 23.001 1l33 2l33 2c10.667 0.666992 18.334 1 23.001 1l2 -4l-3 -18l-4 -4
c-10.667 0 -20.834 -0.5 -30.501 -1.5s-17.5 -3.83301 -23.5 -8.5c-10 -8.66699 -17 -18.167 -21 -28.5s-6 -22.5 -6 -36.5v-35zM202.002 475.999v-280h72c56 0 96 12.667 120 38s36 60.333 36 105c0 91.333 -51.667 137 -155 137h-73z" />
    </font>
</defs>
</svg>
